<?xml version="1.0" encoding="utf-8" standalone="no"?>
<!DOCTYPE svg PUBLIC "-//W3C//DTD SVG 1.1//EN"
  "http://www.w3.org/Graphics/SVG/1.1/DTD/svg11.dtd">
<svg xmlns:xlink="http://www.w3.org/1999/xlink" width="568.8pt" height="712.8pt" viewBox="0 0 568.8 712.8" xmlns="http://www.w3.org/2000/svg" version="1.1">
 <metadata>
  <rdf:RDF xmlns:dc="http://purl.org/dc/elements/1.1/" xmlns:cc="http://creativecommons.org/ns#" xmlns:rdf="http://www.w3.org/1999/02/22-rdf-syntax-ns#">
   <cc:Work>
    <dc:type rdf:resource="http://purl.org/dc/dcmitype/StillImage"/>
    <dc:date>2026-05-09T14:18:02.323212</dc:date>
    <dc:format>image/svg+xml</dc:format>
    <dc:creator>
     <cc:Agent>
      <dc:title>Matplotlib v3.10.8, https://matplotlib.org/</dc:title>
     </cc:Agent>
    </dc:creator>
   </cc:Work>
  </rdf:RDF>
 </metadata>
 <defs>
  <style type="text/css">*{stroke-linejoin: round; stroke-linecap: butt}</style>
 </defs>
 <g id="figure_1">
  <g id="patch_1">
   <path d="M 0 712.8 
L 568.8 712.8 
L 568.8 0 
L 0 0 
z
" style="fill: #ffffff"/>
  </g>
  <g id="axes_1">
   <g id="patch_2">
    <path d="M 194.31 135.3564 
L 374.49 135.3564 
Q 378.648 135.3564 378.648 131.166 
L 378.648 92.754 
Q 378.648 88.5636 374.49 88.5636 
L 194.31 88.5636 
Q 190.152 88.5636 190.152 92.754 
L 190.152 131.166 
Q 190.152 135.3564 194.31 135.3564 
z
" clip-path="url(#p983191aa8e)" style="fill: #eceff1; stroke: #455a64; stroke-width: 1.8; stroke-linejoin: miter"/>
   </g>
   <g id="patch_3">
    <path d="M 194.31 240.1164 
L 374.49 240.1164 
Q 378.648 240.1164 378.648 235.926 
L 378.648 197.514 
Q 378.648 193.3236 374.49 193.3236 
L 194.31 193.3236 
Q 190.152 193.3236 190.152 197.514 
L 190.152 235.926 
Q 190.152 240.1164 194.31 240.1164 
z
" clip-path="url(#p983191aa8e)" style="fill: #e3f2fd; stroke: #1565c0; stroke-width: 1.8; stroke-linejoin: miter"/>
   </g>
   <g id="patch_4">
    <path d="M 194.31 309.9564 
L 374.49 309.9564 
Q 378.648 309.9564 378.648 305.766 
L 378.648 267.354 
Q 378.648 263.1636 374.49 263.1636 
L 194.31 263.1636 
Q 190.152 263.1636 190.152 267.354 
L 190.152 305.766 
Q 190.152 309.9564 194.31 309.9564 
z
" clip-path="url(#p983191aa8e)" style="fill: #e3f2fd; stroke: #1565c0; stroke-width: 1.8; stroke-linejoin: miter"/>
   </g>
   <g id="patch_5">
    <path d="M 194.31 379.7964 
L 374.49 379.7964 
Q 378.648 379.7964 378.648 375.606 
L 378.648 337.194 
Q 378.648 333.0036 374.49 333.0036 
L 194.31 333.0036 
Q 190.152 333.0036 190.152 337.194 
L 190.152 375.606 
Q 190.152 379.7964 194.31 379.7964 
z
" clip-path="url(#p983191aa8e)" style="fill: #e3f2fd; stroke: #1565c0; stroke-width: 1.8; stroke-linejoin: miter"/>
   </g>
   <g id="patch_6">
    <path d="M 194.31 463.6044 
L 374.49 463.6044 
Q 378.648 463.6044 378.648 459.414 
L 378.648 421.002 
Q 378.648 416.8116 374.49 416.8116 
L 194.31 416.8116 
Q 190.152 416.8116 190.152 421.002 
L 190.152 459.414 
Q 190.152 463.6044 194.31 463.6044 
z
" clip-path="url(#p983191aa8e)" style="fill: #e8f5e9; stroke: #2e7d32; stroke-width: 1.8; stroke-linejoin: miter"/>
   </g>
   <g id="patch_7">
    <path d="M 194.31 554.3964 
L 374.49 554.3964 
Q 378.648 554.3964 378.648 550.206 
L 378.648 511.794 
Q 378.648 507.6036 374.49 507.6036 
L 194.31 507.6036 
Q 190.152 507.6036 190.152 511.794 
L 190.152 550.206 
Q 190.152 554.3964 194.31 554.3964 
z
" clip-path="url(#p983191aa8e)" style="fill: #e8f5e9; stroke: #2e7d32; stroke-width: 1.8; stroke-linejoin: miter"/>
   </g>
   <g id="patch_8">
    <path d="M 194.31 638.2044 
L 374.49 638.2044 
Q 378.648 638.2044 378.648 634.014 
L 378.648 595.602 
Q 378.648 591.4116 374.49 591.4116 
L 194.31 591.4116 
Q 190.152 591.4116 190.152 595.602 
L 190.152 634.014 
Q 190.152 638.2044 194.31 638.2044 
z
" clip-path="url(#p983191aa8e)" style="fill: #eceff1; stroke: #455a64; stroke-width: 1.8; stroke-linejoin: miter"/>
   </g>
   <g id="text_1">
    <!-- ResNet 残差连接示意图 -->
    <g style="fill: #1a1a2e" transform="translate(199.4075 40.43975) scale(0.16 -0.16)">
     <defs>
      <path id="STHeiti-52" d="M 582 4979 
L 1498 4979 
Q 2266 4979 2547 4912 
Q 2829 4845 3030 4691 
Q 3232 4538 3347 4294 
Q 3462 4051 3462 3757 
Q 3462 3168 3046 2832 
Q 2630 2496 1869 2522 
L 3526 384 
L 2957 384 
L 1306 2522 
L 1043 2522 
L 1043 384 
L 582 384 
L 582 4979 
z
M 1043 4531 
L 1043 2970 
L 1837 2970 
Q 2426 2963 2704 3152 
Q 2982 3341 2982 3750 
Q 2982 4160 2707 4345 
Q 2432 4531 1856 4531 
L 1043 4531 
z
" transform="scale(0.015625)"/>
      <path id="STHeiti-65" d="M 3347 1485 
L 3718 1293 
Q 3168 269 2093 269 
Q 1325 269 825 797 
Q 326 1325 326 2067 
Q 326 2810 828 3341 
Q 1331 3872 2070 3872 
Q 2810 3872 3312 3379 
Q 3814 2886 3834 2035 
L 774 2035 
Q 794 1421 1162 1046 
Q 1530 672 2054 672 
Q 2918 672 3347 1485 
z
M 3347 2413 
Q 3258 2899 2899 3174 
Q 2541 3450 2074 3450 
Q 1114 3450 819 2413 
L 3347 2413 
z
" transform="scale(0.015625)"/>
      <path id="STHeiti-73" d="M 2195 3411 
L 1914 3123 
Q 1562 3462 1229 3462 
Q 1011 3462 864 3324 
Q 717 3187 717 2985 
Q 717 2784 873 2640 
Q 1030 2496 1414 2294 
Q 1798 2093 2000 1859 
Q 2202 1626 2202 1286 
Q 2202 858 1904 563 
Q 1606 269 1171 269 
Q 883 269 617 397 
Q 352 525 166 755 
L 442 1062 
Q 781 685 1152 685 
Q 1414 685 1600 857 
Q 1786 1030 1786 1264 
Q 1786 1498 1622 1648 
Q 1459 1798 1078 1990 
Q 698 2182 509 2409 
Q 320 2637 320 2998 
Q 320 3360 585 3616 
Q 851 3872 1289 3872 
Q 1728 3872 2195 3411 
z
" transform="scale(0.015625)"/>
      <path id="STHeiti-4e" d="M 563 384 
L 563 4979 
L 666 4979 
L 3718 1459 
L 3718 4979 
L 4173 4979 
L 4173 384 
L 4070 384 
L 1037 3859 
L 1037 384 
L 563 384 
z
" transform="scale(0.015625)"/>
      <path id="STHeiti-74" d="M 1312 922 
Q 1312 749 1357 717 
Q 1402 685 1587 685 
L 1850 685 
L 1850 314 
Q 1581 269 1427 269 
Q 1139 269 1004 409 
Q 870 550 870 851 
L 870 3411 
L 269 3411 
L 269 3782 
L 870 3782 
L 870 5094 
L 1312 5094 
L 1312 3782 
L 2003 3782 
L 2003 3411 
L 1312 3411 
L 1312 922 
z
" transform="scale(0.015625)"/>
      <path id="STHeiti-20" transform="scale(0.015625)"/>
      <path id="STHeiti-6b8b" d="M 4051 845 
Q 3782 1382 3680 1933 
Q 3078 1773 2752 1658 
L 2618 2176 
Q 2970 2221 3610 2362 
Q 3584 2547 3520 3136 
Q 3117 3040 2886 2963 
L 2778 3475 
Q 3066 3494 3482 3578 
L 3418 5229 
Q 3712 5171 4051 5171 
Q 4154 5171 4154 5132 
Q 4154 5094 4070 5014 
Q 3987 4934 3987 4346 
Q 3987 4090 4000 3680 
Q 4960 3872 5683 4051 
L 5798 3571 
Q 5402 3520 4019 3245 
Q 4038 2874 4090 2477 
Q 5165 2758 5824 2950 
L 5952 2458 
Q 5440 2362 4160 2054 
Q 4250 1574 4416 1158 
Q 4883 1600 5222 2112 
Q 5446 1888 5702 1811 
Q 5760 1792 5760 1747 
Q 5760 1702 5709 1696 
Q 5658 1690 5421 1494 
Q 5184 1299 5021 1110 
Q 4858 922 4653 723 
Q 4819 474 5056 272 
Q 5293 70 5379 70 
Q 5466 70 5517 220 
Q 5568 371 5626 678 
Q 5856 397 6112 326 
Q 6003 -128 5894 -358 
Q 5786 -589 5603 -589 
Q 5421 -589 5033 -352 
Q 4646 -115 4294 416 
Q 3622 -109 2758 -538 
Q 2586 -326 2278 -141 
Q 3123 115 4051 845 
z
M 5331 4378 
L 4781 4077 
Q 4646 4422 4390 4730 
L 4896 5037 
Q 5075 4685 5331 4378 
z
M 1773 1568 
Q 1926 1958 2035 2886 
L 1299 2886 
Q 1056 2003 653 1459 
Q 518 1728 288 1856 
Q 870 2560 998 4134 
Q 621 4115 384 4090 
L 384 4646 
Q 742 4595 1536 4595 
Q 2330 4595 2778 4627 
L 2778 4083 
Q 2266 4141 1549 4141 
Q 1510 3770 1408 3322 
L 2029 3322 
Q 2426 3322 2592 3347 
Q 2451 2170 2262 1555 
Q 2074 941 1654 355 
Q 1235 -230 710 -621 
Q 582 -397 307 -173 
Q 979 128 1530 1082 
Q 1120 1664 986 1786 
L 1376 2118 
L 1773 1568 
z
" transform="scale(0.015625)"/>
      <path id="STHeiti-5dee" d="M 2848 3898 
Q 1523 3898 755 3840 
L 755 4352 
Q 1434 4288 3571 4288 
Q 3866 4698 4013 5190 
Q 4378 5062 4640 5011 
Q 4717 4998 4717 4966 
Q 4717 4934 4627 4902 
Q 4480 4851 4038 4294 
Q 4947 4301 5562 4352 
L 5562 3840 
Q 4896 3898 3360 3898 
Q 3322 3686 3238 3392 
Q 4666 3392 5344 3450 
L 5344 2938 
Q 4614 2995 3104 2995 
Q 2989 2682 2848 2432 
Q 5152 2432 5869 2490 
L 5869 1971 
Q 5197 2022 2611 2022 
Q 2259 1466 1849 1030 
Q 1440 595 736 83 
Q 608 339 333 493 
Q 1523 1165 2086 2016 
Q 1126 2010 550 1971 
L 550 2490 
Q 1350 2445 2336 2438 
Q 2483 2701 2598 2995 
Q 1651 2989 1056 2938 
L 1056 3450 
Q 1715 3398 2739 3392 
Q 2810 3648 2848 3898 
z
M 2765 4544 
L 2227 4333 
Q 2099 4614 1850 4896 
L 2394 5165 
Q 2528 4883 2765 4544 
z
M 3814 1075 
L 3814 115 
Q 5043 115 5747 173 
L 5747 -365 
Q 4979 -307 3587 -307 
Q 2195 -307 1427 -365 
L 1427 173 
Q 2144 122 3315 115 
L 3315 1069 
Q 2752 1069 2291 1018 
L 2291 1478 
L 3776 1478 
Q 4723 1478 5267 1536 
L 5267 1018 
Q 4730 1075 3814 1075 
z
" transform="scale(0.015625)"/>
      <path id="STHeiti-8fde" d="M 3450 3891 
L 2829 2758 
L 3795 2758 
Q 3795 3450 3757 3635 
Q 3923 3597 4012 3590 
Q 4102 3584 4365 3584 
Q 4461 3584 4461 3549 
Q 4461 3514 4397 3472 
Q 4333 3430 4313 3344 
Q 4294 3258 4294 3066 
L 4294 2758 
Q 5338 2758 5619 2797 
L 5619 2310 
Q 5286 2336 4294 2336 
L 4294 1536 
Q 5267 1542 5818 1581 
L 5818 1075 
Q 5267 1114 4294 1120 
Q 4294 742 4314 198 
L 3744 198 
Q 3795 723 3795 1120 
Q 2573 1120 1939 1075 
L 1939 1581 
Q 2586 1536 3795 1536 
L 3795 2336 
Q 2797 2317 2227 2234 
Q 2214 2515 2106 2739 
Q 2304 2758 2473 3024 
Q 2643 3290 2944 3885 
Q 2368 3878 1939 3846 
L 1939 4352 
Q 2445 4320 3155 4314 
Q 3418 4838 3488 5171 
Q 3814 5005 4070 4960 
Q 4141 4947 4141 4918 
Q 4141 4890 4083 4858 
Q 3968 4787 3680 4307 
L 4256 4307 
Q 5216 4307 5875 4352 
L 5875 3846 
Q 5216 3891 4256 3891 
L 3450 3891 
z
M 1664 3776 
L 1018 3629 
Q 973 4282 717 4800 
L 1312 4947 
Q 1510 4422 1664 3776 
z
M 1024 474 
L 1024 2464 
Q 557 2464 371 2438 
L 371 2982 
Q 640 2950 985 2950 
Q 1331 2950 1600 2982 
Q 1542 2528 1542 2214 
L 1542 493 
Q 2042 358 2381 163 
Q 2720 -32 3837 -32 
Q 4954 -32 6131 134 
Q 5939 -230 5920 -525 
Q 4947 -538 4313 -538 
Q 3680 -538 3264 -506 
Q 2848 -474 2569 -397 
Q 2291 -320 1920 -160 
Q 1549 0 1385 0 
Q 1222 0 1129 -54 
Q 1037 -109 889 -281 
Q 742 -454 659 -614 
Q 461 -429 160 -243 
Q 653 269 1024 474 
z
" transform="scale(0.015625)"/>
      <path id="STHeiti-63a5" d="M 3987 4531 
Q 3917 4864 3834 5094 
L 4422 5229 
Q 4486 4883 4582 4531 
Q 5549 4531 5875 4576 
L 5875 4038 
Q 5549 4090 4201 4090 
Q 2854 4090 2528 4038 
L 2528 4576 
Q 2874 4531 3987 4531 
z
M 1171 2189 
L 1171 3456 
Q 685 3456 365 3424 
L 365 3949 
Q 717 3910 1171 3904 
Q 1171 4832 1133 5101 
Q 1357 5050 1741 5050 
Q 1869 5050 1869 5008 
Q 1869 4966 1769 4886 
Q 1670 4806 1670 4653 
L 1670 3910 
Q 2093 3923 2330 3949 
L 2330 3424 
Q 2163 3443 1670 3456 
L 1670 2438 
Q 1978 2592 2189 2733 
Q 2208 2496 2285 2253 
Q 2054 2131 1670 1920 
L 1670 147 
Q 1670 -211 1603 -313 
Q 1536 -416 1389 -470 
Q 1242 -525 742 -602 
Q 717 -294 557 6 
Q 730 -6 826 -6 
Q 1056 -6 1113 61 
Q 1171 128 1171 346 
L 1171 1632 
Q 781 1414 474 1229 
Q 403 1594 269 1856 
Q 685 1978 1171 2189 
z
M 4282 2963 
Q 4557 3526 4640 3987 
Q 4934 3827 5222 3776 
Q 5261 3770 5261 3750 
Q 5261 3731 5235 3712 
Q 5056 3578 4749 2963 
Q 5459 2963 5907 3008 
L 5907 2496 
Q 5510 2541 4150 2541 
Q 2790 2541 2490 2496 
L 2490 3008 
Q 2938 2963 3674 2963 
L 4282 2963 
z
M 3866 3315 
L 3341 3053 
Q 3213 3379 3053 3622 
L 3533 3878 
Q 3654 3603 3866 3315 
z
M 4595 461 
Q 5325 134 5875 -134 
Q 5651 -371 5504 -634 
Q 4998 -250 4243 134 
Q 3558 -390 2368 -557 
Q 2246 -320 2042 -109 
Q 3130 -26 3763 365 
Q 3264 602 2778 755 
Q 3014 1056 3194 1459 
Q 2650 1453 2234 1414 
L 2234 1939 
Q 2650 1894 3405 1894 
Q 3584 2278 3603 2464 
Q 3891 2336 4102 2310 
Q 4192 2298 4192 2256 
Q 4192 2214 4109 2157 
Q 4064 2118 3936 1894 
L 4806 1894 
Q 5715 1894 6054 1939 
L 6054 1414 
Q 5747 1453 5146 1459 
Q 4973 870 4595 461 
z
M 3699 1459 
L 3424 947 
Q 3706 845 4134 659 
Q 4467 979 4614 1459 
L 3699 1459 
z
" transform="scale(0.015625)"/>
      <path id="STHeiti-793a" d="M 5312 4205 
Q 4640 4250 3264 4250 
Q 1888 4250 1203 4205 
L 1203 4813 
Q 1907 4768 3273 4768 
Q 4640 4768 5312 4813 
L 5312 4205 
z
M 2995 2726 
Q 1286 2726 435 2682 
L 435 3277 
Q 1344 3232 3203 3232 
Q 5062 3232 5965 3277 
L 5965 2682 
Q 4934 2726 3578 2726 
L 3578 32 
Q 3578 -179 3501 -291 
Q 3424 -403 3174 -483 
Q 2925 -563 2374 -653 
Q 2330 -250 2080 77 
Q 2355 26 2554 26 
Q 2995 26 2995 269 
L 2995 2726 
z
M 1690 2163 
Q 1952 1958 2330 1843 
Q 2406 1818 2406 1779 
Q 2406 1741 2266 1702 
Q 2170 1670 1952 1331 
Q 1824 1152 1523 761 
Q 1222 371 941 38 
Q 749 262 365 333 
Q 742 634 1104 1139 
Q 1466 1645 1690 2163 
z
M 6035 397 
L 5491 6 
Q 4941 877 4154 1722 
L 4627 2022 
Q 5446 1222 6035 397 
z
" transform="scale(0.015625)"/>
      <path id="STHeiti-610f" d="M 2970 4723 
Q 2906 4992 2803 5197 
L 3469 5306 
Q 3597 4794 3622 4723 
Q 4851 4730 5536 4768 
L 5536 4288 
Q 4627 4339 3177 4339 
Q 1728 4339 819 4288 
L 819 4768 
Q 1510 4723 2970 4723 
z
M 2150 3731 
Q 2067 3910 1888 4096 
L 2522 4275 
Q 2618 4058 2758 3878 
Q 2413 3789 2259 3731 
L 3725 3731 
Q 3917 4013 3994 4275 
Q 4326 4186 4685 4134 
Q 4749 4122 4749 4109 
Q 4749 4096 4704 4083 
Q 4493 4019 4288 3731 
Q 5248 3731 5888 3770 
L 5888 3290 
Q 5274 3341 3261 3341 
Q 1248 3341 557 3290 
L 557 3770 
Q 1133 3731 2150 3731 
z
M 5178 1069 
Q 4774 1101 3248 1101 
Q 1722 1101 1325 1069 
Q 1382 1229 1382 1510 
L 1382 2541 
Q 1382 2829 1325 2989 
Q 1722 2957 3248 2957 
Q 4774 2957 5178 2989 
Q 5114 2842 5114 2541 
L 5114 1510 
Q 5114 1216 5178 1069 
z
M 4634 2208 
L 4634 2566 
L 1862 2566 
L 1862 2208 
L 4634 2208 
z
M 1862 1830 
L 1862 1485 
L 4634 1485 
L 4634 1830 
L 1862 1830 
z
M 3846 461 
L 3226 256 
Q 3130 602 2906 890 
L 3494 1056 
Q 3757 582 3846 461 
z
M 6048 134 
L 5542 -224 
Q 5216 314 4851 666 
L 5293 909 
L 6048 134 
z
M 4902 339 
Q 4678 -294 4444 -390 
Q 4211 -486 2957 -486 
Q 2349 -486 2211 -451 
Q 2074 -416 2006 -374 
Q 1939 -333 1939 -70 
L 1939 461 
Q 1939 672 1901 838 
Q 2086 781 2195 768 
Q 2304 755 2435 755 
Q 2566 755 2566 732 
Q 2566 710 2499 665 
Q 2432 621 2432 525 
L 2432 282 
Q 2432 154 2464 77 
Q 2496 0 2573 -35 
Q 2650 -70 3002 -70 
Q 3354 -70 3696 -41 
Q 4038 -13 4124 22 
Q 4211 58 4256 173 
Q 4301 288 4339 582 
Q 4550 378 4902 339 
z
M 1568 621 
Q 1318 38 1056 -435 
L 518 -218 
Q 877 192 998 768 
L 1568 621 
z
" transform="scale(0.015625)"/>
      <path id="STHeiti-56fe" d="M 1299 -237 
L 1299 -538 
L 742 -538 
Q 794 26 794 518 
L 794 4134 
Q 794 4640 755 4934 
Q 1094 4864 3180 4864 
Q 5267 4864 5722 4934 
Q 5677 4602 5677 4134 
L 5677 563 
Q 5677 51 5728 -493 
L 5146 -493 
L 5146 -237 
L 1299 -237 
z
M 5146 186 
L 5146 4422 
L 1299 4422 
L 1299 186 
L 5146 186 
z
M 3328 2342 
Q 2560 1824 1734 1651 
Q 1619 1875 1466 2093 
Q 2323 2157 3002 2586 
Q 2669 2867 2477 3168 
Q 2195 2810 2067 2669 
Q 1901 2797 1645 2912 
Q 2362 3456 2733 4333 
Q 2957 4205 3126 4179 
Q 3296 4154 3296 4118 
Q 3296 4083 3209 4032 
Q 3123 3981 2989 3846 
L 4621 3846 
Q 4230 3072 3654 2598 
Q 4237 2304 5069 2208 
Q 4858 1952 4768 1677 
Q 3974 1907 3328 2342 
z
M 3309 2810 
Q 3661 3110 3904 3475 
L 2701 3475 
Q 2701 3469 2688 3456 
Q 2675 3443 2675 3437 
Q 2938 3072 3309 2810 
z
M 4064 1581 
L 3872 1184 
Q 3424 1395 2739 1613 
L 2938 1939 
Q 3443 1824 4064 1581 
z
M 4147 678 
L 3885 275 
Q 3130 666 2298 864 
L 2502 1242 
Q 3501 979 4147 678 
z
" transform="scale(0.015625)"/>
     </defs>
     <use xlink:href="#STHeiti-52"/>
     <use xlink:href="#STHeiti-65" transform="translate(60.699997 0)"/>
     <use xlink:href="#STHeiti-73" transform="translate(125.699982 0)"/>
     <use xlink:href="#STHeiti-4e" transform="translate(164.499969 0)"/>
     <use xlink:href="#STHeiti-65" transform="translate(238.499954 0)"/>
     <use xlink:href="#STHeiti-74" transform="translate(303.499939 0)"/>
     <use xlink:href="#STHeiti-20" transform="translate(337.399933 0)"/>
     <use xlink:href="#STHeiti-6b8b" transform="translate(362.399918 0)"/>
     <use xlink:href="#STHeiti-5dee" transform="translate(462.399902 0)"/>
     <use xlink:href="#STHeiti-8fde" transform="translate(562.399887 0)"/>
     <use xlink:href="#STHeiti-63a5" transform="translate(662.399872 0)"/>
     <use xlink:href="#STHeiti-793a" transform="translate(762.399857 0)"/>
     <use xlink:href="#STHeiti-610f" transform="translate(862.399841 0)"/>
     <use xlink:href="#STHeiti-56fe" transform="translate(962.399826 0)"/>
    </g>
   </g>
   <g id="text_2">
    <!-- 输入 $h_{l-1}$ -->
    <g style="fill: #455a64" transform="translate(262.3 115.26) scale(0.1 -0.1)">
     <defs>
      <path id="STHeiti-8f93" d="M 4730 3725 
L 4730 3309 
Q 4448 3360 4006 3360 
Q 3565 3360 3290 3309 
L 3290 3802 
Q 3578 3750 3994 3750 
Q 4410 3750 4653 3789 
Q 4230 4154 3949 4646 
Q 3258 3712 2381 2950 
Q 2176 3174 1978 3258 
Q 2995 3917 3706 5267 
Q 4058 5126 4288 5114 
Q 4358 5107 4358 5068 
Q 4358 5030 4326 5011 
L 4205 4928 
Q 4538 4397 4995 4089 
Q 5453 3782 6157 3642 
Q 5926 3450 5792 3123 
Q 5222 3322 4730 3725 
z
M 1389 2406 
Q 1389 3162 1363 3264 
Q 1504 3219 1856 3219 
Q 1920 3219 1920 3174 
Q 1920 3130 1869 3110 
Q 1811 3072 1811 2931 
L 1811 2451 
Q 2099 2490 2240 2534 
L 2240 2054 
Q 2061 2080 1811 2074 
L 1811 1197 
Q 2163 1312 2317 1382 
Q 2298 1254 2298 1100 
Q 2298 947 2304 877 
Q 2093 877 1811 800 
Q 1811 186 1856 -538 
L 1331 -538 
Q 1382 51 1389 672 
Q 826 506 557 390 
Q 493 678 358 909 
Q 698 915 1389 1082 
L 1389 2048 
Q 826 2003 544 1888 
Q 474 2131 314 2362 
Q 525 2438 656 2796 
Q 787 3155 992 3923 
Q 685 3917 506 3885 
L 506 4371 
Q 678 4333 1082 4326 
Q 1184 4813 1171 5216 
Q 1606 5082 1811 5082 
Q 1882 5082 1882 5053 
Q 1882 5024 1824 4992 
Q 1734 4934 1536 4326 
Q 2042 4326 2298 4371 
L 2298 3885 
Q 2029 3930 1408 3930 
L 915 2362 
L 1389 2406 
z
M 5235 2989 
Q 5446 2944 5760 2944 
Q 5850 2944 5850 2909 
Q 5850 2874 5789 2822 
Q 5728 2771 5728 2586 
L 5728 115 
Q 5728 -109 5686 -214 
Q 5645 -320 5497 -390 
Q 5350 -461 4998 -538 
Q 4934 -224 4774 -51 
Q 4960 -77 5088 -77 
Q 5216 -77 5257 -3 
Q 5299 70 5299 282 
L 5299 1958 
Q 5299 2630 5235 2989 
z
M 3706 717 
L 3002 717 
L 3002 -390 
L 2522 -390 
Q 2579 128 2579 557 
L 2579 2438 
Q 2579 2733 2534 2976 
Q 2867 2938 3305 2938 
Q 3744 2938 4154 2976 
Q 4122 2784 4122 2438 
L 4122 205 
Q 4122 -64 4086 -182 
Q 4051 -301 3926 -368 
Q 3802 -435 3501 -486 
Q 3469 -250 3315 -13 
Q 3430 -26 3526 -26 
Q 3622 -26 3664 41 
Q 3706 109 3706 365 
L 3706 717 
z
M 3002 2016 
L 3706 2016 
L 3706 2554 
L 3002 2554 
L 3002 2016 
z
M 3706 1638 
L 3002 1638 
L 3002 1088 
L 3706 1088 
L 3706 1638 
z
M 4461 2758 
Q 4653 2720 4819 2720 
L 4973 2726 
Q 5043 2726 5043 2684 
Q 5043 2643 4985 2608 
Q 4928 2573 4928 2413 
L 4928 1254 
Q 4928 896 4966 467 
L 4467 467 
Q 4506 909 4506 1254 
L 4506 2067 
Q 4506 2515 4461 2758 
z
" transform="scale(0.015625)"/>
      <path id="STHeiti-5165" d="M 2893 3898 
Q 2470 4429 1984 4698 
L 2426 5133 
Q 3078 4608 3385 4150 
Q 3693 3693 3936 2938 
Q 4326 1722 4784 1210 
Q 5242 698 6074 326 
Q 5741 58 5549 -314 
Q 4768 218 4355 794 
Q 3942 1370 3571 2605 
Q 3456 2982 3264 3341 
Q 2938 2029 2317 1126 
Q 1696 224 986 -307 
Q 742 -26 422 102 
Q 1466 736 2086 1808 
Q 2707 2880 2893 3898 
z
" transform="scale(0.015625)"/>
      <path id="DejaVuSans-Oblique-68" d="M 3566 2113 
L 3156 0 
L 2578 0 
L 2988 2091 
Q 3016 2238 3031 2350 
Q 3047 2463 3047 2528 
Q 3047 2791 2881 2937 
Q 2716 3084 2419 3084 
Q 1956 3084 1617 2771 
Q 1278 2459 1178 1941 
L 800 0 
L 225 0 
L 1172 4863 
L 1747 4863 
L 1375 2950 
Q 1594 3244 1934 3414 
Q 2275 3584 2650 3584 
Q 3113 3584 3367 3334 
Q 3622 3084 3622 2631 
Q 3622 2519 3608 2391 
Q 3594 2263 3566 2113 
z
" transform="scale(0.015625)"/>
      <path id="DejaVuSans-Oblique-6c" d="M 1172 4863 
L 1747 4863 
L 800 0 
L 225 0 
L 1172 4863 
z
" transform="scale(0.015625)"/>
      <path id="DejaVuSans-2212" d="M 678 2272 
L 4684 2272 
L 4684 1741 
L 678 1741 
L 678 2272 
z
" transform="scale(0.015625)"/>
      <path id="DejaVuSans-31" d="M 794 531 
L 1825 531 
L 1825 4091 
L 703 3866 
L 703 4441 
L 1819 4666 
L 2450 4666 
L 2450 531 
L 3481 531 
L 3481 0 
L 794 0 
L 794 531 
z
" transform="scale(0.015625)"/>
     </defs>
     <use xlink:href="#STHeiti-8f93" transform="translate(0 0.703125)"/>
     <use xlink:href="#STHeiti-5165" transform="translate(99.999985 0.703125)"/>
     <use xlink:href="#STHeiti-20" transform="translate(199.999969 0.703125)"/>
     <use xlink:href="#DejaVuSans-Oblique-68" transform="translate(224.999954 0.703125)"/>
     <use xlink:href="#DejaVuSans-Oblique-6c" transform="translate(288.37886 -15.703125) scale(0.7)"/>
     <use xlink:href="#DejaVuSans-2212" transform="translate(321.464798 -15.703125) scale(0.7)"/>
     <use xlink:href="#DejaVuSans-31" transform="translate(393.754837 -15.703125) scale(0.7)"/>
    </g>
   </g>
   <g id="text_3">
    <!-- 权重层 W₁ + BN -->
    <g style="fill: #1565c0" transform="translate(249.585156 220.029375) scale(0.1 -0.1)">
     <defs>
      <path id="STHeiti-6743" d="M 1414 2406 
Q 1146 1491 589 762 
Q 454 1133 301 1331 
Q 634 1683 864 2156 
Q 1094 2630 1312 3398 
Q 730 3379 467 3347 
L 467 3891 
Q 851 3840 1414 3840 
Q 1414 4768 1338 5242 
Q 1542 5216 1715 5216 
L 1997 5229 
Q 2067 5229 2067 5197 
Q 2067 5165 1993 5097 
Q 1920 5030 1920 4896 
L 1920 3840 
Q 2330 3846 2662 3891 
L 2662 3347 
Q 2394 3386 1920 3392 
L 1920 614 
Q 1920 115 1984 -589 
L 1357 -589 
Q 1414 45 1414 614 
L 1414 2406 
z
M 3174 4109 
Q 3046 4102 2816 4083 
L 2816 4640 
Q 3392 4589 4339 4589 
Q 5286 4589 5709 4640 
Q 5517 3322 5248 2506 
Q 4979 1690 4570 1133 
Q 5114 557 6170 339 
Q 5926 58 5786 -365 
Q 4723 128 4211 704 
Q 3571 64 2630 -454 
Q 2515 -179 2240 19 
Q 3315 506 3910 1114 
Q 3514 1747 3366 2403 
Q 3219 3059 3174 4109 
z
M 3680 4128 
Q 3686 3194 3811 2643 
Q 3936 2093 4262 1549 
Q 4870 2502 5050 4128 
L 3680 4128 
z
M 2861 1760 
L 2368 1517 
Q 2221 2003 1965 2477 
L 2362 2669 
Q 2637 2234 2861 1760 
z
" transform="scale(0.015625)"/>
      <path id="STHeiti-91cd" d="M 2931 4442 
Q 2010 4371 1533 4371 
Q 1056 4371 941 4384 
Q 890 4634 768 4845 
Q 1165 4806 1856 4806 
Q 2547 4806 3459 4899 
Q 4371 4992 4851 5139 
Q 4973 4870 5216 4627 
Q 5274 4570 5274 4538 
Q 5274 4506 5219 4506 
Q 5165 4506 5011 4515 
Q 4858 4525 4448 4525 
Q 4038 4525 3411 4480 
L 3411 3968 
Q 5120 3968 6029 4032 
L 6029 3552 
Q 5120 3616 3411 3616 
L 3411 3174 
Q 4602 3174 5229 3219 
Q 5190 2842 5190 2307 
Q 5190 1773 5229 1248 
Q 4346 1286 3411 1286 
L 3411 896 
Q 4685 896 5382 960 
L 5382 467 
Q 4685 531 3411 531 
L 3411 128 
Q 5075 128 5965 192 
L 5965 -333 
Q 5030 -269 3187 -269 
Q 1344 -269 410 -333 
L 410 192 
Q 1293 128 2931 128 
L 2931 531 
Q 1715 525 1030 467 
L 1030 960 
Q 1715 902 2931 896 
L 2931 1286 
Q 1914 1286 1197 1254 
Q 1229 1702 1229 2249 
Q 1229 2797 1197 3219 
Q 1811 3181 2931 3174 
L 2931 3616 
Q 1254 3616 358 3552 
L 358 4032 
Q 1254 3968 2931 3968 
L 2931 4442 
z
M 2931 2432 
L 2931 2810 
L 1696 2810 
L 1696 2432 
L 2931 2432 
z
M 3411 2810 
L 3411 2432 
L 4698 2432 
L 4698 2810 
L 3411 2810 
z
M 2931 1645 
L 2931 2093 
L 1696 2093 
L 1696 1645 
L 2931 1645 
z
M 3411 2093 
L 3411 1645 
L 4698 1645 
L 4698 2093 
L 3411 2093 
z
" transform="scale(0.015625)"/>
      <path id="STHeiti-5c42" d="M 5504 3315 
Q 5101 3360 3987 3360 
Q 2874 3360 1491 3328 
Q 1459 1811 1299 969 
Q 1139 128 774 -525 
Q 531 -224 282 -141 
Q 640 339 803 1129 
Q 966 1920 966 3171 
Q 966 4422 941 4915 
Q 1651 4864 3286 4864 
Q 4922 4864 5504 4915 
Q 5472 4518 5475 4112 
Q 5478 3706 5504 3315 
z
M 4966 3808 
L 4966 4416 
L 1491 4416 
L 1491 3808 
L 4966 3808 
z
M 5363 2381 
Q 4646 2432 3692 2432 
Q 2739 2432 2035 2374 
L 2035 2925 
Q 2701 2874 3725 2874 
Q 4749 2874 5363 2925 
L 5363 2381 
z
M 3078 1363 
Q 2035 1357 1568 1318 
L 1568 1856 
Q 2298 1811 3702 1811 
Q 5107 1811 5843 1856 
L 5843 1318 
Q 5158 1363 3782 1363 
Q 3360 864 2669 141 
L 4608 250 
Q 4282 685 3994 928 
L 4499 1178 
Q 4998 570 5696 -211 
L 5114 -531 
Q 5005 -326 4883 -147 
L 3264 -269 
Q 2522 -326 2029 -506 
Q 1933 -198 1734 141 
Q 1971 186 2134 288 
Q 2298 390 2598 729 
Q 2899 1069 3078 1363 
z
" transform="scale(0.015625)"/>
      <path id="STHeiti-57" d="M 301 4979 
L 774 4979 
L 1709 1555 
L 3027 4979 
L 3117 4979 
L 4422 1555 
L 5376 4979 
L 5843 4979 
L 4525 269 
L 4435 269 
L 3072 3859 
L 1683 269 
L 1600 269 
L 301 4979 
z
" transform="scale(0.015625)"/>
      <path id="ArialUnicodeMS-2081" d="M 1484 -97 
L 1031 -97 
L 1031 1638 
Q 722 1388 331 1281 
L 331 1672 
Q 813 1838 1147 2253 
L 1484 2253 
L 1484 -97 
z
" transform="scale(0.015625)"/>
      <path id="STHeiti-2b" d="M 1728 2899 
L 1728 4250 
L 2150 4250 
L 2150 2899 
L 3520 2899 
L 3520 2470 
L 2150 2470 
L 2150 1114 
L 1728 1114 
L 1728 2470 
L 358 2470 
L 358 2899 
L 1728 2899 
z
" transform="scale(0.015625)"/>
      <path id="STHeiti-42" d="M 570 4979 
L 1478 4979 
Q 2202 4979 2576 4688 
Q 2950 4397 2950 3853 
Q 2950 3552 2800 3299 
Q 2650 3046 2362 2893 
Q 2835 2739 3081 2432 
Q 3328 2125 3328 1702 
Q 3328 1133 2912 758 
Q 2496 384 1837 384 
L 570 384 
L 570 4979 
z
M 1024 4531 
L 1024 3059 
L 1286 3059 
Q 1888 3059 2182 3251 
Q 2477 3443 2477 3853 
Q 2477 4531 1555 4531 
L 1024 4531 
z
M 1024 2598 
L 1024 832 
L 1594 832 
Q 2086 832 2320 931 
Q 2554 1030 2701 1238 
Q 2848 1446 2848 1664 
Q 2848 1882 2765 2048 
Q 2682 2214 2518 2342 
Q 2355 2470 2128 2534 
Q 1901 2598 1280 2598 
L 1024 2598 
z
" transform="scale(0.015625)"/>
     </defs>
     <use xlink:href="#STHeiti-6743"/>
     <use xlink:href="#STHeiti-91cd" transform="translate(99.999985 0)"/>
     <use xlink:href="#STHeiti-5c42" transform="translate(199.999969 0)"/>
     <use xlink:href="#STHeiti-20" transform="translate(299.999954 0)"/>
     <use xlink:href="#STHeiti-57" transform="translate(324.999939 0)"/>
     <use xlink:href="#ArialUnicodeMS-2081" transform="translate(420.999924 0)"/>
     <use xlink:href="#STHeiti-20" transform="translate(454.300705 0)"/>
     <use xlink:href="#STHeiti-2b" transform="translate(479.30069 0)"/>
     <use xlink:href="#STHeiti-20" transform="translate(539.900681 0)"/>
     <use xlink:href="#STHeiti-42" transform="translate(564.900665 0)"/>
     <use xlink:href="#STHeiti-4e" transform="translate(622.300659 0)"/>
    </g>
   </g>
   <g id="text_4">
    <!-- ReLU 激活 -->
    <g style="fill: #1565c0" transform="translate(261.279687 289.869375) scale(0.1 -0.1)">
     <defs>
      <path id="STHeiti-4c" d="M 557 4979 
L 1024 4979 
L 1024 826 
L 2790 826 
L 2790 384 
L 557 384 
L 557 4979 
z
" transform="scale(0.015625)"/>
      <path id="STHeiti-55" d="M 576 4979 
L 1037 4979 
L 1037 2208 
Q 1037 1779 1059 1561 
Q 1082 1344 1213 1142 
Q 1344 941 1581 822 
Q 1818 704 2090 704 
Q 2362 704 2566 803 
Q 2771 902 2912 1081 
Q 3053 1261 3107 1475 
Q 3162 1690 3162 2208 
L 3162 4979 
L 3616 4979 
L 3616 2208 
Q 3616 1510 3475 1139 
Q 3334 768 2979 518 
Q 2624 269 2144 269 
Q 1760 269 1453 393 
Q 1146 518 941 742 
Q 736 966 656 1241 
Q 576 1517 576 2208 
L 576 4979 
z
" transform="scale(0.015625)"/>
      <path id="STHeiti-6fc0" d="M 2458 4506 
Q 2509 4800 2509 4937 
Q 2509 5075 2502 5152 
Q 2669 5120 3072 5120 
Q 3130 5120 3130 5075 
Q 3130 5030 3082 5004 
Q 3034 4979 2893 4499 
Q 3514 4499 3757 4550 
Q 3725 4326 3725 3891 
L 3725 3251 
Q 3725 2771 3750 2579 
Q 3514 2637 2842 2637 
Q 2170 2637 1882 2579 
Q 1926 2874 1926 3251 
L 1926 3891 
Q 1926 4346 1888 4550 
Q 2042 4512 2458 4506 
z
M 3328 3725 
L 3328 4166 
L 2336 4166 
L 2336 3725 
L 3328 3725 
z
M 3328 2976 
L 3328 3418 
L 2336 3418 
L 2336 2976 
L 3328 2976 
z
M 4890 1267 
Q 5146 1920 5216 3520 
L 4640 3520 
Q 4442 2931 4045 2298 
Q 3949 2387 3718 2483 
Q 4045 2912 4259 3638 
Q 4474 4365 4486 5094 
Q 4800 5018 5107 5005 
Q 5197 4998 5197 4956 
Q 5197 4915 5101 4864 
Q 5056 4838 4992 4665 
Q 4928 4493 4781 3981 
Q 5824 3987 6016 4051 
L 6016 3494 
Q 5894 3507 5651 3520 
Q 5549 1606 5114 819 
Q 5542 211 6016 0 
Q 5805 -198 5606 -480 
Q 5171 -115 4851 397 
Q 4314 -282 3872 -614 
Q 3693 -435 3430 -282 
Q 4032 32 4627 813 
Q 4262 1651 4269 2586 
L 4621 2675 
Q 4621 1933 4890 1267 
z
M 1728 4282 
L 1357 3866 
Q 986 4339 653 4602 
L 1037 4947 
Q 1440 4634 1728 4282 
z
M 1581 2938 
L 1286 2451 
Q 826 2803 365 3021 
L 659 3462 
Q 1082 3251 1581 2938 
z
M 2669 2106 
Q 2605 2298 2534 2438 
L 3040 2483 
Q 3072 2323 3155 2106 
Q 3584 2112 3923 2157 
L 3923 1702 
Q 3565 1754 2797 1754 
Q 2790 1587 2746 1331 
Q 3526 1331 3712 1357 
Q 3706 454 3584 169 
Q 3462 -115 2912 -243 
Q 2842 45 2694 288 
Q 2957 282 3059 323 
Q 3162 365 3194 496 
Q 3226 627 3232 941 
L 2669 941 
Q 2445 115 1837 -378 
Q 1670 -224 1395 -77 
Q 1894 250 2102 672 
Q 2310 1094 2317 1747 
Q 1901 1741 1651 1702 
L 1651 2157 
Q 1990 2106 2669 2106 
z
M 1491 1587 
Q 1389 1229 1283 685 
Q 1178 141 992 -486 
Q 691 -320 403 -192 
Q 774 602 1018 1850 
Q 1235 1670 1491 1587 
z
" transform="scale(0.015625)"/>
      <path id="STHeiti-6d3b" d="M 3629 4237 
Q 2835 4134 2464 4077 
Q 2394 4358 2227 4563 
Q 2662 4544 3622 4691 
Q 4582 4838 5274 5069 
Q 5427 4736 5581 4570 
Q 5645 4499 5645 4464 
Q 5645 4429 5597 4438 
Q 5549 4448 5485 4448 
Q 5242 4448 4160 4307 
L 4160 3334 
Q 5357 3334 6106 3392 
L 6106 2842 
Q 5453 2893 4160 2893 
L 4160 2035 
Q 5152 2042 5491 2086 
Q 5453 1818 5453 1466 
L 5453 128 
Q 5453 -173 5504 -576 
L 4934 -576 
L 4934 -51 
L 2970 -51 
L 2970 -582 
L 2400 -582 
Q 2451 -211 2451 128 
L 2451 1466 
Q 2451 1830 2406 2086 
Q 2797 2042 3629 2035 
L 3629 2893 
Q 2534 2886 1965 2842 
L 1965 3392 
Q 2675 3341 3629 3334 
L 3629 4237 
z
M 4934 403 
L 4934 1574 
L 2970 1574 
L 2970 403 
L 4934 403 
z
M 2054 4358 
L 1690 3853 
Q 1203 4326 678 4595 
L 998 5037 
Q 1645 4640 2054 4358 
z
M 1722 2842 
L 1434 2336 
Q 902 2701 378 2893 
L 666 3360 
Q 1293 3085 1722 2842 
z
M 1696 1658 
Q 1562 1318 1386 572 
Q 1210 -173 1165 -653 
Q 826 -384 512 -205 
Q 723 243 905 873 
Q 1088 1504 1152 1984 
Q 1357 1734 1696 1658 
z
" transform="scale(0.015625)"/>
     </defs>
     <use xlink:href="#STHeiti-52"/>
     <use xlink:href="#STHeiti-65" transform="translate(60.699997 0)"/>
     <use xlink:href="#STHeiti-4c" transform="translate(125.699982 0)"/>
     <use xlink:href="#STHeiti-55" transform="translate(171.899979 0)"/>
     <use xlink:href="#STHeiti-20" transform="translate(237.399963 0)"/>
     <use xlink:href="#STHeiti-6fc0" transform="translate(262.399948 0)"/>
     <use xlink:href="#STHeiti-6d3b" transform="translate(362.399933 0)"/>
    </g>
   </g>
   <g id="text_5">
    <!-- 权重层 W₂ + BN -->
    <g style="fill: #1565c0" transform="translate(249.585156 359.709375) scale(0.1 -0.1)">
     <defs>
      <path id="ArialUnicodeMS-2082" d="M 2022 -97 
L 78 -97 
Q 113 306 884 863 
Q 1281 1156 1398 1273 
Q 1516 1391 1516 1538 
Q 1516 1700 1403 1790 
Q 1291 1881 1088 1881 
Q 897 1881 786 1809 
Q 675 1738 616 1528 
L 141 1575 
Q 216 1913 455 2083 
Q 694 2253 1094 2253 
Q 1506 2253 1757 2092 
Q 2009 1931 2009 1619 
Q 2009 1409 1909 1239 
Q 1809 1069 1648 931 
Q 1488 794 1088 513 
Q 925 400 813 281 
L 2022 281 
L 2022 -97 
z
" transform="scale(0.015625)"/>
     </defs>
     <use xlink:href="#STHeiti-6743"/>
     <use xlink:href="#STHeiti-91cd" transform="translate(99.999985 0)"/>
     <use xlink:href="#STHeiti-5c42" transform="translate(199.999969 0)"/>
     <use xlink:href="#STHeiti-20" transform="translate(299.999954 0)"/>
     <use xlink:href="#STHeiti-57" transform="translate(324.999939 0)"/>
     <use xlink:href="#ArialUnicodeMS-2082" transform="translate(420.999924 0)"/>
     <use xlink:href="#STHeiti-20" transform="translate(454.300705 0)"/>
     <use xlink:href="#STHeiti-2b" transform="translate(479.30069 0)"/>
     <use xlink:href="#STHeiti-20" transform="translate(539.900681 0)"/>
     <use xlink:href="#STHeiti-42" transform="translate(564.900665 0)"/>
     <use xlink:href="#STHeiti-4e" transform="translate(622.300659 0)"/>
    </g>
   </g>
   <g id="text_6">
    <!-- 加法节点  ⊕ -->
    <g style="fill: #2e7d32" transform="translate(256.9 443.532219) scale(0.1 -0.1)">
     <defs>
      <path id="STHeiti-52a0" d="M 1965 3507 
Q 1901 1920 1645 1017 
Q 1389 115 781 -499 
Q 550 -269 288 -154 
Q 877 346 1139 1181 
Q 1402 2016 1440 3507 
Q 851 3501 512 3450 
L 512 4051 
Q 826 4000 1446 3994 
Q 1453 4461 1453 4832 
Q 1453 5203 1395 5325 
Q 1683 5261 2112 5242 
Q 2176 5235 2176 5206 
Q 2176 5178 2131 5114 
Q 1990 4909 1984 3994 
Q 2918 3994 3251 4051 
L 3078 691 
Q 3053 211 2976 -9 
Q 2899 -230 2694 -336 
Q 2490 -442 2035 -506 
Q 2016 -128 1798 154 
Q 1952 141 2048 141 
Q 2355 141 2454 288 
Q 2554 435 2579 992 
L 2701 3507 
L 1965 3507 
z
M 5254 326 
L 4275 326 
L 4275 -397 
L 3693 -397 
Q 3744 70 3744 506 
L 3744 3718 
Q 3744 4115 3706 4269 
Q 4250 4224 4787 4224 
Q 5325 4224 5837 4269 
Q 5798 4147 5798 3718 
L 5798 608 
Q 5798 102 5843 -307 
L 5254 -307 
L 5254 326 
z
M 4275 781 
L 5254 781 
L 5254 3744 
L 4275 3744 
L 4275 781 
z
" transform="scale(0.015625)"/>
      <path id="STHeiti-6cd5" d="M 4115 3744 
L 4115 2598 
Q 5363 2598 6029 2662 
L 6029 2080 
Q 5338 2144 3994 2144 
Q 2650 2144 1958 2080 
L 1958 2662 
Q 2566 2605 3578 2598 
L 3578 3744 
Q 2784 3738 2342 3680 
L 2342 4243 
Q 2784 4186 3578 4179 
Q 3578 4909 3514 5229 
Q 3782 5190 4192 5190 
Q 4320 5190 4320 5155 
Q 4320 5120 4253 5065 
Q 4186 5011 4150 4908 
Q 4115 4806 4115 4698 
L 4115 4179 
Q 5152 4179 5658 4243 
L 5658 3680 
Q 5152 3744 4115 3744 
z
M 2074 4198 
L 1632 3725 
Q 1293 4186 768 4544 
L 1133 4960 
Q 1651 4589 2074 4198 
z
M 1709 2848 
L 1408 2291 
Q 870 2669 358 2867 
L 570 3354 
Q 1216 3104 1709 2848 
z
M 4749 378 
Q 4486 838 4218 1190 
L 4672 1427 
Q 5242 691 5818 -218 
L 5242 -550 
Q 5120 -282 4979 -38 
L 3238 -282 
Q 2611 -371 2355 -486 
Q 2278 -237 2099 58 
Q 2618 307 3450 2106 
Q 3718 1926 3981 1811 
Q 4096 1760 4096 1721 
Q 4096 1683 4003 1654 
Q 3910 1626 3721 1386 
Q 3533 1146 2848 179 
Q 3808 230 4749 378 
z
M 1741 1651 
Q 1139 -109 1082 -621 
Q 813 -397 448 -173 
Q 621 141 816 617 
Q 1011 1094 1091 1356 
Q 1171 1619 1222 1939 
Q 1408 1773 1741 1651 
z
" transform="scale(0.015625)"/>
      <path id="STHeiti-8282" d="M 2624 4422 
L 3814 4422 
Q 3814 4986 3776 5178 
Q 4051 5139 4378 5139 
Q 4442 5139 4442 5107 
Q 4442 5075 4387 5043 
Q 4333 5011 4333 4915 
L 4333 4422 
Q 5536 4422 6093 4474 
L 6093 3910 
Q 5453 3968 4333 3968 
L 4333 3219 
L 3814 3219 
L 3814 3968 
L 2624 3968 
L 2624 3226 
L 2106 3226 
L 2106 3968 
Q 1011 3968 365 3910 
L 365 4474 
Q 819 4422 2106 4422 
Q 2093 4954 2067 5184 
Q 2342 5146 2669 5146 
Q 2733 5146 2733 5114 
Q 2733 5082 2678 5050 
Q 2624 5018 2624 4922 
L 2624 4422 
z
M 2912 2381 
L 2912 454 
Q 2912 0 2976 -646 
L 2310 -646 
Q 2374 0 2374 454 
L 2374 2381 
Q 1325 2381 845 2323 
L 845 2886 
Q 1306 2829 2941 2829 
Q 4576 2829 5254 2886 
L 5190 1094 
Q 5178 710 5114 566 
Q 5050 422 4832 352 
Q 4614 282 4006 186 
Q 3962 550 3789 826 
Q 4045 787 4237 787 
Q 4429 787 4547 867 
Q 4666 947 4672 1267 
L 4698 2381 
L 2912 2381 
z
" transform="scale(0.015625)"/>
      <path id="STHeiti-70b9" d="M 3238 3962 
L 3238 3206 
Q 4749 3206 5120 3270 
Q 5082 2893 5082 2217 
Q 5082 1542 5120 1248 
Q 4621 1299 3136 1299 
Q 1651 1299 1216 1235 
Q 1280 1734 1280 2268 
Q 1280 2803 1216 3270 
Q 1658 3213 2662 3206 
L 2662 4224 
Q 2662 4922 2598 5229 
Q 3040 5133 3354 5133 
Q 3450 5133 3450 5104 
Q 3450 5075 3376 5030 
Q 3302 4986 3270 4934 
Q 3238 4883 3238 4755 
L 3238 4429 
L 4358 4429 
Q 4998 4429 5594 4486 
L 5594 3904 
Q 5114 3962 4365 3962 
L 3238 3962 
z
M 4557 1754 
L 4557 2752 
L 1779 2752 
L 1779 1754 
L 4557 1754 
z
M 6022 -141 
L 5389 -397 
Q 5184 230 4781 813 
L 5267 998 
Q 5613 435 6022 -141 
z
M 1478 704 
Q 1107 -83 909 -538 
L 275 -294 
Q 800 250 1005 896 
L 1478 704 
z
M 4320 -250 
L 3706 -333 
Q 3584 314 3405 762 
L 3923 890 
Q 4083 352 4320 -250 
z
M 2835 -358 
L 2214 -422 
Q 2227 154 2080 653 
L 2605 710 
Q 2714 64 2835 -358 
z
" transform="scale(0.015625)"/>
      <path id="STHeiti-2295" d="M 3200 3744 
Q 3795 3744 4217 3321 
Q 4640 2899 4640 2304 
Q 4640 1709 4217 1286 
Q 3795 864 3200 864 
Q 2605 864 2182 1286 
Q 1760 1709 1760 2304 
Q 1760 2899 2182 3321 
Q 2605 3744 3200 3744 
z
M 4224 2515 
Q 4160 2822 3939 3043 
Q 3718 3264 3411 3328 
L 3411 2515 
L 4224 2515 
z
M 2989 2515 
L 2989 3328 
Q 2682 3264 2461 3043 
Q 2240 2822 2176 2515 
L 2989 2515 
z
M 4224 2093 
L 3411 2093 
L 3411 1280 
Q 3718 1344 3939 1565 
Q 4160 1786 4224 2093 
z
M 2989 1280 
L 2989 2093 
L 2176 2093 
Q 2240 1786 2461 1565 
Q 2682 1344 2989 1280 
z
" transform="scale(0.015625)"/>
     </defs>
     <use xlink:href="#STHeiti-52a0"/>
     <use xlink:href="#STHeiti-6cd5" transform="translate(99.999985 0)"/>
     <use xlink:href="#STHeiti-8282" transform="translate(199.999969 0)"/>
     <use xlink:href="#STHeiti-70b9" transform="translate(299.999954 0)"/>
     <use xlink:href="#STHeiti-20" transform="translate(399.999939 0)"/>
     <use xlink:href="#STHeiti-20" transform="translate(424.999924 0)"/>
     <use xlink:href="#STHeiti-2295" transform="translate(449.999908 0)"/>
    </g>
   </g>
   <g id="text_7">
    <!-- ReLU 激活 -->
    <g style="fill: #2e7d32" transform="translate(261.279687 534.309375) scale(0.1 -0.1)">
     <use xlink:href="#STHeiti-52"/>
     <use xlink:href="#STHeiti-65" transform="translate(60.699997 0)"/>
     <use xlink:href="#STHeiti-4c" transform="translate(125.699982 0)"/>
     <use xlink:href="#STHeiti-55" transform="translate(171.899979 0)"/>
     <use xlink:href="#STHeiti-20" transform="translate(237.399963 0)"/>
     <use xlink:href="#STHeiti-6fc0" transform="translate(262.399948 0)"/>
     <use xlink:href="#STHeiti-6d3b" transform="translate(362.399933 0)"/>
    </g>
   </g>
   <g id="text_8">
    <!-- 输出 $h_l$ -->
    <g style="fill: #455a64" transform="translate(268.85 618.108) scale(0.1 -0.1)">
     <defs>
      <path id="STHeiti-51fa" d="M 4858 2502 
L 3494 2502 
L 3494 326 
L 4973 371 
L 4973 1331 
Q 4973 1690 4934 1952 
Q 5203 1901 5408 1901 
L 5587 1907 
Q 5638 1907 5638 1891 
Q 5638 1875 5606 1843 
Q 5523 1760 5523 1325 
L 5523 102 
Q 5523 -275 5549 -608 
L 4934 -608 
Q 4960 -371 4973 -102 
L 3034 -160 
Q 1357 -211 845 -269 
Q 877 -19 877 256 
L 877 1523 
Q 877 1882 851 2016 
Q 1011 1984 1148 1968 
Q 1286 1952 1363 1958 
L 1491 1958 
Q 1542 1958 1542 1932 
Q 1542 1907 1513 1859 
Q 1485 1811 1459 1660 
Q 1434 1510 1434 1389 
L 1434 262 
L 2938 307 
L 2938 2502 
L 2163 2502 
Q 1613 2502 1094 2432 
Q 1146 2739 1146 3002 
L 1146 4006 
Q 1146 4346 1094 4576 
Q 1350 4531 1529 4531 
Q 1709 4531 1757 4540 
Q 1805 4550 1833 4550 
Q 1862 4550 1862 4531 
Q 1862 4512 1814 4464 
Q 1766 4416 1728 4256 
Q 1690 4096 1690 4013 
L 1690 2963 
L 2938 2963 
L 2938 4326 
Q 2938 4870 2893 5178 
Q 3149 5126 3254 5116 
Q 3360 5107 3616 5107 
Q 3680 5107 3680 5088 
Q 3680 5069 3629 5017 
Q 3578 4966 3536 4752 
Q 3494 4538 3494 4333 
L 3494 2963 
L 4858 2963 
L 4858 4006 
Q 4858 4365 4800 4627 
Q 5062 4582 5261 4582 
L 5472 4595 
Q 5517 4595 5517 4572 
Q 5517 4550 5498 4506 
Q 5402 4339 5402 4000 
L 5402 2842 
Q 5402 2477 5427 2202 
L 4813 2202 
Q 4851 2368 4858 2502 
z
" transform="scale(0.015625)"/>
     </defs>
     <use xlink:href="#STHeiti-8f93" transform="translate(0 0.703125)"/>
     <use xlink:href="#STHeiti-51fa" transform="translate(99.999985 0.703125)"/>
     <use xlink:href="#STHeiti-20" transform="translate(199.999969 0.703125)"/>
     <use xlink:href="#DejaVuSans-Oblique-68" transform="translate(224.999954 0.703125)"/>
     <use xlink:href="#DejaVuSans-Oblique-6c" transform="translate(288.37886 -15.703125) scale(0.7)"/>
    </g>
   </g>
   <g id="patch_9">
    <path d="M 284.4 135.260532 
Q 284.4 164.339109 284.4 191.405225 
" style="fill: none; stroke: #546e7a; stroke-width: 1.8; stroke-linecap: round"/>
    <path d="M 286.4 187.405225 
L 284.4 191.405225 
L 282.4 187.405225 
" style="fill: none; stroke: #546e7a; stroke-width: 1.8; stroke-linecap: round"/>
   </g>
   <g id="patch_10">
    <path d="M 284.4 240.019466 
Q 284.4 251.639357 284.4 261.246787 
" style="fill: none; stroke: #546e7a; stroke-width: 1.8; stroke-linecap: round"/>
    <path d="M 286.4 257.246787 
L 284.4 261.246787 
L 282.4 257.246787 
" style="fill: none; stroke: #546e7a; stroke-width: 1.8; stroke-linecap: round"/>
   </g>
   <g id="patch_11">
    <path d="M 284.4 309.859466 
Q 284.4 321.479357 284.4 331.086787 
" style="fill: none; stroke: #546e7a; stroke-width: 1.8; stroke-linecap: round"/>
    <path d="M 286.4 327.086787 
L 284.4 331.086787 
L 282.4 327.086787 
" style="fill: none; stroke: #546e7a; stroke-width: 1.8; stroke-linecap: round"/>
   </g>
   <g id="patch_12">
    <path d="M 284.4 379.700617 
Q 284.4 398.305846 284.4 414.898614 
" style="fill: none; stroke: #546e7a; stroke-width: 1.8; stroke-linecap: round"/>
    <path d="M 286.4 410.898614 
L 284.4 414.898614 
L 282.4 410.898614 
" style="fill: none; stroke: #546e7a; stroke-width: 1.8; stroke-linecap: round"/>
   </g>
   <g id="patch_13">
    <path d="M 284.4 463.506315 
Q 284.4 485.603093 284.4 505.687409 
" style="fill: none; stroke: #546e7a; stroke-width: 1.8; stroke-linecap: round"/>
    <path d="M 286.4 501.687409 
L 284.4 505.687409 
L 282.4 501.687409 
" style="fill: none; stroke: #546e7a; stroke-width: 1.8; stroke-linecap: round"/>
   </g>
   <g id="patch_14">
    <path d="M 284.4 554.300617 
Q 284.4 572.905846 284.4 589.498614 
" style="fill: none; stroke: #546e7a; stroke-width: 1.8; stroke-linecap: round"/>
    <path d="M 286.4 585.498614 
L 284.4 589.498614 
L 282.4 585.498614 
" style="fill: none; stroke: #546e7a; stroke-width: 1.8; stroke-linecap: round"/>
   </g>
   <g id="patch_15">
    <path d="M 417.316196 113.525208 
Q 546.123986 276.085239 418.841808 436.717444 
" style="fill: none; stroke: #e53935; stroke-width: 2.2; stroke-linecap: round"/>
    <path d="M 422.893544 434.82445 
L 418.841808 436.717444 
L 419.758454 432.340258 
" style="fill: none; stroke: #e53935; stroke-width: 2.2; stroke-linecap: round"/>
   </g>
   <g id="text_9">
    <!-- 跳跃连接 -->
    <g style="fill: #e53935" transform="translate(460.44 270.436219) scale(0.09 -0.09)">
     <defs>
      <path id="STHeiti-8df3" d="M 4922 2509 
Q 5427 2150 5965 1626 
L 5555 1235 
Q 5216 1734 4922 2016 
L 4922 410 
Q 4922 230 4966 166 
Q 5011 102 5168 102 
Q 5325 102 5405 147 
Q 5485 192 5533 336 
Q 5581 480 5619 806 
Q 5754 563 6112 480 
Q 5990 70 5907 -83 
Q 5824 -237 5670 -288 
Q 5517 -339 5168 -339 
Q 4819 -339 4688 -310 
Q 4557 -282 4515 -186 
Q 4474 -90 4474 160 
L 4474 4371 
Q 4474 4742 4422 5158 
Q 4755 5114 4940 5114 
Q 5126 5114 5126 5062 
Q 5126 5011 5024 4956 
Q 4922 4902 4922 4678 
L 4922 2509 
z
M 3597 2547 
Q 3610 4762 3507 5088 
Q 3814 5037 4102 5037 
Q 4198 5037 4198 4995 
Q 4198 4954 4147 4906 
Q 4096 4858 4064 4634 
Q 4032 4410 4032 4077 
Q 4032 2406 4022 1721 
Q 4013 1037 3693 550 
Q 3373 64 2637 -474 
Q 2483 -179 2112 -64 
Q 2899 256 3241 697 
Q 3584 1139 3590 2035 
Q 3085 1542 2790 1222 
Q 2643 1466 2432 1626 
Q 2976 1901 3597 2547 
z
M 1613 595 
L 1613 2963 
Q 1107 2950 838 2918 
Q 896 3347 896 3884 
Q 896 4422 838 4877 
Q 1235 4813 1766 4813 
Q 2298 4813 2650 4877 
Q 2605 4429 2605 3843 
Q 2605 3258 2650 2912 
Q 2426 2950 2054 2957 
L 2054 2234 
Q 2598 2234 2720 2259 
L 2720 1811 
Q 2656 1837 2054 1837 
L 2054 691 
Q 2438 781 2707 870 
Q 2656 717 2656 582 
Q 2656 448 2669 390 
Q 1190 70 506 -211 
Q 454 102 346 416 
Q 480 416 742 448 
L 742 1670 
Q 742 2214 691 2432 
Q 966 2394 1254 2394 
Q 1331 2394 1331 2355 
Q 1331 2317 1286 2298 
Q 1171 2253 1171 2138 
L 1171 512 
Q 1530 576 1613 595 
z
M 2157 3354 
L 2157 4403 
L 1331 4403 
L 1331 3354 
L 2157 3354 
z
M 5434 4474 
Q 5811 4275 5965 4218 
Q 6048 4186 6048 4157 
Q 6048 4128 5939 4083 
Q 5824 4032 5414 2854 
L 4998 3059 
Q 5344 3661 5434 4474 
z
M 3437 3110 
L 2957 2989 
Q 2886 3680 2656 4154 
L 3130 4282 
Q 3232 3680 3437 3110 
z
" transform="scale(0.015625)"/>
      <path id="STHeiti-8dc3" d="M 4358 2906 
Q 5357 2906 5882 2970 
L 5882 2381 
Q 5299 2445 4512 2445 
Q 4730 1440 5085 925 
Q 5440 410 6099 70 
Q 5830 -224 5683 -576 
Q 4448 346 4237 2138 
Q 4070 1069 3772 547 
Q 3475 26 2643 -602 
Q 2458 -333 2150 -147 
Q 2899 237 3280 800 
Q 3661 1363 3827 2438 
Q 3302 2432 2893 2381 
L 2893 2970 
Q 3309 2918 3872 2912 
Q 3891 3245 3891 3571 
Q 3891 3898 3866 4224 
L 3110 4077 
Q 3046 4358 2874 4582 
Q 3430 4589 4137 4774 
Q 4845 4960 5325 5216 
Q 5466 4845 5645 4666 
Q 5702 4608 5702 4589 
Q 5702 4570 5638 4570 
L 5555 4570 
Q 5312 4570 4416 4346 
Q 4422 4173 4422 3833 
Q 4422 3494 4358 2906 
z
M 1626 710 
L 1626 2970 
Q 909 2970 742 2950 
Q 768 3277 768 3926 
Q 768 4576 742 4896 
Q 1075 4858 1689 4858 
Q 2304 4858 2630 4896 
Q 2611 4531 2611 3923 
Q 2611 3315 2630 2944 
Q 2458 2957 2093 2970 
L 2093 2208 
Q 2688 2208 2810 2234 
Q 2790 2118 2790 1996 
Q 2790 1875 2810 1766 
Q 2752 1792 2093 1792 
L 2093 851 
L 2963 1165 
Q 2912 1024 2912 851 
Q 2912 678 2931 608 
Q 1382 173 538 -211 
Q 506 134 365 461 
Q 512 474 653 499 
L 653 1728 
Q 653 2266 614 2490 
Q 890 2451 1222 2451 
Q 1299 2451 1299 2419 
Q 1299 2387 1216 2332 
Q 1133 2278 1133 2195 
L 1133 589 
L 1626 710 
z
M 1229 4442 
L 1229 3366 
L 2150 3366 
L 2150 4442 
L 1229 4442 
z
" transform="scale(0.015625)"/>
     </defs>
     <use xlink:href="#STHeiti-8df3"/>
     <use xlink:href="#STHeiti-8dc3" transform="translate(99.999985 0)"/>
     <use xlink:href="#STHeiti-8fde" transform="translate(199.999969 0)"/>
     <use xlink:href="#STHeiti-63a5" transform="translate(299.999954 0)"/>
    </g>
    <!-- (Skip Connection) -->
    <g style="fill: #e53935" transform="translate(439.473516 280.704656) scale(0.09 -0.09)">
     <defs>
      <path id="STHeiti-28" d="M 1466 5370 
L 1978 5370 
Q 1651 4704 1475 3865 
Q 1299 3027 1299 2176 
Q 1299 506 1824 -762 
L 1338 -762 
Q 832 480 832 2118 
Q 832 3891 1466 5370 
z
" transform="scale(0.015625)"/>
      <path id="STHeiti-53" d="M 83 1242 
L 474 1472 
Q 883 717 1427 717 
Q 1779 717 2028 941 
Q 2278 1165 2278 1498 
Q 2278 1760 2067 2029 
Q 1856 2298 1366 2666 
Q 877 3034 707 3216 
Q 538 3398 458 3606 
Q 378 3814 378 4026 
Q 378 4474 694 4784 
Q 1011 5094 1491 5094 
Q 1869 5094 2150 4905 
Q 2432 4717 2694 4346 
L 2323 4058 
Q 2144 4301 1952 4461 
Q 1760 4621 1481 4621 
Q 1203 4621 1027 4454 
Q 851 4288 851 4032 
Q 851 3776 1008 3587 
Q 1165 3398 1718 2988 
Q 2272 2579 2525 2233 
Q 2778 1888 2778 1504 
Q 2778 1005 2390 637 
Q 2003 269 1491 269 
Q 589 269 83 1242 
z
" transform="scale(0.015625)"/>
      <path id="STHeiti-6b" d="M 422 5094 
L 864 5094 
L 864 2413 
L 2432 3782 
L 3078 3782 
L 1210 2163 
L 3187 384 
L 2566 384 
L 864 1914 
L 864 384 
L 422 384 
L 422 5094 
z
" transform="scale(0.015625)"/>
      <path id="STHeiti-69" d="M 282 4730 
Q 282 4877 387 4985 
Q 493 5094 643 5094 
Q 794 5094 899 4988 
Q 1005 4883 1005 4732 
Q 1005 4582 899 4476 
Q 794 4371 643 4371 
Q 493 4371 387 4480 
Q 282 4589 282 4730 
z
M 422 3782 
L 864 3782 
L 864 384 
L 422 384 
L 422 3782 
z
" transform="scale(0.015625)"/>
      <path id="STHeiti-70" d="M 493 3782 
L 928 3782 
L 928 3162 
Q 1446 3872 2278 3872 
Q 2995 3872 3513 3344 
Q 4032 2816 4032 2073 
Q 4032 1331 3520 800 
Q 3008 269 2291 269 
Q 1510 269 928 966 
L 928 -858 
L 493 -858 
L 493 3782 
z
M 3597 2067 
Q 3597 2637 3203 3043 
Q 2810 3450 2240 3450 
Q 1670 3450 1283 3050 
Q 896 2650 896 2061 
Q 896 1472 1293 1072 
Q 1690 672 2243 672 
Q 2797 672 3197 1078 
Q 3597 1485 3597 2067 
z
" transform="scale(0.015625)"/>
      <path id="STHeiti-43" d="M 4838 4128 
L 4480 3853 
Q 3840 4646 2835 4646 
Q 2016 4646 1424 4070 
Q 832 3494 832 2659 
Q 832 1824 1411 1264 
Q 1990 704 2861 704 
Q 3834 704 4480 1459 
L 4838 1184 
Q 4499 736 3980 502 
Q 3462 269 2835 269 
Q 1741 269 1043 960 
Q 346 1651 346 2707 
Q 346 3360 669 3913 
Q 992 4467 1565 4780 
Q 2138 5094 2797 5094 
Q 3456 5094 3981 4844 
Q 4506 4595 4838 4128 
z
" transform="scale(0.015625)"/>
      <path id="STHeiti-6f" d="M 326 2061 
Q 326 2810 841 3341 
Q 1357 3872 2096 3872 
Q 2835 3872 3350 3341 
Q 3866 2810 3866 2067 
Q 3866 1325 3357 797 
Q 2848 269 2099 269 
Q 1350 269 838 797 
Q 326 1325 326 2061 
z
M 3424 2054 
Q 3424 2618 3030 3030 
Q 2637 3443 2096 3443 
Q 1555 3443 1164 3030 
Q 774 2618 774 2048 
Q 774 1478 1152 1081 
Q 1530 685 2090 685 
Q 2650 685 3037 1085 
Q 3424 1485 3424 2054 
z
" transform="scale(0.015625)"/>
      <path id="STHeiti-6e" d="M 486 3782 
L 928 3782 
L 928 3174 
Q 1453 3872 2202 3872 
Q 2586 3872 2893 3664 
Q 3200 3456 3328 3120 
Q 3456 2784 3456 2131 
L 3456 384 
L 3021 384 
L 3021 2003 
Q 3021 2598 2966 2809 
Q 2912 3021 2800 3168 
Q 2688 3315 2515 3392 
Q 2342 3469 2096 3469 
Q 1850 3469 1613 3347 
Q 1376 3226 1209 3008 
Q 1043 2790 985 2560 
Q 928 2330 928 1632 
L 928 384 
L 486 384 
L 486 3782 
z
" transform="scale(0.015625)"/>
      <path id="STHeiti-63" d="M 4038 3078 
L 3693 2861 
Q 3245 3456 2464 3456 
Q 1850 3456 1434 3062 
Q 1018 2669 1018 2086 
Q 1018 1504 1427 1088 
Q 1837 672 2464 672 
Q 3213 672 3693 1267 
L 4038 1037 
Q 3782 666 3350 467 
Q 2918 269 2419 269 
Q 1632 269 1104 787 
Q 576 1306 576 2054 
Q 576 2803 1110 3337 
Q 1645 3872 2483 3872 
Q 2976 3872 3395 3661 
Q 3814 3450 4038 3078 
z
" transform="scale(0.015625)"/>
      <path id="STHeiti-29" d="M 896 5370 
Q 1530 3891 1530 2118 
Q 1530 480 1024 -762 
L 538 -762 
Q 1062 506 1062 2176 
Q 1062 3027 886 3865 
Q 710 4704 384 5370 
L 896 5370 
z
" transform="scale(0.015625)"/>
     </defs>
     <use xlink:href="#STHeiti-28"/>
     <use xlink:href="#STHeiti-53" transform="translate(36.899994 0)"/>
     <use xlink:href="#STHeiti-6b" transform="translate(86.699982 0)"/>
     <use xlink:href="#STHeiti-69" transform="translate(136.899979 0)"/>
     <use xlink:href="#STHeiti-70" transform="translate(156.899963 0)"/>
     <use xlink:href="#STHeiti-20" transform="translate(225.099945 0)"/>
     <use xlink:href="#STHeiti-43" transform="translate(250.09993 0)"/>
     <use xlink:href="#STHeiti-6f" transform="translate(331.399918 0)"/>
     <use xlink:href="#STHeiti-6e" transform="translate(396.899902 0)"/>
     <use xlink:href="#STHeiti-6e" transform="translate(457.899887 0)"/>
     <use xlink:href="#STHeiti-65" transform="translate(518.899872 0)"/>
     <use xlink:href="#STHeiti-63" transform="translate(583.899857 0)"/>
     <use xlink:href="#STHeiti-74" transform="translate(648.599854 0)"/>
     <use xlink:href="#STHeiti-69" transform="translate(682.499847 0)"/>
     <use xlink:href="#STHeiti-6f" transform="translate(702.499832 0)"/>
     <use xlink:href="#STHeiti-6e" transform="translate(767.999817 0)"/>
     <use xlink:href="#STHeiti-29" transform="translate(828.999802 0)"/>
    </g>
   </g>
   <g id="patch_16">
    <path d="M 145.8 611.132171 
Q 145.8 363.383849 145.8 113.958475 
" style="fill: none; stroke-dasharray: 5.55,2.4; stroke-dashoffset: 0; stroke: #ff6f00; stroke-width: 1.5; stroke-linecap: round"/>
    <path d="M 147.8 607.132171 
L 145.8 611.132171 
L 143.8 607.132171 
" style="fill: none; stroke-dasharray: 5.55,2.4; stroke-dashoffset: 0; stroke: #ff6f00; stroke-width: 1.5; stroke-linecap: round"/>
   </g>
   <g id="text_10">
    <!-- 梯度 -->
    <g style="fill: #ff6f00" transform="translate(74.93 354.583922) scale(0.085 -0.085)">
     <defs>
      <path id="STHeiti-68af" d="M 4198 4173 
Q 4506 4614 4723 5254 
Q 5082 5069 5286 4998 
Q 5331 4986 5331 4957 
Q 5331 4928 5274 4902 
Q 5178 4870 4640 4179 
Q 5018 4186 5664 4218 
Q 5632 3770 5632 3357 
Q 5632 2944 5664 2573 
L 4346 2598 
L 4346 1952 
Q 5325 1952 5882 2016 
Q 5850 1926 5830 1568 
L 5773 634 
Q 5760 358 5705 243 
Q 5651 128 5497 67 
Q 5344 6 4941 -83 
Q 4832 211 4672 512 
Q 4813 506 4969 506 
Q 5126 506 5212 557 
Q 5299 608 5312 800 
L 5357 1530 
L 4346 1530 
L 4346 570 
Q 4346 -32 4384 -608 
L 3827 -608 
Q 3866 64 3866 570 
L 3866 1510 
Q 3443 448 2374 -493 
Q 2170 -307 1882 -179 
Q 2765 435 3424 1523 
Q 3021 1523 2586 1491 
Q 2618 1946 2618 2285 
Q 2618 2624 2586 3066 
Q 3027 3040 3866 3027 
L 3866 3744 
Q 3066 3744 2566 3718 
L 2566 4218 
Q 3347 4154 4198 4173 
z
M 4346 3744 
L 4346 3027 
L 5190 3027 
L 5190 3744 
L 4346 3744 
z
M 3866 1952 
L 3866 2598 
L 3046 2598 
L 3046 1952 
L 3866 1952 
z
M 3814 4557 
L 3328 4333 
Q 3168 4698 2970 4973 
L 3424 5203 
Q 3693 4800 3814 4557 
z
M 1139 2272 
Q 947 1664 576 858 
Q 474 1114 262 1434 
Q 563 1824 742 2227 
Q 922 2630 1114 3302 
Q 736 3296 371 3251 
L 371 3782 
Q 672 3738 1139 3731 
Q 1139 4742 1088 5088 
Q 1286 5062 1446 5062 
L 1690 5069 
Q 1766 5069 1766 5033 
Q 1766 4998 1683 4896 
Q 1613 4813 1613 3731 
Q 2010 3738 2278 3782 
L 2278 3251 
Q 1933 3296 1613 3302 
L 1613 602 
Q 1613 6 1651 -640 
L 1101 -640 
Q 1139 0 1139 602 
L 1139 2272 
z
M 2010 2541 
Q 2285 2093 2477 1734 
L 2054 1517 
Q 1888 1939 1632 2368 
L 2010 2541 
z
" transform="scale(0.015625)"/>
      <path id="STHeiti-5ea6" d="M 3661 4557 
Q 5344 4563 5779 4614 
L 5779 4090 
Q 5133 4147 4275 4147 
L 1510 4147 
Q 1542 3526 1542 2995 
Q 1542 1786 1379 931 
Q 1216 77 858 -557 
Q 608 -294 326 -160 
Q 685 352 851 1081 
Q 1018 1811 1018 2726 
Q 1018 3642 934 4614 
Q 1446 4563 3059 4557 
Q 3008 4806 2854 5101 
L 3437 5210 
Q 3533 4909 3661 4557 
z
M 2522 3430 
Q 2515 3840 2464 3987 
Q 2707 3923 2938 3923 
L 3053 3930 
Q 3091 3930 3091 3907 
Q 3091 3885 3059 3846 
Q 2989 3770 2982 3430 
L 4269 3430 
Q 4269 3898 4230 4045 
Q 4454 3974 4685 3974 
L 4845 3987 
Q 4877 3987 4877 3968 
Q 4877 3949 4838 3910 
Q 4774 3840 4768 3430 
Q 5472 3437 5888 3482 
L 5888 3014 
Q 5421 3066 4768 3072 
L 4768 2746 
Q 4768 2336 4813 2086 
Q 4538 2138 3658 2138 
Q 2778 2138 2477 2086 
Q 2522 2387 2522 2707 
L 2522 3066 
Q 2074 3059 1773 3014 
L 1773 3482 
Q 2080 3437 2522 3430 
z
M 2982 3072 
L 2982 2522 
L 4269 2522 
L 4269 3072 
L 2982 3072 
z
M 2336 1382 
Q 1997 1363 1843 1344 
L 1843 1824 
Q 2541 1766 3574 1766 
Q 4608 1766 5267 1824 
Q 4787 851 4090 365 
Q 4832 83 5760 83 
Q 5907 83 6067 90 
Q 5824 -192 5779 -557 
Q 4499 -422 3629 64 
Q 2976 -307 1869 -582 
Q 1773 -326 1459 -26 
Q 2278 13 3168 358 
Q 2707 723 2336 1382 
z
M 2880 1389 
Q 3162 877 3622 582 
Q 4147 928 4435 1389 
L 2880 1389 
z
" transform="scale(0.015625)"/>
     </defs>
     <use xlink:href="#STHeiti-68af"/>
     <use xlink:href="#STHeiti-5ea6" transform="translate(99.999985 0)"/>
    </g>
    <!-- 高速路 -->
    <g style="fill: #ff6f00" transform="translate(70.68 363.842016) scale(0.085 -0.085)">
     <defs>
      <path id="STHeiti-9ad8" d="M 3558 4621 
Q 5421 4634 5843 4672 
L 5843 4147 
Q 5440 4186 3414 4186 
Q 1389 4186 493 4122 
L 493 4672 
Q 1274 4621 2944 4621 
Q 2842 4979 2720 5165 
L 3507 5254 
Q 3507 5018 3558 4621 
z
M 4909 3846 
Q 4870 3584 4870 3257 
Q 4870 2931 4915 2573 
Q 4314 2611 3232 2611 
Q 2150 2611 1434 2560 
Q 1485 2835 1485 3187 
Q 1485 3539 1446 3834 
Q 2074 3776 3088 3776 
Q 4102 3776 4909 3846 
z
M 1997 3418 
L 1997 3002 
L 4378 3002 
L 4378 3418 
L 1997 3418 
z
M 4442 -621 
Q 4461 -550 4461 -486 
Q 4461 -301 4262 -45 
Q 4506 -64 4691 -64 
Q 4877 -64 4941 -6 
Q 5005 51 5005 205 
L 5005 1811 
L 1350 1811 
L 1350 -576 
L 774 -576 
Q 832 -109 832 320 
L 832 1664 
Q 832 1990 781 2278 
Q 1632 2214 3254 2214 
Q 4877 2214 5606 2285 
Q 5549 2042 5549 1664 
L 5549 147 
Q 5549 -166 5488 -304 
Q 5427 -442 5203 -512 
Q 4979 -582 4442 -621 
z
M 4416 1440 
Q 4384 1120 4384 784 
Q 4384 448 4422 109 
Q 4096 134 3267 134 
Q 2438 134 1920 96 
Q 1952 429 1952 761 
Q 1952 1094 1926 1427 
Q 2227 1376 3126 1376 
Q 4026 1376 4416 1440 
z
M 2438 992 
L 2438 525 
L 3898 525 
L 3898 992 
L 2438 992 
z
" transform="scale(0.015625)"/>
      <path id="STHeiti-901f" d="M 3635 2086 
Q 3386 1606 3085 1270 
Q 2784 934 2240 518 
Q 2048 826 1722 947 
Q 2746 1338 3283 2189 
Q 2682 2189 2195 2157 
Q 2246 2528 2246 2995 
Q 2246 3462 2195 3795 
Q 2701 3744 3635 3744 
L 3635 4218 
Q 2688 4211 1946 4154 
L 1946 4710 
Q 2733 4653 3635 4646 
Q 3629 5043 3590 5293 
Q 3795 5242 4198 5242 
Q 4301 5242 4301 5210 
Q 4301 5178 4208 5085 
Q 4115 4992 4115 4838 
L 4115 4646 
Q 5152 4646 5837 4698 
L 5837 4154 
Q 5082 4211 4115 4218 
L 4115 3744 
Q 4960 3750 5613 3795 
Q 5568 3488 5568 2957 
Q 5568 2426 5613 2144 
Q 5082 2182 4115 2189 
L 4115 1645 
Q 4115 1030 4166 442 
L 3590 442 
Q 3635 941 3635 1645 
L 3635 2086 
z
M 4115 3322 
L 4115 2598 
L 5088 2598 
L 5088 3322 
L 4115 3322 
z
M 3635 2598 
L 3635 3322 
L 2720 3322 
L 2720 2598 
L 3635 2598 
z
M 1619 3814 
L 1024 3610 
Q 883 4224 589 4730 
L 1133 4928 
Q 1357 4442 1619 3814 
z
M 1485 531 
Q 1850 461 2349 230 
Q 2694 70 3555 70 
Q 4416 70 6029 314 
Q 5850 -45 5818 -390 
Q 4672 -429 3859 -429 
Q 3046 -429 2614 -342 
Q 2182 -256 1779 -32 
Q 1536 109 1389 109 
Q 1242 109 1101 -28 
Q 960 -166 762 -474 
Q 531 -218 256 -70 
Q 723 371 960 480 
L 960 2496 
Q 582 2496 358 2458 
L 358 3008 
Q 666 2963 973 2963 
Q 1280 2963 1555 3008 
Q 1485 2701 1485 2253 
L 1485 531 
z
M 5869 1171 
L 5485 698 
Q 5082 1203 4307 1619 
L 4666 1984 
Q 5402 1510 5869 1171 
z
" transform="scale(0.015625)"/>
      <path id="STHeiti-8def" d="M 4358 2605 
Q 3827 2195 3238 1894 
Q 3635 1850 4467 1850 
Q 5299 1850 5523 1901 
Q 5478 1715 5478 1389 
L 5478 326 
Q 5478 -102 5536 -493 
L 4986 -493 
L 4986 -19 
L 3699 -19 
L 3699 -595 
L 3149 -595 
Q 3213 -166 3213 218 
L 3213 1389 
Q 3213 1542 3174 1862 
Q 3078 1805 2982 1766 
Q 2829 2003 2605 2182 
Q 3392 2381 4077 2886 
Q 3782 3226 3552 3776 
Q 3354 3366 3162 3066 
Q 2963 3206 2707 3264 
Q 3027 3667 3289 4211 
Q 3552 4755 3648 5210 
Q 3955 5139 4128 5129 
Q 4301 5120 4301 5088 
Q 4301 5056 4237 5005 
Q 4083 4864 3917 4550 
L 5709 4550 
Q 5344 3590 4698 2899 
Q 5242 2579 6170 2470 
Q 5971 2170 5869 1856 
Q 4941 2150 4358 2605 
z
M 4365 3155 
Q 4717 3565 5011 4160 
L 3744 4160 
Q 4013 3501 4365 3155 
z
M 3699 410 
L 4986 410 
L 4986 1434 
L 3699 1434 
L 3699 410 
z
M 1600 442 
L 1600 2822 
Q 1107 2816 704 2778 
Q 749 3245 749 3837 
Q 749 4429 704 4768 
Q 1069 4710 1654 4710 
Q 2240 4710 2662 4768 
Q 2618 4333 2618 3785 
Q 2618 3238 2662 2771 
Q 2438 2810 2035 2816 
L 2035 2054 
Q 2432 2061 2618 2099 
L 2618 1638 
Q 2477 1677 2035 1683 
L 2035 544 
Q 2528 672 2822 768 
Q 2797 634 2797 493 
Q 2797 352 2803 269 
Q 2221 147 1517 -67 
Q 813 -282 557 -416 
Q 512 -134 384 218 
Q 474 224 704 262 
L 704 1402 
Q 704 1888 666 2195 
Q 922 2144 1235 2144 
Q 1318 2144 1318 2112 
Q 1318 2080 1260 2045 
Q 1203 2010 1168 1939 
Q 1133 1869 1133 1818 
L 1133 339 
Q 1440 403 1600 442 
z
M 1216 4301 
L 1216 3232 
L 2144 3232 
L 2144 4301 
L 1216 4301 
z
" transform="scale(0.015625)"/>
     </defs>
     <use xlink:href="#STHeiti-9ad8"/>
     <use xlink:href="#STHeiti-901f" transform="translate(99.999985 0)"/>
     <use xlink:href="#STHeiti-8def" transform="translate(199.999969 0)"/>
    </g>
   </g>
   <g id="text_11">
    <g id="patch_17">
     <path d="M 220.02 679.86 
L 348.78 679.86 
Q 352.38 679.86 352.38 676.26 
L 352.38 665.1 
Q 352.38 661.5 348.78 661.5 
L 220.02 661.5 
Q 216.42 661.5 216.42 665.1 
L 216.42 676.26 
Q 216.42 679.86 220.02 679.86 
z
" style="fill: #fff9c4; stroke: #f9a825; stroke-width: 1.5; stroke-linejoin: miter"/>
    </g>
    <!-- $h_l = h_{l-1} + \mathcal{F}(h_{l-1},\,W)$ -->
    <g style="fill: #1a1a2e" transform="translate(220.02 674.22) scale(0.12 -0.12)">
     <defs>
      <path id="DejaVuSans-3d" d="M 678 2906 
L 4684 2906 
L 4684 2381 
L 678 2381 
L 678 2906 
z
M 678 1631 
L 4684 1631 
L 4684 1100 
L 678 1100 
L 678 1631 
z
" transform="scale(0.015625)"/>
      <path id="DejaVuSans-2b" d="M 2944 4013 
L 2944 2272 
L 4684 2272 
L 4684 1741 
L 2944 1741 
L 2944 0 
L 2419 0 
L 2419 1741 
L 678 1741 
L 678 2272 
L 2419 2272 
L 2419 4013 
L 2944 4013 
z
" transform="scale(0.015625)"/>
      <path id="STIXNonUnicode-Italic-e232" d="M 378 3418 
L 275 3533 
Q 730 3955 1174 4096 
Q 1619 4237 2163 4237 
Q 2714 4237 3110 4208 
Q 3507 4179 3849 4099 
Q 4192 4019 4368 3868 
Q 4544 3718 4544 3488 
Q 4544 3270 4429 3123 
Q 4314 2976 4109 2976 
Q 3962 2976 3853 3062 
Q 3744 3149 3744 3277 
Q 3744 3398 3792 3465 
Q 3840 3533 3897 3549 
Q 3955 3565 4000 3593 
Q 4045 3622 4045 3680 
Q 4045 3808 3696 3894 
Q 3347 3981 2893 3981 
Q 2694 3981 2608 3920 
Q 2522 3859 2464 3667 
L 2099 2413 
L 3494 2413 
L 3411 2157 
L 2029 2157 
L 1747 1203 
Q 1626 787 1491 537 
Q 1357 288 1174 173 
Q 992 58 829 29 
Q 666 0 384 0 
L 435 154 
Q 608 154 726 288 
Q 845 422 934 742 
L 1690 3334 
Q 1754 3558 1754 3667 
Q 1754 3776 1690 3827 
Q 1626 3878 1459 3878 
Q 858 3878 378 3418 
z
" transform="scale(0.015625)"/>
      <path id="DejaVuSans-28" d="M 1984 4856 
Q 1566 4138 1362 3434 
Q 1159 2731 1159 2009 
Q 1159 1288 1364 580 
Q 1569 -128 1984 -844 
L 1484 -844 
Q 1016 -109 783 600 
Q 550 1309 550 2009 
Q 550 2706 781 3412 
Q 1013 4119 1484 4856 
L 1984 4856 
z
" transform="scale(0.015625)"/>
      <path id="DejaVuSans-2c" d="M 750 794 
L 1409 794 
L 1409 256 
L 897 -744 
L 494 -744 
L 750 256 
L 750 794 
z
" transform="scale(0.015625)"/>
      <path id="DejaVuSans-Oblique-57" d="M 616 4666 
L 1228 4666 
L 1453 697 
L 3213 4666 
L 3916 4666 
L 4147 697 
L 5888 4666 
L 6528 4666 
L 4453 0 
L 3659 0 
L 3444 3891 
L 1697 0 
L 903 0 
L 616 4666 
z
" transform="scale(0.015625)"/>
      <path id="DejaVuSans-29" d="M 513 4856 
L 1013 4856 
Q 1481 4119 1714 3412 
Q 1947 2706 1947 2009 
Q 1947 1309 1714 600 
Q 1481 -109 1013 -844 
L 513 -844 
Q 928 -128 1133 580 
Q 1338 1288 1338 2009 
Q 1338 2731 1133 3434 
Q 928 4138 513 4856 
z
" transform="scale(0.015625)"/>
     </defs>
     <use xlink:href="#DejaVuSans-Oblique-68" transform="translate(0 0.015625)"/>
     <use xlink:href="#DejaVuSans-Oblique-6c" transform="translate(63.378906 -16.390625) scale(0.7)"/>
     <use xlink:href="#DejaVuSans-3d" transform="translate(105.043945 0.015625)"/>
     <use xlink:href="#DejaVuSans-Oblique-68" transform="translate(208.31543 0.015625)"/>
     <use xlink:href="#DejaVuSans-Oblique-6c" transform="translate(271.694336 -16.390625) scale(0.7)"/>
     <use xlink:href="#DejaVuSans-2212" transform="translate(304.780273 -16.390625) scale(0.7)"/>
     <use xlink:href="#DejaVuSans-31" transform="translate(377.070312 -16.390625) scale(0.7)"/>
     <use xlink:href="#DejaVuSans-2b" transform="translate(443.823242 0.015625)"/>
     <use xlink:href="#STIXNonUnicode-Italic-e232" transform="translate(547.094727 0.015625)"/>
     <use xlink:href="#DejaVuSans-28" transform="translate(612.294724 0.015625)"/>
     <use xlink:href="#DejaVuSans-Oblique-68" transform="translate(651.308395 0.015625)"/>
     <use xlink:href="#DejaVuSans-Oblique-6c" transform="translate(714.687302 -16.390625) scale(0.7)"/>
     <use xlink:href="#DejaVuSans-2212" transform="translate(747.773239 -16.390625) scale(0.7)"/>
     <use xlink:href="#DejaVuSans-31" transform="translate(820.063278 -16.390625) scale(0.7)"/>
     <use xlink:href="#DejaVuSans-2c" transform="translate(867.333786 0.015625)"/>
     <use xlink:href="#DejaVuSans-Oblique-57" transform="translate(934.838994 0.015625)"/>
     <use xlink:href="#DejaVuSans-29" transform="translate(1033.715947 0.015625)"/>
    </g>
   </g>
  </g>
 </g>
 <defs>
  <clipPath id="p983191aa8e">
   <rect x="7.2" y="7.2" width="554.4" height="698.4"/>
  </clipPath>
 </defs>
</svg>
