<?xml version="1.0" encoding="utf-8" standalone="no"?>
<!DOCTYPE svg PUBLIC "-//W3C//DTD SVG 1.1//EN"
  "http://www.w3.org/Graphics/SVG/1.1/DTD/svg11.dtd">
<svg xmlns:xlink="http://www.w3.org/1999/xlink" width="1000.8pt" height="424.8pt" viewBox="0 0 1000.8 424.8" xmlns="http://www.w3.org/2000/svg" version="1.1">
 <metadata>
  <rdf:RDF xmlns:dc="http://purl.org/dc/elements/1.1/" xmlns:cc="http://creativecommons.org/ns#" xmlns:rdf="http://www.w3.org/1999/02/22-rdf-syntax-ns#">
   <cc:Work>
    <dc:type rdf:resource="http://purl.org/dc/dcmitype/StillImage"/>
    <dc:date>2026-05-09T14:19:06.554097</dc:date>
    <dc:format>image/svg+xml</dc:format>
    <dc:creator>
     <cc:Agent>
      <dc:title>Matplotlib v3.10.8, https://matplotlib.org/</dc:title>
     </cc:Agent>
    </dc:creator>
   </cc:Work>
  </rdf:RDF>
 </metadata>
 <defs>
  <style type="text/css">*{stroke-linejoin: round; stroke-linecap: butt}</style>
 </defs>
 <g id="figure_1">
  <g id="patch_1">
   <path d="M 0 424.8 
L 1000.8 424.8 
L 1000.8 0 
L 0 0 
z
" style="fill: #ffffff"/>
  </g>
  <g id="axes_1">
   <g id="patch_2">
    <path d="M 67.088571 205.56 
L 158.682857 205.56 
Q 162.205714 205.56 162.205714 202.14 
L 162.205714 154.26 
Q 162.205714 150.84 158.682857 150.84 
L 67.088571 150.84 
Q 63.565714 150.84 63.565714 154.26 
L 63.565714 202.14 
Q 63.565714 205.56 67.088571 205.56 
z
" clip-path="url(#p7de3af1158)" style="fill: #e3f2fd; stroke: #1565c0; stroke-width: 2; stroke-linejoin: miter"/>
   </g>
   <g id="patch_3">
    <path d="M 222.094286 205.56 
L 313.688571 205.56 
Q 317.211429 205.56 317.211429 202.14 
L 317.211429 154.26 
Q 317.211429 150.84 313.688571 150.84 
L 222.094286 150.84 
Q 218.571429 150.84 218.571429 154.26 
L 218.571429 202.14 
Q 218.571429 205.56 222.094286 205.56 
z
" clip-path="url(#p7de3af1158)" style="fill: #e3f2fd; stroke: #1565c0; stroke-width: 2; stroke-linejoin: miter"/>
   </g>
   <g id="patch_4">
    <path d="M 377.1 205.56 
L 468.694286 205.56 
Q 472.217143 205.56 472.217143 202.14 
L 472.217143 154.26 
Q 472.217143 150.84 468.694286 150.84 
L 377.1 150.84 
Q 373.577143 150.84 373.577143 154.26 
L 373.577143 202.14 
Q 373.577143 205.56 377.1 205.56 
z
" clip-path="url(#p7de3af1158)" style="fill: #e3f2fd; stroke: #1565c0; stroke-width: 2; stroke-linejoin: miter"/>
   </g>
   <g id="patch_5">
    <path d="M 532.105714 205.56 
L 623.7 205.56 
Q 627.222857 205.56 627.222857 202.14 
L 627.222857 154.26 
Q 627.222857 150.84 623.7 150.84 
L 532.105714 150.84 
Q 528.582857 150.84 528.582857 154.26 
L 528.582857 202.14 
Q 528.582857 205.56 532.105714 205.56 
z
" clip-path="url(#p7de3af1158)" style="fill: #e3f2fd; stroke: #1565c0; stroke-width: 2; stroke-linejoin: miter"/>
   </g>
   <g id="patch_6">
    <path d="M 687.111429 205.56 
L 778.705714 205.56 
Q 782.228571 205.56 782.228571 202.14 
L 782.228571 154.26 
Q 782.228571 150.84 778.705714 150.84 
L 687.111429 150.84 
Q 683.588571 150.84 683.588571 154.26 
L 683.588571 202.14 
Q 683.588571 205.56 687.111429 205.56 
z
" clip-path="url(#p7de3af1158)" style="fill: #e3f2fd; stroke: #1565c0; stroke-width: 2; stroke-linejoin: miter"/>
   </g>
   <g id="patch_7">
    <path d="M 842.117143 205.56 
L 933.711429 205.56 
Q 937.234286 205.56 937.234286 202.14 
L 937.234286 154.26 
Q 937.234286 150.84 933.711429 150.84 
L 842.117143 150.84 
Q 838.594286 150.84 838.594286 154.26 
L 838.594286 202.14 
Q 838.594286 205.56 842.117143 205.56 
z
" clip-path="url(#p7de3af1158)" style="fill: #e3f2fd; stroke: #1565c0; stroke-width: 2; stroke-linejoin: miter"/>
   </g>
   <g id="text_1">
    <!-- 线性注意力（状态空间递推）示意图 -->
    <g style="fill: #1a1a2e" transform="translate(372.4 33.175) scale(0.16 -0.16)">
     <defs>
      <path id="STHeiti-7ebf" d="M 1549 2829 
L 979 2726 
Q 755 2688 467 2605 
Q 467 2694 419 2851 
Q 371 3008 307 3104 
Q 538 3206 893 3833 
Q 1248 4461 1491 5235 
Q 1786 5056 2074 4998 
Q 2163 4979 2163 4924 
Q 2163 4870 2093 4838 
Q 1939 4774 1734 4473 
Q 1530 4173 947 3130 
L 1798 3258 
Q 2067 3731 2150 4058 
Q 2470 3866 2733 3795 
Q 2810 3776 2810 3721 
Q 2810 3667 2720 3644 
Q 2630 3622 2509 3462 
Q 2906 3462 3405 3565 
L 3366 5203 
Q 3482 5178 3622 5162 
Q 3763 5146 3853 5146 
L 3994 5152 
Q 4083 5152 4083 5088 
Q 4083 5050 4051 5021 
Q 4019 4992 3971 4883 
Q 3923 4774 3917 4589 
L 3891 3661 
Q 4890 3872 5670 4083 
L 5773 3590 
Q 5254 3526 3904 3245 
Q 3936 2771 3974 2528 
Q 5645 2893 5856 2957 
L 5958 2464 
Q 5933 2483 4045 2112 
Q 4147 1568 4346 1152 
Q 4838 1619 5107 2067 
Q 5363 1856 5606 1734 
Q 5664 1702 5664 1664 
Q 5664 1626 5600 1619 
Q 5536 1613 5344 1453 
Q 5152 1293 4998 1113 
Q 4845 934 4602 717 
Q 4787 474 5033 275 
Q 5280 77 5363 77 
Q 5446 77 5488 272 
Q 5530 467 5555 742 
Q 5779 429 6125 371 
Q 5978 -122 5850 -362 
Q 5722 -602 5546 -602 
Q 5370 -602 4947 -320 
Q 4525 -38 4230 403 
Q 3443 -205 2778 -531 
Q 2650 -269 2387 -70 
Q 2797 38 3110 227 
Q 3424 416 3962 832 
Q 3706 1325 3558 2003 
Q 2925 1862 2637 1773 
L 2534 2278 
Q 2963 2342 3482 2438 
Q 3430 2861 3418 3136 
Q 2912 3014 2586 2912 
L 2464 3405 
Q 2253 3130 1254 1626 
Q 1946 1677 2509 1830 
Q 2483 1728 2483 1625 
Q 2483 1523 2502 1382 
L 1325 1184 
Q 685 1069 646 1037 
Q 646 1325 480 1626 
Q 755 1728 1001 2022 
Q 1248 2317 1549 2829 
z
M 5331 4352 
L 4826 4064 
Q 4621 4442 4384 4717 
L 4883 4966 
Q 5210 4506 5331 4352 
z
M 2547 864 
Q 2528 794 2528 662 
Q 2528 531 2566 384 
Q 1082 70 576 -224 
Q 538 96 384 410 
Q 979 410 2547 864 
z
" transform="scale(0.015625)"/>
      <path id="STHeiti-6027" d="M 3277 3379 
Q 3187 2970 3066 2637 
Q 2912 2694 2768 2694 
Q 2624 2694 2528 2675 
Q 2938 3469 2995 4742 
Q 3302 4608 3552 4595 
Q 3686 4589 3686 4547 
Q 3686 4506 3610 4461 
Q 3494 4403 3373 3859 
L 4096 3859 
L 4096 4422 
Q 4096 4941 4070 5178 
Q 4320 5139 4678 5139 
Q 4749 5139 4749 5101 
Q 4749 5075 4688 5024 
Q 4627 4973 4627 4838 
L 4627 3866 
Q 5363 3872 5914 3910 
L 5914 3334 
Q 5382 3379 4627 3379 
L 4627 2202 
Q 5306 2208 5760 2266 
L 5760 1683 
Q 5325 1747 4627 1754 
L 4627 237 
Q 5453 243 6048 301 
L 6048 -326 
Q 5434 -256 4240 -256 
Q 3046 -256 2362 -333 
L 2362 294 
Q 2918 237 4096 237 
L 4096 1754 
Q 3328 1747 2861 1683 
L 2861 2266 
Q 3360 2208 4096 2202 
L 4096 3379 
L 3277 3379 
z
M 1190 5088 
Q 1434 5043 1811 5043 
Q 1971 5043 1971 4985 
Q 1971 4928 1891 4877 
Q 1811 4826 1776 4733 
Q 1741 4640 1741 4550 
L 1741 467 
Q 1741 58 1798 -595 
L 1190 -595 
Q 1235 -77 1235 474 
L 1235 4230 
Q 1235 4666 1190 5088 
z
M 2618 3174 
L 2157 2970 
Q 2067 3405 1843 3750 
L 2266 3949 
Q 2483 3552 2618 3174 
z
M 922 3750 
Q 877 3072 858 2163 
L 269 2202 
Q 442 2822 442 3494 
Q 442 3629 435 3770 
L 922 3750 
z
" transform="scale(0.015625)"/>
      <path id="STHeiti-6ce8" d="M 4384 4563 
L 3750 4358 
Q 3680 4755 3482 5114 
L 4083 5312 
Q 4282 4909 4384 4563 
z
M 2042 4390 
L 1651 3917 
Q 1248 4346 787 4627 
L 1158 5050 
Q 1632 4742 2042 4390 
z
M 3699 230 
L 3699 1926 
Q 2893 1920 2432 1862 
L 2432 2470 
Q 2893 2413 3699 2406 
L 3699 3750 
Q 2726 3744 2195 3686 
L 2195 4288 
Q 2816 4224 4041 4224 
Q 5267 4224 5888 4288 
L 5888 3686 
Q 5318 3744 4256 3750 
L 4256 2406 
Q 5146 2413 5651 2470 
L 5651 1862 
Q 5146 1920 4256 1926 
L 4256 230 
Q 5357 237 5939 294 
L 5939 -307 
Q 5274 -243 3962 -243 
Q 2650 -243 1984 -307 
L 1984 294 
Q 2579 237 3699 230 
z
M 1754 2938 
L 1363 2451 
Q 986 2874 416 3117 
L 781 3558 
Q 1325 3270 1754 2938 
z
M 1818 1779 
Q 1555 973 1178 -499 
Q 870 -243 518 -128 
Q 941 557 1299 2099 
Q 1510 1882 1818 1779 
z
" transform="scale(0.015625)"/>
      <path id="STHeiti-610f" d="M 2970 4723 
Q 2906 4992 2803 5197 
L 3469 5306 
Q 3597 4794 3622 4723 
Q 4851 4730 5536 4768 
L 5536 4288 
Q 4627 4339 3177 4339 
Q 1728 4339 819 4288 
L 819 4768 
Q 1510 4723 2970 4723 
z
M 2150 3731 
Q 2067 3910 1888 4096 
L 2522 4275 
Q 2618 4058 2758 3878 
Q 2413 3789 2259 3731 
L 3725 3731 
Q 3917 4013 3994 4275 
Q 4326 4186 4685 4134 
Q 4749 4122 4749 4109 
Q 4749 4096 4704 4083 
Q 4493 4019 4288 3731 
Q 5248 3731 5888 3770 
L 5888 3290 
Q 5274 3341 3261 3341 
Q 1248 3341 557 3290 
L 557 3770 
Q 1133 3731 2150 3731 
z
M 5178 1069 
Q 4774 1101 3248 1101 
Q 1722 1101 1325 1069 
Q 1382 1229 1382 1510 
L 1382 2541 
Q 1382 2829 1325 2989 
Q 1722 2957 3248 2957 
Q 4774 2957 5178 2989 
Q 5114 2842 5114 2541 
L 5114 1510 
Q 5114 1216 5178 1069 
z
M 4634 2208 
L 4634 2566 
L 1862 2566 
L 1862 2208 
L 4634 2208 
z
M 1862 1830 
L 1862 1485 
L 4634 1485 
L 4634 1830 
L 1862 1830 
z
M 3846 461 
L 3226 256 
Q 3130 602 2906 890 
L 3494 1056 
Q 3757 582 3846 461 
z
M 6048 134 
L 5542 -224 
Q 5216 314 4851 666 
L 5293 909 
L 6048 134 
z
M 4902 339 
Q 4678 -294 4444 -390 
Q 4211 -486 2957 -486 
Q 2349 -486 2211 -451 
Q 2074 -416 2006 -374 
Q 1939 -333 1939 -70 
L 1939 461 
Q 1939 672 1901 838 
Q 2086 781 2195 768 
Q 2304 755 2435 755 
Q 2566 755 2566 732 
Q 2566 710 2499 665 
Q 2432 621 2432 525 
L 2432 282 
Q 2432 154 2464 77 
Q 2496 0 2573 -35 
Q 2650 -70 3002 -70 
Q 3354 -70 3696 -41 
Q 4038 -13 4124 22 
Q 4211 58 4256 173 
Q 4301 288 4339 582 
Q 4550 378 4902 339 
z
M 1568 621 
Q 1318 38 1056 -435 
L 518 -218 
Q 877 192 998 768 
L 1568 621 
z
" transform="scale(0.015625)"/>
      <path id="STHeiti-529b" d="M 3270 3386 
Q 3066 1760 2554 989 
Q 2042 218 947 -499 
Q 678 -230 378 -109 
Q 1453 358 2032 1248 
Q 2611 2138 2682 3386 
Q 1248 3386 781 3328 
L 781 3923 
Q 1203 3872 2714 3866 
Q 2797 5082 2778 5267 
Q 3104 5139 3507 5114 
Q 3610 5107 3610 5062 
Q 3610 5018 3533 4966 
Q 3482 4928 3443 4742 
Q 3405 4557 3328 3866 
Q 5395 3866 5715 3923 
L 5389 582 
Q 5350 198 5241 6 
Q 5133 -186 4848 -304 
Q 4563 -422 3936 -538 
Q 3853 -122 3661 141 
Q 4154 134 4387 185 
Q 4621 237 4713 381 
Q 4806 525 4838 832 
L 5094 3386 
L 3270 3386 
z
" transform="scale(0.015625)"/>
      <path id="STHeiti-ff08" d="M 5651 -749 
L 5274 -749 
Q 4646 173 4409 835 
Q 4173 1498 4173 2266 
Q 4173 3034 4432 3750 
Q 4691 4467 5254 5267 
L 5645 5267 
Q 5082 4237 4928 3606 
Q 4774 2976 4774 2093 
Q 4774 1472 4953 861 
Q 5133 250 5651 -749 
z
" transform="scale(0.015625)"/>
      <path id="STHeiti-72b6" d="M 4173 2163 
Q 3936 365 2925 -493 
Q 2694 -250 2438 -128 
Q 3098 416 3434 1168 
Q 3770 1920 3821 3021 
Q 3040 3002 2605 2957 
L 2605 3526 
Q 3149 3469 3840 3462 
Q 3859 4621 3795 5274 
Q 4160 5216 4480 5216 
Q 4557 5216 4557 5184 
Q 4557 5152 4518 5120 
Q 4480 5088 4432 4912 
Q 4384 4736 4384 4614 
Q 4371 3981 4333 3462 
Q 5440 3462 6003 3526 
L 6003 2957 
Q 5440 3021 4352 3021 
Q 4634 672 6125 198 
Q 5856 -77 5696 -429 
Q 5235 -115 4918 253 
Q 4602 621 4451 1011 
Q 4301 1402 4173 2163 
z
M 1715 5190 
Q 1907 5152 2067 5152 
Q 2458 5152 2458 5110 
Q 2458 5069 2394 5018 
Q 2298 4934 2298 4774 
L 2298 499 
Q 2298 -19 2355 -563 
L 1728 -563 
Q 1779 -83 1779 499 
L 1779 4179 
Q 1779 4883 1715 5190 
z
M 5747 4045 
L 5197 3770 
Q 5011 4275 4781 4678 
L 5274 4909 
Q 5530 4493 5747 4045 
z
M 1542 3226 
L 1011 2925 
Q 774 3507 390 4006 
L 851 4301 
Q 1216 3840 1542 3226 
z
M 1690 2125 
Q 1139 1274 755 435 
Q 550 710 282 928 
Q 941 1766 1318 2573 
Q 1453 2330 1690 2125 
z
" transform="scale(0.015625)"/>
      <path id="STHeiti-6001" d="M 3021 3910 
Q 2547 2528 806 1613 
Q 608 1914 352 2112 
Q 1939 2701 2445 3910 
Q 1229 3898 506 3846 
L 506 4442 
Q 1254 4384 2579 4378 
Q 2682 4966 2682 5331 
Q 3078 5203 3418 5184 
Q 3501 5178 3501 5142 
Q 3501 5107 3443 5081 
Q 3386 5056 3338 4937 
Q 3290 4819 3162 4378 
Q 4877 4378 5741 4442 
L 5741 3859 
Q 5146 3904 3904 3910 
Q 4141 3366 4624 3049 
Q 5107 2733 6003 2528 
Q 5773 2221 5645 1894 
Q 4730 2234 4230 2688 
Q 3731 3142 3462 3910 
L 3021 3910 
z
M 3603 2221 
L 3008 2003 
Q 2886 2470 2656 2848 
L 3104 3072 
Q 3437 2586 3603 2221 
z
M 3891 960 
L 3341 691 
Q 3162 1152 2867 1517 
L 3373 1728 
Q 3725 1248 3891 960 
z
M 6048 403 
L 5453 51 
Q 5197 749 4634 1325 
L 5101 1568 
Q 5651 947 6048 403 
z
M 4845 339 
Q 4710 -83 4582 -243 
Q 4454 -403 4224 -444 
Q 3994 -486 3267 -486 
Q 2541 -486 2371 -454 
Q 2202 -422 2106 -294 
Q 2010 -166 2010 45 
L 2010 614 
Q 2010 1050 1952 1293 
Q 2234 1235 2470 1235 
L 2618 1242 
Q 2688 1242 2688 1213 
Q 2688 1184 2637 1139 
Q 2586 1094 2566 1059 
Q 2547 1024 2547 934 
L 2547 403 
Q 2547 262 2595 156 
Q 2643 51 2720 9 
Q 2797 -32 3021 -32 
Q 3245 -32 3414 -19 
Q 3584 -6 3773 22 
Q 3962 51 4000 70 
Q 4038 90 4080 157 
Q 4122 224 4166 355 
Q 4211 486 4256 704 
Q 4435 403 4845 339 
z
M 1478 1190 
Q 1293 352 1082 -237 
L 422 -96 
Q 826 525 883 1280 
L 1478 1190 
z
" transform="scale(0.015625)"/>
      <path id="STHeiti-7a7a" d="M 3654 4429 
Q 5178 4429 5766 4480 
L 5766 3309 
L 5248 3309 
L 5248 4000 
L 1139 4000 
L 1139 3194 
L 627 3194 
L 627 4480 
Q 1114 4429 3040 4429 
Q 2950 4806 2797 5146 
L 3405 5299 
Q 3603 4858 3654 4429 
z
M 2285 3571 
Q 2611 3309 2726 3257 
Q 2842 3206 2842 3171 
Q 2842 3136 2736 3097 
Q 2630 3059 1222 1984 
Q 1037 2208 806 2362 
Q 1709 2790 2285 3571 
z
M 5754 2432 
L 5376 1990 
Q 4448 2701 3616 3085 
L 3949 3469 
Q 4762 3117 5754 2432 
z
M 2880 1459 
Q 2086 1453 1478 1395 
L 1478 1984 
Q 2189 1920 3264 1920 
Q 4339 1920 5043 1984 
L 5043 1395 
Q 4493 1453 3462 1459 
L 3462 147 
Q 4992 147 5869 205 
L 5869 -390 
Q 4922 -333 3206 -333 
Q 1491 -333 563 -390 
L 563 205 
Q 1446 154 2880 147 
L 2880 1459 
z
" transform="scale(0.015625)"/>
      <path id="STHeiti-95f4" d="M 2342 4301 
L 1786 3962 
Q 1568 4531 1229 4915 
L 1741 5178 
Q 2118 4685 2342 4301 
z
M 5715 4870 
Q 5690 4755 5690 4102 
L 5690 13 
Q 5690 -282 5642 -390 
Q 5594 -499 5408 -553 
Q 5222 -608 4698 -678 
Q 4666 -358 4480 -32 
Q 4794 -70 4938 -70 
Q 5082 -70 5123 -6 
Q 5165 58 5165 262 
L 5165 4346 
L 3680 4346 
Q 3187 4346 2822 4307 
L 2822 4870 
Q 3405 4832 4301 4832 
Q 5197 4832 5715 4870 
z
M 710 3962 
Q 870 3917 1274 3917 
Q 1382 3917 1382 3869 
Q 1382 3821 1318 3744 
Q 1280 3699 1280 3552 
L 1280 -614 
L 678 -614 
Q 736 -70 736 512 
L 736 3181 
Q 736 3661 710 3962 
z
M 4416 531 
Q 4186 563 3235 563 
Q 2285 563 2048 531 
Q 2074 640 2074 998 
L 2074 3014 
Q 2074 3366 2048 3475 
Q 2285 3443 3235 3443 
Q 4186 3443 4416 3475 
Q 4384 3328 4384 3014 
L 4384 998 
Q 4384 678 4416 531 
z
M 3878 2240 
L 3878 3034 
L 2573 3034 
L 2573 2240 
L 3878 2240 
z
M 3878 998 
L 3878 1824 
L 2573 1824 
L 2573 998 
L 3878 998 
z
" transform="scale(0.015625)"/>
      <path id="STHeiti-9012" d="M 3974 4198 
Q 4288 4685 4410 5165 
Q 4774 4960 4998 4890 
Q 5030 4877 5030 4854 
Q 5030 4832 4979 4800 
Q 4819 4717 4416 4198 
Q 5030 4205 5555 4243 
Q 5523 3891 5523 3472 
Q 5523 3053 5555 2758 
Q 5126 2778 4160 2790 
L 4160 2144 
Q 5434 2157 5811 2195 
Q 5786 2131 5760 1766 
L 5709 1043 
Q 5696 883 5641 793 
Q 5587 704 5424 633 
Q 5261 563 4915 480 
Q 4819 787 4634 1030 
Q 4781 1011 4896 1011 
Q 5254 1011 5274 1210 
L 5318 1747 
L 4160 1747 
L 4160 1293 
Q 4160 768 4198 173 
L 3661 173 
Q 3699 768 3699 1293 
L 3699 1606 
Q 3315 851 2368 320 
Q 2138 557 1888 672 
Q 2880 1037 3328 1741 
Q 2669 1741 2182 1702 
Q 2214 2067 2214 2432 
Q 2214 2797 2182 3232 
Q 2746 3187 3699 3187 
L 3699 3802 
Q 2739 3802 2144 3763 
L 2144 4243 
Q 2790 4198 3974 4198 
z
M 4160 3802 
L 4160 3187 
L 5114 3187 
L 5114 3802 
L 4160 3802 
z
M 3699 2144 
L 3699 2790 
L 2630 2790 
L 2630 2144 
L 3699 2144 
z
M 3475 4493 
L 3002 4269 
Q 2880 4582 2650 4883 
L 3098 5094 
Q 3251 4794 3475 4493 
z
M 1651 3597 
L 1114 3392 
Q 934 4032 646 4589 
L 1165 4755 
Q 1382 4282 1651 3597 
z
M 1562 397 
Q 1766 371 2163 211 
Q 2739 -26 3917 -26 
Q 4915 -26 6138 154 
Q 5984 -90 5984 -314 
Q 5984 -378 5997 -442 
Q 4813 -506 4131 -506 
Q 3450 -506 2973 -435 
Q 2496 -365 1914 -122 
Q 1638 -6 1459 -6 
Q 1280 -6 1149 -160 
Q 1018 -314 883 -640 
Q 640 -454 358 -301 
Q 858 192 1088 326 
L 1088 2406 
Q 512 2406 403 2381 
L 403 2886 
Q 653 2848 995 2848 
Q 1338 2848 1619 2886 
Q 1562 2573 1562 2138 
L 1562 397 
z
" transform="scale(0.015625)"/>
      <path id="STHeiti-63a8" d="M 4986 4499 
L 4448 4198 
Q 4307 4550 3994 4902 
L 4493 5197 
Q 4723 4819 4986 4499 
z
M 3251 -32 
L 3251 -544 
L 2701 -544 
Q 2771 -58 2771 832 
L 2771 3027 
Q 2598 2733 2477 2554 
Q 2291 2739 2035 2816 
Q 2810 3552 3085 5190 
Q 3507 5018 3648 5002 
Q 3789 4986 3789 4941 
Q 3789 4896 3705 4838 
Q 3622 4781 3548 4643 
Q 3475 4506 3277 4064 
L 4454 4064 
Q 5670 4064 5882 4096 
L 5882 3578 
Q 5734 3603 4698 3603 
L 4698 2874 
Q 5549 2880 5690 2906 
L 5690 2387 
Q 5536 2413 4698 2419 
L 4698 1626 
Q 5555 1632 5702 1658 
L 5702 1146 
Q 5555 1171 4698 1171 
L 4698 422 
Q 5862 422 6048 461 
L 6048 -64 
Q 5920 -32 4646 -32 
L 3251 -32 
z
M 3251 3603 
L 3251 2874 
L 4186 2874 
L 4186 3603 
L 3251 3603 
z
M 3251 2419 
L 3251 1626 
L 4186 1626 
L 4186 2419 
L 3251 2419 
z
M 3251 1171 
L 3251 422 
L 4186 422 
L 4186 1171 
L 3251 1171 
z
M 1171 2074 
L 1171 3347 
Q 730 3347 429 3315 
L 429 3821 
Q 736 3789 1171 3789 
Q 1171 4762 1114 5120 
Q 1350 5082 1715 5082 
Q 1843 5082 1843 5043 
Q 1843 5005 1760 4928 
Q 1677 4851 1677 4685 
L 1677 3789 
Q 2138 3802 2304 3821 
L 2304 3315 
Q 2138 3334 1677 3347 
L 1677 2246 
Q 2074 2400 2221 2477 
Q 2202 2214 2259 2016 
Q 2054 1952 1677 1798 
L 1677 134 
Q 1677 -102 1613 -211 
Q 1549 -320 1366 -377 
Q 1184 -435 736 -499 
Q 691 -205 480 96 
Q 621 83 793 83 
Q 966 83 1068 160 
Q 1171 237 1171 435 
L 1171 1581 
Q 774 1395 486 1210 
Q 454 1414 339 1850 
Q 749 1939 1171 2074 
z
" transform="scale(0.015625)"/>
      <path id="STHeiti-ff09" d="M 1120 5267 
Q 1747 4346 1984 3683 
Q 2221 3021 2221 2253 
Q 2221 1485 1961 768 
Q 1702 51 1139 -749 
L 749 -749 
Q 1312 282 1465 912 
Q 1619 1542 1619 2426 
Q 1619 3046 1440 3657 
Q 1261 4269 742 5267 
L 1120 5267 
z
" transform="scale(0.015625)"/>
      <path id="STHeiti-793a" d="M 5312 4205 
Q 4640 4250 3264 4250 
Q 1888 4250 1203 4205 
L 1203 4813 
Q 1907 4768 3273 4768 
Q 4640 4768 5312 4813 
L 5312 4205 
z
M 2995 2726 
Q 1286 2726 435 2682 
L 435 3277 
Q 1344 3232 3203 3232 
Q 5062 3232 5965 3277 
L 5965 2682 
Q 4934 2726 3578 2726 
L 3578 32 
Q 3578 -179 3501 -291 
Q 3424 -403 3174 -483 
Q 2925 -563 2374 -653 
Q 2330 -250 2080 77 
Q 2355 26 2554 26 
Q 2995 26 2995 269 
L 2995 2726 
z
M 1690 2163 
Q 1952 1958 2330 1843 
Q 2406 1818 2406 1779 
Q 2406 1741 2266 1702 
Q 2170 1670 1952 1331 
Q 1824 1152 1523 761 
Q 1222 371 941 38 
Q 749 262 365 333 
Q 742 634 1104 1139 
Q 1466 1645 1690 2163 
z
M 6035 397 
L 5491 6 
Q 4941 877 4154 1722 
L 4627 2022 
Q 5446 1222 6035 397 
z
" transform="scale(0.015625)"/>
      <path id="STHeiti-56fe" d="M 1299 -237 
L 1299 -538 
L 742 -538 
Q 794 26 794 518 
L 794 4134 
Q 794 4640 755 4934 
Q 1094 4864 3180 4864 
Q 5267 4864 5722 4934 
Q 5677 4602 5677 4134 
L 5677 563 
Q 5677 51 5728 -493 
L 5146 -493 
L 5146 -237 
L 1299 -237 
z
M 5146 186 
L 5146 4422 
L 1299 4422 
L 1299 186 
L 5146 186 
z
M 3328 2342 
Q 2560 1824 1734 1651 
Q 1619 1875 1466 2093 
Q 2323 2157 3002 2586 
Q 2669 2867 2477 3168 
Q 2195 2810 2067 2669 
Q 1901 2797 1645 2912 
Q 2362 3456 2733 4333 
Q 2957 4205 3126 4179 
Q 3296 4154 3296 4118 
Q 3296 4083 3209 4032 
Q 3123 3981 2989 3846 
L 4621 3846 
Q 4230 3072 3654 2598 
Q 4237 2304 5069 2208 
Q 4858 1952 4768 1677 
Q 3974 1907 3328 2342 
z
M 3309 2810 
Q 3661 3110 3904 3475 
L 2701 3475 
Q 2701 3469 2688 3456 
Q 2675 3443 2675 3437 
Q 2938 3072 3309 2810 
z
M 4064 1581 
L 3872 1184 
Q 3424 1395 2739 1613 
L 2938 1939 
Q 3443 1824 4064 1581 
z
M 4147 678 
L 3885 275 
Q 3130 666 2298 864 
L 2502 1242 
Q 3501 979 4147 678 
z
" transform="scale(0.015625)"/>
     </defs>
     <use xlink:href="#STHeiti-7ebf"/>
     <use xlink:href="#STHeiti-6027" transform="translate(99.999985 0)"/>
     <use xlink:href="#STHeiti-6ce8" transform="translate(199.999969 0)"/>
     <use xlink:href="#STHeiti-610f" transform="translate(299.999954 0)"/>
     <use xlink:href="#STHeiti-529b" transform="translate(399.999939 0)"/>
     <use xlink:href="#STHeiti-ff08" transform="translate(499.999924 0)"/>
     <use xlink:href="#STHeiti-72b6" transform="translate(599.999908 0)"/>
     <use xlink:href="#STHeiti-6001" transform="translate(699.999893 0)"/>
     <use xlink:href="#STHeiti-7a7a" transform="translate(799.999878 0)"/>
     <use xlink:href="#STHeiti-95f4" transform="translate(899.999863 0)"/>
     <use xlink:href="#STHeiti-9012" transform="translate(999.999847 0)"/>
     <use xlink:href="#STHeiti-63a8" transform="translate(1099.999832 0)"/>
     <use xlink:href="#STHeiti-ff09" transform="translate(1199.999817 0)"/>
     <use xlink:href="#STHeiti-793a" transform="translate(1299.999802 0)"/>
     <use xlink:href="#STHeiti-610f" transform="translate(1399.999786 0)"/>
     <use xlink:href="#STHeiti-56fe" transform="translate(1499.999771 0)"/>
    </g>
   </g>
   <g id="text_2">
    <!-- $S_{1}$ -->
    <g style="fill: #1565c0" transform="translate(106.780714 181.445) scale(0.11 -0.11)">
     <defs>
      <path id="DejaVuSans-Oblique-53" d="M 3859 4513 
L 3738 3897 
Q 3422 4066 3111 4152 
Q 2800 4238 2509 4238 
Q 1944 4238 1609 3991 
Q 1275 3744 1275 3334 
Q 1275 3109 1398 2989 
Q 1522 2869 2034 2731 
L 2413 2638 
Q 3053 2472 3303 2217 
Q 3553 1963 3553 1503 
Q 3553 797 2998 353 
Q 2444 -91 1538 -91 
Q 1166 -91 791 -17 
Q 416 56 38 206 
L 166 856 
Q 513 641 861 531 
Q 1209 422 1556 422 
Q 2147 422 2503 684 
Q 2859 947 2859 1369 
Q 2859 1650 2717 1795 
Q 2575 1941 2106 2059 
L 1728 2156 
Q 1081 2325 845 2545 
Q 609 2766 609 3163 
Q 609 3859 1145 4304 
Q 1681 4750 2541 4750 
Q 2875 4750 3203 4690 
Q 3531 4631 3859 4513 
z
" transform="scale(0.015625)"/>
      <path id="DejaVuSans-31" d="M 794 531 
L 1825 531 
L 1825 4091 
L 703 3866 
L 703 4441 
L 1819 4666 
L 2450 4666 
L 2450 531 
L 3481 531 
L 3481 0 
L 794 0 
L 794 531 
z
" transform="scale(0.015625)"/>
     </defs>
     <use xlink:href="#DejaVuSans-Oblique-53" transform="translate(0 0.78125)"/>
     <use xlink:href="#DejaVuSans-31" transform="translate(63.476562 -15.625) scale(0.7)"/>
    </g>
   </g>
   <g id="text_3">
    <g id="patch_8">
     <path d="M 101.050714 320.985 
L 124.720714 320.985 
Q 126.520714 320.985 126.520714 319.185 
L 126.520714 310.815 
Q 126.520714 309.015 124.720714 309.015 
L 101.050714 309.015 
Q 99.250714 309.015 99.250714 310.815 
L 99.250714 319.185 
Q 99.250714 320.985 101.050714 320.985 
z
" style="fill: #e8f5e9; stroke: #2e7d32; stroke-width: 1.3; stroke-linejoin: miter"/>
    </g>
    <!-- $k_{1},v_{1}$ -->
    <g style="fill: #2e7d32" transform="translate(101.050714 317.655) scale(0.09 -0.09)">
     <defs>
      <path id="DejaVuSans-Oblique-6b" d="M 1172 4863 
L 1747 4863 
L 1197 2028 
L 3169 3500 
L 3916 3500 
L 1716 1825 
L 3322 0 
L 2625 0 
L 1131 1709 
L 800 0 
L 225 0 
L 1172 4863 
z
" transform="scale(0.015625)"/>
      <path id="DejaVuSans-2c" d="M 750 794 
L 1409 794 
L 1409 256 
L 897 -744 
L 494 -744 
L 750 256 
L 750 794 
z
" transform="scale(0.015625)"/>
      <path id="DejaVuSans-Oblique-76" d="M 459 3500 
L 1069 3500 
L 1581 525 
L 3256 3500 
L 3866 3500 
L 1875 0 
L 1100 0 
L 459 3500 
z
" transform="scale(0.015625)"/>
     </defs>
     <use xlink:href="#DejaVuSans-Oblique-6b" transform="translate(0 0.015625)"/>
     <use xlink:href="#DejaVuSans-31" transform="translate(57.910156 -16.390625) scale(0.7)"/>
     <use xlink:href="#DejaVuSans-2c" transform="translate(105.180664 0.015625)"/>
     <use xlink:href="#DejaVuSans-Oblique-76" transform="translate(156.450195 0.015625)"/>
     <use xlink:href="#DejaVuSans-31" transform="translate(215.629883 -16.390625) scale(0.7)"/>
    </g>
   </g>
   <g id="text_4">
    <g id="patch_9">
     <path d="M 107.980714 81.585 
L 117.790714 81.585 
Q 119.590714 81.585 119.590714 79.785 
L 119.590714 71.415 
Q 119.590714 69.615 117.790714 69.615 
L 107.980714 69.615 
Q 106.180714 69.615 106.180714 71.415 
L 106.180714 79.785 
Q 106.180714 81.585 107.980714 81.585 
z
" style="fill: #f3e5f5; stroke: #6a1b9a; stroke-width: 1.3; stroke-linejoin: miter"/>
    </g>
    <!-- $o_{1}$ -->
    <g style="fill: #6a1b9a" transform="translate(107.980714 78.255) scale(0.09 -0.09)">
     <defs>
      <path id="DejaVuSans-Oblique-6f" d="M 1625 -91 
Q 1009 -91 651 289 
Q 294 669 294 1325 
Q 294 1706 417 2101 
Q 541 2497 738 2766 
Q 1047 3184 1428 3384 
Q 1809 3584 2291 3584 
Q 2888 3584 3255 3212 
Q 3622 2841 3622 2241 
Q 3622 1825 3500 1412 
Q 3378 1000 3181 728 
Q 2875 309 2494 109 
Q 2113 -91 1625 -91 
z
M 891 1344 
Q 891 869 1089 633 
Q 1288 397 1691 397 
Q 2269 397 2648 901 
Q 3028 1406 3028 2181 
Q 3028 2634 2825 2865 
Q 2622 3097 2228 3097 
Q 1903 3097 1650 2945 
Q 1397 2794 1197 2484 
Q 1050 2253 970 1956 
Q 891 1659 891 1344 
z
" transform="scale(0.015625)"/>
     </defs>
     <use xlink:href="#DejaVuSans-Oblique-6f"/>
     <use xlink:href="#DejaVuSans-31" transform="translate(61.181641 -16.40625) scale(0.7)"/>
    </g>
   </g>
   <g id="patch_10">
    <path d="M 112.885714 297.953542 
Q 112.885714 251.72947 112.885714 207.18245 
" style="fill: none; stroke: #2e7d32; stroke-width: 1.5; stroke-linecap: round"/>
    <path d="M 110.885714 211.18245 
L 112.885714 207.18245 
L 114.885714 211.18245 
" style="fill: none; stroke: #2e7d32; stroke-width: 1.5; stroke-linecap: round"/>
   </g>
   <g id="patch_11">
    <path d="M 112.885714 150.889889 
Q 112.885714 121.767216 112.885714 94.321593 
" style="fill: none; stroke: #e65100; stroke-width: 1.5; stroke-linecap: round"/>
    <path d="M 110.885714 98.321593 
L 112.885714 94.321593 
L 114.885714 98.321593 
" style="fill: none; stroke: #e65100; stroke-width: 1.5; stroke-linecap: round"/>
   </g>
   <g id="text_5">
    <!-- $q$ -->
    <g style="fill: #e65100" transform="translate(119.931429 126.9) scale(0.08 -0.08)">
     <defs>
      <path id="DejaVuSans-Oblique-71" d="M 2669 525 
Q 2438 222 2123 65 
Q 1809 -91 1428 -91 
Q 897 -91 595 267 
Q 294 625 294 1253 
Q 294 1759 480 2231 
Q 666 2703 1013 3078 
Q 1238 3322 1530 3453 
Q 1822 3584 2144 3584 
Q 2531 3584 2781 3431 
Q 3031 3278 3144 2969 
L 3244 3494 
L 3822 3494 
L 2888 -1319 
L 2309 -1319 
L 2669 525 
z
M 891 1338 
Q 891 875 1084 633 
Q 1278 391 1644 391 
Q 2188 391 2572 911 
Q 2956 1431 2956 2175 
Q 2956 2625 2757 2864 
Q 2559 3103 2188 3103 
Q 1916 3103 1684 2976 
Q 1453 2850 1281 2606 
Q 1100 2350 995 2006 
Q 891 1663 891 1338 
z
" transform="scale(0.015625)"/>
     </defs>
     <use xlink:href="#DejaVuSans-Oblique-71"/>
    </g>
   </g>
   <g id="patch_12">
    <path d="M 162.092787 178.2 
Q 190.389419 178.2 216.673589 178.2 
" style="fill: none; stroke: #1565c0; stroke-width: 1.8; stroke-linecap: round"/>
    <path d="M 212.673589 176.2 
L 216.673589 178.2 
L 212.673589 180.2 
" style="fill: none; stroke: #1565c0; stroke-width: 1.8; stroke-linecap: round"/>
   </g>
   <g id="text_6">
    <!-- $S_{2}=\phi(S_{1},k,v)$ -->
    <g style="fill: #1565c0" transform="translate(163.838571 142.632) scale(0.075 -0.075)">
     <defs>
      <path id="DejaVuSans-32" d="M 1228 531 
L 3431 531 
L 3431 0 
L 469 0 
L 469 531 
Q 828 903 1448 1529 
Q 2069 2156 2228 2338 
Q 2531 2678 2651 2914 
Q 2772 3150 2772 3378 
Q 2772 3750 2511 3984 
Q 2250 4219 1831 4219 
Q 1534 4219 1204 4116 
Q 875 4013 500 3803 
L 500 4441 
Q 881 4594 1212 4672 
Q 1544 4750 1819 4750 
Q 2544 4750 2975 4387 
Q 3406 4025 3406 3419 
Q 3406 3131 3298 2873 
Q 3191 2616 2906 2266 
Q 2828 2175 2409 1742 
Q 1991 1309 1228 531 
z
" transform="scale(0.015625)"/>
      <path id="DejaVuSans-3d" d="M 678 2906 
L 4684 2906 
L 4684 2381 
L 678 2381 
L 678 2906 
z
M 678 1631 
L 4684 1631 
L 4684 1100 
L 678 1100 
L 678 1631 
z
" transform="scale(0.015625)"/>
      <path id="DejaVuSans-Oblique-3d5" d="M 2991 4863 
L 2738 3572 
Q 3363 3572 3684 3094 
Q 4016 2606 3850 1747 
Q 3681 888 3159 400 
Q 2653 -78 2028 -78 
L 1784 -1331 
L 1213 -1331 
L 1456 -78 
Q 834 -78 509 400 
Q 178 888 347 1747 
Q 513 2606 1034 3094 
Q 1544 3572 2166 3572 
L 2419 4863 
L 2991 4863 
z
M 2128 434 
Q 2481 434 2784 756 
Q 3116 1116 3244 1747 
Q 3369 2372 3169 2738 
Q 2991 3059 2638 3059 
L 2128 434 
z
M 1556 434 
L 2066 3059 
Q 1716 3059 1413 2738 
Q 1072 2372 953 1747 
Q 834 1116 1028 756 
Q 1203 434 1556 434 
z
" transform="scale(0.015625)"/>
      <path id="DejaVuSans-28" d="M 1984 4856 
Q 1566 4138 1362 3434 
Q 1159 2731 1159 2009 
Q 1159 1288 1364 580 
Q 1569 -128 1984 -844 
L 1484 -844 
Q 1016 -109 783 600 
Q 550 1309 550 2009 
Q 550 2706 781 3412 
Q 1013 4119 1484 4856 
L 1984 4856 
z
" transform="scale(0.015625)"/>
      <path id="DejaVuSans-29" d="M 513 4856 
L 1013 4856 
Q 1481 4119 1714 3412 
Q 1947 2706 1947 2009 
Q 1947 1309 1714 600 
Q 1481 -109 1013 -844 
L 513 -844 
Q 928 -128 1133 580 
Q 1338 1288 1338 2009 
Q 1338 2731 1133 3434 
Q 928 4138 513 4856 
z
" transform="scale(0.015625)"/>
     </defs>
     <use xlink:href="#DejaVuSans-Oblique-53" transform="translate(0 0.015625)"/>
     <use xlink:href="#DejaVuSans-32" transform="translate(63.476562 -16.390625) scale(0.7)"/>
     <use xlink:href="#DejaVuSans-3d" transform="translate(130.229492 0.015625)"/>
     <use xlink:href="#DejaVuSans-Oblique-3d5" transform="translate(233.500977 0.015625)"/>
     <use xlink:href="#DejaVuSans-28" transform="translate(299.467773 0.015625)"/>
     <use xlink:href="#DejaVuSans-Oblique-53" transform="translate(338.481445 0.015625)"/>
     <use xlink:href="#DejaVuSans-31" transform="translate(401.958008 -16.390625) scale(0.7)"/>
     <use xlink:href="#DejaVuSans-2c" transform="translate(449.228516 0.015625)"/>
     <use xlink:href="#DejaVuSans-Oblique-6b" transform="translate(500.498047 0.015625)"/>
     <use xlink:href="#DejaVuSans-2c" transform="translate(558.408203 0.015625)"/>
     <use xlink:href="#DejaVuSans-Oblique-76" transform="translate(609.677734 0.015625)"/>
     <use xlink:href="#DejaVuSans-29" transform="translate(668.857422 0.015625)"/>
    </g>
   </g>
   <g id="text_7">
    <!-- $S_{2}$ -->
    <g style="fill: #1565c0" transform="translate(261.786429 181.445) scale(0.11 -0.11)">
     <use xlink:href="#DejaVuSans-Oblique-53" transform="translate(0 0.78125)"/>
     <use xlink:href="#DejaVuSans-32" transform="translate(63.476562 -15.625) scale(0.7)"/>
    </g>
   </g>
   <g id="text_8">
    <g id="patch_13">
     <path d="M 256.056429 320.985 
L 279.726429 320.985 
Q 281.526429 320.985 281.526429 319.185 
L 281.526429 310.815 
Q 281.526429 309.015 279.726429 309.015 
L 256.056429 309.015 
Q 254.256429 309.015 254.256429 310.815 
L 254.256429 319.185 
Q 254.256429 320.985 256.056429 320.985 
z
" style="fill: #e8f5e9; stroke: #2e7d32; stroke-width: 1.3; stroke-linejoin: miter"/>
    </g>
    <!-- $k_{2},v_{2}$ -->
    <g style="fill: #2e7d32" transform="translate(256.056429 317.655) scale(0.09 -0.09)">
     <use xlink:href="#DejaVuSans-Oblique-6b" transform="translate(0 0.015625)"/>
     <use xlink:href="#DejaVuSans-32" transform="translate(57.910156 -16.390625) scale(0.7)"/>
     <use xlink:href="#DejaVuSans-2c" transform="translate(105.180664 0.015625)"/>
     <use xlink:href="#DejaVuSans-Oblique-76" transform="translate(156.450195 0.015625)"/>
     <use xlink:href="#DejaVuSans-32" transform="translate(215.629883 -16.390625) scale(0.7)"/>
    </g>
   </g>
   <g id="text_9">
    <g id="patch_14">
     <path d="M 262.986429 81.585 
L 272.796429 81.585 
Q 274.596429 81.585 274.596429 79.785 
L 274.596429 71.415 
Q 274.596429 69.615 272.796429 69.615 
L 262.986429 69.615 
Q 261.186429 69.615 261.186429 71.415 
L 261.186429 79.785 
Q 261.186429 81.585 262.986429 81.585 
z
" style="fill: #f3e5f5; stroke: #6a1b9a; stroke-width: 1.3; stroke-linejoin: miter"/>
    </g>
    <!-- $o_{2}$ -->
    <g style="fill: #6a1b9a" transform="translate(262.986429 78.255) scale(0.09 -0.09)">
     <use xlink:href="#DejaVuSans-Oblique-6f"/>
     <use xlink:href="#DejaVuSans-32" transform="translate(61.181641 -16.40625) scale(0.7)"/>
    </g>
   </g>
   <g id="patch_15">
    <path d="M 267.891429 297.953542 
Q 267.891429 251.72947 267.891429 207.18245 
" style="fill: none; stroke: #2e7d32; stroke-width: 1.5; stroke-linecap: round"/>
    <path d="M 265.891429 211.18245 
L 267.891429 207.18245 
L 269.891429 211.18245 
" style="fill: none; stroke: #2e7d32; stroke-width: 1.5; stroke-linecap: round"/>
   </g>
   <g id="patch_16">
    <path d="M 267.891429 150.889889 
Q 267.891429 121.767216 267.891429 94.321593 
" style="fill: none; stroke: #e65100; stroke-width: 1.5; stroke-linecap: round"/>
    <path d="M 265.891429 98.321593 
L 267.891429 94.321593 
L 269.891429 98.321593 
" style="fill: none; stroke: #e65100; stroke-width: 1.5; stroke-linecap: round"/>
   </g>
   <g id="text_10">
    <!-- $q$ -->
    <g style="fill: #e65100" transform="translate(274.937143 126.9) scale(0.08 -0.08)">
     <use xlink:href="#DejaVuSans-Oblique-71"/>
    </g>
   </g>
   <g id="patch_17">
    <path d="M 317.098501 178.2 
Q 345.395133 178.2 371.679304 178.2 
" style="fill: none; stroke: #1565c0; stroke-width: 1.8; stroke-linecap: round"/>
    <path d="M 367.679304 176.2 
L 371.679304 178.2 
L 367.679304 180.2 
" style="fill: none; stroke: #1565c0; stroke-width: 1.8; stroke-linecap: round"/>
   </g>
   <g id="text_11">
    <!-- $S_{3}=\phi(S_{2},k,v)$ -->
    <g style="fill: #1565c0" transform="translate(318.844286 142.632) scale(0.075 -0.075)">
     <defs>
      <path id="DejaVuSans-33" d="M 2597 2516 
Q 3050 2419 3304 2112 
Q 3559 1806 3559 1356 
Q 3559 666 3084 287 
Q 2609 -91 1734 -91 
Q 1441 -91 1130 -33 
Q 819 25 488 141 
L 488 750 
Q 750 597 1062 519 
Q 1375 441 1716 441 
Q 2309 441 2620 675 
Q 2931 909 2931 1356 
Q 2931 1769 2642 2001 
Q 2353 2234 1838 2234 
L 1294 2234 
L 1294 2753 
L 1863 2753 
Q 2328 2753 2575 2939 
Q 2822 3125 2822 3475 
Q 2822 3834 2567 4026 
Q 2313 4219 1838 4219 
Q 1578 4219 1281 4162 
Q 984 4106 628 3988 
L 628 4550 
Q 988 4650 1302 4700 
Q 1616 4750 1894 4750 
Q 2613 4750 3031 4423 
Q 3450 4097 3450 3541 
Q 3450 3153 3228 2886 
Q 3006 2619 2597 2516 
z
" transform="scale(0.015625)"/>
     </defs>
     <use xlink:href="#DejaVuSans-Oblique-53" transform="translate(0 0.015625)"/>
     <use xlink:href="#DejaVuSans-33" transform="translate(63.476562 -16.390625) scale(0.7)"/>
     <use xlink:href="#DejaVuSans-3d" transform="translate(130.229492 0.015625)"/>
     <use xlink:href="#DejaVuSans-Oblique-3d5" transform="translate(233.500977 0.015625)"/>
     <use xlink:href="#DejaVuSans-28" transform="translate(299.467773 0.015625)"/>
     <use xlink:href="#DejaVuSans-Oblique-53" transform="translate(338.481445 0.015625)"/>
     <use xlink:href="#DejaVuSans-32" transform="translate(401.958008 -16.390625) scale(0.7)"/>
     <use xlink:href="#DejaVuSans-2c" transform="translate(449.228516 0.015625)"/>
     <use xlink:href="#DejaVuSans-Oblique-6b" transform="translate(500.498047 0.015625)"/>
     <use xlink:href="#DejaVuSans-2c" transform="translate(558.408203 0.015625)"/>
     <use xlink:href="#DejaVuSans-Oblique-76" transform="translate(609.677734 0.015625)"/>
     <use xlink:href="#DejaVuSans-29" transform="translate(668.857422 0.015625)"/>
    </g>
   </g>
   <g id="text_12">
    <!-- $S_{3}$ -->
    <g style="fill: #1565c0" transform="translate(416.792143 181.335) scale(0.11 -0.11)">
     <use xlink:href="#DejaVuSans-Oblique-53" transform="translate(0 0.78125)"/>
     <use xlink:href="#DejaVuSans-33" transform="translate(63.476562 -15.625) scale(0.7)"/>
    </g>
   </g>
   <g id="text_13">
    <g id="patch_18">
     <path d="M 411.062143 321.03 
L 434.732143 321.03 
Q 436.532143 321.03 436.532143 319.23 
L 436.532143 310.77 
Q 436.532143 308.97 434.732143 308.97 
L 411.062143 308.97 
Q 409.262143 308.97 409.262143 310.77 
L 409.262143 319.23 
Q 409.262143 321.03 411.062143 321.03 
z
" style="fill: #e8f5e9; stroke: #2e7d32; stroke-width: 1.3; stroke-linejoin: miter"/>
    </g>
    <!-- $k_{3},v_{3}$ -->
    <g style="fill: #2e7d32" transform="translate(411.062143 317.61) scale(0.09 -0.09)">
     <use xlink:href="#DejaVuSans-Oblique-6b" transform="translate(0 0.015625)"/>
     <use xlink:href="#DejaVuSans-33" transform="translate(57.910156 -16.390625) scale(0.7)"/>
     <use xlink:href="#DejaVuSans-2c" transform="translate(105.180664 0.015625)"/>
     <use xlink:href="#DejaVuSans-Oblique-76" transform="translate(156.450195 0.015625)"/>
     <use xlink:href="#DejaVuSans-33" transform="translate(215.629883 -16.390625) scale(0.7)"/>
    </g>
   </g>
   <g id="text_14">
    <g id="patch_19">
     <path d="M 417.992143 81.585 
L 427.802143 81.585 
Q 429.602143 81.585 429.602143 79.785 
L 429.602143 71.415 
Q 429.602143 69.615 427.802143 69.615 
L 417.992143 69.615 
Q 416.192143 69.615 416.192143 71.415 
L 416.192143 79.785 
Q 416.192143 81.585 417.992143 81.585 
z
" style="fill: #f3e5f5; stroke: #6a1b9a; stroke-width: 1.3; stroke-linejoin: miter"/>
    </g>
    <!-- $o_{3}$ -->
    <g style="fill: #6a1b9a" transform="translate(417.992143 78.165) scale(0.09 -0.09)">
     <use xlink:href="#DejaVuSans-Oblique-6f"/>
     <use xlink:href="#DejaVuSans-33" transform="translate(61.181641 -16.40625) scale(0.7)"/>
    </g>
   </g>
   <g id="patch_20">
    <path d="M 422.897143 297.953542 
Q 422.897143 251.72947 422.897143 207.18245 
" style="fill: none; stroke: #2e7d32; stroke-width: 1.5; stroke-linecap: round"/>
    <path d="M 420.897143 211.18245 
L 422.897143 207.18245 
L 424.897143 211.18245 
" style="fill: none; stroke: #2e7d32; stroke-width: 1.5; stroke-linecap: round"/>
   </g>
   <g id="patch_21">
    <path d="M 422.897143 150.889889 
Q 422.897143 121.767216 422.897143 94.321593 
" style="fill: none; stroke: #e65100; stroke-width: 1.5; stroke-linecap: round"/>
    <path d="M 420.897143 98.321593 
L 422.897143 94.321593 
L 424.897143 98.321593 
" style="fill: none; stroke: #e65100; stroke-width: 1.5; stroke-linecap: round"/>
   </g>
   <g id="text_15">
    <!-- $q$ -->
    <g style="fill: #e65100" transform="translate(429.942857 126.9) scale(0.08 -0.08)">
     <use xlink:href="#DejaVuSans-Oblique-71"/>
    </g>
   </g>
   <g id="patch_22">
    <path d="M 472.104215 178.2 
Q 500.400847 178.2 526.685018 178.2 
" style="fill: none; stroke: #1565c0; stroke-width: 1.8; stroke-linecap: round"/>
    <path d="M 522.685018 176.2 
L 526.685018 178.2 
L 522.685018 180.2 
" style="fill: none; stroke: #1565c0; stroke-width: 1.8; stroke-linecap: round"/>
   </g>
   <g id="text_16">
    <!-- $S_{4}=\phi(S_{3},k,v)$ -->
    <g style="fill: #1565c0" transform="translate(473.85 142.632) scale(0.075 -0.075)">
     <defs>
      <path id="DejaVuSans-34" d="M 2419 4116 
L 825 1625 
L 2419 1625 
L 2419 4116 
z
M 2253 4666 
L 3047 4666 
L 3047 1625 
L 3713 1625 
L 3713 1100 
L 3047 1100 
L 3047 0 
L 2419 0 
L 2419 1100 
L 313 1100 
L 313 1709 
L 2253 4666 
z
" transform="scale(0.015625)"/>
     </defs>
     <use xlink:href="#DejaVuSans-Oblique-53" transform="translate(0 0.015625)"/>
     <use xlink:href="#DejaVuSans-34" transform="translate(63.476562 -16.390625) scale(0.7)"/>
     <use xlink:href="#DejaVuSans-3d" transform="translate(130.229492 0.015625)"/>
     <use xlink:href="#DejaVuSans-Oblique-3d5" transform="translate(233.500977 0.015625)"/>
     <use xlink:href="#DejaVuSans-28" transform="translate(299.467773 0.015625)"/>
     <use xlink:href="#DejaVuSans-Oblique-53" transform="translate(338.481445 0.015625)"/>
     <use xlink:href="#DejaVuSans-33" transform="translate(401.958008 -16.390625) scale(0.7)"/>
     <use xlink:href="#DejaVuSans-2c" transform="translate(449.228516 0.015625)"/>
     <use xlink:href="#DejaVuSans-Oblique-6b" transform="translate(500.498047 0.015625)"/>
     <use xlink:href="#DejaVuSans-2c" transform="translate(558.408203 0.015625)"/>
     <use xlink:href="#DejaVuSans-Oblique-76" transform="translate(609.677734 0.015625)"/>
     <use xlink:href="#DejaVuSans-29" transform="translate(668.857422 0.015625)"/>
    </g>
   </g>
   <g id="text_17">
    <!-- $S_{4}$ -->
    <g style="fill: #1565c0" transform="translate(571.797857 181.445) scale(0.11 -0.11)">
     <use xlink:href="#DejaVuSans-Oblique-53" transform="translate(0 0.78125)"/>
     <use xlink:href="#DejaVuSans-34" transform="translate(63.476562 -15.625) scale(0.7)"/>
    </g>
   </g>
   <g id="text_18">
    <g id="patch_23">
     <path d="M 566.067857 320.985 
L 589.737857 320.985 
Q 591.537857 320.985 591.537857 319.185 
L 591.537857 310.815 
Q 591.537857 309.015 589.737857 309.015 
L 566.067857 309.015 
Q 564.267857 309.015 564.267857 310.815 
L 564.267857 319.185 
Q 564.267857 320.985 566.067857 320.985 
z
" style="fill: #e8f5e9; stroke: #2e7d32; stroke-width: 1.3; stroke-linejoin: miter"/>
    </g>
    <!-- $k_{4},v_{4}$ -->
    <g style="fill: #2e7d32" transform="translate(566.067857 317.655) scale(0.09 -0.09)">
     <use xlink:href="#DejaVuSans-Oblique-6b" transform="translate(0 0.015625)"/>
     <use xlink:href="#DejaVuSans-34" transform="translate(57.910156 -16.390625) scale(0.7)"/>
     <use xlink:href="#DejaVuSans-2c" transform="translate(105.180664 0.015625)"/>
     <use xlink:href="#DejaVuSans-Oblique-76" transform="translate(156.450195 0.015625)"/>
     <use xlink:href="#DejaVuSans-34" transform="translate(215.629883 -16.390625) scale(0.7)"/>
    </g>
   </g>
   <g id="text_19">
    <g id="patch_24">
     <path d="M 572.997857 81.585 
L 582.807857 81.585 
Q 584.607857 81.585 584.607857 79.785 
L 584.607857 71.415 
Q 584.607857 69.615 582.807857 69.615 
L 572.997857 69.615 
Q 571.197857 69.615 571.197857 71.415 
L 571.197857 79.785 
Q 571.197857 81.585 572.997857 81.585 
z
" style="fill: #f3e5f5; stroke: #6a1b9a; stroke-width: 1.3; stroke-linejoin: miter"/>
    </g>
    <!-- $o_{4}$ -->
    <g style="fill: #6a1b9a" transform="translate(572.997857 78.255) scale(0.09 -0.09)">
     <use xlink:href="#DejaVuSans-Oblique-6f"/>
     <use xlink:href="#DejaVuSans-34" transform="translate(61.181641 -16.40625) scale(0.7)"/>
    </g>
   </g>
   <g id="patch_25">
    <path d="M 577.902857 297.953542 
Q 577.902857 251.72947 577.902857 207.18245 
" style="fill: none; stroke: #2e7d32; stroke-width: 1.5; stroke-linecap: round"/>
    <path d="M 575.902857 211.18245 
L 577.902857 207.18245 
L 579.902857 211.18245 
" style="fill: none; stroke: #2e7d32; stroke-width: 1.5; stroke-linecap: round"/>
   </g>
   <g id="patch_26">
    <path d="M 577.902857 150.889889 
Q 577.902857 121.767216 577.902857 94.321593 
" style="fill: none; stroke: #e65100; stroke-width: 1.5; stroke-linecap: round"/>
    <path d="M 575.902857 98.321593 
L 577.902857 94.321593 
L 579.902857 98.321593 
" style="fill: none; stroke: #e65100; stroke-width: 1.5; stroke-linecap: round"/>
   </g>
   <g id="text_20">
    <!-- $q$ -->
    <g style="fill: #e65100" transform="translate(584.948571 126.9) scale(0.08 -0.08)">
     <use xlink:href="#DejaVuSans-Oblique-71"/>
    </g>
   </g>
   <g id="patch_27">
    <path d="M 627.10993 178.2 
Q 655.406562 178.2 681.690732 178.2 
" style="fill: none; stroke: #1565c0; stroke-width: 1.8; stroke-linecap: round"/>
    <path d="M 677.690732 176.2 
L 681.690732 178.2 
L 677.690732 180.2 
" style="fill: none; stroke: #1565c0; stroke-width: 1.8; stroke-linecap: round"/>
   </g>
   <g id="text_21">
    <!-- $S_{5}=\phi(S_{4},k,v)$ -->
    <g style="fill: #1565c0" transform="translate(628.855714 142.632) scale(0.075 -0.075)">
     <defs>
      <path id="DejaVuSans-35" d="M 691 4666 
L 3169 4666 
L 3169 4134 
L 1269 4134 
L 1269 2991 
Q 1406 3038 1543 3061 
Q 1681 3084 1819 3084 
Q 2600 3084 3056 2656 
Q 3513 2228 3513 1497 
Q 3513 744 3044 326 
Q 2575 -91 1722 -91 
Q 1428 -91 1123 -41 
Q 819 9 494 109 
L 494 744 
Q 775 591 1075 516 
Q 1375 441 1709 441 
Q 2250 441 2565 725 
Q 2881 1009 2881 1497 
Q 2881 1984 2565 2268 
Q 2250 2553 1709 2553 
Q 1456 2553 1204 2497 
Q 953 2441 691 2322 
L 691 4666 
z
" transform="scale(0.015625)"/>
     </defs>
     <use xlink:href="#DejaVuSans-Oblique-53" transform="translate(0 0.015625)"/>
     <use xlink:href="#DejaVuSans-35" transform="translate(63.476562 -16.390625) scale(0.7)"/>
     <use xlink:href="#DejaVuSans-3d" transform="translate(130.229492 0.015625)"/>
     <use xlink:href="#DejaVuSans-Oblique-3d5" transform="translate(233.500977 0.015625)"/>
     <use xlink:href="#DejaVuSans-28" transform="translate(299.467773 0.015625)"/>
     <use xlink:href="#DejaVuSans-Oblique-53" transform="translate(338.481445 0.015625)"/>
     <use xlink:href="#DejaVuSans-34" transform="translate(401.958008 -16.390625) scale(0.7)"/>
     <use xlink:href="#DejaVuSans-2c" transform="translate(449.228516 0.015625)"/>
     <use xlink:href="#DejaVuSans-Oblique-6b" transform="translate(500.498047 0.015625)"/>
     <use xlink:href="#DejaVuSans-2c" transform="translate(558.408203 0.015625)"/>
     <use xlink:href="#DejaVuSans-Oblique-76" transform="translate(609.677734 0.015625)"/>
     <use xlink:href="#DejaVuSans-29" transform="translate(668.857422 0.015625)"/>
    </g>
   </g>
   <g id="text_22">
    <!-- $S_{5}$ -->
    <g style="fill: #1565c0" transform="translate(726.803571 181.335) scale(0.11 -0.11)">
     <use xlink:href="#DejaVuSans-Oblique-53" transform="translate(0 0.78125)"/>
     <use xlink:href="#DejaVuSans-35" transform="translate(63.476562 -15.625) scale(0.7)"/>
    </g>
   </g>
   <g id="text_23">
    <g id="patch_28">
     <path d="M 721.073571 321.03 
L 744.743571 321.03 
Q 746.543571 321.03 746.543571 319.23 
L 746.543571 310.77 
Q 746.543571 308.97 744.743571 308.97 
L 721.073571 308.97 
Q 719.273571 308.97 719.273571 310.77 
L 719.273571 319.23 
Q 719.273571 321.03 721.073571 321.03 
z
" style="fill: #e8f5e9; stroke: #2e7d32; stroke-width: 1.3; stroke-linejoin: miter"/>
    </g>
    <!-- $k_{5},v_{5}$ -->
    <g style="fill: #2e7d32" transform="translate(721.073571 317.61) scale(0.09 -0.09)">
     <use xlink:href="#DejaVuSans-Oblique-6b" transform="translate(0 0.015625)"/>
     <use xlink:href="#DejaVuSans-35" transform="translate(57.910156 -16.390625) scale(0.7)"/>
     <use xlink:href="#DejaVuSans-2c" transform="translate(105.180664 0.015625)"/>
     <use xlink:href="#DejaVuSans-Oblique-76" transform="translate(156.450195 0.015625)"/>
     <use xlink:href="#DejaVuSans-35" transform="translate(215.629883 -16.390625) scale(0.7)"/>
    </g>
   </g>
   <g id="text_24">
    <g id="patch_29">
     <path d="M 728.003571 81.585 
L 737.813571 81.585 
Q 739.613571 81.585 739.613571 79.785 
L 739.613571 71.415 
Q 739.613571 69.615 737.813571 69.615 
L 728.003571 69.615 
Q 726.203571 69.615 726.203571 71.415 
L 726.203571 79.785 
Q 726.203571 81.585 728.003571 81.585 
z
" style="fill: #f3e5f5; stroke: #6a1b9a; stroke-width: 1.3; stroke-linejoin: miter"/>
    </g>
    <!-- $o_{5}$ -->
    <g style="fill: #6a1b9a" transform="translate(728.003571 78.165) scale(0.09 -0.09)">
     <use xlink:href="#DejaVuSans-Oblique-6f"/>
     <use xlink:href="#DejaVuSans-35" transform="translate(61.181641 -16.40625) scale(0.7)"/>
    </g>
   </g>
   <g id="patch_30">
    <path d="M 732.908571 297.953542 
Q 732.908571 251.72947 732.908571 207.18245 
" style="fill: none; stroke: #2e7d32; stroke-width: 1.5; stroke-linecap: round"/>
    <path d="M 730.908571 211.18245 
L 732.908571 207.18245 
L 734.908571 211.18245 
" style="fill: none; stroke: #2e7d32; stroke-width: 1.5; stroke-linecap: round"/>
   </g>
   <g id="patch_31">
    <path d="M 732.908571 150.889889 
Q 732.908571 121.767216 732.908571 94.321593 
" style="fill: none; stroke: #e65100; stroke-width: 1.5; stroke-linecap: round"/>
    <path d="M 730.908571 98.321593 
L 732.908571 94.321593 
L 734.908571 98.321593 
" style="fill: none; stroke: #e65100; stroke-width: 1.5; stroke-linecap: round"/>
   </g>
   <g id="text_25">
    <!-- $q$ -->
    <g style="fill: #e65100" transform="translate(739.954286 126.9) scale(0.08 -0.08)">
     <use xlink:href="#DejaVuSans-Oblique-71"/>
    </g>
   </g>
   <g id="patch_32">
    <path d="M 782.115644 178.2 
Q 810.412276 178.2 836.696447 178.2 
" style="fill: none; stroke: #1565c0; stroke-width: 1.8; stroke-linecap: round"/>
    <path d="M 832.696447 176.2 
L 836.696447 178.2 
L 832.696447 180.2 
" style="fill: none; stroke: #1565c0; stroke-width: 1.8; stroke-linecap: round"/>
   </g>
   <g id="text_26">
    <!-- $S_{6}=\phi(S_{5},k,v)$ -->
    <g style="fill: #1565c0" transform="translate(783.861429 142.632) scale(0.075 -0.075)">
     <defs>
      <path id="DejaVuSans-36" d="M 2113 2584 
Q 1688 2584 1439 2293 
Q 1191 2003 1191 1497 
Q 1191 994 1439 701 
Q 1688 409 2113 409 
Q 2538 409 2786 701 
Q 3034 994 3034 1497 
Q 3034 2003 2786 2293 
Q 2538 2584 2113 2584 
z
M 3366 4563 
L 3366 3988 
Q 3128 4100 2886 4159 
Q 2644 4219 2406 4219 
Q 1781 4219 1451 3797 
Q 1122 3375 1075 2522 
Q 1259 2794 1537 2939 
Q 1816 3084 2150 3084 
Q 2853 3084 3261 2657 
Q 3669 2231 3669 1497 
Q 3669 778 3244 343 
Q 2819 -91 2113 -91 
Q 1303 -91 875 529 
Q 447 1150 447 2328 
Q 447 3434 972 4092 
Q 1497 4750 2381 4750 
Q 2619 4750 2861 4703 
Q 3103 4656 3366 4563 
z
" transform="scale(0.015625)"/>
     </defs>
     <use xlink:href="#DejaVuSans-Oblique-53" transform="translate(0 0.015625)"/>
     <use xlink:href="#DejaVuSans-36" transform="translate(63.476562 -16.390625) scale(0.7)"/>
     <use xlink:href="#DejaVuSans-3d" transform="translate(130.229492 0.015625)"/>
     <use xlink:href="#DejaVuSans-Oblique-3d5" transform="translate(233.500977 0.015625)"/>
     <use xlink:href="#DejaVuSans-28" transform="translate(299.467773 0.015625)"/>
     <use xlink:href="#DejaVuSans-Oblique-53" transform="translate(338.481445 0.015625)"/>
     <use xlink:href="#DejaVuSans-35" transform="translate(401.958008 -16.390625) scale(0.7)"/>
     <use xlink:href="#DejaVuSans-2c" transform="translate(449.228516 0.015625)"/>
     <use xlink:href="#DejaVuSans-Oblique-6b" transform="translate(500.498047 0.015625)"/>
     <use xlink:href="#DejaVuSans-2c" transform="translate(558.408203 0.015625)"/>
     <use xlink:href="#DejaVuSans-Oblique-76" transform="translate(609.677734 0.015625)"/>
     <use xlink:href="#DejaVuSans-29" transform="translate(668.857422 0.015625)"/>
    </g>
   </g>
   <g id="text_27">
    <!-- $S_{6}$ -->
    <g style="fill: #1565c0" transform="translate(881.809286 181.335) scale(0.11 -0.11)">
     <use xlink:href="#DejaVuSans-Oblique-53" transform="translate(0 0.78125)"/>
     <use xlink:href="#DejaVuSans-36" transform="translate(63.476562 -15.625) scale(0.7)"/>
    </g>
   </g>
   <g id="text_28">
    <g id="patch_33">
     <path d="M 876.079286 321.03 
L 899.749286 321.03 
Q 901.549286 321.03 901.549286 319.23 
L 901.549286 310.77 
Q 901.549286 308.97 899.749286 308.97 
L 876.079286 308.97 
Q 874.279286 308.97 874.279286 310.77 
L 874.279286 319.23 
Q 874.279286 321.03 876.079286 321.03 
z
" style="fill: #e8f5e9; stroke: #2e7d32; stroke-width: 1.3; stroke-linejoin: miter"/>
    </g>
    <!-- $k_{6},v_{6}$ -->
    <g style="fill: #2e7d32" transform="translate(876.079286 317.61) scale(0.09 -0.09)">
     <use xlink:href="#DejaVuSans-Oblique-6b" transform="translate(0 0.015625)"/>
     <use xlink:href="#DejaVuSans-36" transform="translate(57.910156 -16.390625) scale(0.7)"/>
     <use xlink:href="#DejaVuSans-2c" transform="translate(105.180664 0.015625)"/>
     <use xlink:href="#DejaVuSans-Oblique-76" transform="translate(156.450195 0.015625)"/>
     <use xlink:href="#DejaVuSans-36" transform="translate(215.629883 -16.390625) scale(0.7)"/>
    </g>
   </g>
   <g id="text_29">
    <g id="patch_34">
     <path d="M 883.009286 81.585 
L 892.819286 81.585 
Q 894.619286 81.585 894.619286 79.785 
L 894.619286 71.415 
Q 894.619286 69.615 892.819286 69.615 
L 883.009286 69.615 
Q 881.209286 69.615 881.209286 71.415 
L 881.209286 79.785 
Q 881.209286 81.585 883.009286 81.585 
z
" style="fill: #f3e5f5; stroke: #6a1b9a; stroke-width: 1.3; stroke-linejoin: miter"/>
    </g>
    <!-- $o_{6}$ -->
    <g style="fill: #6a1b9a" transform="translate(883.009286 78.165) scale(0.09 -0.09)">
     <use xlink:href="#DejaVuSans-Oblique-6f"/>
     <use xlink:href="#DejaVuSans-36" transform="translate(61.181641 -16.40625) scale(0.7)"/>
    </g>
   </g>
   <g id="patch_35">
    <path d="M 887.914286 297.953542 
Q 887.914286 251.72947 887.914286 207.18245 
" style="fill: none; stroke: #2e7d32; stroke-width: 1.5; stroke-linecap: round"/>
    <path d="M 885.914286 211.18245 
L 887.914286 207.18245 
L 889.914286 211.18245 
" style="fill: none; stroke: #2e7d32; stroke-width: 1.5; stroke-linecap: round"/>
   </g>
   <g id="patch_36">
    <path d="M 887.914286 150.889889 
Q 887.914286 121.767216 887.914286 94.321593 
" style="fill: none; stroke: #e65100; stroke-width: 1.5; stroke-linecap: round"/>
    <path d="M 885.914286 98.321593 
L 887.914286 94.321593 
L 889.914286 98.321593 
" style="fill: none; stroke: #e65100; stroke-width: 1.5; stroke-linecap: round"/>
   </g>
   <g id="text_30">
    <!-- $q$ -->
    <g style="fill: #e65100" transform="translate(894.96 126.9) scale(0.08 -0.08)">
     <use xlink:href="#DejaVuSans-Oblique-71"/>
    </g>
   </g>
   <g id="text_31">
    <!-- 状态 -->
    <g style="fill: #1565c0" transform="translate(26.382857 176.115375) scale(0.09 -0.09)">
     <use xlink:href="#STHeiti-72b6"/>
     <use xlink:href="#STHeiti-6001" transform="translate(99.999985 0)"/>
    </g>
    <!-- $S_t$ -->
    <g style="fill: #1565c0" transform="translate(31.152857 185.918062) scale(0.09 -0.09)">
     <defs>
      <path id="DejaVuSans-Oblique-74" d="M 2706 3500 
L 2619 3053 
L 1472 3053 
L 1100 1153 
Q 1081 1047 1072 975 
Q 1063 903 1063 863 
Q 1063 663 1183 572 
Q 1303 481 1569 481 
L 2150 481 
L 2053 0 
L 1503 0 
Q 991 0 739 200 
Q 488 400 488 806 
Q 488 878 497 964 
Q 506 1050 525 1153 
L 897 3053 
L 409 3053 
L 500 3500 
L 978 3500 
L 1172 4494 
L 1747 4494 
L 1556 3500 
L 2706 3500 
z
" transform="scale(0.015625)"/>
     </defs>
     <use xlink:href="#DejaVuSans-Oblique-53" transform="translate(0 0.78125)"/>
     <use xlink:href="#DejaVuSans-Oblique-74" transform="translate(63.476562 -15.625) scale(0.7)"/>
    </g>
   </g>
   <g id="text_32">
    <!-- 输入 -->
    <g style="fill: #2e7d32" transform="translate(26.382857 313.077094) scale(0.09 -0.09)">
     <defs>
      <path id="STHeiti-8f93" d="M 4730 3725 
L 4730 3309 
Q 4448 3360 4006 3360 
Q 3565 3360 3290 3309 
L 3290 3802 
Q 3578 3750 3994 3750 
Q 4410 3750 4653 3789 
Q 4230 4154 3949 4646 
Q 3258 3712 2381 2950 
Q 2176 3174 1978 3258 
Q 2995 3917 3706 5267 
Q 4058 5126 4288 5114 
Q 4358 5107 4358 5068 
Q 4358 5030 4326 5011 
L 4205 4928 
Q 4538 4397 4995 4089 
Q 5453 3782 6157 3642 
Q 5926 3450 5792 3123 
Q 5222 3322 4730 3725 
z
M 1389 2406 
Q 1389 3162 1363 3264 
Q 1504 3219 1856 3219 
Q 1920 3219 1920 3174 
Q 1920 3130 1869 3110 
Q 1811 3072 1811 2931 
L 1811 2451 
Q 2099 2490 2240 2534 
L 2240 2054 
Q 2061 2080 1811 2074 
L 1811 1197 
Q 2163 1312 2317 1382 
Q 2298 1254 2298 1100 
Q 2298 947 2304 877 
Q 2093 877 1811 800 
Q 1811 186 1856 -538 
L 1331 -538 
Q 1382 51 1389 672 
Q 826 506 557 390 
Q 493 678 358 909 
Q 698 915 1389 1082 
L 1389 2048 
Q 826 2003 544 1888 
Q 474 2131 314 2362 
Q 525 2438 656 2796 
Q 787 3155 992 3923 
Q 685 3917 506 3885 
L 506 4371 
Q 678 4333 1082 4326 
Q 1184 4813 1171 5216 
Q 1606 5082 1811 5082 
Q 1882 5082 1882 5053 
Q 1882 5024 1824 4992 
Q 1734 4934 1536 4326 
Q 2042 4326 2298 4371 
L 2298 3885 
Q 2029 3930 1408 3930 
L 915 2362 
L 1389 2406 
z
M 5235 2989 
Q 5446 2944 5760 2944 
Q 5850 2944 5850 2909 
Q 5850 2874 5789 2822 
Q 5728 2771 5728 2586 
L 5728 115 
Q 5728 -109 5686 -214 
Q 5645 -320 5497 -390 
Q 5350 -461 4998 -538 
Q 4934 -224 4774 -51 
Q 4960 -77 5088 -77 
Q 5216 -77 5257 -3 
Q 5299 70 5299 282 
L 5299 1958 
Q 5299 2630 5235 2989 
z
M 3706 717 
L 3002 717 
L 3002 -390 
L 2522 -390 
Q 2579 128 2579 557 
L 2579 2438 
Q 2579 2733 2534 2976 
Q 2867 2938 3305 2938 
Q 3744 2938 4154 2976 
Q 4122 2784 4122 2438 
L 4122 205 
Q 4122 -64 4086 -182 
Q 4051 -301 3926 -368 
Q 3802 -435 3501 -486 
Q 3469 -250 3315 -13 
Q 3430 -26 3526 -26 
Q 3622 -26 3664 41 
Q 3706 109 3706 365 
L 3706 717 
z
M 3002 2016 
L 3706 2016 
L 3706 2554 
L 3002 2554 
L 3002 2016 
z
M 3706 1638 
L 3002 1638 
L 3002 1088 
L 3706 1088 
L 3706 1638 
z
M 4461 2758 
Q 4653 2720 4819 2720 
L 4973 2726 
Q 5043 2726 5043 2684 
Q 5043 2643 4985 2608 
Q 4928 2573 4928 2413 
L 4928 1254 
Q 4928 896 4966 467 
L 4467 467 
Q 4506 909 4506 1254 
L 4506 2067 
Q 4506 2515 4461 2758 
z
" transform="scale(0.015625)"/>
      <path id="STHeiti-5165" d="M 2893 3898 
Q 2470 4429 1984 4698 
L 2426 5133 
Q 3078 4608 3385 4150 
Q 3693 3693 3936 2938 
Q 4326 1722 4784 1210 
Q 5242 698 6074 326 
Q 5741 58 5549 -314 
Q 4768 218 4355 794 
Q 3942 1370 3571 2605 
Q 3456 2982 3264 3341 
Q 2938 2029 2317 1126 
Q 1696 224 986 -307 
Q 742 -26 422 102 
Q 1466 736 2086 1808 
Q 2707 2880 2893 3898 
z
" transform="scale(0.015625)"/>
     </defs>
     <use xlink:href="#STHeiti-8f93"/>
     <use xlink:href="#STHeiti-5165" transform="translate(99.999985 0)"/>
    </g>
    <!-- $k,v$ -->
    <g style="fill: #2e7d32" transform="translate(27.777857 322.879781) scale(0.09 -0.09)">
     <use xlink:href="#DejaVuSans-Oblique-6b" transform="translate(0 0.015625)"/>
     <use xlink:href="#DejaVuSans-2c" transform="translate(57.910156 0.015625)"/>
     <use xlink:href="#DejaVuSans-Oblique-76" transform="translate(109.179688 0.015625)"/>
    </g>
   </g>
   <g id="text_33">
    <!-- 输出 -->
    <g style="fill: #6a1b9a" transform="translate(26.382857 73.515375) scale(0.09 -0.09)">
     <defs>
      <path id="STHeiti-51fa" d="M 4858 2502 
L 3494 2502 
L 3494 326 
L 4973 371 
L 4973 1331 
Q 4973 1690 4934 1952 
Q 5203 1901 5408 1901 
L 5587 1907 
Q 5638 1907 5638 1891 
Q 5638 1875 5606 1843 
Q 5523 1760 5523 1325 
L 5523 102 
Q 5523 -275 5549 -608 
L 4934 -608 
Q 4960 -371 4973 -102 
L 3034 -160 
Q 1357 -211 845 -269 
Q 877 -19 877 256 
L 877 1523 
Q 877 1882 851 2016 
Q 1011 1984 1148 1968 
Q 1286 1952 1363 1958 
L 1491 1958 
Q 1542 1958 1542 1932 
Q 1542 1907 1513 1859 
Q 1485 1811 1459 1660 
Q 1434 1510 1434 1389 
L 1434 262 
L 2938 307 
L 2938 2502 
L 2163 2502 
Q 1613 2502 1094 2432 
Q 1146 2739 1146 3002 
L 1146 4006 
Q 1146 4346 1094 4576 
Q 1350 4531 1529 4531 
Q 1709 4531 1757 4540 
Q 1805 4550 1833 4550 
Q 1862 4550 1862 4531 
Q 1862 4512 1814 4464 
Q 1766 4416 1728 4256 
Q 1690 4096 1690 4013 
L 1690 2963 
L 2938 2963 
L 2938 4326 
Q 2938 4870 2893 5178 
Q 3149 5126 3254 5116 
Q 3360 5107 3616 5107 
Q 3680 5107 3680 5088 
Q 3680 5069 3629 5017 
Q 3578 4966 3536 4752 
Q 3494 4538 3494 4333 
L 3494 2963 
L 4858 2963 
L 4858 4006 
Q 4858 4365 4800 4627 
Q 5062 4582 5261 4582 
L 5472 4595 
Q 5517 4595 5517 4572 
Q 5517 4550 5498 4506 
Q 5402 4339 5402 4000 
L 5402 2842 
Q 5402 2477 5427 2202 
L 4813 2202 
Q 4851 2368 4858 2502 
z
" transform="scale(0.015625)"/>
     </defs>
     <use xlink:href="#STHeiti-8f93"/>
     <use xlink:href="#STHeiti-51fa" transform="translate(99.999985 0)"/>
    </g>
    <!-- $o_t$ -->
    <g style="fill: #6a1b9a" transform="translate(31.242857 83.318062) scale(0.09 -0.09)">
     <use xlink:href="#DejaVuSans-Oblique-6f"/>
     <use xlink:href="#DejaVuSans-Oblique-74" transform="translate(61.181641 -16.40625) scale(0.7)"/>
    </g>
   </g>
   <g id="text_34">
    <g id="patch_37">
     <path d="M 347.06 385.8 
L 653.74 385.8 
Q 657.59 385.8 657.59 381.95 
L 657.59 371.17 
Q 657.59 367.32 653.74 367.32 
L 347.06 367.32 
Q 343.21 367.32 343.21 371.17 
L 343.21 381.95 
Q 343.21 385.8 347.06 385.8 
z
" style="fill: #fff9c4; stroke: #f9a825; stroke-width: 1.8; stroke-linejoin: miter"/>
    </g>
    <!-- KV Cache 大小 = $O(1)$（固定状态矩阵）  vs  标准注意力 $O(T)$ -->
    <g style="fill: #c62828" transform="translate(347.06 380.41) scale(0.11 -0.11)">
     <defs>
      <path id="STHeiti-4b" d="M 557 4979 
L 1030 4979 
L 1030 3258 
L 2861 4979 
L 3482 4979 
L 1274 2918 
L 3654 384 
L 3046 384 
L 1030 2528 
L 1030 384 
L 557 384 
L 557 4979 
z
" transform="scale(0.015625)"/>
      <path id="STHeiti-56" d="M 211 4979 
L 710 4979 
L 2234 1312 
L 3782 4979 
L 4282 4979 
L 2278 269 
L 2182 269 
L 211 4979 
z
" transform="scale(0.015625)"/>
      <path id="STHeiti-20" transform="scale(0.015625)"/>
      <path id="STHeiti-43" d="M 4838 4128 
L 4480 3853 
Q 3840 4646 2835 4646 
Q 2016 4646 1424 4070 
Q 832 3494 832 2659 
Q 832 1824 1411 1264 
Q 1990 704 2861 704 
Q 3834 704 4480 1459 
L 4838 1184 
Q 4499 736 3980 502 
Q 3462 269 2835 269 
Q 1741 269 1043 960 
Q 346 1651 346 2707 
Q 346 3360 669 3913 
Q 992 4467 1565 4780 
Q 2138 5094 2797 5094 
Q 3456 5094 3981 4844 
Q 4506 4595 4838 4128 
z
" transform="scale(0.015625)"/>
      <path id="STHeiti-61" d="M 3872 3782 
L 3872 384 
L 3443 384 
L 3443 966 
Q 2861 269 2112 269 
Q 1363 269 848 803 
Q 333 1338 333 2077 
Q 333 2816 851 3344 
Q 1370 3872 2093 3872 
Q 2925 3872 3443 3162 
L 3443 3782 
L 3872 3782 
z
M 3469 2067 
Q 3469 2650 3078 3050 
Q 2688 3450 2121 3450 
Q 1555 3450 1164 3037 
Q 774 2624 774 2061 
Q 774 1498 1171 1085 
Q 1568 672 2121 672 
Q 2675 672 3072 1069 
Q 3469 1466 3469 2067 
z
" transform="scale(0.015625)"/>
      <path id="STHeiti-63" d="M 4038 3078 
L 3693 2861 
Q 3245 3456 2464 3456 
Q 1850 3456 1434 3062 
Q 1018 2669 1018 2086 
Q 1018 1504 1427 1088 
Q 1837 672 2464 672 
Q 3213 672 3693 1267 
L 4038 1037 
Q 3782 666 3350 467 
Q 2918 269 2419 269 
Q 1632 269 1104 787 
Q 576 1306 576 2054 
Q 576 2803 1110 3337 
Q 1645 3872 2483 3872 
Q 2976 3872 3395 3661 
Q 3814 3450 4038 3078 
z
" transform="scale(0.015625)"/>
      <path id="STHeiti-68" d="M 486 5094 
L 928 5094 
L 928 3174 
Q 1453 3872 2202 3872 
Q 2586 3872 2893 3664 
Q 3200 3456 3328 3120 
Q 3456 2784 3456 2131 
L 3456 384 
L 3014 384 
L 3014 2003 
Q 3014 2528 2982 2726 
Q 2950 2925 2841 3104 
Q 2733 3283 2550 3376 
Q 2368 3469 2109 3469 
Q 1850 3469 1613 3347 
Q 1376 3226 1209 3008 
Q 1043 2790 985 2560 
Q 928 2330 928 1632 
L 928 384 
L 486 384 
L 486 5094 
z
" transform="scale(0.015625)"/>
      <path id="STHeiti-65" d="M 3347 1485 
L 3718 1293 
Q 3168 269 2093 269 
Q 1325 269 825 797 
Q 326 1325 326 2067 
Q 326 2810 828 3341 
Q 1331 3872 2070 3872 
Q 2810 3872 3312 3379 
Q 3814 2886 3834 2035 
L 774 2035 
Q 794 1421 1162 1046 
Q 1530 672 2054 672 
Q 2918 672 3347 1485 
z
M 3347 2413 
Q 3258 2899 2899 3174 
Q 2541 3450 2074 3450 
Q 1114 3450 819 2413 
L 3347 2413 
z
" transform="scale(0.015625)"/>
      <path id="STHeiti-5927" d="M 3264 2304 
Q 3078 1402 2560 739 
Q 2042 77 909 -486 
Q 723 -192 365 6 
Q 1370 275 2051 963 
Q 2733 1651 2829 3027 
Q 1427 3021 621 2970 
L 621 3584 
Q 1389 3533 2854 3520 
Q 2880 4051 2880 4454 
Q 2880 4858 2848 5158 
Q 3117 5120 3296 5120 
Q 3661 5120 3661 5094 
Q 3661 5069 3603 5024 
Q 3501 4947 3488 4659 
L 3411 3520 
Q 4973 3520 5773 3584 
L 5773 2970 
Q 4915 3027 3379 3027 
Q 3629 1946 4333 1171 
Q 5037 397 5997 237 
Q 5645 -6 5459 -448 
Q 4787 -115 4179 521 
Q 3571 1158 3264 2304 
z
" transform="scale(0.015625)"/>
      <path id="STHeiti-5c0f" d="M 2931 5114 
Q 3066 5094 3283 5094 
L 3667 5107 
Q 3757 5107 3757 5046 
Q 3757 4986 3683 4941 
Q 3610 4896 3584 4800 
Q 3558 4704 3558 4518 
L 3558 269 
Q 3558 -19 3491 -147 
Q 3424 -275 3200 -345 
Q 2976 -416 2432 -486 
Q 2381 -147 2176 166 
Q 2342 160 2464 160 
Q 2797 160 2889 217 
Q 2982 275 2982 435 
L 2982 4083 
Q 2982 4813 2931 5114 
z
M 1453 3571 
Q 1792 3450 1997 3424 
Q 2202 3398 2202 3344 
Q 2202 3290 2099 3232 
Q 1997 3174 1882 2835 
Q 1517 1715 1011 966 
Q 742 1101 442 1146 
Q 1235 2259 1453 3571 
z
M 6112 1306 
L 5504 1037 
Q 5056 2253 4352 3334 
L 4864 3552 
Q 5574 2451 6112 1306 
z
" transform="scale(0.015625)"/>
      <path id="STHeiti-3d" d="M 3520 3584 
L 3520 3155 
L 358 3155 
L 358 3584 
L 3520 3584 
z
M 3520 2208 
L 3520 1779 
L 358 1779 
L 358 2208 
L 3520 2208 
z
" transform="scale(0.015625)"/>
      <path id="DejaVuSans-Oblique-4f" d="M 2919 4238 
Q 2400 4238 2003 3986 
Q 1606 3734 1313 3219 
Q 1125 2891 1026 2522 
Q 928 2153 928 1778 
Q 928 1128 1239 775 
Q 1550 422 2119 422 
Q 2631 422 3032 676 
Q 3434 931 3719 1434 
Q 3909 1772 4009 2142 
Q 4109 2513 4109 2881 
Q 4109 3528 3796 3883 
Q 3484 4238 2919 4238 
z
M 2100 -91 
Q 1241 -91 748 418 
Q 256 928 256 1813 
Q 256 2319 448 2847 
Q 641 3375 978 3788 
Q 1375 4272 1862 4511 
Q 2350 4750 2938 4750 
Q 3794 4750 4287 4245 
Q 4781 3741 4781 2869 
Q 4781 2331 4593 1812 
Q 4406 1294 4056 872 
Q 3656 384 3173 146 
Q 2691 -91 2100 -91 
z
" transform="scale(0.015625)"/>
      <path id="STHeiti-56fa" d="M 1248 -218 
L 1248 -582 
L 691 -582 
Q 723 -173 723 339 
L 723 4282 
Q 723 4710 691 4858 
Q 838 4826 3206 4826 
Q 5574 4826 5722 4858 
Q 5690 4653 5690 4282 
L 5690 339 
Q 5690 -173 5722 -576 
L 5171 -576 
L 5171 -218 
L 1248 -218 
z
M 5171 218 
L 5171 4378 
L 1248 4378 
L 1248 218 
L 5171 218 
z
M 2912 3066 
Q 2080 3059 1638 3002 
L 1638 3501 
Q 2054 3450 2912 3443 
Q 2912 3942 2874 4179 
Q 3238 4128 3414 4128 
Q 3590 4128 3590 4089 
Q 3590 4051 3539 4000 
Q 3411 3878 3411 3629 
L 3411 3443 
Q 4480 3443 4800 3501 
L 4800 3002 
Q 4346 3059 3411 3066 
L 3411 2304 
Q 4378 2304 4397 2323 
Q 4371 2054 4371 1488 
Q 4371 922 4384 698 
Q 3872 736 3149 736 
Q 2426 736 1939 698 
Q 1965 1075 1965 1561 
Q 1965 2048 1939 2323 
Q 2022 2304 2912 2304 
L 2912 3066 
z
M 2445 1946 
L 2445 1133 
L 3923 1133 
L 3923 1946 
L 2445 1946 
z
" transform="scale(0.015625)"/>
      <path id="STHeiti-5b9a" d="M 3744 4480 
L 3091 4314 
Q 2976 4653 2758 5037 
L 3360 5229 
Q 3546 4915 3744 4480 
z
M 659 4307 
Q 1267 4250 3142 4250 
Q 5018 4250 5773 4307 
L 5773 3027 
L 5216 3027 
L 5216 3808 
L 1216 3808 
L 1216 2938 
L 659 2938 
L 659 4307 
z
M 3507 1837 
L 4397 1837 
Q 4960 1837 5389 1901 
L 5389 1318 
Q 4998 1382 4397 1382 
L 3507 1382 
L 3507 154 
Q 4064 70 4729 70 
Q 5395 70 6074 179 
Q 6003 70 5964 -61 
Q 5926 -192 5926 -486 
Q 5715 -506 5376 -506 
Q 4070 -506 3152 -288 
Q 2234 -70 1619 813 
Q 1248 -19 845 -563 
Q 563 -346 384 -256 
Q 1216 730 1594 2182 
Q 1862 2054 2157 2003 
Q 2253 1990 2253 1945 
Q 2253 1901 2176 1824 
Q 1997 1632 1805 1235 
Q 2176 595 2982 282 
L 2982 2707 
Q 1984 2701 1408 2650 
L 1408 3194 
Q 2048 3136 3203 3136 
Q 4358 3136 4992 3194 
L 4992 2650 
Q 4435 2701 3507 2707 
L 3507 1837 
z
" transform="scale(0.015625)"/>
      <path id="STHeiti-77e9" d="M 2157 2470 
Q 2694 2477 3066 2528 
L 3066 1965 
Q 2688 2016 2125 2022 
Q 2106 1843 2061 1574 
Q 2643 992 3219 307 
L 2701 -58 
Q 2419 461 1939 1120 
Q 1600 83 864 -563 
Q 704 -365 422 -173 
Q 1030 339 1305 848 
Q 1581 1357 1626 2022 
Q 915 2016 512 1965 
L 512 2515 
Q 902 2470 1664 2470 
Q 1709 3040 1702 3725 
L 1338 3725 
Q 1114 3200 973 2944 
Q 710 3085 480 3117 
Q 1062 4038 1235 5184 
Q 1542 5056 1888 5011 
Q 1978 4998 1978 4966 
Q 1978 4934 1923 4902 
Q 1869 4870 1779 4742 
Q 1690 4614 1530 4179 
Q 2714 4179 3002 4218 
L 3002 3686 
Q 2694 3725 2208 3725 
Q 2202 3021 2157 2470 
z
M 3763 3270 
L 4570 3270 
Q 5446 3270 5664 3328 
Q 5626 2874 5626 2285 
Q 5626 1696 5664 1248 
Q 5510 1306 4570 1306 
L 3763 1306 
L 3763 147 
L 4922 147 
Q 5747 147 6054 211 
L 6054 -378 
Q 5805 -314 4633 -314 
Q 3462 -314 3219 -378 
Q 3270 186 3270 742 
L 3270 3776 
Q 3270 4282 3219 4819 
Q 3507 4762 4595 4762 
Q 5683 4762 5920 4819 
L 5920 4250 
Q 5587 4307 4973 4307 
L 3763 4307 
L 3763 3270 
z
M 3763 1754 
L 5114 1754 
L 5114 2829 
L 3763 2829 
L 3763 1754 
z
" transform="scale(0.015625)"/>
      <path id="STHeiti-9635" d="M 4038 2560 
Q 4038 3021 4028 3168 
Q 4019 3315 3974 3443 
Q 4205 3411 4345 3408 
Q 4486 3405 4588 3405 
Q 4691 3405 4691 3360 
Q 4691 3315 4617 3280 
Q 4544 3245 4544 2912 
L 4544 2560 
Q 5293 2560 5741 2611 
L 5741 2093 
Q 5376 2138 4544 2144 
L 4544 1133 
Q 5395 1139 5914 1190 
L 5914 659 
Q 5370 710 4544 717 
Q 4544 -173 4589 -589 
L 4000 -589 
Q 4038 -346 4038 717 
Q 3053 717 2464 659 
L 2464 1190 
Q 3053 1133 4038 1133 
L 4038 2144 
Q 2995 2138 2694 2054 
Q 2605 2336 2464 2528 
Q 2682 2643 2858 2960 
Q 3034 3277 3309 3962 
Q 2886 3949 2618 3917 
L 2618 4442 
Q 2970 4397 3475 4397 
Q 3642 4870 3706 5357 
Q 3853 5306 4067 5248 
Q 4282 5190 4349 5184 
Q 4416 5178 4416 5152 
Q 4416 5126 4378 5094 
Q 4269 4992 3981 4397 
L 5018 4397 
Q 5562 4397 5946 4442 
L 5946 3917 
Q 5562 3962 5018 3962 
L 3795 3962 
Q 3456 3098 3149 2560 
L 4038 2560 
z
M 2630 4954 
L 1843 2810 
Q 2234 2323 2317 2073 
Q 2400 1824 2400 1501 
Q 2400 1178 2173 931 
Q 1946 685 1504 608 
Q 1478 979 1254 1267 
Q 1376 1261 1459 1261 
Q 1709 1261 1808 1331 
Q 1907 1402 1907 1664 
Q 1907 1926 1785 2198 
Q 1664 2470 1408 2778 
L 1926 4422 
L 1184 4422 
L 1184 998 
Q 1184 64 1210 -454 
L 659 -454 
Q 704 314 704 998 
L 704 4166 
Q 704 4710 659 4954 
Q 1126 4902 1696 4902 
Q 2266 4902 2630 4954 
z
" transform="scale(0.015625)"/>
      <path id="STHeiti-76" d="M 166 3782 
L 634 3782 
L 1766 1197 
L 2899 3782 
L 3366 3782 
L 1811 269 
L 1734 269 
L 166 3782 
z
" transform="scale(0.015625)"/>
      <path id="STHeiti-73" d="M 2195 3411 
L 1914 3123 
Q 1562 3462 1229 3462 
Q 1011 3462 864 3324 
Q 717 3187 717 2985 
Q 717 2784 873 2640 
Q 1030 2496 1414 2294 
Q 1798 2093 2000 1859 
Q 2202 1626 2202 1286 
Q 2202 858 1904 563 
Q 1606 269 1171 269 
Q 883 269 617 397 
Q 352 525 166 755 
L 442 1062 
Q 781 685 1152 685 
Q 1414 685 1600 857 
Q 1786 1030 1786 1264 
Q 1786 1498 1622 1648 
Q 1459 1798 1078 1990 
Q 698 2182 509 2409 
Q 320 2637 320 2998 
Q 320 3360 585 3616 
Q 851 3872 1289 3872 
Q 1728 3872 2195 3411 
z
" transform="scale(0.015625)"/>
      <path id="STHeiti-6807" d="M 1254 2586 
Q 947 1370 602 794 
Q 435 1126 218 1370 
Q 800 2016 1235 3360 
Q 685 3354 326 3309 
L 326 3859 
Q 621 3814 1254 3808 
Q 1254 4717 1184 5229 
Q 1389 5203 1536 5203 
L 1792 5216 
Q 1882 5216 1882 5168 
Q 1882 5120 1805 5053 
Q 1728 4986 1728 4883 
L 1728 3808 
Q 2317 3821 2586 3859 
L 2586 3309 
Q 2214 3354 1728 3354 
L 1728 659 
Q 1728 160 1792 -544 
L 1190 -544 
Q 1254 160 1254 659 
L 1254 2586 
z
M 5587 4256 
Q 5158 4301 4243 4301 
Q 3328 4301 2893 4256 
L 2893 4838 
Q 3347 4794 4252 4794 
Q 5158 4794 5587 4838 
L 5587 4256 
z
M 4448 2790 
L 4448 -6 
Q 4448 -186 4390 -285 
Q 4333 -384 4144 -464 
Q 3955 -544 3539 -627 
Q 3488 -282 3219 -6 
Q 3462 -51 3616 -51 
Q 3770 -51 3843 13 
Q 3917 77 3917 230 
L 3917 2790 
Q 3059 2778 2611 2746 
L 2611 3315 
Q 3181 3270 4297 3270 
Q 5414 3270 5946 3315 
L 5946 2746 
Q 5453 2790 4448 2790 
z
M 2675 1690 
L 2208 1453 
Q 2042 1965 1766 2349 
L 2208 2579 
Q 2451 2093 2675 1690 
z
M 6176 640 
L 5670 282 
Q 5274 1203 4755 1850 
L 5171 2138 
Q 5715 1376 6176 640 
z
M 3027 2080 
Q 3405 1875 3629 1843 
Q 3706 1830 3706 1779 
Q 3706 1728 3613 1705 
Q 3520 1683 3363 1401 
Q 3206 1120 2682 -58 
Q 2502 90 2099 160 
Q 2861 1082 3027 2080 
z
" transform="scale(0.015625)"/>
      <path id="STHeiti-51c6" d="M 2893 -58 
L 2893 -602 
L 2342 -602 
Q 2419 -198 2419 774 
L 2419 2918 
Q 2246 2637 1939 2208 
Q 1792 2464 1555 2611 
Q 2054 3168 2348 3798 
Q 2643 4429 2790 5254 
Q 3168 5082 3411 5062 
Q 3520 5050 3520 5011 
Q 3520 4973 3424 4896 
Q 3328 4819 3002 4115 
L 4371 4115 
Q 5626 4115 5843 4147 
L 5843 3616 
Q 5613 3648 4525 3648 
L 4525 2886 
Q 5446 2886 5658 2918 
L 5658 2387 
Q 5510 2413 4525 2419 
L 4525 1690 
Q 5523 1696 5651 1722 
L 5651 1190 
Q 5504 1216 4525 1222 
L 4525 410 
Q 5760 410 5984 442 
L 5984 -90 
Q 5747 -58 4512 -58 
L 2893 -58 
z
M 2893 3648 
L 2893 2886 
L 4032 2886 
L 4032 3648 
L 2893 3648 
z
M 2893 2419 
L 2893 1690 
L 4032 1690 
L 4032 2419 
L 2893 2419 
z
M 2893 1222 
L 2893 410 
L 4032 410 
L 4032 1222 
L 2893 1222 
z
M 4851 4410 
L 4250 4256 
Q 4160 4762 3987 5024 
L 4538 5190 
Q 4646 4813 4851 4410 
z
M 1760 3718 
L 1280 3315 
Q 986 3814 486 4307 
L 979 4672 
Q 1331 4179 1760 3718 
z
M 1773 1946 
Q 1619 1709 1388 1184 
Q 1158 659 973 90 
Q 659 352 352 525 
Q 915 1203 1318 2387 
Q 1491 2086 1773 1946 
z
" transform="scale(0.015625)"/>
      <path id="DejaVuSans-Oblique-54" d="M 378 4666 
L 4325 4666 
L 4225 4134 
L 2559 4134 
L 1759 0 
L 1125 0 
L 1925 4134 
L 275 4134 
L 378 4666 
z
" transform="scale(0.015625)"/>
     </defs>
     <use xlink:href="#STHeiti-4b" transform="translate(0 0.296875)"/>
     <use xlink:href="#STHeiti-56" transform="translate(59.099991 0.296875)"/>
     <use xlink:href="#STHeiti-20" transform="translate(129.299973 0.296875)"/>
     <use xlink:href="#STHeiti-43" transform="translate(154.299957 0.296875)"/>
     <use xlink:href="#STHeiti-61" transform="translate(235.599945 0.296875)"/>
     <use xlink:href="#STHeiti-63" transform="translate(303.899933 0.296875)"/>
     <use xlink:href="#STHeiti-68" transform="translate(368.59993 0.296875)"/>
     <use xlink:href="#STHeiti-65" transform="translate(429.599915 0.296875)"/>
     <use xlink:href="#STHeiti-20" transform="translate(494.599899 0.296875)"/>
     <use xlink:href="#STHeiti-5927" transform="translate(519.599884 0.296875)"/>
     <use xlink:href="#STHeiti-5c0f" transform="translate(619.599869 0.296875)"/>
     <use xlink:href="#STHeiti-20" transform="translate(719.599854 0.296875)"/>
     <use xlink:href="#STHeiti-3d" transform="translate(744.599838 0.296875)"/>
     <use xlink:href="#STHeiti-20" transform="translate(805.199829 0.296875)"/>
     <use xlink:href="#DejaVuSans-Oblique-4f" transform="translate(830.199814 0.296875)"/>
     <use xlink:href="#DejaVuSans-28" transform="translate(908.910751 0.296875)"/>
     <use xlink:href="#DejaVuSans-31" transform="translate(947.924423 0.296875)"/>
     <use xlink:href="#DejaVuSans-29" transform="translate(1011.54747 0.296875)"/>
     <use xlink:href="#STHeiti-ff08" transform="translate(1050.561142 0.296875)"/>
     <use xlink:href="#STHeiti-56fa" transform="translate(1150.561127 0.296875)"/>
     <use xlink:href="#STHeiti-5b9a" transform="translate(1250.561111 0.296875)"/>
     <use xlink:href="#STHeiti-72b6" transform="translate(1350.561096 0.296875)"/>
     <use xlink:href="#STHeiti-6001" transform="translate(1450.561081 0.296875)"/>
     <use xlink:href="#STHeiti-77e9" transform="translate(1550.561066 0.296875)"/>
     <use xlink:href="#STHeiti-9635" transform="translate(1650.56105 0.296875)"/>
     <use xlink:href="#STHeiti-ff09" transform="translate(1750.561035 0.296875)"/>
     <use xlink:href="#STHeiti-20" transform="translate(1850.56102 0.296875)"/>
     <use xlink:href="#STHeiti-20" transform="translate(1875.561005 0.296875)"/>
     <use xlink:href="#STHeiti-76" transform="translate(1900.560989 0.296875)"/>
     <use xlink:href="#STHeiti-73" transform="translate(1955.960983 0.296875)"/>
     <use xlink:href="#STHeiti-20" transform="translate(1994.760971 0.296875)"/>
     <use xlink:href="#STHeiti-20" transform="translate(2019.760956 0.296875)"/>
     <use xlink:href="#STHeiti-6807" transform="translate(2044.760941 0.296875)"/>
     <use xlink:href="#STHeiti-51c6" transform="translate(2144.760925 0.296875)"/>
     <use xlink:href="#STHeiti-6ce8" transform="translate(2244.76091 0.296875)"/>
     <use xlink:href="#STHeiti-610f" transform="translate(2344.760895 0.296875)"/>
     <use xlink:href="#STHeiti-529b" transform="translate(2444.76088 0.296875)"/>
     <use xlink:href="#STHeiti-20" transform="translate(2544.760864 0.296875)"/>
     <use xlink:href="#DejaVuSans-Oblique-4f" transform="translate(2569.760849 0.296875)"/>
     <use xlink:href="#DejaVuSans-28" transform="translate(2648.471786 0.296875)"/>
     <use xlink:href="#DejaVuSans-Oblique-54" transform="translate(2687.485458 0.296875)"/>
     <use xlink:href="#DejaVuSans-29" transform="translate(2748.569443 0.296875)"/>
    </g>
   </g>
  </g>
 </g>
 <defs>
  <clipPath id="p7de3af1158">
   <rect x="7.2" y="7.2" width="986.4" height="410.4"/>
  </clipPath>
 </defs>
</svg>
