<?xml version="1.0" encoding="utf-8" standalone="no"?>
<!DOCTYPE svg PUBLIC "-//W3C//DTD SVG 1.1//EN"
  "http://www.w3.org/Graphics/SVG/1.1/DTD/svg11.dtd">
<svg xmlns:xlink="http://www.w3.org/1999/xlink" width="1000.8pt" height="568.8pt" viewBox="0 0 1000.8 568.8" xmlns="http://www.w3.org/2000/svg" version="1.1">
 <metadata>
  <rdf:RDF xmlns:dc="http://purl.org/dc/elements/1.1/" xmlns:cc="http://creativecommons.org/ns#" xmlns:rdf="http://www.w3.org/1999/02/22-rdf-syntax-ns#">
   <cc:Work>
    <dc:type rdf:resource="http://purl.org/dc/dcmitype/StillImage"/>
    <dc:date>2026-05-09T14:18:34.091617</dc:date>
    <dc:format>image/svg+xml</dc:format>
    <dc:creator>
     <cc:Agent>
      <dc:title>Matplotlib v3.10.8, https://matplotlib.org/</dc:title>
     </cc:Agent>
    </dc:creator>
   </cc:Work>
  </rdf:RDF>
 </metadata>
 <defs>
  <style type="text/css">*{stroke-linejoin: round; stroke-linecap: butt}</style>
 </defs>
 <g id="figure_1">
  <g id="patch_1">
   <path d="M 0 568.8 
L 1000.8 568.8 
L 1000.8 0 
L 0 0 
z
" style="fill: #ffffff"/>
  </g>
  <g id="axes_1">
   <g id="patch_2">
    <path d="M 148.114286 169.362 
L 246.754286 169.362 
Q 249.572571 169.362 249.572571 166.59 
L 249.572571 125.01 
Q 249.572571 122.238 246.754286 122.238 
L 148.114286 122.238 
Q 145.296 122.238 145.296 125.01 
L 145.296 166.59 
Q 145.296 169.362 148.114286 169.362 
z
" clip-path="url(#pcf08834d14)" style="fill: #1565c0; fill-opacity: 0.133333; stroke: #1565c0; stroke-width: 1.6; stroke-linejoin: miter"/>
   </g>
   <g id="patch_3">
    <path d="M 257.322857 169.362 
L 355.962857 169.362 
Q 358.781143 169.362 358.781143 166.59 
L 358.781143 125.01 
Q 358.781143 122.238 355.962857 122.238 
L 257.322857 122.238 
Q 254.504571 122.238 254.504571 125.01 
L 254.504571 166.59 
Q 254.504571 169.362 257.322857 169.362 
z
" clip-path="url(#pcf08834d14)" style="fill: #1565c0; fill-opacity: 0.133333; stroke: #1565c0; stroke-width: 1.6; stroke-linejoin: miter"/>
   </g>
   <g id="patch_4">
    <path d="M 366.531429 169.362 
L 465.171429 169.362 
Q 467.989714 169.362 467.989714 166.59 
L 467.989714 125.01 
Q 467.989714 122.238 465.171429 122.238 
L 366.531429 122.238 
Q 363.713143 122.238 363.713143 125.01 
L 363.713143 166.59 
Q 363.713143 169.362 366.531429 169.362 
z
" clip-path="url(#pcf08834d14)" style="fill: #1565c0; fill-opacity: 0.133333; stroke: #1565c0; stroke-width: 1.6; stroke-linejoin: miter"/>
   </g>
   <g id="patch_5">
    <path d="M 475.74 169.362 
L 574.38 169.362 
Q 577.198286 169.362 577.198286 166.59 
L 577.198286 125.01 
Q 577.198286 122.238 574.38 122.238 
L 475.74 122.238 
Q 472.921714 122.238 472.921714 125.01 
L 472.921714 166.59 
Q 472.921714 169.362 475.74 169.362 
z
" clip-path="url(#pcf08834d14)" style="fill: #1565c0; fill-opacity: 0.133333; stroke: #1565c0; stroke-width: 1.6; stroke-linejoin: miter"/>
   </g>
   <g id="patch_6">
    <path d="M 584.948571 169.362 
L 683.588571 169.362 
Q 686.406857 169.362 686.406857 166.59 
L 686.406857 125.01 
Q 686.406857 122.238 683.588571 122.238 
L 584.948571 122.238 
Q 582.130286 122.238 582.130286 125.01 
L 582.130286 166.59 
Q 582.130286 169.362 584.948571 169.362 
z
" clip-path="url(#pcf08834d14)" style="fill: #1565c0; fill-opacity: 0.133333; stroke: #1565c0; stroke-width: 1.6; stroke-linejoin: miter"/>
   </g>
   <g id="patch_7">
    <path d="M 694.157143 169.362 
L 792.797143 169.362 
Q 795.615429 169.362 795.615429 166.59 
L 795.615429 125.01 
Q 795.615429 122.238 792.797143 122.238 
L 694.157143 122.238 
Q 691.338857 122.238 691.338857 125.01 
L 691.338857 166.59 
Q 691.338857 169.362 694.157143 169.362 
z
" clip-path="url(#pcf08834d14)" style="fill: #1565c0; fill-opacity: 0.133333; stroke: #1565c0; stroke-width: 1.6; stroke-linejoin: miter"/>
   </g>
   <g id="patch_8">
    <path d="M 148.114286 273.312 
L 246.754286 273.312 
Q 249.572571 273.312 249.572571 270.54 
L 249.572571 228.96 
Q 249.572571 226.188 246.754286 226.188 
L 148.114286 226.188 
Q 145.296 226.188 145.296 228.96 
L 145.296 270.54 
Q 145.296 273.312 148.114286 273.312 
z
" clip-path="url(#pcf08834d14)" style="fill: #2e7d32; fill-opacity: 0.133333; stroke: #2e7d32; stroke-width: 1.6; stroke-linejoin: miter"/>
   </g>
   <g id="patch_9">
    <path d="M 257.322857 273.312 
L 355.962857 273.312 
Q 358.781143 273.312 358.781143 270.54 
L 358.781143 228.96 
Q 358.781143 226.188 355.962857 226.188 
L 257.322857 226.188 
Q 254.504571 226.188 254.504571 228.96 
L 254.504571 270.54 
Q 254.504571 273.312 257.322857 273.312 
z
" clip-path="url(#pcf08834d14)" style="fill: #2e7d32; fill-opacity: 0.133333; stroke: #2e7d32; stroke-width: 1.6; stroke-linejoin: miter"/>
   </g>
   <g id="patch_10">
    <path d="M 366.531429 273.312 
L 465.171429 273.312 
Q 467.989714 273.312 467.989714 270.54 
L 467.989714 228.96 
Q 467.989714 226.188 465.171429 226.188 
L 366.531429 226.188 
Q 363.713143 226.188 363.713143 228.96 
L 363.713143 270.54 
Q 363.713143 273.312 366.531429 273.312 
z
" clip-path="url(#pcf08834d14)" style="fill: #2e7d32; fill-opacity: 0.133333; stroke: #2e7d32; stroke-width: 1.6; stroke-linejoin: miter"/>
   </g>
   <g id="patch_11">
    <path d="M 475.74 273.312 
L 574.38 273.312 
Q 577.198286 273.312 577.198286 270.54 
L 577.198286 228.96 
Q 577.198286 226.188 574.38 226.188 
L 475.74 226.188 
Q 472.921714 226.188 472.921714 228.96 
L 472.921714 270.54 
Q 472.921714 273.312 475.74 273.312 
z
" clip-path="url(#pcf08834d14)" style="fill: #2e7d32; fill-opacity: 0.133333; stroke: #2e7d32; stroke-width: 1.6; stroke-linejoin: miter"/>
   </g>
   <g id="patch_12">
    <path d="M 584.948571 273.312 
L 683.588571 273.312 
Q 686.406857 273.312 686.406857 270.54 
L 686.406857 228.96 
Q 686.406857 226.188 683.588571 226.188 
L 584.948571 226.188 
Q 582.130286 226.188 582.130286 228.96 
L 582.130286 270.54 
Q 582.130286 273.312 584.948571 273.312 
z
" clip-path="url(#pcf08834d14)" style="fill: #2e7d32; fill-opacity: 0.133333; stroke: #2e7d32; stroke-width: 1.6; stroke-linejoin: miter"/>
   </g>
   <g id="patch_13">
    <path d="M 694.157143 273.312 
L 792.797143 273.312 
Q 795.615429 273.312 795.615429 270.54 
L 795.615429 228.96 
Q 795.615429 226.188 792.797143 226.188 
L 694.157143 226.188 
Q 691.338857 226.188 691.338857 228.96 
L 691.338857 270.54 
Q 691.338857 273.312 694.157143 273.312 
z
" clip-path="url(#pcf08834d14)" style="fill: #2e7d32; fill-opacity: 0.133333; stroke: #2e7d32; stroke-width: 1.6; stroke-linejoin: miter"/>
   </g>
   <g id="patch_14">
    <path d="M 148.114286 377.262 
L 246.754286 377.262 
Q 249.572571 377.262 249.572571 374.49 
L 249.572571 332.91 
Q 249.572571 330.138 246.754286 330.138 
L 148.114286 330.138 
Q 145.296 330.138 145.296 332.91 
L 145.296 374.49 
Q 145.296 377.262 148.114286 377.262 
z
" clip-path="url(#pcf08834d14)" style="fill: #6a1b9a; fill-opacity: 0.133333; stroke: #6a1b9a; stroke-width: 1.6; stroke-linejoin: miter"/>
   </g>
   <g id="patch_15">
    <path d="M 257.322857 377.262 
L 355.962857 377.262 
Q 358.781143 377.262 358.781143 374.49 
L 358.781143 332.91 
Q 358.781143 330.138 355.962857 330.138 
L 257.322857 330.138 
Q 254.504571 330.138 254.504571 332.91 
L 254.504571 374.49 
Q 254.504571 377.262 257.322857 377.262 
z
" clip-path="url(#pcf08834d14)" style="fill: #6a1b9a; fill-opacity: 0.133333; stroke: #6a1b9a; stroke-width: 1.6; stroke-linejoin: miter"/>
   </g>
   <g id="patch_16">
    <path d="M 366.531429 377.262 
L 465.171429 377.262 
Q 467.989714 377.262 467.989714 374.49 
L 467.989714 332.91 
Q 467.989714 330.138 465.171429 330.138 
L 366.531429 330.138 
Q 363.713143 330.138 363.713143 332.91 
L 363.713143 374.49 
Q 363.713143 377.262 366.531429 377.262 
z
" clip-path="url(#pcf08834d14)" style="fill: #6a1b9a; fill-opacity: 0.133333; stroke: #6a1b9a; stroke-width: 1.6; stroke-linejoin: miter"/>
   </g>
   <g id="patch_17">
    <path d="M 475.74 377.262 
L 574.38 377.262 
Q 577.198286 377.262 577.198286 374.49 
L 577.198286 332.91 
Q 577.198286 330.138 574.38 330.138 
L 475.74 330.138 
Q 472.921714 330.138 472.921714 332.91 
L 472.921714 374.49 
Q 472.921714 377.262 475.74 377.262 
z
" clip-path="url(#pcf08834d14)" style="fill: #6a1b9a; fill-opacity: 0.133333; stroke: #6a1b9a; stroke-width: 1.6; stroke-linejoin: miter"/>
   </g>
   <g id="patch_18">
    <path d="M 584.948571 377.262 
L 683.588571 377.262 
Q 686.406857 377.262 686.406857 374.49 
L 686.406857 332.91 
Q 686.406857 330.138 683.588571 330.138 
L 584.948571 330.138 
Q 582.130286 330.138 582.130286 332.91 
L 582.130286 374.49 
Q 582.130286 377.262 584.948571 377.262 
z
" clip-path="url(#pcf08834d14)" style="fill: #6a1b9a; fill-opacity: 0.133333; stroke: #6a1b9a; stroke-width: 1.6; stroke-linejoin: miter"/>
   </g>
   <g id="patch_19">
    <path d="M 694.157143 377.262 
L 792.797143 377.262 
Q 795.615429 377.262 795.615429 374.49 
L 795.615429 332.91 
Q 795.615429 330.138 792.797143 330.138 
L 694.157143 330.138 
Q 691.338857 330.138 691.338857 332.91 
L 691.338857 374.49 
Q 691.338857 377.262 694.157143 377.262 
z
" clip-path="url(#pcf08834d14)" style="fill: #6a1b9a; fill-opacity: 0.133333; stroke: #6a1b9a; stroke-width: 1.6; stroke-linejoin: miter"/>
   </g>
   <g id="patch_20">
    <path d="M 429.942857 489.528 
L 584.948571 489.528 
Q 589.176 489.528 589.176 485.37 
L 589.176 429.93 
Q 589.176 425.772 584.948571 425.772 
L 429.942857 425.772 
Q 425.715429 425.772 425.715429 429.93 
L 425.715429 485.37 
Q 425.715429 489.528 429.942857 489.528 
z
" clip-path="url(#pcf08834d14)" style="fill: #fff9c4; stroke: #f9a825; stroke-width: 2; stroke-linejoin: miter"/>
   </g>
   <g id="text_1">
    <!-- mHC 多车道超连接结构图 -->
    <g style="fill: #1a1a2e" transform="translate(406.92875 40.215) scale(0.16 -0.16)">
     <defs>
      <path id="STHeiti-6d" d="M 486 3782 
L 922 3782 
L 922 3194 
Q 1376 3872 2086 3872 
Q 2464 3872 2761 3657 
Q 3059 3443 3162 3053 
Q 3373 3450 3699 3661 
Q 4026 3872 4451 3872 
Q 4877 3872 5222 3542 
Q 5568 3213 5568 2240 
L 5568 384 
L 5120 384 
L 5120 2240 
Q 5120 2707 5062 2928 
Q 5005 3149 4813 3299 
Q 4621 3450 4304 3450 
Q 3987 3450 3712 3238 
Q 3437 3027 3334 2700 
Q 3232 2374 3232 1715 
L 3232 384 
L 2803 384 
L 2803 2125 
Q 2803 2669 2745 2902 
Q 2688 3136 2489 3293 
Q 2291 3450 2003 3450 
Q 1715 3450 1462 3280 
Q 1210 3110 1066 2816 
Q 922 2522 922 1824 
L 922 384 
L 486 384 
L 486 3782 
z
" transform="scale(0.015625)"/>
      <path id="STHeiti-48" d="M 550 4979 
L 1018 4979 
L 1018 3053 
L 3354 3053 
L 3354 4979 
L 3814 4979 
L 3814 384 
L 3354 384 
L 3354 2605 
L 1018 2605 
L 1018 384 
L 550 384 
L 550 4979 
z
" transform="scale(0.015625)"/>
      <path id="STHeiti-43" d="M 4838 4128 
L 4480 3853 
Q 3840 4646 2835 4646 
Q 2016 4646 1424 4070 
Q 832 3494 832 2659 
Q 832 1824 1411 1264 
Q 1990 704 2861 704 
Q 3834 704 4480 1459 
L 4838 1184 
Q 4499 736 3980 502 
Q 3462 269 2835 269 
Q 1741 269 1043 960 
Q 346 1651 346 2707 
Q 346 3360 669 3913 
Q 992 4467 1565 4780 
Q 2138 5094 2797 5094 
Q 3456 5094 3981 4844 
Q 4506 4595 4838 4128 
z
" transform="scale(0.015625)"/>
      <path id="STHeiti-20" transform="scale(0.015625)"/>
      <path id="STHeiti-591a" d="M 2016 3450 
Q 1747 3206 1453 2989 
Q 1376 3200 1005 3360 
Q 1587 3667 2041 4179 
Q 2496 4691 2656 5210 
Q 3066 5037 3315 4998 
Q 3405 4986 3405 4947 
Q 3405 4909 3289 4861 
Q 3174 4813 2912 4506 
L 3994 4506 
Q 5171 4506 5626 4557 
Q 5139 3840 4684 3440 
Q 4230 3040 3328 2573 
Q 3597 2464 3834 2438 
Q 3904 2432 3904 2400 
Q 3904 2368 3805 2310 
Q 3706 2253 3565 2138 
L 4557 2138 
Q 5542 2138 5926 2189 
Q 5504 1229 4979 675 
Q 4454 122 3372 -211 
Q 2291 -544 1050 -550 
Q 973 -211 736 45 
Q 902 -6 1324 -6 
Q 1747 -6 2435 106 
Q 3123 218 3635 397 
Q 3219 800 2598 1229 
Q 2144 864 1613 589 
Q 1478 819 1114 992 
Q 1702 1203 2320 1648 
Q 2938 2093 3277 2547 
Q 2400 2067 1197 1786 
Q 1126 2074 858 2291 
Q 1805 2451 2771 2842 
Q 2374 3206 2016 3450 
z
M 2605 4102 
Q 2502 3955 2323 3757 
Q 2758 3469 3258 3059 
Q 3667 3270 4060 3577 
Q 4454 3885 4595 4102 
L 2605 4102 
z
M 3136 1709 
Q 3078 1651 2950 1536 
Q 3469 1171 4109 627 
Q 4826 1088 5069 1709 
L 3136 1709 
z
" transform="scale(0.015625)"/>
      <path id="STHeiti-8f66" d="M 3130 2464 
Q 3130 3245 3059 3373 
Q 3238 3334 3718 3334 
Q 3834 3334 3834 3292 
Q 3834 3251 3754 3206 
Q 3674 3162 3674 2720 
L 3674 2464 
Q 4806 2464 5389 2522 
L 5389 1978 
Q 4973 2022 3674 2022 
L 3674 1050 
Q 5069 1056 5914 1107 
L 5914 557 
Q 5069 608 3674 614 
Q 3674 -403 3725 -685 
L 3085 -685 
Q 3130 -518 3130 614 
Q 1466 614 538 557 
L 538 1107 
Q 1472 1050 3130 1050 
L 3130 2022 
Q 1709 2016 1178 1914 
Q 1133 2189 954 2451 
Q 1254 2522 1500 2835 
Q 1747 3149 2112 3770 
Q 1216 3770 614 3712 
L 614 4282 
Q 1152 4224 2368 4224 
Q 2650 4730 2803 5261 
Q 3251 5056 3398 5017 
Q 3546 4979 3546 4947 
Q 3546 4915 3488 4889 
Q 3430 4864 3286 4685 
Q 3142 4506 2963 4224 
L 4538 4224 
Q 5235 4224 5856 4282 
L 5856 3712 
Q 5235 3770 4538 3770 
L 2688 3770 
Q 2189 2957 1786 2464 
L 3130 2464 
z
" transform="scale(0.015625)"/>
      <path id="STHeiti-9053" d="M 4045 3360 
Q 4973 3360 5459 3418 
Q 5421 3098 5421 2739 
L 5421 1197 
Q 5421 653 5459 282 
L 4928 282 
L 4928 531 
L 3027 531 
L 3027 230 
L 2483 230 
Q 2534 563 2534 1146 
L 2534 2739 
Q 2534 3130 2490 3418 
Q 2867 3379 3546 3366 
Q 3616 3565 3667 3859 
Q 2598 3853 1984 3795 
L 1984 4326 
Q 2637 4269 4192 4269 
Q 4397 4717 4512 5165 
Q 4794 5018 5126 4960 
Q 5184 4947 5184 4928 
Q 5184 4909 5107 4870 
Q 5030 4832 4924 4707 
Q 4819 4582 4634 4275 
Q 5498 4282 5971 4326 
L 5971 3795 
Q 5331 3853 4205 3859 
Q 4128 3667 4045 3360 
z
M 4928 2566 
L 4928 2982 
L 3027 2982 
L 3027 2566 
L 4928 2566 
z
M 3027 2189 
L 3027 1741 
L 4928 1741 
L 4928 2189 
L 3027 2189 
z
M 4928 909 
L 4928 1363 
L 3027 1363 
L 3027 909 
L 4928 909 
z
M 3718 4538 
L 3290 4294 
Q 3091 4570 2842 4826 
L 3283 5088 
Q 3565 4781 3718 4538 
z
M 1658 3622 
L 1082 3475 
Q 960 4166 723 4698 
L 1267 4851 
Q 1421 4243 1658 3622 
z
M 1606 454 
Q 1683 435 2038 278 
Q 2394 122 2925 48 
Q 3456 -26 4122 -26 
Q 5133 -26 6099 141 
Q 5939 -230 5952 -544 
Q 5062 -570 4348 -570 
Q 3635 -570 3062 -480 
Q 2490 -390 1645 -38 
Q 1517 13 1389 13 
Q 1261 13 1120 -124 
Q 979 -262 806 -550 
Q 582 -320 301 -166 
Q 787 301 1069 422 
L 1069 2400 
Q 576 2400 352 2362 
L 352 2912 
Q 672 2861 1037 2861 
Q 1402 2861 1664 2912 
Q 1606 2592 1606 2157 
L 1606 454 
z
" transform="scale(0.015625)"/>
      <path id="STHeiti-8d85" d="M 2246 1850 
Q 2797 1856 2970 1888 
L 2970 1434 
Q 2797 1466 2246 1472 
L 2246 339 
Q 2906 70 4064 70 
Q 4877 70 6029 198 
Q 5875 -102 5824 -442 
Q 5107 -467 4307 -467 
Q 3507 -467 2896 -361 
Q 2285 -256 1837 61 
Q 1389 378 1146 730 
Q 966 83 755 -416 
Q 544 -198 320 -70 
Q 845 736 832 2125 
Q 1178 2042 1389 2042 
Q 1459 2042 1459 2019 
Q 1459 1997 1417 1958 
Q 1376 1920 1344 1785 
Q 1312 1651 1254 1280 
Q 1440 870 1766 608 
L 1766 2669 
Q 1050 2669 595 2618 
L 595 3110 
Q 1018 3059 1651 3059 
L 1651 3866 
Q 1190 3859 742 3808 
L 742 4326 
Q 1037 4282 1651 4275 
Q 1651 4717 1581 5120 
Q 1677 5094 2221 5094 
Q 2298 5094 2298 5068 
Q 2298 5043 2246 5011 
Q 2131 4934 2131 4768 
L 2131 4275 
Q 2643 4282 2893 4326 
L 2893 3808 
Q 2650 3853 2131 3859 
L 2131 3059 
Q 2739 3066 3053 3110 
L 3053 2618 
Q 2758 2656 2246 2662 
L 2246 1850 
z
M 3974 4307 
Q 3520 4301 3213 4256 
L 3213 4787 
Q 3437 4736 4445 4736 
Q 5453 4736 5773 4787 
Q 5619 3354 5523 3021 
Q 5427 2688 4653 2618 
Q 4621 2912 4429 3155 
Q 4602 3136 4733 3136 
Q 4864 3136 4937 3168 
Q 5011 3200 5040 3261 
Q 5069 3322 5126 3667 
Q 5184 4013 5203 4314 
L 4442 4314 
Q 4422 3834 4256 3446 
Q 4090 3059 3661 2566 
Q 3443 2752 3187 2835 
Q 3949 3341 3974 4307 
z
M 3872 762 
L 3872 314 
L 3360 314 
Q 3405 602 3405 954 
L 3405 1862 
Q 3405 2278 3360 2477 
Q 3642 2419 4538 2419 
Q 5434 2419 5690 2477 
Q 5645 2266 5645 1862 
L 5645 1018 
Q 5645 666 5690 390 
L 5171 390 
L 5171 762 
L 3872 762 
z
M 5171 1146 
L 5171 2042 
L 3872 2042 
L 3872 1146 
L 5171 1146 
z
" transform="scale(0.015625)"/>
      <path id="STHeiti-8fde" d="M 3450 3891 
L 2829 2758 
L 3795 2758 
Q 3795 3450 3757 3635 
Q 3923 3597 4012 3590 
Q 4102 3584 4365 3584 
Q 4461 3584 4461 3549 
Q 4461 3514 4397 3472 
Q 4333 3430 4313 3344 
Q 4294 3258 4294 3066 
L 4294 2758 
Q 5338 2758 5619 2797 
L 5619 2310 
Q 5286 2336 4294 2336 
L 4294 1536 
Q 5267 1542 5818 1581 
L 5818 1075 
Q 5267 1114 4294 1120 
Q 4294 742 4314 198 
L 3744 198 
Q 3795 723 3795 1120 
Q 2573 1120 1939 1075 
L 1939 1581 
Q 2586 1536 3795 1536 
L 3795 2336 
Q 2797 2317 2227 2234 
Q 2214 2515 2106 2739 
Q 2304 2758 2473 3024 
Q 2643 3290 2944 3885 
Q 2368 3878 1939 3846 
L 1939 4352 
Q 2445 4320 3155 4314 
Q 3418 4838 3488 5171 
Q 3814 5005 4070 4960 
Q 4141 4947 4141 4918 
Q 4141 4890 4083 4858 
Q 3968 4787 3680 4307 
L 4256 4307 
Q 5216 4307 5875 4352 
L 5875 3846 
Q 5216 3891 4256 3891 
L 3450 3891 
z
M 1664 3776 
L 1018 3629 
Q 973 4282 717 4800 
L 1312 4947 
Q 1510 4422 1664 3776 
z
M 1024 474 
L 1024 2464 
Q 557 2464 371 2438 
L 371 2982 
Q 640 2950 985 2950 
Q 1331 2950 1600 2982 
Q 1542 2528 1542 2214 
L 1542 493 
Q 2042 358 2381 163 
Q 2720 -32 3837 -32 
Q 4954 -32 6131 134 
Q 5939 -230 5920 -525 
Q 4947 -538 4313 -538 
Q 3680 -538 3264 -506 
Q 2848 -474 2569 -397 
Q 2291 -320 1920 -160 
Q 1549 0 1385 0 
Q 1222 0 1129 -54 
Q 1037 -109 889 -281 
Q 742 -454 659 -614 
Q 461 -429 160 -243 
Q 653 269 1024 474 
z
" transform="scale(0.015625)"/>
      <path id="STHeiti-63a5" d="M 3987 4531 
Q 3917 4864 3834 5094 
L 4422 5229 
Q 4486 4883 4582 4531 
Q 5549 4531 5875 4576 
L 5875 4038 
Q 5549 4090 4201 4090 
Q 2854 4090 2528 4038 
L 2528 4576 
Q 2874 4531 3987 4531 
z
M 1171 2189 
L 1171 3456 
Q 685 3456 365 3424 
L 365 3949 
Q 717 3910 1171 3904 
Q 1171 4832 1133 5101 
Q 1357 5050 1741 5050 
Q 1869 5050 1869 5008 
Q 1869 4966 1769 4886 
Q 1670 4806 1670 4653 
L 1670 3910 
Q 2093 3923 2330 3949 
L 2330 3424 
Q 2163 3443 1670 3456 
L 1670 2438 
Q 1978 2592 2189 2733 
Q 2208 2496 2285 2253 
Q 2054 2131 1670 1920 
L 1670 147 
Q 1670 -211 1603 -313 
Q 1536 -416 1389 -470 
Q 1242 -525 742 -602 
Q 717 -294 557 6 
Q 730 -6 826 -6 
Q 1056 -6 1113 61 
Q 1171 128 1171 346 
L 1171 1632 
Q 781 1414 474 1229 
Q 403 1594 269 1856 
Q 685 1978 1171 2189 
z
M 4282 2963 
Q 4557 3526 4640 3987 
Q 4934 3827 5222 3776 
Q 5261 3770 5261 3750 
Q 5261 3731 5235 3712 
Q 5056 3578 4749 2963 
Q 5459 2963 5907 3008 
L 5907 2496 
Q 5510 2541 4150 2541 
Q 2790 2541 2490 2496 
L 2490 3008 
Q 2938 2963 3674 2963 
L 4282 2963 
z
M 3866 3315 
L 3341 3053 
Q 3213 3379 3053 3622 
L 3533 3878 
Q 3654 3603 3866 3315 
z
M 4595 461 
Q 5325 134 5875 -134 
Q 5651 -371 5504 -634 
Q 4998 -250 4243 134 
Q 3558 -390 2368 -557 
Q 2246 -320 2042 -109 
Q 3130 -26 3763 365 
Q 3264 602 2778 755 
Q 3014 1056 3194 1459 
Q 2650 1453 2234 1414 
L 2234 1939 
Q 2650 1894 3405 1894 
Q 3584 2278 3603 2464 
Q 3891 2336 4102 2310 
Q 4192 2298 4192 2256 
Q 4192 2214 4109 2157 
Q 4064 2118 3936 1894 
L 4806 1894 
Q 5715 1894 6054 1939 
L 6054 1414 
Q 5747 1453 5146 1459 
Q 4973 870 4595 461 
z
M 3699 1459 
L 3424 947 
Q 3706 845 4134 659 
Q 4467 979 4614 1459 
L 3699 1459 
z
" transform="scale(0.015625)"/>
      <path id="STHeiti-7ed3" d="M 4550 2950 
Q 5306 2963 5690 3014 
L 5690 2445 
Q 5210 2502 4310 2502 
Q 3411 2502 2918 2445 
L 2918 3014 
Q 3334 2957 4032 2950 
L 4032 3770 
Q 3194 3757 2714 3712 
L 2714 4301 
Q 3174 4250 4032 4237 
Q 4032 4864 3981 5216 
Q 4179 5171 4595 5171 
Q 4672 5171 4672 5136 
Q 4672 5101 4611 5059 
Q 4550 5018 4550 4909 
L 4550 4237 
Q 5568 4250 6042 4301 
L 6042 3712 
Q 5536 3757 4550 3770 
L 4550 2950 
z
M 1677 2803 
L 1184 2758 
Q 832 2720 627 2637 
Q 595 2912 493 3168 
Q 723 3232 998 3766 
Q 1274 4301 1510 5178 
Q 1862 4934 2022 4886 
Q 2182 4838 2182 4800 
Q 2182 4762 2137 4733 
Q 2093 4704 2013 4589 
Q 1933 4474 1683 4064 
L 1133 3155 
L 1894 3206 
Q 2150 3674 2272 3942 
Q 2547 3725 2720 3661 
Q 2790 3635 2790 3606 
Q 2790 3578 2720 3546 
Q 2637 3514 1395 1613 
L 2688 1734 
Q 2586 1472 2611 1235 
L 1459 1139 
Q 1050 1101 742 998 
Q 730 1331 634 1568 
Q 883 1626 1129 1939 
Q 1376 2253 1677 2803 
z
M 5126 -45 
L 3501 -45 
L 3501 -595 
L 2918 -595 
Q 2989 -70 2989 378 
L 2989 1203 
Q 2989 1594 2944 1914 
Q 3290 1869 4310 1869 
Q 5331 1869 5683 1914 
Q 5638 1613 5638 1203 
L 5638 538 
Q 5638 38 5696 -499 
L 5126 -499 
L 5126 -45 
z
M 3501 397 
L 5126 397 
L 5126 1427 
L 3501 1427 
L 3501 397 
z
M 2682 608 
Q 2643 499 2643 371 
Q 2643 243 2662 128 
Q 1043 -122 691 -326 
Q 666 0 531 339 
Q 1050 314 2682 608 
z
" transform="scale(0.015625)"/>
      <path id="STHeiti-6784" d="M 3635 4134 
L 4755 4134 
Q 5498 4134 5946 4179 
L 5747 333 
Q 5722 -166 5424 -377 
Q 5126 -589 4486 -659 
Q 4403 -256 4160 13 
Q 4371 -26 4550 -26 
Q 5210 -26 5235 454 
L 5395 3667 
L 3392 3667 
Q 3078 3059 2893 2650 
Q 2605 2816 2317 2886 
Q 2624 3168 2963 3904 
Q 3302 4640 3373 5267 
Q 3750 5088 4058 5050 
Q 4134 5037 4134 5001 
Q 4134 4966 4077 4909 
Q 3968 4800 3635 4134 
z
M 1267 2266 
Q 890 1293 570 787 
Q 422 1139 186 1376 
Q 813 1952 1267 3405 
Q 806 3398 422 3354 
L 422 3891 
Q 730 3846 1267 3840 
Q 1267 4832 1216 5210 
Q 1466 5171 1690 5171 
L 1843 5178 
Q 1920 5178 1920 5142 
Q 1920 5107 1846 5040 
Q 1773 4973 1773 4864 
L 1773 3840 
Q 2125 3846 2458 3891 
L 2458 3354 
Q 2182 3392 1773 3398 
L 1773 698 
Q 1773 109 1837 -608 
L 1203 -608 
Q 1267 109 1267 698 
L 1267 2266 
z
M 4371 1312 
Q 4282 1677 4109 2080 
L 4538 2195 
Q 4794 1562 5056 704 
L 4512 531 
Q 4493 742 4454 954 
L 3386 749 
Q 3130 710 2778 595 
Q 2733 851 2611 1094 
Q 2816 1190 3117 1910 
Q 3418 2630 3501 3187 
Q 3885 3059 4009 3036 
Q 4134 3014 4134 2979 
Q 4134 2944 4060 2880 
Q 3987 2816 3785 2355 
Q 3584 1894 3213 1184 
L 4371 1312 
z
M 2656 1818 
L 2189 1581 
Q 2029 2035 1811 2406 
L 2195 2592 
Q 2490 2157 2656 1818 
z
" transform="scale(0.015625)"/>
      <path id="STHeiti-56fe" d="M 1299 -237 
L 1299 -538 
L 742 -538 
Q 794 26 794 518 
L 794 4134 
Q 794 4640 755 4934 
Q 1094 4864 3180 4864 
Q 5267 4864 5722 4934 
Q 5677 4602 5677 4134 
L 5677 563 
Q 5677 51 5728 -493 
L 5146 -493 
L 5146 -237 
L 1299 -237 
z
M 5146 186 
L 5146 4422 
L 1299 4422 
L 1299 186 
L 5146 186 
z
M 3328 2342 
Q 2560 1824 1734 1651 
Q 1619 1875 1466 2093 
Q 2323 2157 3002 2586 
Q 2669 2867 2477 3168 
Q 2195 2810 2067 2669 
Q 1901 2797 1645 2912 
Q 2362 3456 2733 4333 
Q 2957 4205 3126 4179 
Q 3296 4154 3296 4118 
Q 3296 4083 3209 4032 
Q 3123 3981 2989 3846 
L 4621 3846 
Q 4230 3072 3654 2598 
Q 4237 2304 5069 2208 
Q 4858 1952 4768 1677 
Q 3974 1907 3328 2342 
z
M 3309 2810 
Q 3661 3110 3904 3475 
L 2701 3475 
Q 2701 3469 2688 3456 
Q 2675 3443 2675 3437 
Q 2938 3072 3309 2810 
z
M 4064 1581 
L 3872 1184 
Q 3424 1395 2739 1613 
L 2938 1939 
Q 3443 1824 4064 1581 
z
M 4147 678 
L 3885 275 
Q 3130 666 2298 864 
L 2502 1242 
Q 3501 979 4147 678 
z
" transform="scale(0.015625)"/>
     </defs>
     <use xlink:href="#STHeiti-6d"/>
     <use xlink:href="#STHeiti-48" transform="translate(93.799988 0)"/>
     <use xlink:href="#STHeiti-43" transform="translate(162.099976 0)"/>
     <use xlink:href="#STHeiti-20" transform="translate(243.399963 0)"/>
     <use xlink:href="#STHeiti-591a" transform="translate(268.399948 0)"/>
     <use xlink:href="#STHeiti-8f66" transform="translate(368.399933 0)"/>
     <use xlink:href="#STHeiti-9053" transform="translate(468.399918 0)"/>
     <use xlink:href="#STHeiti-8d85" transform="translate(568.399902 0)"/>
     <use xlink:href="#STHeiti-8fde" transform="translate(668.399887 0)"/>
     <use xlink:href="#STHeiti-63a5" transform="translate(768.399872 0)"/>
     <use xlink:href="#STHeiti-7ed3" transform="translate(868.399857 0)"/>
     <use xlink:href="#STHeiti-6784" transform="translate(968.399841 0)"/>
     <use xlink:href="#STHeiti-56fe" transform="translate(1068.399826 0)"/>
    </g>
   </g>
   <g id="text_2">
    <!-- 车道 0 -->
    <g style="fill: #1565c0" transform="translate(57.993147 143.725219) scale(0.09 -0.09)">
     <defs>
      <path id="STHeiti-30" d="M 1747 269 
Q 1005 269 605 880 
Q 205 1491 205 2681 
Q 205 3872 605 4483 
Q 1005 5094 1741 5094 
Q 2477 5094 2909 4470 
Q 3341 3846 3341 2681 
Q 3341 1517 2905 893 
Q 2470 269 1747 269 
z
M 1760 4659 
Q 1229 4659 934 4147 
Q 640 3635 640 2669 
Q 640 685 1760 685 
Q 2304 685 2608 1206 
Q 2912 1728 2912 2681 
Q 2912 3635 2598 4147 
Q 2285 4659 1760 4659 
z
" transform="scale(0.015625)"/>
     </defs>
     <use xlink:href="#STHeiti-8f66"/>
     <use xlink:href="#STHeiti-9053" transform="translate(99.999985 0)"/>
     <use xlink:href="#STHeiti-20" transform="translate(199.999969 0)"/>
     <use xlink:href="#STHeiti-30" transform="translate(224.999954 0)"/>
    </g>
    <!-- (Lane 0) -->
    <g style="fill: #1565c0" transform="translate(52.849085 153.831656) scale(0.09 -0.09)">
     <defs>
      <path id="STHeiti-28" d="M 1466 5370 
L 1978 5370 
Q 1651 4704 1475 3865 
Q 1299 3027 1299 2176 
Q 1299 506 1824 -762 
L 1338 -762 
Q 832 480 832 2118 
Q 832 3891 1466 5370 
z
" transform="scale(0.015625)"/>
      <path id="STHeiti-4c" d="M 557 4979 
L 1024 4979 
L 1024 826 
L 2790 826 
L 2790 384 
L 557 384 
L 557 4979 
z
" transform="scale(0.015625)"/>
      <path id="STHeiti-61" d="M 3872 3782 
L 3872 384 
L 3443 384 
L 3443 966 
Q 2861 269 2112 269 
Q 1363 269 848 803 
Q 333 1338 333 2077 
Q 333 2816 851 3344 
Q 1370 3872 2093 3872 
Q 2925 3872 3443 3162 
L 3443 3782 
L 3872 3782 
z
M 3469 2067 
Q 3469 2650 3078 3050 
Q 2688 3450 2121 3450 
Q 1555 3450 1164 3037 
Q 774 2624 774 2061 
Q 774 1498 1171 1085 
Q 1568 672 2121 672 
Q 2675 672 3072 1069 
Q 3469 1466 3469 2067 
z
" transform="scale(0.015625)"/>
      <path id="STHeiti-6e" d="M 486 3782 
L 928 3782 
L 928 3174 
Q 1453 3872 2202 3872 
Q 2586 3872 2893 3664 
Q 3200 3456 3328 3120 
Q 3456 2784 3456 2131 
L 3456 384 
L 3021 384 
L 3021 2003 
Q 3021 2598 2966 2809 
Q 2912 3021 2800 3168 
Q 2688 3315 2515 3392 
Q 2342 3469 2096 3469 
Q 1850 3469 1613 3347 
Q 1376 3226 1209 3008 
Q 1043 2790 985 2560 
Q 928 2330 928 1632 
L 928 384 
L 486 384 
L 486 3782 
z
" transform="scale(0.015625)"/>
      <path id="STHeiti-65" d="M 3347 1485 
L 3718 1293 
Q 3168 269 2093 269 
Q 1325 269 825 797 
Q 326 1325 326 2067 
Q 326 2810 828 3341 
Q 1331 3872 2070 3872 
Q 2810 3872 3312 3379 
Q 3814 2886 3834 2035 
L 774 2035 
Q 794 1421 1162 1046 
Q 1530 672 2054 672 
Q 2918 672 3347 1485 
z
M 3347 2413 
Q 3258 2899 2899 3174 
Q 2541 3450 2074 3450 
Q 1114 3450 819 2413 
L 3347 2413 
z
" transform="scale(0.015625)"/>
      <path id="STHeiti-29" d="M 896 5370 
Q 1530 3891 1530 2118 
Q 1530 480 1024 -762 
L 538 -762 
Q 1062 506 1062 2176 
Q 1062 3027 886 3865 
Q 710 4704 384 5370 
L 896 5370 
z
" transform="scale(0.015625)"/>
     </defs>
     <use xlink:href="#STHeiti-28"/>
     <use xlink:href="#STHeiti-4c" transform="translate(36.899994 0)"/>
     <use xlink:href="#STHeiti-61" transform="translate(83.099991 0)"/>
     <use xlink:href="#STHeiti-6e" transform="translate(151.399979 0)"/>
     <use xlink:href="#STHeiti-65" transform="translate(212.399963 0)"/>
     <use xlink:href="#STHeiti-20" transform="translate(277.399948 0)"/>
     <use xlink:href="#STHeiti-30" transform="translate(302.399933 0)"/>
     <use xlink:href="#STHeiti-29" transform="translate(357.799927 0)"/>
    </g>
   </g>
   <g id="text_3">
    <!-- $h^{0}_{1}$ -->
    <g style="fill: #1565c0" transform="translate(192.079286 148.635) scale(0.09 -0.09)">
     <defs>
      <path id="DejaVuSans-Oblique-68" d="M 3566 2113 
L 3156 0 
L 2578 0 
L 2988 2091 
Q 3016 2238 3031 2350 
Q 3047 2463 3047 2528 
Q 3047 2791 2881 2937 
Q 2716 3084 2419 3084 
Q 1956 3084 1617 2771 
Q 1278 2459 1178 1941 
L 800 0 
L 225 0 
L 1172 4863 
L 1747 4863 
L 1375 2950 
Q 1594 3244 1934 3414 
Q 2275 3584 2650 3584 
Q 3113 3584 3367 3334 
Q 3622 3084 3622 2631 
Q 3622 2519 3608 2391 
Q 3594 2263 3566 2113 
z
" transform="scale(0.015625)"/>
      <path id="DejaVuSans-30" d="M 2034 4250 
Q 1547 4250 1301 3770 
Q 1056 3291 1056 2328 
Q 1056 1369 1301 889 
Q 1547 409 2034 409 
Q 2525 409 2770 889 
Q 3016 1369 3016 2328 
Q 3016 3291 2770 3770 
Q 2525 4250 2034 4250 
z
M 2034 4750 
Q 2819 4750 3233 4129 
Q 3647 3509 3647 2328 
Q 3647 1150 3233 529 
Q 2819 -91 2034 -91 
Q 1250 -91 836 529 
Q 422 1150 422 2328 
Q 422 3509 836 4129 
Q 1250 4750 2034 4750 
z
" transform="scale(0.015625)"/>
      <path id="DejaVuSans-31" d="M 794 531 
L 1825 531 
L 1825 4091 
L 703 3866 
L 703 4441 
L 1819 4666 
L 2450 4666 
L 2450 531 
L 3481 531 
L 3481 0 
L 794 0 
L 794 531 
z
" transform="scale(0.015625)"/>
     </defs>
     <use xlink:href="#DejaVuSans-Oblique-68" transform="translate(0 0.765625)"/>
     <use xlink:href="#DejaVuSans-30" transform="translate(70.826615 39.046875) scale(0.7)"/>
     <use xlink:href="#DejaVuSans-31" transform="translate(63.378906 -26.578125) scale(0.7)"/>
    </g>
   </g>
   <g id="text_4">
    <!-- $h^{0}_{2}$ -->
    <g style="fill: #1565c0" transform="translate(301.287857 148.635) scale(0.09 -0.09)">
     <defs>
      <path id="DejaVuSans-32" d="M 1228 531 
L 3431 531 
L 3431 0 
L 469 0 
L 469 531 
Q 828 903 1448 1529 
Q 2069 2156 2228 2338 
Q 2531 2678 2651 2914 
Q 2772 3150 2772 3378 
Q 2772 3750 2511 3984 
Q 2250 4219 1831 4219 
Q 1534 4219 1204 4116 
Q 875 4013 500 3803 
L 500 4441 
Q 881 4594 1212 4672 
Q 1544 4750 1819 4750 
Q 2544 4750 2975 4387 
Q 3406 4025 3406 3419 
Q 3406 3131 3298 2873 
Q 3191 2616 2906 2266 
Q 2828 2175 2409 1742 
Q 1991 1309 1228 531 
z
" transform="scale(0.015625)"/>
     </defs>
     <use xlink:href="#DejaVuSans-Oblique-68" transform="translate(0 0.765625)"/>
     <use xlink:href="#DejaVuSans-30" transform="translate(70.826615 39.046875) scale(0.7)"/>
     <use xlink:href="#DejaVuSans-32" transform="translate(63.378906 -26.578125) scale(0.7)"/>
    </g>
   </g>
   <g id="text_5">
    <!-- $h^{0}_{3}$ -->
    <g style="fill: #1565c0" transform="translate(410.496429 148.59) scale(0.09 -0.09)">
     <defs>
      <path id="DejaVuSans-33" d="M 2597 2516 
Q 3050 2419 3304 2112 
Q 3559 1806 3559 1356 
Q 3559 666 3084 287 
Q 2609 -91 1734 -91 
Q 1441 -91 1130 -33 
Q 819 25 488 141 
L 488 750 
Q 750 597 1062 519 
Q 1375 441 1716 441 
Q 2309 441 2620 675 
Q 2931 909 2931 1356 
Q 2931 1769 2642 2001 
Q 2353 2234 1838 2234 
L 1294 2234 
L 1294 2753 
L 1863 2753 
Q 2328 2753 2575 2939 
Q 2822 3125 2822 3475 
Q 2822 3834 2567 4026 
Q 2313 4219 1838 4219 
Q 1578 4219 1281 4162 
Q 984 4106 628 3988 
L 628 4550 
Q 988 4650 1302 4700 
Q 1616 4750 1894 4750 
Q 2613 4750 3031 4423 
Q 3450 4097 3450 3541 
Q 3450 3153 3228 2886 
Q 3006 2619 2597 2516 
z
" transform="scale(0.015625)"/>
     </defs>
     <use xlink:href="#DejaVuSans-Oblique-68" transform="translate(0 0.765625)"/>
     <use xlink:href="#DejaVuSans-30" transform="translate(70.826615 39.046875) scale(0.7)"/>
     <use xlink:href="#DejaVuSans-33" transform="translate(63.378906 -26.578125) scale(0.7)"/>
    </g>
   </g>
   <g id="text_6">
    <!-- $h^{0}_{4}$ -->
    <g style="fill: #1565c0" transform="translate(519.705 148.635) scale(0.09 -0.09)">
     <defs>
      <path id="DejaVuSans-34" d="M 2419 4116 
L 825 1625 
L 2419 1625 
L 2419 4116 
z
M 2253 4666 
L 3047 4666 
L 3047 1625 
L 3713 1625 
L 3713 1100 
L 3047 1100 
L 3047 0 
L 2419 0 
L 2419 1100 
L 313 1100 
L 313 1709 
L 2253 4666 
z
" transform="scale(0.015625)"/>
     </defs>
     <use xlink:href="#DejaVuSans-Oblique-68" transform="translate(0 0.765625)"/>
     <use xlink:href="#DejaVuSans-30" transform="translate(70.826615 39.046875) scale(0.7)"/>
     <use xlink:href="#DejaVuSans-34" transform="translate(63.378906 -26.578125) scale(0.7)"/>
    </g>
   </g>
   <g id="text_7">
    <!-- $h^{0}_{5}$ -->
    <g style="fill: #1565c0" transform="translate(628.913571 148.59) scale(0.09 -0.09)">
     <defs>
      <path id="DejaVuSans-35" d="M 691 4666 
L 3169 4666 
L 3169 4134 
L 1269 4134 
L 1269 2991 
Q 1406 3038 1543 3061 
Q 1681 3084 1819 3084 
Q 2600 3084 3056 2656 
Q 3513 2228 3513 1497 
Q 3513 744 3044 326 
Q 2575 -91 1722 -91 
Q 1428 -91 1123 -41 
Q 819 9 494 109 
L 494 744 
Q 775 591 1075 516 
Q 1375 441 1709 441 
Q 2250 441 2565 725 
Q 2881 1009 2881 1497 
Q 2881 1984 2565 2268 
Q 2250 2553 1709 2553 
Q 1456 2553 1204 2497 
Q 953 2441 691 2322 
L 691 4666 
z
" transform="scale(0.015625)"/>
     </defs>
     <use xlink:href="#DejaVuSans-Oblique-68" transform="translate(0 0.765625)"/>
     <use xlink:href="#DejaVuSans-30" transform="translate(70.826615 39.046875) scale(0.7)"/>
     <use xlink:href="#DejaVuSans-35" transform="translate(63.378906 -26.578125) scale(0.7)"/>
    </g>
   </g>
   <g id="text_8">
    <!-- $h^{0}_{6}$ -->
    <g style="fill: #1565c0" transform="translate(738.122143 148.59) scale(0.09 -0.09)">
     <defs>
      <path id="DejaVuSans-36" d="M 2113 2584 
Q 1688 2584 1439 2293 
Q 1191 2003 1191 1497 
Q 1191 994 1439 701 
Q 1688 409 2113 409 
Q 2538 409 2786 701 
Q 3034 994 3034 1497 
Q 3034 2003 2786 2293 
Q 2538 2584 2113 2584 
z
M 3366 4563 
L 3366 3988 
Q 3128 4100 2886 4159 
Q 2644 4219 2406 4219 
Q 1781 4219 1451 3797 
Q 1122 3375 1075 2522 
Q 1259 2794 1537 2939 
Q 1816 3084 2150 3084 
Q 2853 3084 3261 2657 
Q 3669 2231 3669 1497 
Q 3669 778 3244 343 
Q 2819 -91 2113 -91 
Q 1303 -91 875 529 
Q 447 1150 447 2328 
Q 447 3434 972 4092 
Q 1497 4750 2381 4750 
Q 2619 4750 2861 4703 
Q 3103 4656 3366 4563 
z
" transform="scale(0.015625)"/>
     </defs>
     <use xlink:href="#DejaVuSans-Oblique-68" transform="translate(0 0.765625)"/>
     <use xlink:href="#DejaVuSans-30" transform="translate(70.826615 39.046875) scale(0.7)"/>
     <use xlink:href="#DejaVuSans-36" transform="translate(63.378906 -26.578125) scale(0.7)"/>
    </g>
   </g>
   <g id="patch_21">
    <path d="M 249.45801 145.8 
Q 252.036478 145.8 253.049699 145.8 
" style="fill: none; stroke: #1565c0; stroke-width: 1.4; stroke-linecap: round"/>
    <path d="M 249.049699 143.8 
L 253.049699 145.8 
L 249.049699 147.8 
" style="fill: none; stroke: #1565c0; stroke-width: 1.4; stroke-linecap: round"/>
   </g>
   <g id="patch_22">
    <path d="M 358.666581 145.8 
Q 361.24505 145.8 362.258271 145.8 
" style="fill: none; stroke: #1565c0; stroke-width: 1.4; stroke-linecap: round"/>
    <path d="M 358.258271 143.8 
L 362.258271 145.8 
L 358.258271 147.8 
" style="fill: none; stroke: #1565c0; stroke-width: 1.4; stroke-linecap: round"/>
   </g>
   <g id="patch_23">
    <path d="M 467.875153 145.8 
Q 470.453621 145.8 471.466842 145.8 
" style="fill: none; stroke: #1565c0; stroke-width: 1.4; stroke-linecap: round"/>
    <path d="M 467.466842 143.8 
L 471.466842 145.8 
L 467.466842 147.8 
" style="fill: none; stroke: #1565c0; stroke-width: 1.4; stroke-linecap: round"/>
   </g>
   <g id="patch_24">
    <path d="M 577.083724 145.8 
Q 579.662193 145.8 580.675413 145.8 
" style="fill: none; stroke: #1565c0; stroke-width: 1.4; stroke-linecap: round"/>
    <path d="M 576.675413 143.8 
L 580.675413 145.8 
L 576.675413 147.8 
" style="fill: none; stroke: #1565c0; stroke-width: 1.4; stroke-linecap: round"/>
   </g>
   <g id="patch_25">
    <path d="M 686.292295 145.8 
Q 688.870764 145.8 689.883985 145.8 
" style="fill: none; stroke: #1565c0; stroke-width: 1.4; stroke-linecap: round"/>
    <path d="M 685.883985 143.8 
L 689.883985 145.8 
L 685.883985 147.8 
" style="fill: none; stroke: #1565c0; stroke-width: 1.4; stroke-linecap: round"/>
   </g>
   <g id="text_9">
    <!-- 车道 1 -->
    <g style="fill: #2e7d32" transform="translate(57.993147 247.675219) scale(0.09 -0.09)">
     <defs>
      <path id="STHeiti-31" d="M 1184 4979 
L 2086 4979 
L 2086 384 
L 1632 384 
L 1632 4531 
L 909 4531 
L 1184 4979 
z
" transform="scale(0.015625)"/>
     </defs>
     <use xlink:href="#STHeiti-8f66"/>
     <use xlink:href="#STHeiti-9053" transform="translate(99.999985 0)"/>
     <use xlink:href="#STHeiti-20" transform="translate(199.999969 0)"/>
     <use xlink:href="#STHeiti-31" transform="translate(224.999954 0)"/>
    </g>
    <!-- (Lane 1) -->
    <g style="fill: #2e7d32" transform="translate(52.849085 257.781656) scale(0.09 -0.09)">
     <use xlink:href="#STHeiti-28"/>
     <use xlink:href="#STHeiti-4c" transform="translate(36.899994 0)"/>
     <use xlink:href="#STHeiti-61" transform="translate(83.099991 0)"/>
     <use xlink:href="#STHeiti-6e" transform="translate(151.399979 0)"/>
     <use xlink:href="#STHeiti-65" transform="translate(212.399963 0)"/>
     <use xlink:href="#STHeiti-20" transform="translate(277.399948 0)"/>
     <use xlink:href="#STHeiti-31" transform="translate(302.399933 0)"/>
     <use xlink:href="#STHeiti-29" transform="translate(357.799927 0)"/>
    </g>
   </g>
   <g id="text_10">
    <!-- $h^{1}_{1}$ -->
    <g style="fill: #2e7d32" transform="translate(192.079286 252.54) scale(0.09 -0.09)">
     <use xlink:href="#DejaVuSans-Oblique-68" transform="translate(0 0.684375)"/>
     <use xlink:href="#DejaVuSans-31" transform="translate(70.826615 38.965625) scale(0.7)"/>
     <use xlink:href="#DejaVuSans-31" transform="translate(63.378906 -26.659375) scale(0.7)"/>
    </g>
   </g>
   <g id="text_11">
    <!-- $h^{1}_{2}$ -->
    <g style="fill: #2e7d32" transform="translate(301.287857 252.54) scale(0.09 -0.09)">
     <use xlink:href="#DejaVuSans-Oblique-68" transform="translate(0 0.684375)"/>
     <use xlink:href="#DejaVuSans-31" transform="translate(70.826615 38.965625) scale(0.7)"/>
     <use xlink:href="#DejaVuSans-32" transform="translate(63.378906 -26.659375) scale(0.7)"/>
    </g>
   </g>
   <g id="text_12">
    <!-- $h^{1}_{3}$ -->
    <g style="fill: #2e7d32" transform="translate(410.496429 252.495) scale(0.09 -0.09)">
     <use xlink:href="#DejaVuSans-Oblique-68" transform="translate(0 0.684375)"/>
     <use xlink:href="#DejaVuSans-31" transform="translate(70.826615 38.965625) scale(0.7)"/>
     <use xlink:href="#DejaVuSans-33" transform="translate(63.378906 -26.659375) scale(0.7)"/>
    </g>
   </g>
   <g id="text_13">
    <!-- $h^{1}_{4}$ -->
    <g style="fill: #2e7d32" transform="translate(519.705 252.54) scale(0.09 -0.09)">
     <use xlink:href="#DejaVuSans-Oblique-68" transform="translate(0 0.684375)"/>
     <use xlink:href="#DejaVuSans-31" transform="translate(70.826615 38.965625) scale(0.7)"/>
     <use xlink:href="#DejaVuSans-34" transform="translate(63.378906 -26.659375) scale(0.7)"/>
    </g>
   </g>
   <g id="text_14">
    <!-- $h^{1}_{5}$ -->
    <g style="fill: #2e7d32" transform="translate(628.913571 252.495) scale(0.09 -0.09)">
     <use xlink:href="#DejaVuSans-Oblique-68" transform="translate(0 0.684375)"/>
     <use xlink:href="#DejaVuSans-31" transform="translate(70.826615 38.965625) scale(0.7)"/>
     <use xlink:href="#DejaVuSans-35" transform="translate(63.378906 -26.659375) scale(0.7)"/>
    </g>
   </g>
   <g id="text_15">
    <!-- $h^{1}_{6}$ -->
    <g style="fill: #2e7d32" transform="translate(738.122143 252.495) scale(0.09 -0.09)">
     <use xlink:href="#DejaVuSans-Oblique-68" transform="translate(0 0.684375)"/>
     <use xlink:href="#DejaVuSans-31" transform="translate(70.826615 38.965625) scale(0.7)"/>
     <use xlink:href="#DejaVuSans-36" transform="translate(63.378906 -26.659375) scale(0.7)"/>
    </g>
   </g>
   <g id="patch_26">
    <path d="M 249.45801 249.75 
Q 252.036478 249.75 253.049699 249.75 
" style="fill: none; stroke: #2e7d32; stroke-width: 1.4; stroke-linecap: round"/>
    <path d="M 249.049699 247.75 
L 253.049699 249.75 
L 249.049699 251.75 
" style="fill: none; stroke: #2e7d32; stroke-width: 1.4; stroke-linecap: round"/>
   </g>
   <g id="patch_27">
    <path d="M 358.666581 249.75 
Q 361.24505 249.75 362.258271 249.75 
" style="fill: none; stroke: #2e7d32; stroke-width: 1.4; stroke-linecap: round"/>
    <path d="M 358.258271 247.75 
L 362.258271 249.75 
L 358.258271 251.75 
" style="fill: none; stroke: #2e7d32; stroke-width: 1.4; stroke-linecap: round"/>
   </g>
   <g id="patch_28">
    <path d="M 467.875153 249.75 
Q 470.453621 249.75 471.466842 249.75 
" style="fill: none; stroke: #2e7d32; stroke-width: 1.4; stroke-linecap: round"/>
    <path d="M 467.466842 247.75 
L 471.466842 249.75 
L 467.466842 251.75 
" style="fill: none; stroke: #2e7d32; stroke-width: 1.4; stroke-linecap: round"/>
   </g>
   <g id="patch_29">
    <path d="M 577.083724 249.75 
Q 579.662193 249.75 580.675413 249.75 
" style="fill: none; stroke: #2e7d32; stroke-width: 1.4; stroke-linecap: round"/>
    <path d="M 576.675413 247.75 
L 580.675413 249.75 
L 576.675413 251.75 
" style="fill: none; stroke: #2e7d32; stroke-width: 1.4; stroke-linecap: round"/>
   </g>
   <g id="patch_30">
    <path d="M 686.292295 249.75 
Q 688.870764 249.75 689.883985 249.75 
" style="fill: none; stroke: #2e7d32; stroke-width: 1.4; stroke-linecap: round"/>
    <path d="M 685.883985 247.75 
L 689.883985 249.75 
L 685.883985 251.75 
" style="fill: none; stroke: #2e7d32; stroke-width: 1.4; stroke-linecap: round"/>
   </g>
   <g id="text_16">
    <!-- 车道 2 -->
    <g style="fill: #6a1b9a" transform="translate(57.993147 351.625219) scale(0.09 -0.09)">
     <defs>
      <path id="STHeiti-32" d="M 742 3539 
L 301 3539 
Q 333 4243 768 4668 
Q 1203 5094 1820 5094 
Q 2438 5094 2844 4694 
Q 3251 4294 3251 3718 
Q 3251 3290 3024 2925 
Q 2797 2560 2336 2061 
L 1190 826 
L 3315 826 
L 3315 384 
L 192 384 
L 1946 2278 
Q 2406 2778 2604 3066 
Q 2803 3354 2803 3725 
Q 2803 4096 2512 4377 
Q 2221 4659 1789 4659 
Q 1357 4659 1072 4368 
Q 787 4077 742 3539 
z
" transform="scale(0.015625)"/>
     </defs>
     <use xlink:href="#STHeiti-8f66"/>
     <use xlink:href="#STHeiti-9053" transform="translate(99.999985 0)"/>
     <use xlink:href="#STHeiti-20" transform="translate(199.999969 0)"/>
     <use xlink:href="#STHeiti-32" transform="translate(224.999954 0)"/>
    </g>
    <!-- (Lane 2) -->
    <g style="fill: #6a1b9a" transform="translate(52.849085 361.731656) scale(0.09 -0.09)">
     <use xlink:href="#STHeiti-28"/>
     <use xlink:href="#STHeiti-4c" transform="translate(36.899994 0)"/>
     <use xlink:href="#STHeiti-61" transform="translate(83.099991 0)"/>
     <use xlink:href="#STHeiti-6e" transform="translate(151.399979 0)"/>
     <use xlink:href="#STHeiti-65" transform="translate(212.399963 0)"/>
     <use xlink:href="#STHeiti-20" transform="translate(277.399948 0)"/>
     <use xlink:href="#STHeiti-32" transform="translate(302.399933 0)"/>
     <use xlink:href="#STHeiti-29" transform="translate(357.799927 0)"/>
    </g>
   </g>
   <g id="text_17">
    <!-- $h^{2}_{1}$ -->
    <g style="fill: #6a1b9a" transform="translate(192.079286 356.535) scale(0.09 -0.09)">
     <use xlink:href="#DejaVuSans-Oblique-68" transform="translate(0 0.765625)"/>
     <use xlink:href="#DejaVuSans-32" transform="translate(70.826615 39.046875) scale(0.7)"/>
     <use xlink:href="#DejaVuSans-31" transform="translate(63.378906 -26.578125) scale(0.7)"/>
    </g>
   </g>
   <g id="text_18">
    <!-- $h^{2}_{2}$ -->
    <g style="fill: #6a1b9a" transform="translate(301.287857 356.535) scale(0.09 -0.09)">
     <use xlink:href="#DejaVuSans-Oblique-68" transform="translate(0 0.765625)"/>
     <use xlink:href="#DejaVuSans-32" transform="translate(70.826615 39.046875) scale(0.7)"/>
     <use xlink:href="#DejaVuSans-32" transform="translate(63.378906 -26.578125) scale(0.7)"/>
    </g>
   </g>
   <g id="text_19">
    <!-- $h^{2}_{3}$ -->
    <g style="fill: #6a1b9a" transform="translate(410.496429 356.49) scale(0.09 -0.09)">
     <use xlink:href="#DejaVuSans-Oblique-68" transform="translate(0 0.765625)"/>
     <use xlink:href="#DejaVuSans-32" transform="translate(70.826615 39.046875) scale(0.7)"/>
     <use xlink:href="#DejaVuSans-33" transform="translate(63.378906 -26.578125) scale(0.7)"/>
    </g>
   </g>
   <g id="text_20">
    <!-- $h^{2}_{4}$ -->
    <g style="fill: #6a1b9a" transform="translate(519.705 356.535) scale(0.09 -0.09)">
     <use xlink:href="#DejaVuSans-Oblique-68" transform="translate(0 0.765625)"/>
     <use xlink:href="#DejaVuSans-32" transform="translate(70.826615 39.046875) scale(0.7)"/>
     <use xlink:href="#DejaVuSans-34" transform="translate(63.378906 -26.578125) scale(0.7)"/>
    </g>
   </g>
   <g id="text_21">
    <!-- $h^{2}_{5}$ -->
    <g style="fill: #6a1b9a" transform="translate(628.913571 356.49) scale(0.09 -0.09)">
     <use xlink:href="#DejaVuSans-Oblique-68" transform="translate(0 0.765625)"/>
     <use xlink:href="#DejaVuSans-32" transform="translate(70.826615 39.046875) scale(0.7)"/>
     <use xlink:href="#DejaVuSans-35" transform="translate(63.378906 -26.578125) scale(0.7)"/>
    </g>
   </g>
   <g id="text_22">
    <!-- $h^{2}_{6}$ -->
    <g style="fill: #6a1b9a" transform="translate(738.122143 356.49) scale(0.09 -0.09)">
     <use xlink:href="#DejaVuSans-Oblique-68" transform="translate(0 0.765625)"/>
     <use xlink:href="#DejaVuSans-32" transform="translate(70.826615 39.046875) scale(0.7)"/>
     <use xlink:href="#DejaVuSans-36" transform="translate(63.378906 -26.578125) scale(0.7)"/>
    </g>
   </g>
   <g id="patch_31">
    <path d="M 249.45801 353.7 
Q 252.036478 353.7 253.049699 353.7 
" style="fill: none; stroke: #6a1b9a; stroke-width: 1.4; stroke-linecap: round"/>
    <path d="M 249.049699 351.7 
L 253.049699 353.7 
L 249.049699 355.7 
" style="fill: none; stroke: #6a1b9a; stroke-width: 1.4; stroke-linecap: round"/>
   </g>
   <g id="patch_32">
    <path d="M 358.666581 353.7 
Q 361.24505 353.7 362.258271 353.7 
" style="fill: none; stroke: #6a1b9a; stroke-width: 1.4; stroke-linecap: round"/>
    <path d="M 358.258271 351.7 
L 362.258271 353.7 
L 358.258271 355.7 
" style="fill: none; stroke: #6a1b9a; stroke-width: 1.4; stroke-linecap: round"/>
   </g>
   <g id="patch_33">
    <path d="M 467.875153 353.7 
Q 470.453621 353.7 471.466842 353.7 
" style="fill: none; stroke: #6a1b9a; stroke-width: 1.4; stroke-linecap: round"/>
    <path d="M 467.466842 351.7 
L 471.466842 353.7 
L 467.466842 355.7 
" style="fill: none; stroke: #6a1b9a; stroke-width: 1.4; stroke-linecap: round"/>
   </g>
   <g id="patch_34">
    <path d="M 577.083724 353.7 
Q 579.662193 353.7 580.675413 353.7 
" style="fill: none; stroke: #6a1b9a; stroke-width: 1.4; stroke-linecap: round"/>
    <path d="M 576.675413 351.7 
L 580.675413 353.7 
L 576.675413 355.7 
" style="fill: none; stroke: #6a1b9a; stroke-width: 1.4; stroke-linecap: round"/>
   </g>
   <g id="patch_35">
    <path d="M 686.292295 353.7 
Q 688.870764 353.7 689.883985 353.7 
" style="fill: none; stroke: #6a1b9a; stroke-width: 1.4; stroke-linecap: round"/>
    <path d="M 685.883985 351.7 
L 689.883985 353.7 
L 685.883985 355.7 
" style="fill: none; stroke: #6a1b9a; stroke-width: 1.4; stroke-linecap: round"/>
   </g>
   <g id="text_23">
    <!-- 层变换 $F_l$ -->
    <g style="fill: #e65100" transform="translate(485.170714 461.28) scale(0.11 -0.11)">
     <defs>
      <path id="STHeiti-5c42" d="M 5504 3315 
Q 5101 3360 3987 3360 
Q 2874 3360 1491 3328 
Q 1459 1811 1299 969 
Q 1139 128 774 -525 
Q 531 -224 282 -141 
Q 640 339 803 1129 
Q 966 1920 966 3171 
Q 966 4422 941 4915 
Q 1651 4864 3286 4864 
Q 4922 4864 5504 4915 
Q 5472 4518 5475 4112 
Q 5478 3706 5504 3315 
z
M 4966 3808 
L 4966 4416 
L 1491 4416 
L 1491 3808 
L 4966 3808 
z
M 5363 2381 
Q 4646 2432 3692 2432 
Q 2739 2432 2035 2374 
L 2035 2925 
Q 2701 2874 3725 2874 
Q 4749 2874 5363 2925 
L 5363 2381 
z
M 3078 1363 
Q 2035 1357 1568 1318 
L 1568 1856 
Q 2298 1811 3702 1811 
Q 5107 1811 5843 1856 
L 5843 1318 
Q 5158 1363 3782 1363 
Q 3360 864 2669 141 
L 4608 250 
Q 4282 685 3994 928 
L 4499 1178 
Q 4998 570 5696 -211 
L 5114 -531 
Q 5005 -326 4883 -147 
L 3264 -269 
Q 2522 -326 2029 -506 
Q 1933 -198 1734 141 
Q 1971 186 2134 288 
Q 2298 390 2598 729 
Q 2899 1069 3078 1363 
z
" transform="scale(0.015625)"/>
      <path id="STHeiti-53d8" d="M 2272 4058 
Q 1350 4058 602 3987 
L 602 4563 
Q 1555 4493 2957 4493 
Q 2867 4832 2694 5056 
L 3302 5210 
Q 3437 4768 3507 4493 
Q 4922 4493 5869 4563 
L 5869 3987 
Q 5152 4058 4045 4058 
L 4045 2842 
Q 4045 2470 4083 2208 
L 3507 2208 
Q 3546 2470 3546 2842 
L 3546 4058 
L 2752 4058 
L 2752 2842 
Q 2752 2470 2790 2208 
L 2240 2208 
Q 2272 2483 2272 2842 
L 2272 4058 
z
M 1446 3808 
Q 1568 3680 1894 3514 
Q 1952 3482 1952 3446 
Q 1952 3411 1881 3398 
Q 1811 3386 1635 3194 
Q 1459 3002 890 2304 
Q 774 2464 416 2637 
Q 1018 3072 1446 3808 
z
M 5946 2650 
L 5478 2285 
Q 4877 3040 4346 3411 
L 4710 3744 
Q 5453 3181 5946 2650 
z
M 1459 1587 
Q 1280 1581 941 1549 
L 941 2086 
Q 1466 2022 3078 2022 
Q 4691 2022 5210 2086 
Q 4730 1107 3616 397 
Q 4499 83 5523 83 
Q 5741 83 5958 96 
Q 5715 -160 5594 -512 
Q 4358 -410 3136 122 
Q 2061 -384 736 -582 
Q 672 -282 429 -32 
Q 1696 -13 2624 378 
Q 2061 717 1459 1587 
z
M 2003 1594 
Q 2451 966 3110 608 
Q 3936 1030 4275 1594 
L 2003 1594 
z
" transform="scale(0.015625)"/>
      <path id="STHeiti-6362" d="M 3725 4589 
L 4346 4589 
Q 4838 4589 5389 4640 
L 4659 3405 
Q 5427 3411 5664 3450 
Q 5645 3264 5645 2957 
L 5645 1728 
Q 5888 1741 6067 1760 
L 6067 1293 
Q 5786 1331 5216 1331 
L 4550 1331 
Q 4762 730 5110 451 
Q 5459 173 6157 26 
Q 5914 -288 5824 -563 
Q 4640 -186 4218 1126 
Q 3834 -77 2490 -589 
Q 2349 -333 2093 -109 
Q 2886 141 3267 470 
Q 3648 800 3782 1331 
L 3040 1331 
Q 2515 1331 2202 1293 
L 2202 1760 
Q 2458 1728 2675 1728 
L 2675 2957 
Q 2675 3264 2656 3450 
Q 2931 3405 4160 3405 
L 4595 4205 
L 3514 4205 
Q 3290 3763 3014 3456 
Q 2746 3654 2566 3706 
Q 2880 4006 3145 4464 
Q 3411 4922 3469 5261 
Q 3686 5171 4070 5075 
Q 4154 5056 4154 5017 
Q 4154 4979 4083 4941 
Q 3917 4845 3725 4589 
z
M 3859 1722 
Q 3923 2176 3904 3027 
L 3136 3027 
L 3136 1722 
L 3859 1722 
z
M 4390 3027 
Q 4397 2534 4320 1722 
L 5165 1722 
L 5165 3027 
L 4390 3027 
z
M 1190 1952 
L 1190 3258 
Q 659 3245 384 3200 
L 384 3731 
Q 614 3693 1190 3680 
Q 1190 4762 1120 5158 
Q 1344 5114 1709 5114 
Q 1862 5114 1862 5066 
Q 1862 5018 1785 4960 
Q 1709 4902 1686 4854 
Q 1664 4806 1664 4723 
L 1664 3680 
Q 2010 3686 2272 3731 
L 2272 3200 
Q 2010 3245 1664 3251 
L 1664 2189 
Q 1882 2304 2227 2528 
Q 2221 2470 2221 2406 
Q 2221 2170 2330 2035 
Q 2022 1888 1664 1696 
L 1664 -51 
Q 1664 -256 1613 -349 
Q 1562 -442 1389 -502 
Q 1216 -563 787 -640 
Q 710 -294 531 -32 
Q 698 -64 826 -64 
Q 1190 -64 1190 160 
L 1190 1440 
Q 749 1184 499 998 
Q 461 1357 346 1632 
Q 819 1779 1190 1952 
z
" transform="scale(0.015625)"/>
      <path id="DejaVuSans-Oblique-46" d="M 1081 4666 
L 3756 4666 
L 3653 4134 
L 1606 4134 
L 1338 2759 
L 3188 2759 
L 3084 2228 
L 1234 2228 
L 800 0 
L 172 0 
L 1081 4666 
z
" transform="scale(0.015625)"/>
      <path id="DejaVuSans-Oblique-6c" d="M 1172 4863 
L 1747 4863 
L 800 0 
L 225 0 
L 1172 4863 
z
" transform="scale(0.015625)"/>
     </defs>
     <use xlink:href="#STHeiti-5c42" transform="translate(0 0.796875)"/>
     <use xlink:href="#STHeiti-53d8" transform="translate(99.999985 0.796875)"/>
     <use xlink:href="#STHeiti-6362" transform="translate(199.999969 0.796875)"/>
     <use xlink:href="#STHeiti-20" transform="translate(299.999954 0.796875)"/>
     <use xlink:href="#DejaVuSans-Oblique-46" transform="translate(324.999939 0.796875)"/>
     <use xlink:href="#DejaVuSans-Oblique-6c" transform="translate(382.51947 -15.609375) scale(0.7)"/>
    </g>
   </g>
   <g id="patch_36">
    <path d="M 428.459689 168.570997 
Q 446.676355 298.259475 464.690848 426.508639 
" style="fill: none; stroke-dasharray: 4.81,2.08; stroke-dashoffset: 0; stroke: #1565c0; stroke-width: 1.3; stroke-linecap: round"/>
    <path d="M 466.115008 422.269326 
L 464.690848 426.508639 
L 462.153894 422.825723 
" style="fill: none; stroke-dasharray: 4.81,2.08; stroke-dashoffset: 0; stroke: #1565c0; stroke-width: 1.3; stroke-linecap: round"/>
   </g>
   <g id="text_24">
    <!-- $A^{0}_l$ -->
    <g style="fill: #1565c0" transform="translate(409.17 294.795) scale(0.08 -0.08)">
     <defs>
      <path id="DejaVuSans-Oblique-41" d="M 2356 4666 
L 3072 4666 
L 3938 0 
L 3278 0 
L 3084 1197 
L 984 1197 
L 325 0 
L -341 0 
L 2356 4666 
z
M 2584 4044 
L 1275 1722 
L 2988 1722 
L 2584 4044 
z
" transform="scale(0.015625)"/>
     </defs>
     <use xlink:href="#DejaVuSans-Oblique-41" transform="translate(0 0.70625)"/>
     <use xlink:href="#DejaVuSans-30" transform="translate(75.424974 40.046875) scale(0.7)"/>
     <use xlink:href="#DejaVuSans-Oblique-6c" transform="translate(68.408203 -26.6375) scale(0.7)"/>
    </g>
   </g>
   <g id="patch_37">
    <path d="M 470.908381 272.490543 
Q 488.951254 350.237326 506.665555 426.56829 
" style="fill: none; stroke-dasharray: 4.81,2.08; stroke-dashoffset: 0; stroke: #2e7d32; stroke-width: 1.3; stroke-linecap: round"/>
    <path d="M 507.709521 422.219712 
L 506.665555 426.56829 
L 503.813072 423.12397 
" style="fill: none; stroke-dasharray: 4.81,2.08; stroke-dashoffset: 0; stroke: #2e7d32; stroke-width: 1.3; stroke-linecap: round"/>
   </g>
   <g id="text_25">
    <!-- $A^{1}_l$ -->
    <g style="fill: #2e7d32" transform="translate(451.444286 346.77) scale(0.08 -0.08)">
     <use xlink:href="#DejaVuSans-Oblique-41" transform="translate(0 0.620313)"/>
     <use xlink:href="#DejaVuSans-31" transform="translate(75.424974 38.965625) scale(0.7)"/>
     <use xlink:href="#DejaVuSans-Oblique-6c" transform="translate(68.408203 -26.723437) scale(0.7)"/>
    </g>
   </g>
   <g id="patch_38">
    <path d="M 513.838526 376.15144 
Q 531.22409 402.208636 547.802975 427.056795 
" style="fill: none; stroke-dasharray: 4.81,2.08; stroke-dashoffset: 0; stroke: #6a1b9a; stroke-width: 1.3; stroke-linecap: round"/>
    <path d="M 547.246613 422.619402 
L 547.802975 427.056795 
L 543.919243 424.839449 
" style="fill: none; stroke-dasharray: 4.81,2.08; stroke-dashoffset: 0; stroke: #6a1b9a; stroke-width: 1.3; stroke-linecap: round"/>
   </g>
   <g id="text_26">
    <!-- $A^{2}_l$ -->
    <g style="fill: #6a1b9a" transform="translate(493.718571 398.745) scale(0.08 -0.08)">
     <use xlink:href="#DejaVuSans-Oblique-41" transform="translate(0 0.701562)"/>
     <use xlink:href="#DejaVuSans-32" transform="translate(75.424974 39.046875) scale(0.7)"/>
     <use xlink:href="#DejaVuSans-Oblique-6c" transform="translate(68.408203 -26.642188) scale(0.7)"/>
    </g>
   </g>
   <g id="patch_39">
    <path d="M 522.160077 428.029368 
Q 564.691776 298.26112 606.7708 169.874025 
" style="fill: none; stroke: #1565c0; stroke-width: 1.3; stroke-linecap: round"/>
    <path d="M 603.624476 173.052176 
L 606.7708 169.874025 
L 607.425526 174.297975 
" style="fill: none; stroke: #1565c0; stroke-width: 1.3; stroke-linecap: round"/>
   </g>
   <g id="text_27">
    <!-- $C^{0}_l$ -->
    <g style="fill: #1565c0" transform="translate(623.984286 294.795) scale(0.08 -0.08)">
     <defs>
      <path id="DejaVuSans-Oblique-43" d="M 4447 4306 
L 4319 3641 
Q 4019 3944 3683 4091 
Q 3347 4238 2956 4238 
Q 2422 4238 2017 3981 
Q 1613 3725 1319 3200 
Q 1131 2863 1032 2486 
Q 934 2109 934 1728 
Q 934 1091 1264 756 
Q 1594 422 2222 422 
Q 2656 422 3056 561 
Q 3456 700 3834 978 
L 3688 231 
Q 3316 72 2936 -9 
Q 2556 -91 2175 -91 
Q 1278 -91 773 396 
Q 269 884 269 1753 
Q 269 2309 461 2846 
Q 653 3384 1013 3828 
Q 1394 4300 1883 4525 
Q 2372 4750 3022 4750 
Q 3422 4750 3780 4639 
Q 4138 4528 4447 4306 
z
" transform="scale(0.015625)"/>
     </defs>
     <use xlink:href="#DejaVuSans-Oblique-43" transform="translate(0 0.70625)"/>
     <use xlink:href="#DejaVuSans-30" transform="translate(77.02474 40.046875) scale(0.7)"/>
     <use xlink:href="#DejaVuSans-Oblique-6c" transform="translate(69.824219 -26.6375) scale(0.7)"/>
    </g>
   </g>
   <g id="patch_40">
    <path d="M 501.352181 428.171593 
Q 543.555042 350.234922 585.065816 273.57634 
" style="fill: none; stroke: #2e7d32; stroke-width: 1.3; stroke-linecap: round"/>
    <path d="M 581.402426 276.141408 
L 585.065816 273.57634 
L 584.919836 278.046093 
" style="fill: none; stroke: #2e7d32; stroke-width: 1.3; stroke-linecap: round"/>
   </g>
   <g id="text_28">
    <!-- $C^{1}_l$ -->
    <g style="fill: #2e7d32" transform="translate(602.847143 346.77) scale(0.08 -0.08)">
     <use xlink:href="#DejaVuSans-Oblique-43" transform="translate(0 0.620313)"/>
     <use xlink:href="#DejaVuSans-31" transform="translate(77.02474 38.965625) scale(0.7)"/>
     <use xlink:href="#DejaVuSans-Oblique-6c" transform="translate(69.824219 -26.723437) scale(0.7)"/>
    </g>
   </g>
   <g id="patch_41">
    <path d="M 480.945965 428.848879 
Q 522.418772 402.209412 562.668684 376.355455 
" style="fill: none; stroke: #6a1b9a; stroke-width: 1.3; stroke-linecap: round"/>
    <path d="M 558.222277 376.834487 
L 562.668684 376.355455 
L 560.384066 380.199999 
" style="fill: none; stroke: #6a1b9a; stroke-width: 1.3; stroke-linecap: round"/>
   </g>
   <g id="text_29">
    <!-- $C^{2}_l$ -->
    <g style="fill: #6a1b9a" transform="translate(581.71 398.745) scale(0.08 -0.08)">
     <use xlink:href="#DejaVuSans-Oblique-43" transform="translate(0 0.701562)"/>
     <use xlink:href="#DejaVuSans-32" transform="translate(77.02474 39.046875) scale(0.7)"/>
     <use xlink:href="#DejaVuSans-Oblique-6c" transform="translate(69.824219 -26.642188) scale(0.7)"/>
    </g>
   </g>
   <g id="patch_42">
    <path d="M 306.642857 170.153798 
Q 306.642857 197.773857 306.642857 225.393916 
" style="fill: none; stroke: #795548; stroke-width: 1.4; stroke-linecap: round"/>
    <path d="M 304.642857 174.153798 
L 306.642857 170.153798 
L 308.642857 174.153798 
" style="fill: none; stroke: #795548; stroke-width: 1.4; stroke-linecap: round"/>
    <path d="M 308.642857 221.393916 
L 306.642857 225.393916 
L 304.642857 221.393916 
" style="fill: none; stroke: #795548; stroke-width: 1.4; stroke-linecap: round"/>
   </g>
   <g id="text_30">
    <!-- $B_l$ -->
    <g style="fill: #795548" transform="translate(327.78 197.775) scale(0.09 -0.09)">
     <defs>
      <path id="DejaVuSans-Oblique-42" d="M 1081 4666 
L 2694 4666 
Q 3350 4666 3675 4422 
Q 4000 4178 4000 3688 
Q 4000 3238 3720 2911 
Q 3441 2584 2988 2516 
Q 3375 2428 3569 2181 
Q 3763 1934 3763 1522 
Q 3763 819 3242 409 
Q 2722 0 1819 0 
L 172 0 
L 1081 4666 
z
M 1234 2228 
L 903 519 
L 1919 519 
Q 2491 519 2800 781 
Q 3109 1044 3109 1522 
Q 3109 1891 2904 2059 
Q 2700 2228 2247 2228 
L 1234 2228 
z
M 1606 4147 
L 1331 2741 
L 2272 2741 
Q 2775 2741 3058 2959 
Q 3341 3178 3341 3566 
Q 3341 3869 3150 4008 
Q 2959 4147 2541 4147 
L 1606 4147 
z
" transform="scale(0.015625)"/>
     </defs>
     <use xlink:href="#DejaVuSans-Oblique-42" transform="translate(0 0.09375)"/>
     <use xlink:href="#DejaVuSans-Oblique-6c" transform="translate(68.603516 -16.3125) scale(0.7)"/>
    </g>
   </g>
   <g id="patch_43">
    <path d="M 306.642857 274.103798 
Q 306.642857 301.723857 306.642857 329.343916 
" style="fill: none; stroke: #795548; stroke-width: 1.4; stroke-linecap: round"/>
    <path d="M 304.642857 278.103798 
L 306.642857 274.103798 
L 308.642857 278.103798 
" style="fill: none; stroke: #795548; stroke-width: 1.4; stroke-linecap: round"/>
    <path d="M 308.642857 325.343916 
L 306.642857 329.343916 
L 304.642857 325.343916 
" style="fill: none; stroke: #795548; stroke-width: 1.4; stroke-linecap: round"/>
   </g>
   <g id="text_31">
    <!-- $B_l$ -->
    <g style="fill: #795548" transform="translate(327.78 301.725) scale(0.09 -0.09)">
     <use xlink:href="#DejaVuSans-Oblique-42" transform="translate(0 0.09375)"/>
     <use xlink:href="#DejaVuSans-Oblique-6c" transform="translate(68.603516 -16.3125) scale(0.7)"/>
    </g>
   </g>
   <g id="text_32">
    <g id="patch_44">
     <path d="M 893.392857 483.668766 
L 952.892857 483.668766 
Q 955.442857 483.668766 955.442857 481.118766 
L 955.442857 442.731703 
Q 955.442857 440.181703 952.892857 440.181703 
L 893.392857 440.181703 
Q 890.842857 440.181703 890.842857 442.731703 
L 890.842857 481.118766 
Q 890.842857 483.668766 893.392857 483.668766 
z
" style="fill: #f3e5f5; stroke: #9c27b0; stroke-width: 1.2; stroke-linejoin: miter"/>
    </g>
    <!-- 双随机矩阵约束 -->
    <g style="fill: #555555" transform="translate(893.392857 440.981234) scale(0.085 -0.085)">
     <defs>
      <path id="STHeiti-53cc" d="M 1965 2656 
Q 2221 3411 2272 4243 
L 1683 4243 
Q 934 4243 570 4205 
L 570 4762 
Q 1094 4717 1801 4717 
Q 2509 4717 2931 4762 
Q 2810 3386 2330 2125 
Q 2803 1440 3181 845 
L 2605 544 
Q 2426 979 2074 1542 
Q 1600 506 870 -160 
Q 608 70 339 154 
Q 685 326 1069 844 
Q 1453 1363 1741 2061 
Q 1171 2918 653 3501 
L 1146 3808 
L 1965 2656 
z
M 4326 1728 
Q 4883 2669 5056 4192 
L 4506 4192 
Q 3674 4192 3194 4154 
L 3194 4710 
Q 3725 4672 4528 4672 
Q 5331 4672 5728 4710 
Q 5402 2451 4634 1248 
Q 5158 589 6182 230 
Q 5907 -32 5786 -422 
Q 4800 173 4314 794 
Q 3738 58 2739 -493 
Q 2522 -224 2259 -70 
Q 3366 403 4013 1254 
Q 3526 2125 3347 3571 
L 3923 3667 
Q 3942 2477 4326 1728 
z
" transform="scale(0.015625)"/>
      <path id="STHeiti-968f" d="M 3885 4000 
Q 3558 3994 3290 3955 
L 3290 4467 
Q 3712 4422 4115 4416 
Q 4384 4928 4429 5242 
Q 4832 5082 4992 5056 
Q 5069 5043 5069 5001 
Q 5069 4960 4976 4918 
Q 4883 4877 4790 4742 
Q 4698 4608 4595 4416 
Q 5632 4416 5888 4467 
L 5888 3955 
Q 5453 4019 4378 4006 
Q 4262 3802 4013 3469 
L 4461 3469 
Q 5389 3469 5677 3533 
Q 5645 3270 5645 2970 
L 5645 960 
Q 5645 762 5587 659 
Q 5530 557 5360 493 
Q 5190 429 4832 378 
Q 4813 653 4672 877 
Q 4845 845 4957 845 
Q 5069 845 5123 902 
Q 5178 960 5178 1139 
L 5178 1312 
L 4058 1312 
L 4058 467 
L 3546 467 
Q 3603 1184 3603 1376 
L 3603 2963 
Q 3533 2880 3405 2739 
Q 3264 2938 2982 3014 
Q 3507 3366 3885 4000 
z
M 5178 2554 
L 5178 3066 
L 4058 3066 
L 4058 2554 
L 5178 2554 
z
M 4058 2163 
L 4058 1722 
L 5178 1722 
L 5178 2163 
L 4058 2163 
z
M 2368 4883 
L 1734 2758 
Q 1984 2426 2118 2102 
Q 2253 1779 2253 1606 
Q 2253 1190 2083 956 
Q 1914 723 1338 608 
Q 1325 928 1120 1267 
Q 1306 1242 1456 1242 
Q 1606 1242 1680 1347 
Q 1754 1453 1754 1696 
Q 1754 2112 1280 2720 
L 1754 4442 
L 1050 4442 
L 1050 -576 
L 544 -576 
Q 589 198 589 902 
L 589 3827 
Q 589 4544 544 4883 
Q 890 4845 1498 4845 
Q 2106 4845 2368 4883 
z
M 3149 3520 
L 2714 3373 
Q 2547 4058 2349 4442 
L 2765 4595 
Q 2982 4083 3149 3520 
z
M 5997 154 
Q 5805 -192 5792 -467 
Q 4538 -435 4026 -355 
Q 3514 -275 3200 -58 
Q 2970 109 2851 109 
Q 2733 109 2601 -22 
Q 2470 -154 2259 -448 
Q 2093 -218 1856 -58 
Q 2285 326 2579 467 
L 2579 2438 
Q 2278 2438 2182 2413 
L 2182 2886 
Q 2445 2848 2640 2848 
Q 2835 2848 3104 2886 
Q 3046 2554 3046 2106 
L 3046 506 
Q 3213 461 3450 282 
Q 3776 45 4576 45 
Q 5139 45 5997 154 
z
" transform="scale(0.015625)"/>
      <path id="STHeiti-673a" d="M 1254 2323 
Q 998 1530 576 800 
Q 467 1062 256 1389 
Q 595 1754 819 2205 
Q 1043 2656 1254 3379 
L 1254 3462 
Q 710 3456 352 3411 
L 352 3917 
Q 634 3872 1254 3866 
Q 1254 4787 1197 5171 
Q 1402 5146 1562 5146 
L 1824 5158 
Q 1901 5158 1901 5113 
Q 1901 5069 1830 5005 
Q 1760 4941 1760 4826 
L 1760 3866 
Q 2394 3878 2669 3917 
L 2669 3411 
Q 2310 3456 1760 3462 
L 1760 672 
Q 1760 96 1818 -531 
L 1184 -531 
Q 1254 122 1254 672 
L 1254 2323 
z
M 6221 563 
Q 6099 102 6009 -70 
Q 5920 -243 5766 -294 
Q 5613 -346 5277 -346 
Q 4941 -346 4809 -301 
Q 4678 -256 4617 -89 
Q 4557 77 4563 435 
L 4608 4339 
L 3578 4339 
Q 3590 3949 3590 3264 
Q 3590 2579 3542 1865 
Q 3494 1152 3276 566 
Q 3059 -19 2547 -621 
Q 2304 -384 1939 -269 
Q 2656 275 2867 992 
Q 3078 1709 3078 2880 
Q 3078 3475 3014 4858 
Q 3437 4806 4137 4806 
Q 4838 4806 5210 4851 
Q 5139 4576 5133 4026 
L 5088 442 
Q 5088 288 5149 221 
Q 5210 154 5395 154 
Q 5542 154 5596 310 
Q 5651 467 5658 960 
Q 5837 640 6221 563 
z
M 2803 1818 
L 2355 1568 
Q 2202 1984 1850 2522 
L 2240 2720 
Q 2509 2330 2803 1818 
z
" transform="scale(0.015625)"/>
      <path id="STHeiti-77e9" d="M 2157 2470 
Q 2694 2477 3066 2528 
L 3066 1965 
Q 2688 2016 2125 2022 
Q 2106 1843 2061 1574 
Q 2643 992 3219 307 
L 2701 -58 
Q 2419 461 1939 1120 
Q 1600 83 864 -563 
Q 704 -365 422 -173 
Q 1030 339 1305 848 
Q 1581 1357 1626 2022 
Q 915 2016 512 1965 
L 512 2515 
Q 902 2470 1664 2470 
Q 1709 3040 1702 3725 
L 1338 3725 
Q 1114 3200 973 2944 
Q 710 3085 480 3117 
Q 1062 4038 1235 5184 
Q 1542 5056 1888 5011 
Q 1978 4998 1978 4966 
Q 1978 4934 1923 4902 
Q 1869 4870 1779 4742 
Q 1690 4614 1530 4179 
Q 2714 4179 3002 4218 
L 3002 3686 
Q 2694 3725 2208 3725 
Q 2202 3021 2157 2470 
z
M 3763 3270 
L 4570 3270 
Q 5446 3270 5664 3328 
Q 5626 2874 5626 2285 
Q 5626 1696 5664 1248 
Q 5510 1306 4570 1306 
L 3763 1306 
L 3763 147 
L 4922 147 
Q 5747 147 6054 211 
L 6054 -378 
Q 5805 -314 4633 -314 
Q 3462 -314 3219 -378 
Q 3270 186 3270 742 
L 3270 3776 
Q 3270 4282 3219 4819 
Q 3507 4762 4595 4762 
Q 5683 4762 5920 4819 
L 5920 4250 
Q 5587 4307 4973 4307 
L 3763 4307 
L 3763 3270 
z
M 3763 1754 
L 5114 1754 
L 5114 2829 
L 3763 2829 
L 3763 1754 
z
" transform="scale(0.015625)"/>
      <path id="STHeiti-9635" d="M 4038 2560 
Q 4038 3021 4028 3168 
Q 4019 3315 3974 3443 
Q 4205 3411 4345 3408 
Q 4486 3405 4588 3405 
Q 4691 3405 4691 3360 
Q 4691 3315 4617 3280 
Q 4544 3245 4544 2912 
L 4544 2560 
Q 5293 2560 5741 2611 
L 5741 2093 
Q 5376 2138 4544 2144 
L 4544 1133 
Q 5395 1139 5914 1190 
L 5914 659 
Q 5370 710 4544 717 
Q 4544 -173 4589 -589 
L 4000 -589 
Q 4038 -346 4038 717 
Q 3053 717 2464 659 
L 2464 1190 
Q 3053 1133 4038 1133 
L 4038 2144 
Q 2995 2138 2694 2054 
Q 2605 2336 2464 2528 
Q 2682 2643 2858 2960 
Q 3034 3277 3309 3962 
Q 2886 3949 2618 3917 
L 2618 4442 
Q 2970 4397 3475 4397 
Q 3642 4870 3706 5357 
Q 3853 5306 4067 5248 
Q 4282 5190 4349 5184 
Q 4416 5178 4416 5152 
Q 4416 5126 4378 5094 
Q 4269 4992 3981 4397 
L 5018 4397 
Q 5562 4397 5946 4442 
L 5946 3917 
Q 5562 3962 5018 3962 
L 3795 3962 
Q 3456 3098 3149 2560 
L 4038 2560 
z
M 2630 4954 
L 1843 2810 
Q 2234 2323 2317 2073 
Q 2400 1824 2400 1501 
Q 2400 1178 2173 931 
Q 1946 685 1504 608 
Q 1478 979 1254 1267 
Q 1376 1261 1459 1261 
Q 1709 1261 1808 1331 
Q 1907 1402 1907 1664 
Q 1907 1926 1785 2198 
Q 1664 2470 1408 2778 
L 1926 4422 
L 1184 4422 
L 1184 998 
Q 1184 64 1210 -454 
L 659 -454 
Q 704 314 704 998 
L 704 4166 
Q 704 4710 659 4954 
Q 1126 4902 1696 4902 
Q 2266 4902 2630 4954 
z
" transform="scale(0.015625)"/>
      <path id="STHeiti-7ea6" d="M 1741 2918 
L 1203 2886 
Q 890 2867 653 2797 
Q 595 3110 506 3270 
Q 736 3424 963 3865 
Q 1190 4307 1536 5197 
Q 1830 4992 2054 4922 
Q 2157 4890 2157 4861 
Q 2157 4832 2102 4809 
Q 2048 4787 1968 4688 
Q 1888 4589 1632 4179 
L 1050 3264 
L 1971 3309 
Q 2246 3789 2387 4147 
Q 2662 3904 2880 3827 
Q 2950 3802 2950 3773 
Q 2950 3744 2892 3728 
Q 2835 3712 2758 3616 
Q 2682 3520 2509 3283 
L 1459 1734 
Q 1997 1754 2803 1856 
Q 2694 1658 2694 1338 
L 1510 1274 
Q 1158 1254 819 1165 
Q 794 1478 678 1683 
Q 1062 1792 1741 2918 
z
M 4134 4096 
L 5062 4096 
Q 5574 4096 5907 4134 
Q 5869 3750 5850 3392 
L 5696 250 
Q 5670 -211 5337 -384 
Q 5005 -557 4474 -614 
Q 4416 -192 4128 122 
Q 4371 77 4557 77 
Q 5158 77 5178 512 
L 5318 3616 
L 3930 3616 
Q 3590 2893 3232 2342 
Q 2970 2509 2688 2541 
Q 3059 2976 3388 3702 
Q 3718 4429 3872 5178 
Q 4262 5043 4512 5005 
Q 4614 4992 4614 4947 
Q 4614 4902 4518 4883 
Q 4474 4870 4416 4755 
Q 4358 4640 4134 4096 
z
M 4666 1587 
L 4096 1363 
Q 3885 2035 3635 2477 
L 4115 2675 
Q 4403 2150 4666 1587 
z
M 2893 845 
Q 2842 698 2842 541 
Q 2842 384 2854 314 
Q 1331 70 614 -166 
Q 595 154 486 518 
Q 1082 506 2893 845 
z
" transform="scale(0.015625)"/>
      <path id="STHeiti-675f" d="M 2995 1651 
Q 2630 960 2153 493 
Q 1677 26 870 -442 
Q 672 -192 365 19 
Q 1037 269 1619 704 
Q 2202 1139 2547 1651 
Q 1792 1651 1165 1613 
Q 1210 1882 1210 2448 
Q 1210 3014 1165 3347 
Q 1869 3290 3034 3290 
L 3034 3910 
Q 1562 3910 614 3859 
L 614 4467 
Q 1498 4410 3034 4403 
Q 3034 5011 2989 5178 
Q 3200 5126 3629 5126 
Q 3731 5126 3731 5094 
Q 3731 5062 3638 4969 
Q 3546 4877 3546 4723 
L 3546 4403 
Q 4986 4410 5990 4454 
L 5990 3859 
Q 5037 3910 3546 3910 
L 3546 3290 
Q 4698 3290 5408 3347 
Q 5363 3014 5363 2480 
Q 5363 1946 5408 1600 
Q 4845 1638 4026 1651 
Q 4320 1120 4873 787 
Q 5427 454 6067 410 
Q 5779 83 5722 -275 
Q 4192 224 3629 1651 
L 3546 1651 
L 3546 634 
Q 3546 6 3590 -570 
L 2982 -570 
Q 3034 83 3034 634 
L 3034 1651 
L 2995 1651 
z
M 3546 2842 
L 3546 2093 
L 4864 2093 
L 4864 2842 
L 3546 2842 
z
M 3034 2093 
L 3034 2842 
L 1702 2842 
L 1702 2093 
L 3034 2093 
z
" transform="scale(0.015625)"/>
     </defs>
     <use xlink:href="#STHeiti-53cc"/>
     <use xlink:href="#STHeiti-968f" transform="translate(99.999985 0)"/>
     <use xlink:href="#STHeiti-673a" transform="translate(199.999969 0)"/>
     <use xlink:href="#STHeiti-77e9" transform="translate(299.999954 0)"/>
     <use xlink:href="#STHeiti-9635" transform="translate(399.999939 0)"/>
     <use xlink:href="#STHeiti-7ea6" transform="translate(499.999924 0)"/>
     <use xlink:href="#STHeiti-675f" transform="translate(599.999908 0)"/>
    </g>
    <!-- $\sum_i A_{ij}=1$ -->
    <g style="fill: #555555" transform="translate(906.652857 452.524766) scale(0.085 -0.085)">
     <defs>
      <path id="DejaVuSansDisplay-2211" d="M 244 6509 
L 5803 6509 
L 5803 5656 
L 1566 5656 
L 4534 2488 
L 1469 -888 
L 5919 -888 
L 5919 -1738 
L 109 -1738 
L 109 -1078 
L 3316 2463 
L 244 5728 
L 244 6509 
z
" transform="scale(0.015625)"/>
      <path id="DejaVuSans-Oblique-69" d="M 1172 4863 
L 1747 4863 
L 1606 4134 
L 1031 4134 
L 1172 4863 
z
M 909 3500 
L 1484 3500 
L 800 0 
L 225 0 
L 909 3500 
z
" transform="scale(0.015625)"/>
      <path id="DejaVuSans-Oblique-6a" d="M 928 3500 
L 1503 3500 
L 813 -63 
L 809 -78 
Q 694 -675 544 -897 
Q 403 -1106 132 -1218 
Q -138 -1331 -506 -1331 
L -722 -1331 
L -628 -844 
L -481 -844 
Q -144 -844 -1 -703 
Q 141 -563 238 -63 
L 928 3500 
z
M 1197 4863 
L 1772 4863 
L 1631 4134 
L 1056 4134 
L 1197 4863 
z
" transform="scale(0.015625)"/>
      <path id="DejaVuSans-3d" d="M 678 2906 
L 4684 2906 
L 4684 2381 
L 678 2381 
L 678 2906 
z
M 678 1631 
L 4684 1631 
L 4684 1100 
L 678 1100 
L 678 1631 
z
" transform="scale(0.015625)"/>
     </defs>
     <use xlink:href="#DejaVuSansDisplay-2211" transform="translate(0 0.296875)"/>
     <use xlink:href="#DejaVuSans-Oblique-69" transform="translate(37 -98.798438) scale(0.7)"/>
     <use xlink:href="#DejaVuSans-Oblique-41" transform="translate(90.765625 0.296875)"/>
     <use xlink:href="#DejaVuSans-Oblique-69" transform="translate(159.173828 -16.109375) scale(0.7)"/>
     <use xlink:href="#DejaVuSans-Oblique-6a" transform="translate(178.62207 -16.109375) scale(0.7)"/>
     <use xlink:href="#DejaVuSans-3d" transform="translate(220.287109 0.296875)"/>
     <use xlink:href="#DejaVuSans-31" transform="translate(323.558594 0.296875)"/>
    </g>
    <!-- $\sum_j A_{ij}=1$ -->
    <g style="fill: #555555" transform="translate(906.652857 471.428766) scale(0.085 -0.085)">
     <use xlink:href="#DejaVuSansDisplay-2211" transform="translate(0 0.296875)"/>
     <use xlink:href="#DejaVuSans-Oblique-6a" transform="translate(32 -98.798438) scale(0.7)"/>
     <use xlink:href="#DejaVuSans-Oblique-41" transform="translate(90.765625 0.296875)"/>
     <use xlink:href="#DejaVuSans-Oblique-69" transform="translate(159.173828 -16.109375) scale(0.7)"/>
     <use xlink:href="#DejaVuSans-Oblique-6a" transform="translate(178.62207 -16.109375) scale(0.7)"/>
     <use xlink:href="#DejaVuSans-3d" transform="translate(220.287109 0.296875)"/>
     <use xlink:href="#DejaVuSans-31" transform="translate(323.558594 0.296875)"/>
    </g>
   </g>
  </g>
 </g>
 <defs>
  <clipPath id="pcf08834d14">
   <rect x="7.2" y="7.2" width="986.4" height="554.4"/>
  </clipPath>
 </defs>
</svg>
