<?xml version="1.0" encoding="utf-8" standalone="no"?>
<!DOCTYPE svg PUBLIC "-//W3C//DTD SVG 1.1//EN"
  "http://www.w3.org/Graphics/SVG/1.1/DTD/svg11.dtd">
<svg xmlns:xlink="http://www.w3.org/1999/xlink" width="1141.46011pt" height="424.8pt" viewBox="0 0 1141.46011 424.8" xmlns="http://www.w3.org/2000/svg" version="1.1">
 <metadata>
  <rdf:RDF xmlns:dc="http://purl.org/dc/elements/1.1/" xmlns:cc="http://creativecommons.org/ns#" xmlns:rdf="http://www.w3.org/1999/02/22-rdf-syntax-ns#">
   <cc:Work>
    <dc:type rdf:resource="http://purl.org/dc/dcmitype/StillImage"/>
    <dc:date>2026-05-09T14:19:56.106679</dc:date>
    <dc:format>image/svg+xml</dc:format>
    <dc:creator>
     <cc:Agent>
      <dc:title>Matplotlib v3.10.8, https://matplotlib.org/</dc:title>
     </cc:Agent>
    </dc:creator>
   </cc:Work>
  </rdf:RDF>
 </metadata>
 <defs>
  <style type="text/css">*{stroke-linejoin: round; stroke-linecap: butt}</style>
 </defs>
 <g id="figure_1">
  <g id="patch_1">
   <path d="M 0 424.8 
L 1141.46011 424.8 
L 1141.46011 0 
L 0 0 
z
" style="fill: #ffffff"/>
  </g>
  <g id="axes_1">
   <g id="patch_2">
    <path d="M 42.058216 151.182 
L 98.323162 151.182 
Q 100.308984 151.182 100.308984 149.13 
L 100.308984 111.51 
Q 100.308984 109.458 98.323162 109.458 
L 42.058216 109.458 
Q 40.072395 109.458 40.072395 111.51 
L 40.072395 149.13 
Q 40.072395 151.182 42.058216 151.182 
z
" clip-path="url(#p0670111a84)" style="fill: #1565c0; fill-opacity: 0.2; stroke: #1565c0; stroke-width: 1.8; stroke-linejoin: miter"/>
   </g>
   <g id="patch_3">
    <path d="M 101.632865 151.182 
L 157.897811 151.182 
Q 159.883633 151.182 159.883633 149.13 
L 159.883633 111.51 
Q 159.883633 109.458 157.897811 109.458 
L 101.632865 109.458 
Q 99.647043 109.458 99.647043 111.51 
L 99.647043 149.13 
Q 99.647043 151.182 101.632865 151.182 
z
" clip-path="url(#p0670111a84)" style="fill: #1565c0; fill-opacity: 0.2; stroke: #1565c0; stroke-width: 1.8; stroke-linejoin: miter"/>
   </g>
   <g id="patch_4">
    <path d="M 161.207514 151.182 
L 217.47246 151.182 
Q 219.458281 151.182 219.458281 149.13 
L 219.458281 111.51 
Q 219.458281 109.458 217.47246 109.458 
L 161.207514 109.458 
Q 159.221692 109.458 159.221692 111.51 
L 159.221692 149.13 
Q 159.221692 151.182 161.207514 151.182 
z
" clip-path="url(#p0670111a84)" style="fill: #1565c0; fill-opacity: 0.2; stroke: #1565c0; stroke-width: 1.8; stroke-linejoin: miter"/>
   </g>
   <g id="patch_5">
    <path d="M 220.782162 151.182 
L 277.047108 151.182 
Q 279.03293 151.182 279.03293 149.13 
L 279.03293 111.51 
Q 279.03293 109.458 277.047108 109.458 
L 220.782162 109.458 
Q 218.796341 109.458 218.796341 111.51 
L 218.796341 149.13 
Q 218.796341 151.182 220.782162 151.182 
z
" clip-path="url(#p0670111a84)" style="fill: #1565c0; fill-opacity: 0.2; stroke: #1565c0; stroke-width: 1.8; stroke-linejoin: miter"/>
   </g>
   <g id="patch_6">
    <path d="M 280.356811 151.182 
L 336.621757 151.182 
Q 338.607579 151.182 338.607579 149.13 
L 338.607579 111.51 
Q 338.607579 109.458 336.621757 109.458 
L 280.356811 109.458 
Q 278.37099 109.458 278.37099 111.51 
L 278.37099 149.13 
Q 278.37099 151.182 280.356811 151.182 
z
" clip-path="url(#p0670111a84)" style="fill: #2e7d32; fill-opacity: 0.2; stroke: #2e7d32; stroke-width: 1.8; stroke-linejoin: miter"/>
   </g>
   <g id="patch_7">
    <path d="M 339.93146 151.182 
L 396.196406 151.182 
Q 398.182228 151.182 398.182228 149.13 
L 398.182228 111.51 
Q 398.182228 109.458 396.196406 109.458 
L 339.93146 109.458 
Q 337.945638 109.458 337.945638 111.51 
L 337.945638 149.13 
Q 337.945638 151.182 339.93146 151.182 
z
" clip-path="url(#p0670111a84)" style="fill: #2e7d32; fill-opacity: 0.2; stroke: #2e7d32; stroke-width: 1.8; stroke-linejoin: miter"/>
   </g>
   <g id="patch_8">
    <path d="M 399.506109 151.182 
L 455.771055 151.182 
Q 457.756876 151.182 457.756876 149.13 
L 457.756876 111.51 
Q 457.756876 109.458 455.771055 109.458 
L 399.506109 109.458 
Q 397.520287 109.458 397.520287 111.51 
L 397.520287 149.13 
Q 397.520287 151.182 399.506109 151.182 
z
" clip-path="url(#p0670111a84)" style="fill: #2e7d32; fill-opacity: 0.2; stroke: #2e7d32; stroke-width: 1.8; stroke-linejoin: miter"/>
   </g>
   <g id="patch_9">
    <path d="M 459.080757 151.182 
L 515.345703 151.182 
Q 517.331525 151.182 517.331525 149.13 
L 517.331525 111.51 
Q 517.331525 109.458 515.345703 109.458 
L 459.080757 109.458 
Q 457.094936 109.458 457.094936 111.51 
L 457.094936 149.13 
Q 457.094936 151.182 459.080757 151.182 
z
" clip-path="url(#p0670111a84)" style="fill: #2e7d32; fill-opacity: 0.2; stroke: #2e7d32; stroke-width: 1.8; stroke-linejoin: miter"/>
   </g>
   <g id="patch_10">
    <path d="M 518.655406 151.182 
L 574.920352 151.182 
Q 576.906174 151.182 576.906174 149.13 
L 576.906174 111.51 
Q 576.906174 109.458 574.920352 109.458 
L 518.655406 109.458 
Q 516.669584 109.458 516.669584 111.51 
L 516.669584 149.13 
Q 516.669584 151.182 518.655406 151.182 
z
" clip-path="url(#p0670111a84)" style="fill: #6a1b9a; fill-opacity: 0.2; stroke: #6a1b9a; stroke-width: 1.8; stroke-linejoin: miter"/>
   </g>
   <g id="patch_11">
    <path d="M 578.230055 151.182 
L 634.495001 151.182 
Q 636.480822 151.182 636.480822 149.13 
L 636.480822 111.51 
Q 636.480822 109.458 634.495001 109.458 
L 578.230055 109.458 
Q 576.244233 109.458 576.244233 111.51 
L 576.244233 149.13 
Q 576.244233 151.182 578.230055 151.182 
z
" clip-path="url(#p0670111a84)" style="fill: #6a1b9a; fill-opacity: 0.2; stroke: #6a1b9a; stroke-width: 1.8; stroke-linejoin: miter"/>
   </g>
   <g id="patch_12">
    <path d="M 637.804704 151.182 
L 694.06965 151.182 
Q 696.055471 151.182 696.055471 149.13 
L 696.055471 111.51 
Q 696.055471 109.458 694.06965 109.458 
L 637.804704 109.458 
Q 635.818882 109.458 635.818882 111.51 
L 635.818882 149.13 
Q 635.818882 151.182 637.804704 151.182 
z
" clip-path="url(#p0670111a84)" style="fill: #6a1b9a; fill-opacity: 0.2; stroke: #6a1b9a; stroke-width: 1.8; stroke-linejoin: miter"/>
   </g>
   <g id="patch_13">
    <path d="M 697.379352 151.182 
L 753.644298 151.182 
Q 755.63012 151.182 755.63012 149.13 
L 755.63012 111.51 
Q 755.63012 109.458 753.644298 109.458 
L 697.379352 109.458 
Q 695.393531 109.458 695.393531 111.51 
L 695.393531 149.13 
Q 695.393531 151.182 697.379352 151.182 
z
" clip-path="url(#p0670111a84)" style="fill: #6a1b9a; fill-opacity: 0.2; stroke: #6a1b9a; stroke-width: 1.8; stroke-linejoin: miter"/>
   </g>
   <g id="patch_14">
    <path d="M 756.954001 151.182 
L 813.218947 151.182 
Q 815.204769 151.182 815.204769 149.13 
L 815.204769 111.51 
Q 815.204769 109.458 813.218947 109.458 
L 756.954001 109.458 
Q 754.968179 109.458 754.968179 111.51 
L 754.968179 149.13 
Q 754.968179 151.182 756.954001 151.182 
z
" clip-path="url(#p0670111a84)" style="fill: #c62828; fill-opacity: 0.2; stroke: #c62828; stroke-width: 1.8; stroke-linejoin: miter"/>
   </g>
   <g id="patch_15">
    <path d="M 816.52865 151.182 
L 872.793596 151.182 
Q 874.779417 151.182 874.779417 149.13 
L 874.779417 111.51 
Q 874.779417 109.458 872.793596 109.458 
L 816.52865 109.458 
Q 814.542828 109.458 814.542828 111.51 
L 814.542828 149.13 
Q 814.542828 151.182 816.52865 151.182 
z
" clip-path="url(#p0670111a84)" style="fill: #c62828; fill-opacity: 0.2; stroke: #c62828; stroke-width: 1.8; stroke-linejoin: miter"/>
   </g>
   <g id="patch_16">
    <path d="M 876.103298 151.182 
L 932.368244 151.182 
Q 934.354066 151.182 934.354066 149.13 
L 934.354066 111.51 
Q 934.354066 109.458 932.368244 109.458 
L 876.103298 109.458 
Q 874.117477 109.458 874.117477 111.51 
L 874.117477 149.13 
Q 874.117477 151.182 876.103298 151.182 
z
" clip-path="url(#p0670111a84)" style="fill: #c62828; fill-opacity: 0.2; stroke: #c62828; stroke-width: 1.8; stroke-linejoin: miter"/>
   </g>
   <g id="patch_17">
    <path d="M 935.677947 151.182 
L 991.942893 151.182 
Q 993.928715 151.182 993.928715 149.13 
L 993.928715 111.51 
Q 993.928715 109.458 991.942893 109.458 
L 935.677947 109.458 
Q 933.692126 109.458 933.692126 111.51 
L 933.692126 149.13 
Q 933.692126 151.182 935.677947 151.182 
z
" clip-path="url(#p0670111a84)" style="fill: #c62828; fill-opacity: 0.2; stroke: #c62828; stroke-width: 1.8; stroke-linejoin: miter"/>
   </g>
   <g id="patch_18">
    <path d="M 42.058216 246.942 
L 98.323162 246.942 
Q 100.308984 246.942 100.308984 244.89 
L 100.308984 207.27 
Q 100.308984 205.218 98.323162 205.218 
L 42.058216 205.218 
Q 40.072395 205.218 40.072395 207.27 
L 40.072395 244.89 
Q 40.072395 246.942 42.058216 246.942 
z
" clip-path="url(#p0670111a84)" style="fill: #e65100; fill-opacity: 0.2; stroke: #e65100; stroke-width: 1.8; stroke-linejoin: miter"/>
   </g>
   <g id="patch_19">
    <path d="M 101.632865 246.942 
L 157.897811 246.942 
Q 159.883633 246.942 159.883633 244.89 
L 159.883633 207.27 
Q 159.883633 205.218 157.897811 205.218 
L 101.632865 205.218 
Q 99.647043 205.218 99.647043 207.27 
L 99.647043 244.89 
Q 99.647043 246.942 101.632865 246.942 
z
" clip-path="url(#p0670111a84)" style="fill: #e65100; fill-opacity: 0.2; stroke: #e65100; stroke-width: 1.8; stroke-linejoin: miter"/>
   </g>
   <g id="patch_20">
    <path d="M 161.207514 246.942 
L 217.47246 246.942 
Q 219.458281 246.942 219.458281 244.89 
L 219.458281 207.27 
Q 219.458281 205.218 217.47246 205.218 
L 161.207514 205.218 
Q 159.221692 205.218 159.221692 207.27 
L 159.221692 244.89 
Q 159.221692 246.942 161.207514 246.942 
z
" clip-path="url(#p0670111a84)" style="fill: #e65100; fill-opacity: 0.2; stroke: #e65100; stroke-width: 1.8; stroke-linejoin: miter"/>
   </g>
   <g id="patch_21">
    <path d="M 220.782162 246.942 
L 277.047108 246.942 
Q 279.03293 246.942 279.03293 244.89 
L 279.03293 207.27 
Q 279.03293 205.218 277.047108 205.218 
L 220.782162 205.218 
Q 218.796341 205.218 218.796341 207.27 
L 218.796341 244.89 
Q 218.796341 246.942 220.782162 246.942 
z
" clip-path="url(#p0670111a84)" style="fill: #e65100; fill-opacity: 0.2; stroke: #e65100; stroke-width: 1.8; stroke-linejoin: miter"/>
   </g>
   <g id="patch_22">
    <path d="M 280.356811 246.942 
L 336.621757 246.942 
Q 338.607579 246.942 338.607579 244.89 
L 338.607579 207.27 
Q 338.607579 205.218 336.621757 205.218 
L 280.356811 205.218 
Q 278.37099 205.218 278.37099 207.27 
L 278.37099 244.89 
Q 278.37099 246.942 280.356811 246.942 
z
" clip-path="url(#p0670111a84)" style="fill: #00838f; fill-opacity: 0.2; stroke: #00838f; stroke-width: 1.8; stroke-linejoin: miter"/>
   </g>
   <g id="patch_23">
    <path d="M 339.93146 246.942 
L 396.196406 246.942 
Q 398.182228 246.942 398.182228 244.89 
L 398.182228 207.27 
Q 398.182228 205.218 396.196406 205.218 
L 339.93146 205.218 
Q 337.945638 205.218 337.945638 207.27 
L 337.945638 244.89 
Q 337.945638 246.942 339.93146 246.942 
z
" clip-path="url(#p0670111a84)" style="fill: #00838f; fill-opacity: 0.2; stroke: #00838f; stroke-width: 1.8; stroke-linejoin: miter"/>
   </g>
   <g id="patch_24">
    <path d="M 399.506109 246.942 
L 455.771055 246.942 
Q 457.756876 246.942 457.756876 244.89 
L 457.756876 207.27 
Q 457.756876 205.218 455.771055 205.218 
L 399.506109 205.218 
Q 397.520287 205.218 397.520287 207.27 
L 397.520287 244.89 
Q 397.520287 246.942 399.506109 246.942 
z
" clip-path="url(#p0670111a84)" style="fill: #00838f; fill-opacity: 0.2; stroke: #00838f; stroke-width: 1.8; stroke-linejoin: miter"/>
   </g>
   <g id="patch_25">
    <path d="M 459.080757 246.942 
L 515.345703 246.942 
Q 517.331525 246.942 517.331525 244.89 
L 517.331525 207.27 
Q 517.331525 205.218 515.345703 205.218 
L 459.080757 205.218 
Q 457.094936 205.218 457.094936 207.27 
L 457.094936 244.89 
Q 457.094936 246.942 459.080757 246.942 
z
" clip-path="url(#p0670111a84)" style="fill: #00838f; fill-opacity: 0.2; stroke: #00838f; stroke-width: 1.8; stroke-linejoin: miter"/>
   </g>
   <g id="patch_26">
    <path d="M 518.655406 246.942 
L 574.920352 246.942 
Q 576.906174 246.942 576.906174 244.89 
L 576.906174 207.27 
Q 576.906174 205.218 574.920352 205.218 
L 518.655406 205.218 
Q 516.669584 205.218 516.669584 207.27 
L 516.669584 244.89 
Q 516.669584 246.942 518.655406 246.942 
z
" clip-path="url(#p0670111a84)" style="fill: #4527a0; fill-opacity: 0.2; stroke: #4527a0; stroke-width: 1.8; stroke-linejoin: miter"/>
   </g>
   <g id="patch_27">
    <path d="M 578.230055 246.942 
L 634.495001 246.942 
Q 636.480822 246.942 636.480822 244.89 
L 636.480822 207.27 
Q 636.480822 205.218 634.495001 205.218 
L 578.230055 205.218 
Q 576.244233 205.218 576.244233 207.27 
L 576.244233 244.89 
Q 576.244233 246.942 578.230055 246.942 
z
" clip-path="url(#p0670111a84)" style="fill: #4527a0; fill-opacity: 0.2; stroke: #4527a0; stroke-width: 1.8; stroke-linejoin: miter"/>
   </g>
   <g id="patch_28">
    <path d="M 637.804704 246.942 
L 694.06965 246.942 
Q 696.055471 246.942 696.055471 244.89 
L 696.055471 207.27 
Q 696.055471 205.218 694.06965 205.218 
L 637.804704 205.218 
Q 635.818882 205.218 635.818882 207.27 
L 635.818882 244.89 
Q 635.818882 246.942 637.804704 246.942 
z
" clip-path="url(#p0670111a84)" style="fill: #4527a0; fill-opacity: 0.2; stroke: #4527a0; stroke-width: 1.8; stroke-linejoin: miter"/>
   </g>
   <g id="patch_29">
    <path d="M 697.379352 246.942 
L 753.644298 246.942 
Q 755.63012 246.942 755.63012 244.89 
L 755.63012 207.27 
Q 755.63012 205.218 753.644298 205.218 
L 697.379352 205.218 
Q 695.393531 205.218 695.393531 207.27 
L 695.393531 244.89 
Q 695.393531 246.942 697.379352 246.942 
z
" clip-path="url(#p0670111a84)" style="fill: #4527a0; fill-opacity: 0.2; stroke: #4527a0; stroke-width: 1.8; stroke-linejoin: miter"/>
   </g>
   <g id="patch_30">
    <path d="M 756.954001 246.942 
L 813.218947 246.942 
Q 815.204769 246.942 815.204769 244.89 
L 815.204769 207.27 
Q 815.204769 205.218 813.218947 205.218 
L 756.954001 205.218 
Q 754.968179 205.218 754.968179 207.27 
L 754.968179 244.89 
Q 754.968179 246.942 756.954001 246.942 
z
" clip-path="url(#p0670111a84)" style="fill: #ad1457; fill-opacity: 0.2; stroke: #ad1457; stroke-width: 1.8; stroke-linejoin: miter"/>
   </g>
   <g id="patch_31">
    <path d="M 816.52865 246.942 
L 872.793596 246.942 
Q 874.779417 246.942 874.779417 244.89 
L 874.779417 207.27 
Q 874.779417 205.218 872.793596 205.218 
L 816.52865 205.218 
Q 814.542828 205.218 814.542828 207.27 
L 814.542828 244.89 
Q 814.542828 246.942 816.52865 246.942 
z
" clip-path="url(#p0670111a84)" style="fill: #ad1457; fill-opacity: 0.2; stroke: #ad1457; stroke-width: 1.8; stroke-linejoin: miter"/>
   </g>
   <g id="patch_32">
    <path d="M 876.103298 246.942 
L 932.368244 246.942 
Q 934.354066 246.942 934.354066 244.89 
L 934.354066 207.27 
Q 934.354066 205.218 932.368244 205.218 
L 876.103298 205.218 
Q 874.117477 205.218 874.117477 207.27 
L 874.117477 244.89 
Q 874.117477 246.942 876.103298 246.942 
z
" clip-path="url(#p0670111a84)" style="fill: #ad1457; fill-opacity: 0.2; stroke: #ad1457; stroke-width: 1.8; stroke-linejoin: miter"/>
   </g>
   <g id="patch_33">
    <path d="M 935.677947 246.942 
L 991.942893 246.942 
Q 993.928715 246.942 993.928715 244.89 
L 993.928715 207.27 
Q 993.928715 205.218 991.942893 205.218 
L 935.677947 205.218 
Q 933.692126 205.218 933.692126 207.27 
L 933.692126 244.89 
Q 933.692126 246.942 935.677947 246.942 
z
" clip-path="url(#p0670111a84)" style="fill: #ad1457; fill-opacity: 0.2; stroke: #ad1457; stroke-width: 1.8; stroke-linejoin: miter"/>
   </g>
   <g id="patch_34">
    <path d="M 118.181379 337.572 
L 190.994838 337.572 
Q 194.304541 337.572 194.304541 334.152 
L 194.304541 295.848 
Q 194.304541 292.428 190.994838 292.428 
L 118.181379 292.428 
Q 114.871676 292.428 114.871676 295.848 
L 114.871676 334.152 
Q 114.871676 337.572 118.181379 337.572 
z
" clip-path="url(#p0670111a84)" style="fill: #fff9c4; stroke: #f9a825; stroke-width: 2; stroke-linejoin: miter"/>
   </g>
   <g id="patch_35">
    <path d="M 356.479973 337.572 
L 429.293433 337.572 
Q 432.603136 337.572 432.603136 334.152 
L 432.603136 295.848 
Q 432.603136 292.428 429.293433 292.428 
L 356.479973 292.428 
Q 353.170271 292.428 353.170271 295.848 
L 353.170271 334.152 
Q 353.170271 337.572 356.479973 337.572 
z
" clip-path="url(#p0670111a84)" style="fill: #fff9c4; stroke: #f9a825; stroke-width: 2; stroke-linejoin: miter"/>
   </g>
   <g id="patch_36">
    <path d="M 594.778568 337.572 
L 667.592028 337.572 
Q 670.901731 337.572 670.901731 334.152 
L 670.901731 295.848 
Q 670.901731 292.428 667.592028 292.428 
L 594.778568 292.428 
Q 591.468866 292.428 591.468866 295.848 
L 591.468866 334.152 
Q 591.468866 337.572 594.778568 337.572 
z
" clip-path="url(#p0670111a84)" style="fill: #fff9c4; stroke: #f9a825; stroke-width: 2; stroke-linejoin: miter"/>
   </g>
   <g id="patch_37">
    <path d="M 833.077163 337.572 
L 905.890623 337.572 
Q 909.200326 337.572 909.200326 334.152 
L 909.200326 295.848 
Q 909.200326 292.428 905.890623 292.428 
L 833.077163 292.428 
Q 829.767461 292.428 829.767461 295.848 
L 829.767461 334.152 
Q 829.767461 337.572 833.077163 337.572 
z
" clip-path="url(#p0670111a84)" style="fill: #fff9c4; stroke: #f9a825; stroke-width: 2; stroke-linejoin: miter"/>
   </g>
   <g id="line2d_1">
    <path d="M 42.058216 104.328 
L 42.058216 97.488 
L 277.047108 97.488 
L 277.047108 104.328 
" clip-path="url(#p0670111a84)" style="fill: none; stroke: #1565c0; stroke-width: 1.5; stroke-linecap: square"/>
   </g>
   <g id="line2d_2">
    <path d="M 280.356811 104.328 
L 280.356811 97.488 
L 515.345703 97.488 
L 515.345703 104.328 
" clip-path="url(#p0670111a84)" style="fill: none; stroke: #2e7d32; stroke-width: 1.5; stroke-linecap: square"/>
   </g>
   <g id="line2d_3">
    <path d="M 518.655406 104.328 
L 518.655406 97.488 
L 753.644298 97.488 
L 753.644298 104.328 
" clip-path="url(#p0670111a84)" style="fill: none; stroke: #6a1b9a; stroke-width: 1.5; stroke-linecap: square"/>
   </g>
   <g id="line2d_4">
    <path d="M 756.954001 104.328 
L 756.954001 97.488 
L 991.942893 97.488 
L 991.942893 104.328 
" clip-path="url(#p0670111a84)" style="fill: none; stroke: #c62828; stroke-width: 1.5; stroke-linecap: square"/>
   </g>
   <g id="line2d_5">
    <path d="M 42.058216 252.072 
L 42.058216 258.912 
L 277.047108 258.912 
L 277.047108 252.072 
" clip-path="url(#p0670111a84)" style="fill: none; stroke: #e65100; stroke-width: 1.5; stroke-linecap: square"/>
   </g>
   <g id="line2d_6">
    <path d="M 280.356811 252.072 
L 280.356811 258.912 
L 515.345703 258.912 
L 515.345703 252.072 
" clip-path="url(#p0670111a84)" style="fill: none; stroke: #00838f; stroke-width: 1.5; stroke-linecap: square"/>
   </g>
   <g id="line2d_7">
    <path d="M 518.655406 252.072 
L 518.655406 258.912 
L 753.644298 258.912 
L 753.644298 252.072 
" clip-path="url(#p0670111a84)" style="fill: none; stroke: #4527a0; stroke-width: 1.5; stroke-linecap: square"/>
   </g>
   <g id="line2d_8">
    <path d="M 756.954001 252.072 
L 756.954001 258.912 
L 991.942893 258.912 
L 991.942893 252.072 
" clip-path="url(#p0670111a84)" style="fill: none; stroke: #ad1457; stroke-width: 1.5; stroke-linecap: square"/>
   </g>
   <g id="text_1">
    <!-- CSA 步骤二：KV 软融合（Soft-Merge）与边界 Overlap -->
    <g style="fill: #1a1a2e" transform="translate(381.380181 32.902031) scale(0.15 -0.15)">
     <defs>
      <path id="STHeiti-43" d="M 4838 4128 
L 4480 3853 
Q 3840 4646 2835 4646 
Q 2016 4646 1424 4070 
Q 832 3494 832 2659 
Q 832 1824 1411 1264 
Q 1990 704 2861 704 
Q 3834 704 4480 1459 
L 4838 1184 
Q 4499 736 3980 502 
Q 3462 269 2835 269 
Q 1741 269 1043 960 
Q 346 1651 346 2707 
Q 346 3360 669 3913 
Q 992 4467 1565 4780 
Q 2138 5094 2797 5094 
Q 3456 5094 3981 4844 
Q 4506 4595 4838 4128 
z
" transform="scale(0.015625)"/>
      <path id="STHeiti-53" d="M 83 1242 
L 474 1472 
Q 883 717 1427 717 
Q 1779 717 2028 941 
Q 2278 1165 2278 1498 
Q 2278 1760 2067 2029 
Q 1856 2298 1366 2666 
Q 877 3034 707 3216 
Q 538 3398 458 3606 
Q 378 3814 378 4026 
Q 378 4474 694 4784 
Q 1011 5094 1491 5094 
Q 1869 5094 2150 4905 
Q 2432 4717 2694 4346 
L 2323 4058 
Q 2144 4301 1952 4461 
Q 1760 4621 1481 4621 
Q 1203 4621 1027 4454 
Q 851 4288 851 4032 
Q 851 3776 1008 3587 
Q 1165 3398 1718 2988 
Q 2272 2579 2525 2233 
Q 2778 1888 2778 1504 
Q 2778 1005 2390 637 
Q 2003 269 1491 269 
Q 589 269 83 1242 
z
" transform="scale(0.015625)"/>
      <path id="STHeiti-41" d="M 2438 5165 
L 4582 384 
L 4090 384 
L 3366 1952 
L 1382 1952 
L 666 384 
L 154 384 
L 2323 5165 
L 2438 5165 
z
M 2381 4147 
L 1594 2419 
L 3162 2419 
L 2381 4147 
z
" transform="scale(0.015625)"/>
      <path id="STHeiti-20" transform="scale(0.015625)"/>
      <path id="STHeiti-6b65" d="M 3526 4461 
Q 5056 4461 5478 4499 
L 5478 3974 
Q 5056 4013 3526 4013 
L 3526 3098 
Q 5062 3098 6035 3155 
L 6035 2605 
Q 4915 2669 3257 2669 
Q 1600 2669 467 2605 
L 467 3162 
Q 947 3104 1555 3098 
L 1555 4006 
Q 1555 4365 1510 4717 
Q 1696 4678 2170 4678 
Q 2221 4678 2221 4652 
Q 2221 4627 2147 4579 
Q 2074 4531 2074 4403 
L 2074 3098 
L 3008 3098 
L 3008 4570 
Q 3008 4979 2963 5274 
Q 3277 5235 3584 5235 
Q 3667 5235 3667 5203 
Q 3667 5171 3622 5146 
Q 3526 5101 3526 4966 
L 3526 4461 
z
M 2976 262 
L 2976 1683 
Q 2976 2163 2931 2406 
Q 3213 2381 3571 2381 
Q 3674 2381 3674 2345 
Q 3674 2310 3610 2265 
Q 3546 2221 3520 2169 
Q 3494 2118 3494 2029 
L 3494 531 
Q 4365 1114 4960 2285 
Q 5088 2170 5245 2070 
Q 5402 1971 5494 1939 
Q 5587 1907 5587 1875 
Q 5587 1843 5500 1814 
Q 5414 1786 4717 915 
Q 4192 275 3225 -128 
Q 2259 -531 902 -659 
Q 870 -358 666 -83 
Q 1286 -83 1907 9 
Q 2528 102 2976 262 
z
M 1741 2170 
Q 2022 1978 2298 1933 
Q 2381 1914 2381 1888 
Q 2381 1862 2323 1837 
Q 2176 1773 1274 621 
Q 1056 838 755 960 
Q 1037 1133 1312 1472 
Q 1587 1811 1741 2170 
z
" transform="scale(0.015625)"/>
      <path id="STHeiti-9aa4" d="M 2534 4576 
L 2323 4544 
L 2323 4966 
Q 2579 4928 3286 4928 
Q 3994 4928 4211 4966 
L 4211 4544 
Q 4058 4570 3994 4576 
L 3994 2970 
L 4186 3021 
Q 4160 2918 4160 2841 
Q 4160 2765 4166 2694 
L 4000 2662 
Q 4013 2419 4032 2298 
L 3578 2298 
L 3603 2579 
Q 2899 2445 2413 2304 
Q 2406 2502 2291 2726 
L 2534 2733 
L 2534 4576 
z
M 3610 4589 
L 2912 4589 
L 2912 4186 
L 3610 4186 
L 3610 4589 
z
M 3610 3514 
L 3610 3878 
L 2912 3878 
L 2912 3514 
L 3610 3514 
z
M 3610 2880 
L 3610 3206 
L 2912 3206 
L 2912 2765 
L 3610 2880 
z
M 1926 2227 
Q 2170 2240 2355 2272 
Q 2253 685 2249 374 
Q 2246 64 2172 -131 
Q 2099 -326 1910 -416 
Q 1722 -506 1338 -531 
Q 1306 -230 1094 -19 
Q 1293 -38 1437 -38 
Q 1581 -38 1661 13 
Q 1741 64 1779 198 
Q 1818 333 1850 771 
Q 1882 1210 1888 1856 
Q 1030 1856 672 1811 
Q 723 2202 723 3046 
Q 723 3891 710 4083 
Q 845 4051 1018 4051 
L 1210 4058 
Q 1280 4058 1280 4032 
Q 1280 4006 1235 3955 
Q 1107 3827 1107 2227 
L 1523 2227 
L 1645 4442 
Q 915 4442 486 4397 
L 486 4877 
Q 864 4826 1264 4826 
Q 1664 4826 2125 4877 
Q 2080 4563 2048 4102 
L 1926 2227 
z
M 5082 3130 
Q 4832 2797 4531 2541 
Q 4467 2714 4243 2867 
Q 4557 3091 4768 3379 
Q 4518 3565 4224 3750 
L 4474 4026 
Q 4915 3738 4966 3693 
Q 5101 3955 5222 4326 
Q 4531 4326 4333 4282 
L 4333 4755 
Q 4595 4710 5068 4710 
Q 5542 4710 5786 4755 
Q 5555 3942 5286 3469 
L 5933 2982 
L 5626 2611 
Q 5357 2899 5082 3130 
z
M 3853 1824 
Q 3296 1766 2867 1734 
Q 2880 1946 2752 2125 
Q 4038 2093 5222 2496 
Q 5306 2208 5446 2093 
Q 5517 2035 5517 1993 
Q 5517 1952 5449 1968 
Q 5382 1984 5280 1984 
Q 5030 1984 4282 1875 
L 4282 1587 
Q 4410 1357 4595 1165 
Q 5101 1510 5376 1805 
Q 5510 1594 5690 1453 
Q 5728 1421 5728 1389 
Q 5728 1357 5658 1344 
Q 5453 1299 4845 928 
Q 5510 384 6170 262 
Q 5850 58 5702 -256 
Q 4768 288 4282 1152 
L 4282 198 
Q 4282 -230 4314 -538 
L 3808 -538 
Q 3853 -109 3853 198 
L 3853 627 
Q 3712 608 3475 333 
Q 3206 45 2650 -352 
Q 2515 -141 2291 -6 
Q 3053 339 3514 941 
Q 3635 781 3853 678 
L 3853 1824 
z
M 3245 1683 
Q 3322 1568 3539 1427 
Q 3603 1389 3603 1360 
Q 3603 1331 3520 1321 
Q 3437 1312 3334 1184 
Q 3232 1056 3043 902 
Q 2854 749 2707 666 
Q 2592 858 2426 954 
Q 2918 1184 3245 1683 
z
M 1632 883 
Q 883 698 422 461 
Q 410 755 282 1037 
Q 832 1043 1613 1306 
Q 1600 1229 1600 1123 
Q 1600 1018 1632 883 
z
" transform="scale(0.015625)"/>
      <path id="STHeiti-4e8c" d="M 5338 3802 
Q 4646 3846 3257 3846 
Q 1869 3846 1178 3802 
L 1178 4410 
Q 1869 4365 3257 4365 
Q 4646 4365 5338 4410 
L 5338 3802 
z
M 5958 166 
Q 5050 230 3270 230 
Q 1491 230 582 166 
L 582 819 
Q 1498 755 3274 755 
Q 5050 755 5958 819 
L 5958 166 
z
" transform="scale(0.015625)"/>
      <path id="STHeiti-ff1a" d="M 1926 3008 
L 1261 3008 
L 1261 3686 
L 1926 3686 
L 1926 3008 
z
M 1926 384 
L 1261 384 
L 1261 1062 
L 1926 1062 
L 1926 384 
z
" transform="scale(0.015625)"/>
      <path id="STHeiti-4b" d="M 557 4979 
L 1030 4979 
L 1030 3258 
L 2861 4979 
L 3482 4979 
L 1274 2918 
L 3654 384 
L 3046 384 
L 1030 2528 
L 1030 384 
L 557 384 
L 557 4979 
z
" transform="scale(0.015625)"/>
      <path id="STHeiti-56" d="M 211 4979 
L 710 4979 
L 2234 1312 
L 3782 4979 
L 4282 4979 
L 2278 269 
L 2182 269 
L 211 4979 
z
" transform="scale(0.015625)"/>
      <path id="STHeiti-8f6f" d="M 1766 2035 
Q 998 2022 608 1939 
Q 582 2195 442 2464 
Q 621 2528 755 2829 
Q 890 3130 1165 3930 
Q 762 3923 544 3891 
L 544 4448 
Q 819 4416 1325 4410 
Q 1478 4896 1517 5274 
Q 1933 5152 2182 5133 
Q 2253 5126 2253 5104 
Q 2253 5082 2192 5043 
Q 2131 5005 2064 4873 
Q 1997 4742 1862 4403 
Q 2733 4403 3123 4448 
L 3123 3891 
Q 2694 3942 1683 3936 
L 1126 2477 
L 1766 2477 
Q 1766 3302 1741 3526 
Q 2016 3482 2310 3482 
Q 2381 3482 2381 3453 
Q 2381 3424 2317 3395 
Q 2253 3366 2253 3226 
L 2253 2477 
Q 2963 2477 3213 2528 
L 3213 2010 
Q 3002 2035 2253 2035 
L 2253 1274 
Q 2963 1382 3238 1472 
Q 3162 1165 3168 915 
Q 2842 902 2253 806 
Q 2246 -6 2298 -557 
L 1715 -557 
Q 1766 -211 1766 717 
Q 1050 576 646 429 
Q 570 774 442 1062 
Q 787 1082 1766 1203 
L 1766 2035 
z
M 4083 4160 
L 5190 4160 
Q 5613 4160 6022 4211 
L 5651 2835 
L 5094 2925 
L 5344 3693 
L 3904 3693 
Q 3725 3251 3462 2797 
Q 3155 2918 2944 2970 
Q 3584 3891 3814 5261 
Q 4198 5133 4474 5107 
Q 4576 5101 4576 5065 
Q 4576 5030 4486 4960 
Q 4352 4851 4083 4160 
z
M 4083 3194 
Q 4410 3123 4710 3123 
Q 4794 3123 4794 3088 
Q 4794 3053 4723 2982 
Q 4614 2874 4614 2554 
Q 4614 1741 5036 1049 
Q 5459 358 6157 134 
Q 5907 -90 5754 -506 
Q 5152 -96 4851 429 
Q 4550 954 4448 1702 
Q 4301 909 4000 406 
Q 3699 -96 3110 -538 
Q 2925 -307 2611 -179 
Q 3334 314 3600 704 
Q 3866 1094 3981 1836 
Q 4096 2579 4083 3194 
z
" transform="scale(0.015625)"/>
      <path id="STHeiti-878d" d="M 4870 3942 
Q 5638 3955 5914 3994 
Q 5869 3725 5869 3386 
L 5869 2374 
Q 5869 1984 5914 1619 
Q 5600 1690 4870 1696 
L 4870 307 
L 5472 416 
Q 5350 845 5267 1088 
L 5658 1216 
Q 5907 640 6144 -243 
L 5664 -422 
Q 5626 -186 5568 51 
L 4326 -224 
Q 3814 -333 3507 -499 
Q 3456 -192 3341 147 
Q 3661 122 4448 230 
L 4448 1696 
L 3955 1696 
L 3955 1286 
L 3475 1286 
Q 3520 1626 3520 1946 
L 3520 3386 
Q 3520 3782 3482 3994 
Q 3821 3955 4448 3942 
Q 4448 5062 4410 5158 
Q 4730 5088 4973 5088 
Q 5075 5088 5075 5024 
Q 5075 4979 5017 4956 
Q 4960 4934 4915 4819 
Q 4870 4704 4870 4582 
L 4870 3942 
z
M 4448 2125 
L 4448 3526 
L 3955 3526 
L 3955 2125 
L 4448 2125 
z
M 4870 3526 
L 4870 2125 
L 5395 2125 
L 5395 3526 
L 4870 3526 
z
M 3264 4339 
Q 2790 4378 1952 4378 
Q 1114 4378 646 4320 
L 646 4877 
Q 1101 4813 1920 4813 
Q 2739 4813 3264 4877 
L 3264 4339 
z
M 877 3994 
Q 1318 3936 1942 3936 
Q 2566 3936 3002 3994 
Q 2963 3731 2963 3350 
Q 2963 2970 3002 2611 
Q 2643 2669 1923 2669 
Q 1203 2669 877 2618 
Q 922 2880 922 3302 
Q 922 3725 877 3994 
z
M 1357 3597 
L 1357 3059 
L 2541 3059 
L 2541 3597 
L 1357 3597 
z
M 646 1798 
Q 646 2138 595 2330 
Q 1114 2272 1891 2272 
Q 2669 2272 3206 2336 
Q 3162 2138 3162 1805 
L 3162 160 
Q 3162 -122 2973 -262 
Q 2784 -403 2400 -435 
Q 2381 -141 2278 51 
Q 2419 38 2531 38 
Q 2643 38 2681 86 
Q 2720 134 2720 269 
L 2720 1894 
L 1069 1894 
L 1069 -499 
L 589 -499 
Q 646 -128 646 237 
L 646 1798 
z
M 1907 986 
Q 2029 1318 2086 1760 
Q 2336 1664 2528 1638 
Q 2560 1632 2560 1613 
Q 2560 1594 2499 1552 
Q 2438 1510 2214 992 
Q 2374 998 2528 1024 
L 2528 595 
Q 2298 634 2010 640 
L 2010 147 
Q 2010 -19 2022 -154 
L 1645 -154 
Q 1664 -26 1664 147 
L 1664 640 
Q 1382 634 1254 602 
L 1254 1024 
Q 1510 979 1907 986 
z
M 1619 1664 
Q 1741 1331 1786 1222 
L 1440 1120 
Q 1382 1363 1293 1594 
L 1619 1664 
z
" transform="scale(0.015625)"/>
      <path id="STHeiti-5408" d="M 3174 4582 
Q 2298 3482 774 2362 
Q 634 2573 288 2784 
Q 755 2982 1408 3497 
Q 2061 4013 2473 4544 
Q 2886 5075 2906 5267 
Q 3392 5094 3565 5075 
Q 3642 5062 3642 5024 
Q 3642 4986 3578 4966 
Q 3514 4947 3456 4902 
Q 3872 4250 4649 3763 
Q 5427 3277 6157 3168 
Q 5894 2899 5773 2560 
Q 3923 3373 3174 4582 
z
M 4640 2566 
Q 4262 2611 3203 2611 
Q 2144 2611 1766 2566 
L 1766 3110 
Q 2266 3066 3267 3066 
Q 4269 3066 4640 3110 
L 4640 2566 
z
M 4576 -19 
L 1869 -19 
L 1869 -595 
L 1261 -595 
Q 1318 -166 1318 205 
L 1318 1414 
Q 1318 1754 1293 1926 
Q 1568 1901 3225 1901 
Q 4883 1901 5152 1926 
Q 5126 1792 5126 1434 
L 5126 224 
Q 5126 -173 5184 -576 
L 4576 -576 
L 4576 -19 
z
M 1869 422 
L 4576 422 
L 4576 1440 
L 1869 1440 
L 1869 422 
z
" transform="scale(0.015625)"/>
      <path id="STHeiti-ff08" d="M 5651 -749 
L 5274 -749 
Q 4646 173 4409 835 
Q 4173 1498 4173 2266 
Q 4173 3034 4432 3750 
Q 4691 4467 5254 5267 
L 5645 5267 
Q 5082 4237 4928 3606 
Q 4774 2976 4774 2093 
Q 4774 1472 4953 861 
Q 5133 250 5651 -749 
z
" transform="scale(0.015625)"/>
      <path id="STHeiti-6f" d="M 326 2061 
Q 326 2810 841 3341 
Q 1357 3872 2096 3872 
Q 2835 3872 3350 3341 
Q 3866 2810 3866 2067 
Q 3866 1325 3357 797 
Q 2848 269 2099 269 
Q 1350 269 838 797 
Q 326 1325 326 2061 
z
M 3424 2054 
Q 3424 2618 3030 3030 
Q 2637 3443 2096 3443 
Q 1555 3443 1164 3030 
Q 774 2618 774 2048 
Q 774 1478 1152 1081 
Q 1530 685 2090 685 
Q 2650 685 3037 1085 
Q 3424 1485 3424 2054 
z
" transform="scale(0.015625)"/>
      <path id="STHeiti-66" d="M 1888 5005 
L 1888 4576 
Q 1638 4685 1443 4685 
Q 1248 4685 1190 4560 
Q 1133 4435 1133 4154 
L 1133 3782 
L 1843 3782 
L 1843 3411 
L 1133 3411 
L 1133 384 
L 691 384 
L 691 3411 
L 250 3411 
L 250 3782 
L 691 3782 
L 691 4224 
Q 691 4672 857 4883 
Q 1024 5094 1376 5094 
Q 1581 5094 1888 5005 
z
" transform="scale(0.015625)"/>
      <path id="STHeiti-74" d="M 1312 922 
Q 1312 749 1357 717 
Q 1402 685 1587 685 
L 1850 685 
L 1850 314 
Q 1581 269 1427 269 
Q 1139 269 1004 409 
Q 870 550 870 851 
L 870 3411 
L 269 3411 
L 269 3782 
L 870 3782 
L 870 5094 
L 1312 5094 
L 1312 3782 
L 2003 3782 
L 2003 3411 
L 1312 3411 
L 1312 922 
z
" transform="scale(0.015625)"/>
      <path id="STHeiti-2d" d="M 205 2304 
L 1920 2304 
L 1920 1920 
L 205 1920 
L 205 2304 
z
" transform="scale(0.015625)"/>
      <path id="STHeiti-4d" d="M 352 384 
L 1005 4979 
L 1075 4979 
L 2944 1210 
L 4800 4979 
L 4870 4979 
L 5530 384 
L 5075 384 
L 4627 3674 
L 3002 384 
L 2886 384 
L 1242 3699 
L 794 384 
L 352 384 
z
" transform="scale(0.015625)"/>
      <path id="STHeiti-65" d="M 3347 1485 
L 3718 1293 
Q 3168 269 2093 269 
Q 1325 269 825 797 
Q 326 1325 326 2067 
Q 326 2810 828 3341 
Q 1331 3872 2070 3872 
Q 2810 3872 3312 3379 
Q 3814 2886 3834 2035 
L 774 2035 
Q 794 1421 1162 1046 
Q 1530 672 2054 672 
Q 2918 672 3347 1485 
z
M 3347 2413 
Q 3258 2899 2899 3174 
Q 2541 3450 2074 3450 
Q 1114 3450 819 2413 
L 3347 2413 
z
" transform="scale(0.015625)"/>
      <path id="STHeiti-72" d="M 320 3782 
L 768 3782 
L 768 3290 
Q 947 3590 1116 3731 
Q 1286 3872 1494 3872 
Q 1702 3872 1914 3757 
L 1683 3386 
Q 1587 3443 1485 3443 
Q 1286 3443 1110 3238 
Q 934 3034 851 2710 
Q 768 2387 768 1536 
L 768 384 
L 320 384 
L 320 3782 
z
" transform="scale(0.015625)"/>
      <path id="STHeiti-67" d="M 3462 3782 
L 3904 3782 
L 3904 1158 
Q 3904 461 3782 134 
Q 3661 -192 3430 -409 
Q 3200 -627 2873 -742 
Q 2547 -858 2157 -858 
Q 826 -858 403 205 
L 877 205 
Q 1248 -461 2138 -461 
Q 2566 -461 2883 -294 
Q 3200 -128 3331 131 
Q 3462 390 3462 941 
L 3462 1088 
Q 3200 762 2841 602 
Q 2483 442 2086 442 
Q 1344 442 851 947 
Q 358 1453 358 2138 
Q 358 2848 883 3360 
Q 1408 3872 2153 3872 
Q 2899 3872 3462 3194 
L 3462 3782 
z
M 3482 2138 
Q 3482 2694 3104 3072 
Q 2726 3450 2170 3450 
Q 1581 3450 1190 3043 
Q 800 2637 800 2112 
Q 800 1587 1177 1219 
Q 1555 851 2144 851 
Q 2733 851 3107 1209 
Q 3482 1568 3482 2138 
z
" transform="scale(0.015625)"/>
      <path id="STHeiti-ff09" d="M 1120 5267 
Q 1747 4346 1984 3683 
Q 2221 3021 2221 2253 
Q 2221 1485 1961 768 
Q 1702 51 1139 -749 
L 749 -749 
Q 1312 282 1465 912 
Q 1619 1542 1619 2426 
Q 1619 3046 1440 3657 
Q 1261 4269 742 5267 
L 1120 5267 
z
" transform="scale(0.015625)"/>
      <path id="STHeiti-4e0e" d="M 2048 3840 
Q 2022 3373 2010 2829 
L 3962 2829 
Q 4973 2829 5504 2906 
Q 5472 2381 5392 1517 
Q 5312 653 5273 384 
Q 5235 115 5161 -61 
Q 5088 -237 4944 -339 
Q 4800 -442 4553 -499 
Q 4307 -557 3853 -608 
Q 3789 -243 3584 45 
Q 3910 13 4058 13 
Q 4403 13 4556 185 
Q 4710 358 4771 812 
Q 4832 1267 4883 2362 
L 3040 2362 
Q 2221 2362 1427 2285 
Q 1517 2989 1517 4314 
Q 1517 4902 1485 5171 
Q 1715 5088 2208 5088 
Q 2266 5088 2266 5056 
Q 2266 5024 2214 4960 
Q 2163 4896 2093 4307 
L 3802 4307 
Q 4973 4307 5683 4371 
L 5683 3776 
Q 4909 3840 3802 3840 
L 2048 3840 
z
M 4269 838 
Q 3475 896 2368 896 
Q 1261 896 608 838 
L 608 1440 
Q 1165 1389 2371 1389 
Q 3578 1389 4269 1459 
L 4269 838 
z
" transform="scale(0.015625)"/>
      <path id="STHeiti-8fb9" d="M 3942 3590 
Q 3872 2554 3603 1878 
Q 3334 1203 2682 550 
Q 2483 762 2131 890 
Q 2765 1363 3065 2003 
Q 3366 2643 3411 3590 
Q 2643 3584 2310 3539 
L 2310 4102 
Q 2726 4070 3424 4064 
Q 3430 4486 3430 4800 
Q 3430 5114 3405 5280 
Q 3686 5216 4070 5210 
Q 4141 5210 4141 5184 
Q 4141 5158 4096 5094 
Q 4051 5030 4028 4851 
Q 4006 4672 3968 4064 
Q 5286 4064 5600 4102 
L 5491 1472 
Q 5478 1158 5388 1001 
Q 5299 845 5052 749 
Q 4806 653 4262 570 
Q 4262 858 3974 1242 
Q 4237 1210 4464 1210 
Q 4691 1210 4816 1302 
Q 4941 1395 4954 1696 
L 5018 3590 
L 3942 3590 
z
M 1901 3802 
L 1306 3558 
Q 1107 4186 800 4730 
L 1331 4979 
Q 1562 4435 1901 3802 
z
M 1171 595 
L 1171 2496 
Q 576 2496 403 2470 
L 403 3021 
Q 627 2989 1091 2989 
Q 1555 2989 1747 3021 
Q 1715 2752 1715 2240 
L 1715 589 
Q 2061 384 2368 262 
Q 2675 141 2934 96 
Q 3194 51 3744 51 
Q 4774 51 6054 301 
Q 5850 -77 5811 -384 
Q 4806 -454 4019 -454 
Q 3232 -454 2697 -355 
Q 2163 -256 1882 -38 
Q 1594 179 1472 179 
Q 1350 179 1232 19 
Q 1114 -141 915 -518 
Q 704 -307 422 -154 
Q 864 416 1171 595 
z
" transform="scale(0.015625)"/>
      <path id="STHeiti-754c" d="M 2784 2259 
Q 2496 1926 2144 1645 
Q 2323 1619 2650 1619 
Q 2739 1619 2739 1596 
Q 2739 1574 2701 1542 
Q 2618 1478 2579 915 
Q 2541 352 2211 -35 
Q 1882 -422 1190 -710 
Q 1030 -371 774 -211 
Q 1670 45 1891 390 
Q 2112 736 2118 1626 
Q 1683 1274 787 851 
Q 634 1120 410 1286 
Q 1414 1600 2253 2259 
Q 1664 2272 1184 2234 
Q 1216 2688 1216 3504 
Q 1216 4320 1184 4928 
Q 1773 4896 3395 4896 
Q 5018 4896 5357 4928 
Q 5325 4326 5325 3497 
Q 5325 2669 5357 2234 
Q 4877 2259 4160 2259 
Q 4742 1658 6086 1536 
Q 5907 1274 5818 890 
Q 5203 1043 4582 1446 
Q 4531 1382 4531 1094 
L 4531 224 
Q 4531 -205 4595 -698 
L 3942 -698 
Q 4000 -218 4000 224 
L 4000 845 
Q 4000 1312 3942 1626 
Q 4173 1587 4371 1581 
Q 3910 1926 3667 2259 
L 2784 2259 
z
M 3002 3795 
L 3002 4467 
L 1728 4467 
L 1728 3795 
L 3002 3795 
z
M 4813 3795 
L 4813 4467 
L 3514 4467 
L 3514 3795 
L 4813 3795 
z
M 3002 2682 
L 3002 3373 
L 1728 3373 
L 1728 2682 
L 3002 2682 
z
M 4813 2682 
L 4813 3373 
L 3514 3373 
L 3514 2682 
L 4813 2682 
z
" transform="scale(0.015625)"/>
      <path id="STHeiti-4f" d="M 358 2662 
Q 358 3328 678 3891 
Q 998 4454 1555 4774 
Q 2112 5094 2768 5094 
Q 3424 5094 3990 4777 
Q 4557 4461 4880 3901 
Q 5203 3341 5203 2685 
Q 5203 2029 4883 1469 
Q 4563 909 4003 589 
Q 3443 269 2787 269 
Q 2131 269 1568 585 
Q 1005 902 681 1459 
Q 358 2016 358 2662 
z
M 4723 2682 
Q 4723 3507 4150 4076 
Q 3578 4646 2771 4646 
Q 1946 4646 1392 4073 
Q 838 3501 838 2678 
Q 838 1856 1408 1286 
Q 1978 717 2784 717 
Q 3590 717 4156 1273 
Q 4723 1830 4723 2682 
z
" transform="scale(0.015625)"/>
      <path id="STHeiti-76" d="M 166 3782 
L 634 3782 
L 1766 1197 
L 2899 3782 
L 3366 3782 
L 1811 269 
L 1734 269 
L 166 3782 
z
" transform="scale(0.015625)"/>
      <path id="STHeiti-6c" d="M 422 5094 
L 858 5094 
L 858 384 
L 422 384 
L 422 5094 
z
" transform="scale(0.015625)"/>
      <path id="STHeiti-61" d="M 3872 3782 
L 3872 384 
L 3443 384 
L 3443 966 
Q 2861 269 2112 269 
Q 1363 269 848 803 
Q 333 1338 333 2077 
Q 333 2816 851 3344 
Q 1370 3872 2093 3872 
Q 2925 3872 3443 3162 
L 3443 3782 
L 3872 3782 
z
M 3469 2067 
Q 3469 2650 3078 3050 
Q 2688 3450 2121 3450 
Q 1555 3450 1164 3037 
Q 774 2624 774 2061 
Q 774 1498 1171 1085 
Q 1568 672 2121 672 
Q 2675 672 3072 1069 
Q 3469 1466 3469 2067 
z
" transform="scale(0.015625)"/>
      <path id="STHeiti-70" d="M 493 3782 
L 928 3782 
L 928 3162 
Q 1446 3872 2278 3872 
Q 2995 3872 3513 3344 
Q 4032 2816 4032 2073 
Q 4032 1331 3520 800 
Q 3008 269 2291 269 
Q 1510 269 928 966 
L 928 -858 
L 493 -858 
L 493 3782 
z
M 3597 2067 
Q 3597 2637 3203 3043 
Q 2810 3450 2240 3450 
Q 1670 3450 1283 3050 
Q 896 2650 896 2061 
Q 896 1472 1293 1072 
Q 1690 672 2243 672 
Q 2797 672 3197 1078 
Q 3597 1485 3597 2067 
z
" transform="scale(0.015625)"/>
     </defs>
     <use xlink:href="#STHeiti-43"/>
     <use xlink:href="#STHeiti-53" transform="translate(81.299988 0)"/>
     <use xlink:href="#STHeiti-41" transform="translate(131.099976 0)"/>
     <use xlink:href="#STHeiti-20" transform="translate(205.09996 0)"/>
     <use xlink:href="#STHeiti-6b65" transform="translate(230.099945 0)"/>
     <use xlink:href="#STHeiti-9aa4" transform="translate(330.09993 0)"/>
     <use xlink:href="#STHeiti-4e8c" transform="translate(430.099915 0)"/>
     <use xlink:href="#STHeiti-ff1a" transform="translate(530.099899 0)"/>
     <use xlink:href="#STHeiti-4b" transform="translate(630.099884 0)"/>
     <use xlink:href="#STHeiti-56" transform="translate(689.199875 0)"/>
     <use xlink:href="#STHeiti-20" transform="translate(759.399857 0)"/>
     <use xlink:href="#STHeiti-8f6f" transform="translate(784.399841 0)"/>
     <use xlink:href="#STHeiti-878d" transform="translate(884.399826 0)"/>
     <use xlink:href="#STHeiti-5408" transform="translate(984.399811 0)"/>
     <use xlink:href="#STHeiti-ff08" transform="translate(1084.399796 0)"/>
     <use xlink:href="#STHeiti-53" transform="translate(1184.39978 0)"/>
     <use xlink:href="#STHeiti-6f" transform="translate(1234.199768 0)"/>
     <use xlink:href="#STHeiti-66" transform="translate(1299.699753 0)"/>
     <use xlink:href="#STHeiti-74" transform="translate(1331.099747 0)"/>
     <use xlink:href="#STHeiti-2d" transform="translate(1364.999741 0)"/>
     <use xlink:href="#STHeiti-4d" transform="translate(1398.199738 0)"/>
     <use xlink:href="#STHeiti-65" transform="translate(1490.099731 0)"/>
     <use xlink:href="#STHeiti-72" transform="translate(1555.099716 0)"/>
     <use xlink:href="#STHeiti-67" transform="translate(1585.199707 0)"/>
     <use xlink:href="#STHeiti-65" transform="translate(1652.499695 0)"/>
     <use xlink:href="#STHeiti-ff09" transform="translate(1717.49968 0)"/>
     <use xlink:href="#STHeiti-4e0e" transform="translate(1817.499664 0)"/>
     <use xlink:href="#STHeiti-8fb9" transform="translate(1917.499649 0)"/>
     <use xlink:href="#STHeiti-754c" transform="translate(2017.499634 0)"/>
     <use xlink:href="#STHeiti-20" transform="translate(2117.499619 0)"/>
     <use xlink:href="#STHeiti-4f" transform="translate(2142.499603 0)"/>
     <use xlink:href="#STHeiti-76" transform="translate(2229.399597 0)"/>
     <use xlink:href="#STHeiti-65" transform="translate(2284.799591 0)"/>
     <use xlink:href="#STHeiti-72" transform="translate(2349.799576 0)"/>
     <use xlink:href="#STHeiti-6c" transform="translate(2379.899567 0)"/>
     <use xlink:href="#STHeiti-61" transform="translate(2399.899551 0)"/>
     <use xlink:href="#STHeiti-70" transform="translate(2468.199539 0)"/>
    </g>
   </g>
   <g id="text_2">
    <!-- $C^a$ -->
    <g style="fill: #1565c0" transform="translate(7.44 134.29125) scale(0.12 -0.12)">
     <defs>
      <path id="DejaVuSans-Oblique-43" d="M 4447 4306 
L 4319 3641 
Q 4019 3944 3683 4091 
Q 3347 4238 2956 4238 
Q 2422 4238 2017 3981 
Q 1613 3725 1319 3200 
Q 1131 2863 1032 2486 
Q 934 2109 934 1728 
Q 934 1091 1264 756 
Q 1594 422 2222 422 
Q 2656 422 3056 561 
Q 3456 700 3834 978 
L 3688 231 
Q 3316 72 2936 -9 
Q 2556 -91 2175 -91 
Q 1278 -91 773 396 
Q 269 884 269 1753 
Q 269 2309 461 2846 
Q 653 3384 1013 3828 
Q 1394 4300 1883 4525 
Q 2372 4750 3022 4750 
Q 3422 4750 3780 4639 
Q 4138 4528 4447 4306 
z
" transform="scale(0.015625)"/>
      <path id="DejaVuSans-Oblique-61" d="M 3438 1997 
L 3047 0 
L 2472 0 
L 2578 531 
Q 2325 219 2001 64 
Q 1678 -91 1281 -91 
Q 834 -91 548 182 
Q 263 456 263 884 
Q 263 1497 752 1853 
Q 1241 2209 2100 2209 
L 2900 2209 
L 2931 2363 
Q 2938 2388 2941 2417 
Q 2944 2447 2944 2509 
Q 2944 2788 2717 2942 
Q 2491 3097 2081 3097 
Q 1800 3097 1504 3025 
Q 1209 2953 897 2809 
L 997 3341 
Q 1322 3463 1633 3523 
Q 1944 3584 2234 3584 
Q 2853 3584 3176 3315 
Q 3500 3047 3500 2534 
Q 3500 2431 3484 2292 
Q 3469 2153 3438 1997 
z
M 2816 1759 
L 2241 1759 
Q 1534 1759 1195 1570 
Q 856 1381 856 984 
Q 856 709 1029 553 
Q 1203 397 1509 397 
Q 1978 397 2328 733 
Q 2678 1069 2791 1631 
L 2816 1759 
z
" transform="scale(0.015625)"/>
     </defs>
     <use xlink:href="#DejaVuSans-Oblique-43" transform="translate(0 0.51875)"/>
     <use xlink:href="#DejaVuSans-Oblique-61" transform="translate(77.02474 38.8) scale(0.7)"/>
    </g>
   </g>
   <g id="text_3">
    <!-- 0 -->
    <g style="fill: #1565c0" transform="translate(67.974439 132.9675) scale(0.08 -0.08)">
     <defs>
      <path id="STHeiti-30" d="M 1747 269 
Q 1005 269 605 880 
Q 205 1491 205 2681 
Q 205 3872 605 4483 
Q 1005 5094 1741 5094 
Q 2477 5094 2909 4470 
Q 3341 3846 3341 2681 
Q 3341 1517 2905 893 
Q 2470 269 1747 269 
z
M 1760 4659 
Q 1229 4659 934 4147 
Q 640 3635 640 2669 
Q 640 685 1760 685 
Q 2304 685 2608 1206 
Q 2912 1728 2912 2681 
Q 2912 3635 2598 4147 
Q 2285 4659 1760 4659 
z
" transform="scale(0.015625)"/>
     </defs>
     <use xlink:href="#STHeiti-30"/>
    </g>
   </g>
   <g id="text_4">
    <!-- 1 -->
    <g style="fill: #1565c0" transform="translate(127.549088 132.9675) scale(0.08 -0.08)">
     <defs>
      <path id="STHeiti-31" d="M 1184 4979 
L 2086 4979 
L 2086 384 
L 1632 384 
L 1632 4531 
L 909 4531 
L 1184 4979 
z
" transform="scale(0.015625)"/>
     </defs>
     <use xlink:href="#STHeiti-31"/>
    </g>
   </g>
   <g id="text_5">
    <!-- 2 -->
    <g style="fill: #1565c0" transform="translate(187.123737 132.9675) scale(0.08 -0.08)">
     <defs>
      <path id="STHeiti-32" d="M 742 3539 
L 301 3539 
Q 333 4243 768 4668 
Q 1203 5094 1820 5094 
Q 2438 5094 2844 4694 
Q 3251 4294 3251 3718 
Q 3251 3290 3024 2925 
Q 2797 2560 2336 2061 
L 1190 826 
L 3315 826 
L 3315 384 
L 192 384 
L 1946 2278 
Q 2406 2778 2604 3066 
Q 2803 3354 2803 3725 
Q 2803 4096 2512 4377 
Q 2221 4659 1789 4659 
Q 1357 4659 1072 4368 
Q 787 4077 742 3539 
z
" transform="scale(0.015625)"/>
     </defs>
     <use xlink:href="#STHeiti-32"/>
    </g>
   </g>
   <g id="text_6">
    <!-- 3 -->
    <g style="fill: #1565c0" transform="translate(246.698385 132.9675) scale(0.08 -0.08)">
     <defs>
      <path id="STHeiti-33" d="M 845 3917 
L 378 3917 
Q 506 4486 867 4790 
Q 1229 5094 1750 5094 
Q 2272 5094 2659 4748 
Q 3046 4403 3046 3910 
Q 3046 3315 2458 2970 
Q 2861 2803 3081 2473 
Q 3302 2144 3302 1754 
Q 3302 1146 2857 707 
Q 2413 269 1734 269 
Q 1133 269 742 611 
Q 352 954 224 1613 
L 672 1613 
Q 794 1158 1046 937 
Q 1299 717 1760 717 
Q 2221 717 2534 1011 
Q 2848 1306 2848 1741 
Q 2848 2176 2502 2441 
Q 2157 2707 1498 2720 
L 1498 3142 
Q 1971 3142 2268 3360 
Q 2566 3578 2566 3901 
Q 2566 4224 2326 4438 
Q 2086 4653 1747 4653 
Q 1408 4653 1200 4470 
Q 992 4288 845 3917 
z
" transform="scale(0.015625)"/>
     </defs>
     <use xlink:href="#STHeiti-33"/>
    </g>
   </g>
   <g id="text_7">
    <!-- 4 -->
    <g style="fill: #2e7d32" transform="translate(306.273034 132.9675) scale(0.08 -0.08)">
     <defs>
      <path id="STHeiti-34" d="M 2726 5094 
L 2816 5094 
L 2816 1894 
L 3373 1894 
L 3373 1453 
L 2816 1453 
L 2816 384 
L 2362 384 
L 2362 1453 
L 160 1453 
L 2726 5094 
z
M 2362 1894 
L 2362 3808 
L 1005 1894 
L 2362 1894 
z
" transform="scale(0.015625)"/>
     </defs>
     <use xlink:href="#STHeiti-34"/>
    </g>
   </g>
   <g id="text_8">
    <!-- 5 -->
    <g style="fill: #2e7d32" transform="translate(365.847683 132.9675) scale(0.08 -0.08)">
     <defs>
      <path id="STHeiti-35" d="M 3149 4979 
L 3149 4544 
L 1510 4544 
L 1280 3290 
Q 1587 3379 1856 3379 
Q 2458 3379 2861 2953 
Q 3264 2528 3264 1862 
Q 3264 1197 2825 733 
Q 2387 269 1664 269 
Q 1114 269 726 598 
Q 339 928 262 1498 
L 730 1498 
Q 813 1114 1075 909 
Q 1338 704 1683 704 
Q 2138 704 2467 1043 
Q 2797 1382 2797 1888 
Q 2797 2349 2509 2646 
Q 2221 2944 1757 2944 
Q 1293 2944 730 2701 
L 1158 4979 
L 3149 4979 
z
" transform="scale(0.015625)"/>
     </defs>
     <use xlink:href="#STHeiti-35"/>
    </g>
   </g>
   <g id="text_9">
    <!-- 6 -->
    <g style="fill: #2e7d32" transform="translate(425.422332 132.9675) scale(0.08 -0.08)">
     <defs>
      <path id="STHeiti-36" d="M 2349 5094 
L 2726 4851 
L 1485 2970 
Q 1747 3059 1984 3059 
Q 2496 3059 2880 2652 
Q 3264 2246 3264 1660 
Q 3264 1075 2845 672 
Q 2426 269 1827 269 
Q 1229 269 829 678 
Q 429 1088 429 1677 
Q 429 1958 537 2256 
Q 646 2554 954 3014 
L 2349 5094 
z
M 2810 1683 
Q 2810 2086 2528 2368 
Q 2246 2650 1843 2650 
Q 1440 2650 1158 2368 
Q 877 2086 877 1683 
Q 877 1280 1161 998 
Q 1446 717 1843 717 
Q 2240 717 2525 998 
Q 2810 1280 2810 1683 
z
" transform="scale(0.015625)"/>
     </defs>
     <use xlink:href="#STHeiti-36"/>
    </g>
   </g>
   <g id="text_10">
    <!-- 7 -->
    <g style="fill: #2e7d32" transform="translate(484.99698 132.9675) scale(0.08 -0.08)">
     <defs>
      <path id="STHeiti-37" d="M 461 4979 
L 3373 4979 
L 915 269 
L 538 461 
L 2662 4544 
L 461 4544 
L 461 4979 
z
" transform="scale(0.015625)"/>
     </defs>
     <use xlink:href="#STHeiti-37"/>
    </g>
   </g>
   <g id="text_11">
    <!-- 8 -->
    <g style="fill: #6a1b9a" transform="translate(544.571629 132.9675) scale(0.08 -0.08)">
     <defs>
      <path id="STHeiti-38" d="M 2458 2906 
Q 3328 2477 3328 1702 
Q 3328 1088 2896 678 
Q 2464 269 1763 269 
Q 1062 269 640 678 
Q 218 1088 218 1664 
Q 218 2470 1107 2906 
Q 435 3264 435 3898 
Q 435 4371 828 4732 
Q 1222 5094 1779 5094 
Q 2336 5094 2726 4742 
Q 3117 4390 3117 3885 
Q 3117 3270 2458 2906 
z
M 2656 3904 
Q 2656 4211 2416 4432 
Q 2176 4653 1789 4653 
Q 1402 4653 1152 4432 
Q 902 4211 902 3897 
Q 902 3584 1174 3337 
Q 1446 3091 1792 3091 
Q 2138 3091 2397 3334 
Q 2656 3578 2656 3904 
z
M 2867 1696 
Q 2867 2086 2550 2380 
Q 2234 2675 1782 2675 
Q 1331 2675 1004 2371 
Q 678 2067 678 1654 
Q 678 1242 979 973 
Q 1280 704 1766 704 
Q 2253 704 2560 992 
Q 2867 1280 2867 1696 
z
" transform="scale(0.015625)"/>
     </defs>
     <use xlink:href="#STHeiti-38"/>
    </g>
   </g>
   <g id="text_12">
    <!-- 9 -->
    <g style="fill: #6a1b9a" transform="translate(604.146278 132.9675) scale(0.08 -0.08)">
     <defs>
      <path id="STHeiti-39" d="M 1229 269 
L 851 512 
L 2093 2394 
Q 1850 2310 1613 2310 
Q 1062 2310 688 2707 
Q 314 3104 314 3696 
Q 314 4288 730 4691 
Q 1146 5094 1750 5094 
Q 2355 5094 2748 4681 
Q 3142 4269 3142 3693 
Q 3142 3373 3011 3049 
Q 2880 2726 2624 2349 
L 1229 269 
z
M 762 3680 
Q 762 3277 1043 2995 
Q 1325 2714 1728 2714 
Q 2131 2714 2412 2998 
Q 2694 3283 2694 3680 
Q 2694 4077 2412 4361 
Q 2131 4646 1728 4646 
Q 1325 4646 1043 4364 
Q 762 4083 762 3680 
z
" transform="scale(0.015625)"/>
     </defs>
     <use xlink:href="#STHeiti-39"/>
    </g>
   </g>
   <g id="text_13">
    <!-- 10 -->
    <g style="fill: #6a1b9a" transform="translate(661.504677 132.9675) scale(0.08 -0.08)">
     <use xlink:href="#STHeiti-31"/>
     <use xlink:href="#STHeiti-30" transform="translate(55.399994 0)"/>
    </g>
   </g>
   <g id="text_14">
    <!-- 11 -->
    <g style="fill: #6a1b9a" transform="translate(721.079325 132.9675) scale(0.08 -0.08)">
     <use xlink:href="#STHeiti-31"/>
     <use xlink:href="#STHeiti-31" transform="translate(55.399994 0)"/>
    </g>
   </g>
   <g id="text_15">
    <!-- 12 -->
    <g style="fill: #c62828" transform="translate(780.653974 132.9675) scale(0.08 -0.08)">
     <use xlink:href="#STHeiti-31"/>
     <use xlink:href="#STHeiti-32" transform="translate(55.399994 0)"/>
    </g>
   </g>
   <g id="text_16">
    <!-- 13 -->
    <g style="fill: #c62828" transform="translate(840.228623 132.9675) scale(0.08 -0.08)">
     <use xlink:href="#STHeiti-31"/>
     <use xlink:href="#STHeiti-33" transform="translate(55.399994 0)"/>
    </g>
   </g>
   <g id="text_17">
    <!-- 14 -->
    <g style="fill: #c62828" transform="translate(899.803271 132.9675) scale(0.08 -0.08)">
     <use xlink:href="#STHeiti-31"/>
     <use xlink:href="#STHeiti-34" transform="translate(55.399994 0)"/>
    </g>
   </g>
   <g id="text_18">
    <!-- 15 -->
    <g style="fill: #c62828" transform="translate(959.37792 132.9675) scale(0.08 -0.08)">
     <use xlink:href="#STHeiti-31"/>
     <use xlink:href="#STHeiti-35" transform="translate(55.399994 0)"/>
    </g>
   </g>
   <g id="text_19">
    <!-- 组0 [40,44) -->
    <g style="fill: #1565c0" transform="translate(139.483287 87.912) scale(0.08 -0.08)">
     <defs>
      <path id="STHeiti-7ec4" d="M 1594 2829 
L 1011 2758 
Q 698 2726 531 2669 
Q 499 2957 390 3181 
Q 832 3443 1427 5101 
Q 1773 4902 1933 4860 
Q 2093 4819 2093 4787 
Q 2093 4755 2029 4729 
Q 1965 4704 1885 4608 
Q 1805 4512 1530 4083 
L 922 3123 
L 1805 3194 
Q 2067 3731 2221 4109 
Q 2490 3949 2746 3853 
Q 2803 3827 2803 3801 
Q 2803 3776 2752 3744 
Q 2701 3712 2608 3590 
Q 2515 3469 2138 2899 
L 1286 1626 
Q 1875 1670 2458 1760 
Q 2394 1549 2406 1280 
L 1190 1190 
Q 826 1165 608 1075 
Q 570 1344 467 1542 
Q 973 1811 1594 2829 
z
M 5594 141 
Q 6022 154 6131 173 
L 6131 -352 
Q 6093 -326 4371 -326 
Q 2650 -326 2400 -365 
L 2400 173 
Q 2554 147 2944 147 
L 2944 4218 
Q 2944 4666 2925 4864 
Q 3514 4832 4269 4832 
Q 5024 4832 5613 4864 
Q 5594 4672 5594 4218 
L 5594 141 
z
M 3450 3270 
L 5075 3270 
L 5075 4384 
L 3450 4384 
L 3450 3270 
z
M 3450 1773 
L 5075 1773 
L 5075 2816 
L 3450 2816 
L 3450 1773 
z
M 5075 1312 
L 3450 1312 
L 3450 141 
L 5075 141 
L 5075 1312 
z
M 2483 755 
Q 2445 634 2445 506 
Q 2445 378 2464 269 
Q 954 -38 493 -352 
Q 467 -45 352 294 
Q 1114 397 2483 755 
z
" transform="scale(0.015625)"/>
      <path id="STHeiti-5b" d="M 909 5280 
L 1958 5280 
L 1958 4838 
L 1344 4838 
L 1344 -243 
L 1958 -243 
L 1958 -672 
L 909 -672 
L 909 5280 
z
" transform="scale(0.015625)"/>
      <path id="STHeiti-2c" d="M 922 1229 
L 1344 1030 
L 710 -154 
L 397 -19 
L 922 1229 
z
" transform="scale(0.015625)"/>
      <path id="STHeiti-29" d="M 896 5370 
Q 1530 3891 1530 2118 
Q 1530 480 1024 -762 
L 538 -762 
Q 1062 506 1062 2176 
Q 1062 3027 886 3865 
Q 710 4704 384 5370 
L 896 5370 
z
" transform="scale(0.015625)"/>
     </defs>
     <use xlink:href="#STHeiti-7ec4"/>
     <use xlink:href="#STHeiti-30" transform="translate(99.999985 0)"/>
     <use xlink:href="#STHeiti-20" transform="translate(155.399979 0)"/>
     <use xlink:href="#STHeiti-5b" transform="translate(180.399963 0)"/>
     <use xlink:href="#STHeiti-34" transform="translate(215.499954 0)"/>
     <use xlink:href="#STHeiti-30" transform="translate(270.899948 0)"/>
     <use xlink:href="#STHeiti-2c" transform="translate(326.299942 0)"/>
     <use xlink:href="#STHeiti-34" transform="translate(353.999939 0)"/>
     <use xlink:href="#STHeiti-34" transform="translate(409.399933 0)"/>
     <use xlink:href="#STHeiti-29" transform="translate(464.799927 0)"/>
    </g>
   </g>
   <g id="text_20">
    <!-- 组1 [41,45) -->
    <g style="fill: #2e7d32" transform="translate(377.781882 87.912) scale(0.08 -0.08)">
     <use xlink:href="#STHeiti-7ec4"/>
     <use xlink:href="#STHeiti-31" transform="translate(99.999985 0)"/>
     <use xlink:href="#STHeiti-20" transform="translate(155.399979 0)"/>
     <use xlink:href="#STHeiti-5b" transform="translate(180.399963 0)"/>
     <use xlink:href="#STHeiti-34" transform="translate(215.499954 0)"/>
     <use xlink:href="#STHeiti-31" transform="translate(270.899948 0)"/>
     <use xlink:href="#STHeiti-2c" transform="translate(326.299942 0)"/>
     <use xlink:href="#STHeiti-34" transform="translate(353.999939 0)"/>
     <use xlink:href="#STHeiti-35" transform="translate(409.399933 0)"/>
     <use xlink:href="#STHeiti-29" transform="translate(464.799927 0)"/>
    </g>
   </g>
   <g id="text_21">
    <!-- 组2 [42,46) -->
    <g style="fill: #6a1b9a" transform="translate(616.080477 87.912) scale(0.08 -0.08)">
     <use xlink:href="#STHeiti-7ec4"/>
     <use xlink:href="#STHeiti-32" transform="translate(99.999985 0)"/>
     <use xlink:href="#STHeiti-20" transform="translate(155.399979 0)"/>
     <use xlink:href="#STHeiti-5b" transform="translate(180.399963 0)"/>
     <use xlink:href="#STHeiti-34" transform="translate(215.499954 0)"/>
     <use xlink:href="#STHeiti-32" transform="translate(270.899948 0)"/>
     <use xlink:href="#STHeiti-2c" transform="translate(326.299942 0)"/>
     <use xlink:href="#STHeiti-34" transform="translate(353.999939 0)"/>
     <use xlink:href="#STHeiti-36" transform="translate(409.399933 0)"/>
     <use xlink:href="#STHeiti-29" transform="translate(464.799927 0)"/>
    </g>
   </g>
   <g id="text_22">
    <!-- 组3 [43,47) -->
    <g style="fill: #c62828" transform="translate(854.379072 87.912) scale(0.08 -0.08)">
     <use xlink:href="#STHeiti-7ec4"/>
     <use xlink:href="#STHeiti-33" transform="translate(99.999985 0)"/>
     <use xlink:href="#STHeiti-20" transform="translate(155.399979 0)"/>
     <use xlink:href="#STHeiti-5b" transform="translate(180.399963 0)"/>
     <use xlink:href="#STHeiti-34" transform="translate(215.499954 0)"/>
     <use xlink:href="#STHeiti-33" transform="translate(270.899948 0)"/>
     <use xlink:href="#STHeiti-2c" transform="translate(326.299942 0)"/>
     <use xlink:href="#STHeiti-34" transform="translate(353.999939 0)"/>
     <use xlink:href="#STHeiti-37" transform="translate(409.399933 0)"/>
     <use xlink:href="#STHeiti-29" transform="translate(464.799927 0)"/>
    </g>
   </g>
   <g id="text_23">
    <!-- $C^b$ -->
    <g style="fill: #e65100" transform="translate(7.2 230.11125) scale(0.12 -0.12)">
     <defs>
      <path id="DejaVuSans-Oblique-62" d="M 3169 2138 
Q 3169 2591 2961 2847 
Q 2753 3103 2388 3103 
Q 2122 3103 1889 2973 
Q 1656 2844 1484 2597 
Q 1303 2338 1198 1995 
Q 1094 1653 1094 1313 
Q 1094 881 1298 636 
Q 1503 391 1863 391 
Q 2134 391 2365 517 
Q 2597 644 2772 891 
Q 2950 1147 3059 1487 
Q 3169 1828 3169 2138 
z
M 1381 2969 
Q 1594 3256 1914 3420 
Q 2234 3584 2584 3584 
Q 3122 3584 3439 3221 
Q 3756 2859 3756 2241 
Q 3756 1734 3570 1259 
Q 3384 784 3041 416 
Q 2816 172 2522 40 
Q 2228 -91 1906 -91 
Q 1566 -91 1316 65 
Q 1066 222 909 531 
L 806 0 
L 231 0 
L 1178 4863 
L 1753 4863 
L 1381 2969 
z
" transform="scale(0.015625)"/>
     </defs>
     <use xlink:href="#DejaVuSans-Oblique-43" transform="translate(0 0.529687)"/>
     <use xlink:href="#DejaVuSans-Oblique-62" transform="translate(77.02474 38.810937) scale(0.7)"/>
    </g>
   </g>
   <g id="text_24">
    <!-- 0 -->
    <g style="fill: #e65100" transform="translate(67.974439 228.7275) scale(0.08 -0.08)">
     <use xlink:href="#STHeiti-30"/>
    </g>
   </g>
   <g id="text_25">
    <!-- 1 -->
    <g style="fill: #e65100" transform="translate(127.549088 228.7275) scale(0.08 -0.08)">
     <use xlink:href="#STHeiti-31"/>
    </g>
   </g>
   <g id="text_26">
    <!-- 2 -->
    <g style="fill: #e65100" transform="translate(187.123737 228.7275) scale(0.08 -0.08)">
     <use xlink:href="#STHeiti-32"/>
    </g>
   </g>
   <g id="text_27">
    <!-- 3 -->
    <g style="fill: #e65100" transform="translate(246.698385 228.7275) scale(0.08 -0.08)">
     <use xlink:href="#STHeiti-33"/>
    </g>
   </g>
   <g id="text_28">
    <!-- 4 -->
    <g style="fill: #00838f" transform="translate(306.273034 228.7275) scale(0.08 -0.08)">
     <use xlink:href="#STHeiti-34"/>
    </g>
   </g>
   <g id="text_29">
    <!-- 5 -->
    <g style="fill: #00838f" transform="translate(365.847683 228.7275) scale(0.08 -0.08)">
     <use xlink:href="#STHeiti-35"/>
    </g>
   </g>
   <g id="text_30">
    <!-- 6 -->
    <g style="fill: #00838f" transform="translate(425.422332 228.7275) scale(0.08 -0.08)">
     <use xlink:href="#STHeiti-36"/>
    </g>
   </g>
   <g id="text_31">
    <!-- 7 -->
    <g style="fill: #00838f" transform="translate(484.99698 228.7275) scale(0.08 -0.08)">
     <use xlink:href="#STHeiti-37"/>
    </g>
   </g>
   <g id="text_32">
    <!-- 8 -->
    <g style="fill: #4527a0" transform="translate(544.571629 228.7275) scale(0.08 -0.08)">
     <use xlink:href="#STHeiti-38"/>
    </g>
   </g>
   <g id="text_33">
    <!-- 9 -->
    <g style="fill: #4527a0" transform="translate(604.146278 228.7275) scale(0.08 -0.08)">
     <use xlink:href="#STHeiti-39"/>
    </g>
   </g>
   <g id="text_34">
    <!-- 10 -->
    <g style="fill: #4527a0" transform="translate(661.504677 228.7275) scale(0.08 -0.08)">
     <use xlink:href="#STHeiti-31"/>
     <use xlink:href="#STHeiti-30" transform="translate(55.399994 0)"/>
    </g>
   </g>
   <g id="text_35">
    <!-- 11 -->
    <g style="fill: #4527a0" transform="translate(721.079325 228.7275) scale(0.08 -0.08)">
     <use xlink:href="#STHeiti-31"/>
     <use xlink:href="#STHeiti-31" transform="translate(55.399994 0)"/>
    </g>
   </g>
   <g id="text_36">
    <!-- 12 -->
    <g style="fill: #ad1457" transform="translate(780.653974 228.7275) scale(0.08 -0.08)">
     <use xlink:href="#STHeiti-31"/>
     <use xlink:href="#STHeiti-32" transform="translate(55.399994 0)"/>
    </g>
   </g>
   <g id="text_37">
    <!-- 13 -->
    <g style="fill: #ad1457" transform="translate(840.228623 228.7275) scale(0.08 -0.08)">
     <use xlink:href="#STHeiti-31"/>
     <use xlink:href="#STHeiti-33" transform="translate(55.399994 0)"/>
    </g>
   </g>
   <g id="text_38">
    <!-- 14 -->
    <g style="fill: #ad1457" transform="translate(899.803271 228.7275) scale(0.08 -0.08)">
     <use xlink:href="#STHeiti-31"/>
     <use xlink:href="#STHeiti-34" transform="translate(55.399994 0)"/>
    </g>
   </g>
   <g id="text_39">
    <!-- 15 -->
    <g style="fill: #ad1457" transform="translate(959.37792 228.7275) scale(0.08 -0.08)">
     <use xlink:href="#STHeiti-31"/>
     <use xlink:href="#STHeiti-35" transform="translate(55.399994 0)"/>
    </g>
   </g>
   <g id="text_40">
    <!-- 组0 [overlap] -->
    <g style="fill: #e65100" transform="translate(134.628912 270.54) scale(0.08 -0.08)">
     <defs>
      <path id="STHeiti-5d" d="M 1338 -672 
L 288 -672 
L 288 -243 
L 902 -243 
L 902 4838 
L 288 4838 
L 288 5280 
L 1338 5280 
L 1338 -672 
z
" transform="scale(0.015625)"/>
     </defs>
     <use xlink:href="#STHeiti-7ec4"/>
     <use xlink:href="#STHeiti-30" transform="translate(99.999985 0)"/>
     <use xlink:href="#STHeiti-20" transform="translate(155.399979 0)"/>
     <use xlink:href="#STHeiti-5b" transform="translate(180.399963 0)"/>
     <use xlink:href="#STHeiti-6f" transform="translate(215.499954 0)"/>
     <use xlink:href="#STHeiti-76" transform="translate(280.999939 0)"/>
     <use xlink:href="#STHeiti-65" transform="translate(336.399933 0)"/>
     <use xlink:href="#STHeiti-72" transform="translate(401.399918 0)"/>
     <use xlink:href="#STHeiti-6c" transform="translate(431.499908 0)"/>
     <use xlink:href="#STHeiti-61" transform="translate(451.499893 0)"/>
     <use xlink:href="#STHeiti-70" transform="translate(519.799881 0)"/>
     <use xlink:href="#STHeiti-5d" transform="translate(587.999863 0)"/>
    </g>
   </g>
   <g id="text_41">
    <!-- 组1 [overlap] -->
    <g style="fill: #00838f" transform="translate(372.927507 270.54) scale(0.08 -0.08)">
     <use xlink:href="#STHeiti-7ec4"/>
     <use xlink:href="#STHeiti-31" transform="translate(99.999985 0)"/>
     <use xlink:href="#STHeiti-20" transform="translate(155.399979 0)"/>
     <use xlink:href="#STHeiti-5b" transform="translate(180.399963 0)"/>
     <use xlink:href="#STHeiti-6f" transform="translate(215.499954 0)"/>
     <use xlink:href="#STHeiti-76" transform="translate(280.999939 0)"/>
     <use xlink:href="#STHeiti-65" transform="translate(336.399933 0)"/>
     <use xlink:href="#STHeiti-72" transform="translate(401.399918 0)"/>
     <use xlink:href="#STHeiti-6c" transform="translate(431.499908 0)"/>
     <use xlink:href="#STHeiti-61" transform="translate(451.499893 0)"/>
     <use xlink:href="#STHeiti-70" transform="translate(519.799881 0)"/>
     <use xlink:href="#STHeiti-5d" transform="translate(587.999863 0)"/>
    </g>
   </g>
   <g id="text_42">
    <!-- 组2 [overlap] -->
    <g style="fill: #4527a0" transform="translate(611.226102 270.54) scale(0.08 -0.08)">
     <use xlink:href="#STHeiti-7ec4"/>
     <use xlink:href="#STHeiti-32" transform="translate(99.999985 0)"/>
     <use xlink:href="#STHeiti-20" transform="translate(155.399979 0)"/>
     <use xlink:href="#STHeiti-5b" transform="translate(180.399963 0)"/>
     <use xlink:href="#STHeiti-6f" transform="translate(215.499954 0)"/>
     <use xlink:href="#STHeiti-76" transform="translate(280.999939 0)"/>
     <use xlink:href="#STHeiti-65" transform="translate(336.399933 0)"/>
     <use xlink:href="#STHeiti-72" transform="translate(401.399918 0)"/>
     <use xlink:href="#STHeiti-6c" transform="translate(431.499908 0)"/>
     <use xlink:href="#STHeiti-61" transform="translate(451.499893 0)"/>
     <use xlink:href="#STHeiti-70" transform="translate(519.799881 0)"/>
     <use xlink:href="#STHeiti-5d" transform="translate(587.999863 0)"/>
    </g>
   </g>
   <g id="text_43">
    <!-- 组3 [overlap] -->
    <g style="fill: #ad1457" transform="translate(849.524697 270.54) scale(0.08 -0.08)">
     <use xlink:href="#STHeiti-7ec4"/>
     <use xlink:href="#STHeiti-33" transform="translate(99.999985 0)"/>
     <use xlink:href="#STHeiti-20" transform="translate(155.399979 0)"/>
     <use xlink:href="#STHeiti-5b" transform="translate(180.399963 0)"/>
     <use xlink:href="#STHeiti-6f" transform="translate(215.499954 0)"/>
     <use xlink:href="#STHeiti-76" transform="translate(280.999939 0)"/>
     <use xlink:href="#STHeiti-65" transform="translate(336.399933 0)"/>
     <use xlink:href="#STHeiti-72" transform="translate(401.399918 0)"/>
     <use xlink:href="#STHeiti-6c" transform="translate(431.499908 0)"/>
     <use xlink:href="#STHeiti-61" transform="translate(451.499893 0)"/>
     <use xlink:href="#STHeiti-70" transform="translate(519.799881 0)"/>
     <use xlink:href="#STHeiti-5d" transform="translate(587.999863 0)"/>
    </g>
   </g>
   <g id="patch_38">
    <path d="M 135.000785 152.480771 
Q 144.659055 223.173398 154.105443 292.315185 
" style="fill: none; stroke: #1565c0; stroke-width: 1.4; stroke-linecap: round"/>
    <path d="M 155.545571 288.08127 
L 154.105443 292.315185 
L 151.582388 288.622734 
" style="fill: none; stroke: #1565c0; stroke-width: 1.4; stroke-linecap: round"/>
   </g>
   <g id="patch_39">
    <path d="M 173.703338 248.113388 
Q 164.517318 271.052747 155.913176 292.539036 
" style="fill: none; stroke: #e65100; stroke-width: 1.4; stroke-linecap: round"/>
    <path d="M 159.256839 289.569201 
L 155.913176 292.539036 
L 155.543507 288.082205 
" style="fill: none; stroke: #e65100; stroke-width: 1.4; stroke-linecap: round"/>
   </g>
   <g id="text_44">
    <!-- 压缩KV0 -->
    <g style="fill: #e65100" transform="translate(139.199983 317.6475) scale(0.08 -0.08)">
     <defs>
      <path id="STHeiti-538b" d="M 5754 4288 
Q 5325 4333 4262 4333 
L 1555 4333 
Q 1568 2784 1520 2000 
Q 1472 1216 1328 665 
Q 1184 115 870 -525 
Q 614 -326 275 -230 
Q 672 358 835 1072 
Q 998 1786 998 3174 
Q 998 3834 966 4870 
Q 1382 4826 3382 4826 
Q 5382 4826 5754 4870 
L 5754 4288 
z
M 3834 2822 
Q 4870 2822 5427 2886 
L 5427 2246 
Q 4870 2310 3834 2310 
L 3834 346 
Q 5178 346 5882 410 
L 5882 -211 
Q 5146 -147 3709 -147 
Q 2272 -147 1542 -211 
L 1542 410 
Q 2202 352 3283 346 
L 3283 2310 
Q 2483 2304 1997 2246 
L 1997 2886 
Q 2509 2829 3283 2822 
Q 3277 3917 3232 4032 
Q 3443 3994 3610 3994 
L 3910 3994 
Q 3981 3994 3981 3965 
Q 3981 3936 3933 3901 
Q 3885 3866 3859 3795 
Q 3834 3725 3834 3661 
L 3834 2822 
z
M 5466 1088 
L 4947 768 
Q 4685 1325 4365 1702 
L 4819 1965 
Q 5171 1530 5466 1088 
z
" transform="scale(0.015625)"/>
      <path id="STHeiti-7f29" d="M 3910 4582 
Q 3853 4902 3750 5146 
L 4352 5235 
Q 4448 4851 4538 4582 
Q 5478 4595 5907 4634 
L 5907 3712 
L 5402 3712 
L 5402 4173 
L 2893 4173 
L 2893 3456 
L 2387 3456 
L 2387 4634 
Q 2714 4582 3910 4582 
z
M 1414 2848 
L 1069 2803 
Q 749 2765 525 2682 
Q 480 2931 358 3104 
Q 570 3270 842 3836 
Q 1114 4403 1306 5101 
Q 1658 4947 1802 4924 
Q 1946 4902 1946 4857 
Q 1946 4813 1862 4787 
Q 1709 4736 941 3155 
L 1606 3232 
Q 1805 3629 1862 3872 
Q 2099 3648 2291 3571 
Q 2362 3546 2362 3507 
Q 2362 3469 2294 3440 
Q 2227 3411 1178 1690 
L 2214 1754 
Q 2182 1606 2182 1497 
Q 2182 1389 2189 1318 
L 1254 1267 
Q 794 1229 621 1158 
Q 608 1402 480 1619 
Q 851 1747 1414 2848 
z
M 2803 2419 
Q 2598 2157 2381 1914 
Q 2298 2106 2029 2157 
Q 2330 2406 2691 2889 
Q 3053 3373 3245 3904 
Q 3405 3789 3642 3706 
Q 3731 3674 3731 3642 
Q 3731 3610 3622 3552 
Q 3558 3501 3251 3027 
L 3251 -506 
L 2733 -506 
Q 2803 192 2803 870 
L 2803 2419 
z
M 4435 3085 
Q 3974 3072 3718 3027 
L 3718 3571 
Q 4077 3507 4829 3507 
Q 5581 3507 5939 3571 
L 5939 3027 
Q 5587 3091 4877 3091 
Q 4845 2803 4762 2438 
Q 5581 2438 5805 2483 
Q 5766 2240 5766 1869 
L 5766 493 
Q 5766 -13 5824 -435 
L 5306 -435 
L 5306 -26 
L 4250 -26 
L 4250 -448 
L 3725 -448 
Q 3782 0 3782 480 
L 3782 1869 
Q 3782 2195 3744 2483 
Q 3949 2445 4320 2438 
Q 4403 2829 4435 3085 
z
M 4250 1453 
L 5306 1453 
L 5306 2022 
L 4250 2022 
L 4250 1453 
z
M 5306 1037 
L 4250 1037 
L 4250 390 
L 5306 390 
L 5306 1037 
z
M 2432 787 
Q 2394 678 2394 556 
Q 2394 435 2413 314 
Q 992 109 512 -186 
Q 499 115 339 506 
Q 794 461 2432 787 
z
" transform="scale(0.015625)"/>
     </defs>
     <use xlink:href="#STHeiti-538b"/>
     <use xlink:href="#STHeiti-7f29" transform="translate(99.999985 0)"/>
     <use xlink:href="#STHeiti-4b" transform="translate(199.999969 0)"/>
     <use xlink:href="#STHeiti-56" transform="translate(259.09996 0)"/>
     <use xlink:href="#STHeiti-30" transform="translate(329.299942 0)"/>
    </g>
   </g>
   <g id="patch_40">
    <path d="M 373.29938 152.480771 
Q 382.957649 223.173398 392.404038 292.315185 
" style="fill: none; stroke: #2e7d32; stroke-width: 1.4; stroke-linecap: round"/>
    <path d="M 393.844166 288.08127 
L 392.404038 292.315185 
L 389.880983 288.622734 
" style="fill: none; stroke: #2e7d32; stroke-width: 1.4; stroke-linecap: round"/>
   </g>
   <g id="patch_41">
    <path d="M 412.001933 248.113388 
Q 402.815912 271.052747 394.211771 292.539036 
" style="fill: none; stroke: #00838f; stroke-width: 1.4; stroke-linecap: round"/>
    <path d="M 397.555434 289.569201 
L 394.211771 292.539036 
L 393.842102 288.082205 
" style="fill: none; stroke: #00838f; stroke-width: 1.4; stroke-linecap: round"/>
   </g>
   <g id="text_45">
    <!-- 压缩KV1 -->
    <g style="fill: #e65100" transform="translate(377.498578 317.6475) scale(0.08 -0.08)">
     <use xlink:href="#STHeiti-538b"/>
     <use xlink:href="#STHeiti-7f29" transform="translate(99.999985 0)"/>
     <use xlink:href="#STHeiti-4b" transform="translate(199.999969 0)"/>
     <use xlink:href="#STHeiti-56" transform="translate(259.09996 0)"/>
     <use xlink:href="#STHeiti-31" transform="translate(329.299942 0)"/>
    </g>
   </g>
   <g id="patch_42">
    <path d="M 611.597975 152.480771 
Q 621.256244 223.173398 630.702633 292.315185 
" style="fill: none; stroke: #6a1b9a; stroke-width: 1.4; stroke-linecap: round"/>
    <path d="M 632.14276 288.08127 
L 630.702633 292.315185 
L 628.179578 288.622734 
" style="fill: none; stroke: #6a1b9a; stroke-width: 1.4; stroke-linecap: round"/>
   </g>
   <g id="patch_43">
    <path d="M 650.300528 248.113388 
Q 641.114507 271.052747 632.510366 292.539036 
" style="fill: none; stroke: #4527a0; stroke-width: 1.4; stroke-linecap: round"/>
    <path d="M 635.854029 289.569201 
L 632.510366 292.539036 
L 632.140696 288.082205 
" style="fill: none; stroke: #4527a0; stroke-width: 1.4; stroke-linecap: round"/>
   </g>
   <g id="text_46">
    <!-- 压缩KV2 -->
    <g style="fill: #e65100" transform="translate(615.797173 317.6475) scale(0.08 -0.08)">
     <use xlink:href="#STHeiti-538b"/>
     <use xlink:href="#STHeiti-7f29" transform="translate(99.999985 0)"/>
     <use xlink:href="#STHeiti-4b" transform="translate(199.999969 0)"/>
     <use xlink:href="#STHeiti-56" transform="translate(259.09996 0)"/>
     <use xlink:href="#STHeiti-32" transform="translate(329.299942 0)"/>
    </g>
   </g>
   <g id="patch_44">
    <path d="M 849.89657 152.480771 
Q 859.554839 223.173398 869.001228 292.315185 
" style="fill: none; stroke: #c62828; stroke-width: 1.4; stroke-linecap: round"/>
    <path d="M 870.441355 288.08127 
L 869.001228 292.315185 
L 866.478173 288.622734 
" style="fill: none; stroke: #c62828; stroke-width: 1.4; stroke-linecap: round"/>
   </g>
   <g id="patch_45">
    <path d="M 888.599123 248.113388 
Q 879.413102 271.052747 870.808961 292.539036 
" style="fill: none; stroke: #ad1457; stroke-width: 1.4; stroke-linecap: round"/>
    <path d="M 874.152624 289.569201 
L 870.808961 292.539036 
L 870.439291 288.082205 
" style="fill: none; stroke: #ad1457; stroke-width: 1.4; stroke-linecap: round"/>
   </g>
   <g id="text_47">
    <!-- 压缩KV3 -->
    <g style="fill: #e65100" transform="translate(854.095768 317.6475) scale(0.08 -0.08)">
     <use xlink:href="#STHeiti-538b"/>
     <use xlink:href="#STHeiti-7f29" transform="translate(99.999985 0)"/>
     <use xlink:href="#STHeiti-4b" transform="translate(199.999969 0)"/>
     <use xlink:href="#STHeiti-56" transform="translate(259.09996 0)"/>
     <use xlink:href="#STHeiti-33" transform="translate(329.299942 0)"/>
    </g>
   </g>
   <g id="text_48">
    <g id="patch_46">
     <path d="M 419.805181 387.83 
L 723.416118 387.83 
Q 726.416118 387.83 726.416118 384.83 
L 726.416118 375.13 
Q 726.416118 372.13 723.416118 372.13 
L 419.805181 372.13 
Q 416.805181 372.13 416.805181 375.13 
L 416.805181 384.83 
Q 416.805181 387.83 419.805181 387.83 
z
" style="fill: #e8f5e9; stroke: #2e7d32; stroke-width: 1.5; stroke-linejoin: miter"/>
    </g>
    <!-- 软融合权重由注意力分数决定  |  边界 Overlap → 避免组间信息断裂 -->
    <g style="fill: #333333" transform="translate(419.805181 383.489375) scale(0.1 -0.1)">
     <defs>
      <path id="STHeiti-6743" d="M 1414 2406 
Q 1146 1491 589 762 
Q 454 1133 301 1331 
Q 634 1683 864 2156 
Q 1094 2630 1312 3398 
Q 730 3379 467 3347 
L 467 3891 
Q 851 3840 1414 3840 
Q 1414 4768 1338 5242 
Q 1542 5216 1715 5216 
L 1997 5229 
Q 2067 5229 2067 5197 
Q 2067 5165 1993 5097 
Q 1920 5030 1920 4896 
L 1920 3840 
Q 2330 3846 2662 3891 
L 2662 3347 
Q 2394 3386 1920 3392 
L 1920 614 
Q 1920 115 1984 -589 
L 1357 -589 
Q 1414 45 1414 614 
L 1414 2406 
z
M 3174 4109 
Q 3046 4102 2816 4083 
L 2816 4640 
Q 3392 4589 4339 4589 
Q 5286 4589 5709 4640 
Q 5517 3322 5248 2506 
Q 4979 1690 4570 1133 
Q 5114 557 6170 339 
Q 5926 58 5786 -365 
Q 4723 128 4211 704 
Q 3571 64 2630 -454 
Q 2515 -179 2240 19 
Q 3315 506 3910 1114 
Q 3514 1747 3366 2403 
Q 3219 3059 3174 4109 
z
M 3680 4128 
Q 3686 3194 3811 2643 
Q 3936 2093 4262 1549 
Q 4870 2502 5050 4128 
L 3680 4128 
z
M 2861 1760 
L 2368 1517 
Q 2221 2003 1965 2477 
L 2362 2669 
Q 2637 2234 2861 1760 
z
" transform="scale(0.015625)"/>
      <path id="STHeiti-91cd" d="M 2931 4442 
Q 2010 4371 1533 4371 
Q 1056 4371 941 4384 
Q 890 4634 768 4845 
Q 1165 4806 1856 4806 
Q 2547 4806 3459 4899 
Q 4371 4992 4851 5139 
Q 4973 4870 5216 4627 
Q 5274 4570 5274 4538 
Q 5274 4506 5219 4506 
Q 5165 4506 5011 4515 
Q 4858 4525 4448 4525 
Q 4038 4525 3411 4480 
L 3411 3968 
Q 5120 3968 6029 4032 
L 6029 3552 
Q 5120 3616 3411 3616 
L 3411 3174 
Q 4602 3174 5229 3219 
Q 5190 2842 5190 2307 
Q 5190 1773 5229 1248 
Q 4346 1286 3411 1286 
L 3411 896 
Q 4685 896 5382 960 
L 5382 467 
Q 4685 531 3411 531 
L 3411 128 
Q 5075 128 5965 192 
L 5965 -333 
Q 5030 -269 3187 -269 
Q 1344 -269 410 -333 
L 410 192 
Q 1293 128 2931 128 
L 2931 531 
Q 1715 525 1030 467 
L 1030 960 
Q 1715 902 2931 896 
L 2931 1286 
Q 1914 1286 1197 1254 
Q 1229 1702 1229 2249 
Q 1229 2797 1197 3219 
Q 1811 3181 2931 3174 
L 2931 3616 
Q 1254 3616 358 3552 
L 358 4032 
Q 1254 3968 2931 3968 
L 2931 4442 
z
M 2931 2432 
L 2931 2810 
L 1696 2810 
L 1696 2432 
L 2931 2432 
z
M 3411 2810 
L 3411 2432 
L 4698 2432 
L 4698 2810 
L 3411 2810 
z
M 2931 1645 
L 2931 2093 
L 1696 2093 
L 1696 1645 
L 2931 1645 
z
M 3411 2093 
L 3411 1645 
L 4698 1645 
L 4698 2093 
L 3411 2093 
z
" transform="scale(0.015625)"/>
      <path id="STHeiti-7531" d="M 4941 19 
L 1491 19 
L 1491 -384 
L 915 -384 
Q 960 90 960 691 
L 960 3309 
Q 960 3834 915 4109 
Q 1549 4058 2925 4058 
Q 2918 4710 2854 5254 
Q 2995 5248 3181 5248 
L 3533 5248 
Q 3635 5248 3635 5213 
Q 3635 5178 3555 5117 
Q 3475 5056 3475 4749 
L 3475 4058 
Q 4960 4058 5523 4109 
Q 5478 3763 5478 3309 
L 5478 819 
Q 5478 230 5523 -262 
L 4941 -262 
L 4941 19 
z
M 2925 2349 
L 2925 3584 
L 1491 3584 
L 1491 2349 
L 2925 2349 
z
M 3475 3584 
L 3475 2349 
L 4941 2349 
L 4941 3584 
L 3475 3584 
z
M 3475 493 
L 4941 493 
L 4941 1882 
L 3475 1882 
L 3475 493 
z
M 1491 493 
L 2925 493 
L 2925 1882 
L 1491 1882 
L 1491 493 
z
" transform="scale(0.015625)"/>
      <path id="STHeiti-6ce8" d="M 4384 4563 
L 3750 4358 
Q 3680 4755 3482 5114 
L 4083 5312 
Q 4282 4909 4384 4563 
z
M 2042 4390 
L 1651 3917 
Q 1248 4346 787 4627 
L 1158 5050 
Q 1632 4742 2042 4390 
z
M 3699 230 
L 3699 1926 
Q 2893 1920 2432 1862 
L 2432 2470 
Q 2893 2413 3699 2406 
L 3699 3750 
Q 2726 3744 2195 3686 
L 2195 4288 
Q 2816 4224 4041 4224 
Q 5267 4224 5888 4288 
L 5888 3686 
Q 5318 3744 4256 3750 
L 4256 2406 
Q 5146 2413 5651 2470 
L 5651 1862 
Q 5146 1920 4256 1926 
L 4256 230 
Q 5357 237 5939 294 
L 5939 -307 
Q 5274 -243 3962 -243 
Q 2650 -243 1984 -307 
L 1984 294 
Q 2579 237 3699 230 
z
M 1754 2938 
L 1363 2451 
Q 986 2874 416 3117 
L 781 3558 
Q 1325 3270 1754 2938 
z
M 1818 1779 
Q 1555 973 1178 -499 
Q 870 -243 518 -128 
Q 941 557 1299 2099 
Q 1510 1882 1818 1779 
z
" transform="scale(0.015625)"/>
      <path id="STHeiti-610f" d="M 2970 4723 
Q 2906 4992 2803 5197 
L 3469 5306 
Q 3597 4794 3622 4723 
Q 4851 4730 5536 4768 
L 5536 4288 
Q 4627 4339 3177 4339 
Q 1728 4339 819 4288 
L 819 4768 
Q 1510 4723 2970 4723 
z
M 2150 3731 
Q 2067 3910 1888 4096 
L 2522 4275 
Q 2618 4058 2758 3878 
Q 2413 3789 2259 3731 
L 3725 3731 
Q 3917 4013 3994 4275 
Q 4326 4186 4685 4134 
Q 4749 4122 4749 4109 
Q 4749 4096 4704 4083 
Q 4493 4019 4288 3731 
Q 5248 3731 5888 3770 
L 5888 3290 
Q 5274 3341 3261 3341 
Q 1248 3341 557 3290 
L 557 3770 
Q 1133 3731 2150 3731 
z
M 5178 1069 
Q 4774 1101 3248 1101 
Q 1722 1101 1325 1069 
Q 1382 1229 1382 1510 
L 1382 2541 
Q 1382 2829 1325 2989 
Q 1722 2957 3248 2957 
Q 4774 2957 5178 2989 
Q 5114 2842 5114 2541 
L 5114 1510 
Q 5114 1216 5178 1069 
z
M 4634 2208 
L 4634 2566 
L 1862 2566 
L 1862 2208 
L 4634 2208 
z
M 1862 1830 
L 1862 1485 
L 4634 1485 
L 4634 1830 
L 1862 1830 
z
M 3846 461 
L 3226 256 
Q 3130 602 2906 890 
L 3494 1056 
Q 3757 582 3846 461 
z
M 6048 134 
L 5542 -224 
Q 5216 314 4851 666 
L 5293 909 
L 6048 134 
z
M 4902 339 
Q 4678 -294 4444 -390 
Q 4211 -486 2957 -486 
Q 2349 -486 2211 -451 
Q 2074 -416 2006 -374 
Q 1939 -333 1939 -70 
L 1939 461 
Q 1939 672 1901 838 
Q 2086 781 2195 768 
Q 2304 755 2435 755 
Q 2566 755 2566 732 
Q 2566 710 2499 665 
Q 2432 621 2432 525 
L 2432 282 
Q 2432 154 2464 77 
Q 2496 0 2573 -35 
Q 2650 -70 3002 -70 
Q 3354 -70 3696 -41 
Q 4038 -13 4124 22 
Q 4211 58 4256 173 
Q 4301 288 4339 582 
Q 4550 378 4902 339 
z
M 1568 621 
Q 1318 38 1056 -435 
L 518 -218 
Q 877 192 998 768 
L 1568 621 
z
" transform="scale(0.015625)"/>
      <path id="STHeiti-529b" d="M 3270 3386 
Q 3066 1760 2554 989 
Q 2042 218 947 -499 
Q 678 -230 378 -109 
Q 1453 358 2032 1248 
Q 2611 2138 2682 3386 
Q 1248 3386 781 3328 
L 781 3923 
Q 1203 3872 2714 3866 
Q 2797 5082 2778 5267 
Q 3104 5139 3507 5114 
Q 3610 5107 3610 5062 
Q 3610 5018 3533 4966 
Q 3482 4928 3443 4742 
Q 3405 4557 3328 3866 
Q 5395 3866 5715 3923 
L 5389 582 
Q 5350 198 5241 6 
Q 5133 -186 4848 -304 
Q 4563 -422 3936 -538 
Q 3853 -122 3661 141 
Q 4154 134 4387 185 
Q 4621 237 4713 381 
Q 4806 525 4838 832 
L 5094 3386 
L 3270 3386 
z
" transform="scale(0.015625)"/>
      <path id="STHeiti-5206" d="M 6150 2784 
Q 5894 2554 5677 2150 
Q 4877 2707 4384 3318 
Q 3891 3930 3590 5075 
L 4128 5184 
Q 4307 4512 4547 4089 
Q 4787 3667 5216 3328 
Q 5645 2989 6150 2784 
z
M 2246 5094 
Q 2675 4877 2899 4858 
Q 2982 4845 2982 4800 
Q 2982 4755 2876 4713 
Q 2771 4672 2704 4589 
Q 2637 4506 2566 4346 
Q 2330 3840 1830 3165 
Q 1331 2490 787 1971 
Q 614 2195 288 2413 
Q 960 2874 1462 3581 
Q 1965 4288 2246 5094 
z
M 2400 2138 
Q 1818 2138 1542 2093 
L 1542 2688 
Q 1882 2637 3066 2637 
Q 4250 2637 4973 2662 
L 4755 173 
Q 4723 -218 4496 -368 
Q 4269 -518 3584 -614 
Q 3520 -237 3290 70 
Q 3501 51 3642 51 
Q 3962 51 4083 179 
Q 4205 307 4237 653 
L 4365 2138 
L 2931 2138 
Q 2867 1120 2374 451 
Q 1882 -218 1184 -602 
Q 934 -314 595 -179 
Q 1530 211 1939 777 
Q 2349 1344 2400 2138 
z
" transform="scale(0.015625)"/>
      <path id="STHeiti-6570" d="M 4640 480 
Q 4173 -51 3194 -467 
Q 3059 -237 2803 -26 
Q 3238 70 3673 323 
Q 4109 576 4365 890 
Q 3994 1549 3962 2835 
Q 3744 2458 3520 2176 
Q 3366 2419 3206 2522 
Q 3584 3040 3837 3747 
Q 4090 4454 4147 5171 
Q 4486 5062 4800 5037 
Q 4877 5030 4877 4988 
Q 4877 4947 4781 4896 
Q 4704 4858 4480 4128 
L 5216 4128 
Q 5747 4128 6003 4179 
L 6003 3661 
Q 5850 3680 5562 3699 
Q 5440 1773 4934 896 
Q 5254 518 6112 250 
Q 5856 6 5754 -365 
Q 4902 141 4640 480 
z
M 4627 1363 
Q 5018 2253 5088 3706 
L 4352 3706 
Q 4237 3328 3981 2874 
L 4384 2886 
Q 4384 1907 4627 1363 
z
M 1549 3526 
Q 1222 3520 589 3488 
L 589 3942 
Q 1158 3898 1850 3898 
L 1850 4499 
Q 1850 4800 1786 5165 
Q 2042 5139 2362 5139 
Q 2458 5139 2458 5094 
Q 2458 5050 2406 5030 
Q 2355 5011 2336 4976 
Q 2317 4941 2317 4845 
L 2317 3898 
Q 2758 3904 3507 3942 
L 3507 3488 
Q 2810 3526 2317 3533 
Q 2317 2970 2362 2515 
L 1805 2515 
Q 1850 3034 1850 3456 
Q 1632 3014 1401 2745 
Q 1171 2477 755 2189 
Q 608 2406 282 2573 
Q 1030 2816 1549 3526 
z
M 2861 4922 
Q 3155 4826 3386 4794 
Q 3462 4781 3462 4755 
Q 3462 4730 3388 4701 
Q 3315 4672 3228 4521 
Q 3142 4371 3014 4122 
Q 2835 4166 2560 4186 
Q 2746 4461 2861 4922 
z
M 1510 4230 
L 973 4154 
Q 966 4461 883 4806 
L 1389 4870 
Q 1459 4595 1510 4230 
z
M 3360 2790 
L 3046 2477 
Q 2765 2816 2464 3078 
L 2790 3328 
Q 3034 3117 3360 2790 
z
M 2899 755 
Q 3168 666 3450 525 
Q 3251 314 3168 128 
Q 2886 288 2637 390 
Q 2394 128 1984 -51 
Q 1574 -230 781 -410 
Q 627 -115 346 109 
Q 1619 134 2157 557 
Q 1709 691 1030 781 
Q 1248 1165 1408 1555 
Q 800 1549 531 1504 
L 531 1965 
Q 858 1939 1536 1926 
Q 1600 2118 1696 2458 
Q 1946 2355 2214 2336 
Q 2342 2323 2342 2294 
Q 2342 2266 2243 2198 
Q 2144 2131 2035 1926 
L 2899 1926 
Q 3162 1926 3341 1971 
Q 3123 1158 2899 755 
z
M 1862 1555 
L 1626 1043 
Q 2118 966 2470 883 
Q 2662 1165 2726 1555 
L 1862 1555 
z
" transform="scale(0.015625)"/>
      <path id="STHeiti-51b3" d="M 3795 1773 
Q 3674 941 3254 413 
Q 2835 -115 1882 -640 
Q 1754 -378 1414 -166 
Q 3117 422 3354 1882 
Q 2387 1875 2086 1824 
L 2086 2336 
Q 2477 2278 3398 2278 
Q 3411 2573 3411 2963 
Q 3411 3354 3405 3744 
Q 2675 3731 2310 3693 
L 2310 4230 
Q 2586 4198 3398 4186 
Q 3379 4787 3341 5222 
Q 3610 5197 3782 5197 
L 4058 5197 
Q 4128 5197 4128 5161 
Q 4128 5126 4070 5082 
Q 3930 4979 3910 4179 
Q 4998 4179 5395 4237 
Q 5344 3904 5331 3315 
L 5312 2285 
Q 5645 2291 5920 2336 
L 5920 1824 
Q 5594 1882 4013 1882 
Q 4346 1043 4822 636 
Q 5299 230 6125 77 
Q 5798 -243 5741 -640 
Q 4838 -192 4368 387 
Q 3898 966 3795 1773 
z
M 3904 3744 
Q 3891 2803 3853 2278 
L 4800 2278 
L 4858 3744 
L 3904 3744 
z
M 1952 3411 
L 1434 3072 
Q 1030 3821 512 4320 
L 947 4646 
Q 1472 4038 1952 3411 
z
M 1869 2189 
Q 1011 390 896 -19 
Q 678 211 301 480 
Q 538 755 906 1440 
Q 1274 2125 1408 2534 
Q 1645 2246 1869 2189 
z
" transform="scale(0.015625)"/>
      <path id="STHeiti-5b9a" d="M 3744 4480 
L 3091 4314 
Q 2976 4653 2758 5037 
L 3360 5229 
Q 3546 4915 3744 4480 
z
M 659 4307 
Q 1267 4250 3142 4250 
Q 5018 4250 5773 4307 
L 5773 3027 
L 5216 3027 
L 5216 3808 
L 1216 3808 
L 1216 2938 
L 659 2938 
L 659 4307 
z
M 3507 1837 
L 4397 1837 
Q 4960 1837 5389 1901 
L 5389 1318 
Q 4998 1382 4397 1382 
L 3507 1382 
L 3507 154 
Q 4064 70 4729 70 
Q 5395 70 6074 179 
Q 6003 70 5964 -61 
Q 5926 -192 5926 -486 
Q 5715 -506 5376 -506 
Q 4070 -506 3152 -288 
Q 2234 -70 1619 813 
Q 1248 -19 845 -563 
Q 563 -346 384 -256 
Q 1216 730 1594 2182 
Q 1862 2054 2157 2003 
Q 2253 1990 2253 1945 
Q 2253 1901 2176 1824 
Q 1997 1632 1805 1235 
Q 2176 595 2982 282 
L 2982 2707 
Q 1984 2701 1408 2650 
L 1408 3194 
Q 2048 3136 3203 3136 
Q 4358 3136 4992 3194 
L 4992 2650 
Q 4435 2701 3507 2707 
L 3507 1837 
z
" transform="scale(0.015625)"/>
      <path id="STHeiti-7c" d="M 1926 5280 
L 2374 5280 
L 2374 -672 
L 1926 -672 
L 1926 5280 
z
" transform="scale(0.015625)"/>
      <path id="STHeiti-2192" d="M 6086 2285 
L 4115 1114 
L 4115 2131 
L 262 2131 
L 262 2477 
L 4115 2477 
L 4115 3526 
L 6086 2285 
z
" transform="scale(0.015625)"/>
      <path id="STHeiti-907f" d="M 4634 4454 
Q 4634 4806 4480 5120 
L 5024 5197 
Q 5082 4595 5107 4454 
Q 5530 4461 5843 4512 
L 5843 4032 
Q 5517 4083 4845 4083 
Q 4173 4083 3853 4032 
L 3853 4512 
Q 4173 4461 4634 4454 
z
M 1504 3750 
L 947 3629 
Q 896 4256 685 4787 
L 1210 4915 
Q 1402 4320 1504 3750 
z
M 2285 2138 
Q 2138 1574 1818 832 
Q 1664 1069 1466 1286 
Q 2074 2317 2074 3904 
Q 2074 4333 2029 4813 
Q 2234 4781 2864 4781 
Q 3494 4781 3610 4813 
Q 3584 4390 3584 3875 
Q 3584 3360 3610 3098 
Q 3450 3123 3187 3123 
L 2464 3123 
Q 2464 2893 2374 2477 
Q 2592 2458 2998 2458 
Q 3405 2458 3622 2490 
Q 3597 2266 3597 1571 
Q 3597 877 3622 749 
Q 3398 781 2985 781 
Q 2573 781 2272 749 
Q 2298 1126 2298 1420 
Q 2298 1715 2285 2138 
z
M 2464 4397 
L 2464 3501 
L 3155 3501 
L 3155 4397 
L 2464 4397 
z
M 2694 2118 
L 2694 1152 
L 3206 1152 
L 3206 2118 
L 2694 2118 
z
M 4986 2918 
Q 5158 3526 5178 4006 
Q 5440 3878 5702 3853 
Q 5766 3846 5766 3817 
Q 5766 3789 5715 3757 
Q 5606 3686 5370 2918 
Q 5651 2918 5894 2944 
L 5894 2496 
Q 5568 2534 5024 2534 
L 5024 1754 
Q 5542 1760 5811 1805 
L 5811 1312 
Q 5555 1363 5024 1370 
L 5024 1350 
Q 5024 762 5075 250 
L 4538 250 
Q 4589 755 4589 1350 
L 4589 1370 
Q 4070 1363 3827 1312 
L 3827 1805 
Q 4077 1760 4589 1754 
L 4589 2534 
Q 4109 2528 3808 2496 
L 3808 2944 
Q 4070 2918 4371 2918 
L 4986 2918 
z
M 4640 3104 
L 4224 3027 
Q 4198 3475 4070 3808 
L 4518 3891 
Q 4614 3520 4640 3104 
z
M 1389 531 
Q 1542 506 1884 362 
Q 2227 218 2771 144 
Q 3315 70 3974 70 
Q 4986 70 6016 243 
Q 5818 -128 5786 -403 
Q 4736 -448 4051 -448 
Q 3366 -448 2857 -374 
Q 2349 -301 1645 -6 
Q 1350 115 1216 115 
Q 1082 115 957 -22 
Q 832 -160 672 -448 
Q 410 -211 205 -64 
Q 627 378 909 499 
L 909 2515 
Q 506 2515 384 2490 
L 384 3059 
Q 602 3034 890 3034 
Q 1178 3034 1446 3059 
Q 1389 2720 1389 2317 
L 1389 531 
z
" transform="scale(0.015625)"/>
      <path id="STHeiti-514d" d="M 2566 4602 
L 3763 4602 
Q 4678 4602 4902 4621 
Q 4755 4454 4531 4166 
L 3981 3443 
Q 4851 3443 5562 3482 
Q 5549 3110 5549 2476 
Q 5549 1843 5562 1632 
Q 4973 1658 3942 1658 
L 3942 301 
Q 3942 102 4067 41 
Q 4192 -19 4617 -19 
Q 5043 -19 5212 35 
Q 5382 90 5446 259 
Q 5510 429 5530 838 
Q 5754 627 6099 531 
Q 5997 38 5897 -141 
Q 5798 -320 5555 -377 
Q 5312 -435 4723 -435 
Q 4134 -435 3875 -393 
Q 3616 -352 3529 -256 
Q 3443 -160 3443 51 
L 3443 1658 
L 3405 1658 
Q 3206 966 2636 441 
Q 2067 -83 1056 -518 
Q 838 -230 544 -13 
Q 1382 109 2022 569 
Q 2662 1030 2893 1658 
Q 1619 1658 1203 1645 
Q 1216 1914 1216 2163 
L 1216 3315 
Q 1050 3181 813 3002 
Q 589 3219 326 3334 
Q 877 3571 1494 4150 
Q 2112 4730 2330 5210 
Q 2682 5050 2976 5043 
Q 3046 5037 3046 4992 
Q 3046 4947 2944 4918 
Q 2842 4890 2566 4602 
z
M 3450 3443 
L 4006 4237 
L 2240 4237 
Q 1869 3859 1370 3443 
L 3450 3443 
z
M 3622 3021 
Q 3584 2445 3501 2074 
L 5011 2074 
L 5011 3021 
L 3622 3021 
z
M 3002 2074 
Q 3078 2406 3085 3021 
L 1747 3021 
L 1747 2074 
L 3002 2074 
z
" transform="scale(0.015625)"/>
      <path id="STHeiti-95f4" d="M 2342 4301 
L 1786 3962 
Q 1568 4531 1229 4915 
L 1741 5178 
Q 2118 4685 2342 4301 
z
M 5715 4870 
Q 5690 4755 5690 4102 
L 5690 13 
Q 5690 -282 5642 -390 
Q 5594 -499 5408 -553 
Q 5222 -608 4698 -678 
Q 4666 -358 4480 -32 
Q 4794 -70 4938 -70 
Q 5082 -70 5123 -6 
Q 5165 58 5165 262 
L 5165 4346 
L 3680 4346 
Q 3187 4346 2822 4307 
L 2822 4870 
Q 3405 4832 4301 4832 
Q 5197 4832 5715 4870 
z
M 710 3962 
Q 870 3917 1274 3917 
Q 1382 3917 1382 3869 
Q 1382 3821 1318 3744 
Q 1280 3699 1280 3552 
L 1280 -614 
L 678 -614 
Q 736 -70 736 512 
L 736 3181 
Q 736 3661 710 3962 
z
M 4416 531 
Q 4186 563 3235 563 
Q 2285 563 2048 531 
Q 2074 640 2074 998 
L 2074 3014 
Q 2074 3366 2048 3475 
Q 2285 3443 3235 3443 
Q 4186 3443 4416 3475 
Q 4384 3328 4384 3014 
L 4384 998 
Q 4384 678 4416 531 
z
M 3878 2240 
L 3878 3034 
L 2573 3034 
L 2573 2240 
L 3878 2240 
z
M 3878 998 
L 3878 1824 
L 2573 1824 
L 2573 998 
L 3878 998 
z
" transform="scale(0.015625)"/>
      <path id="STHeiti-4fe1" d="M 4429 4653 
L 3712 4448 
Q 3648 4787 3494 5101 
L 4179 5267 
Q 4358 4845 4429 4653 
z
M 1574 3942 
L 1574 -614 
L 973 -614 
Q 1050 -64 1050 602 
L 1050 2848 
Q 870 2541 576 2125 
Q 467 2394 192 2592 
Q 678 3098 972 3850 
Q 1267 4602 1370 5190 
Q 1696 5024 1946 4979 
Q 2067 4960 2067 4918 
Q 2067 4877 1987 4819 
Q 1907 4762 1818 4538 
L 1574 3942 
z
M 5933 3853 
Q 5005 3904 3901 3904 
Q 2797 3904 2048 3853 
L 2048 4416 
Q 2842 4352 4054 4352 
Q 5267 4352 5933 4416 
L 5933 3853 
z
M 5549 2944 
Q 4934 2995 3875 2995 
Q 2816 2995 2317 2944 
L 2317 3488 
Q 2822 3437 3875 3437 
Q 4928 3437 5549 3488 
L 5549 2944 
z
M 5581 2061 
Q 4947 2112 3929 2112 
Q 2912 2112 2285 2061 
L 2285 2605 
Q 2925 2554 3936 2554 
Q 4947 2554 5581 2605 
L 5581 2061 
z
M 2893 -70 
L 2893 -602 
L 2336 -602 
Q 2381 -352 2381 -38 
L 2381 1082 
Q 2381 1434 2336 1645 
Q 2656 1587 3945 1587 
Q 5235 1587 5530 1645 
Q 5485 1370 5485 1082 
L 5485 96 
Q 5485 -218 5530 -474 
L 4973 -474 
L 4973 -70 
L 2893 -70 
z
M 4973 378 
L 4973 1139 
L 2893 1139 
L 2893 378 
L 4973 378 
z
" transform="scale(0.015625)"/>
      <path id="STHeiti-606f" d="M 2266 4589 
Q 2406 5152 2426 5350 
Q 2605 5293 2809 5254 
Q 3014 5216 3094 5216 
Q 3174 5216 3174 5181 
Q 3174 5146 3091 5091 
Q 3008 5037 2947 4941 
Q 2886 4845 2771 4589 
Q 4717 4589 5261 4646 
Q 5222 4358 5222 3648 
L 5222 2586 
Q 5222 1843 5261 1562 
Q 4723 1619 3059 1619 
Q 1395 1619 1184 1562 
Q 1222 2010 1222 2586 
L 1222 3648 
Q 1222 4250 1184 4646 
Q 1536 4595 2266 4589 
z
M 1722 3718 
L 4704 3718 
L 4704 4179 
L 1722 4179 
L 1722 3718 
z
M 1722 2874 
L 4704 2874 
L 4704 3334 
L 1722 3334 
L 1722 2874 
z
M 1722 2029 
L 4704 2029 
L 4704 2483 
L 1722 2483 
L 1722 2029 
z
M 3955 672 
L 3386 416 
Q 3226 864 2950 1184 
L 3469 1427 
Q 3725 1043 3955 672 
z
M 6099 339 
L 5638 -83 
Q 5280 461 4698 954 
L 5165 1299 
Q 5824 634 6099 339 
z
M 4896 307 
Q 4736 -51 4656 -166 
Q 4576 -282 4429 -333 
Q 4282 -384 3875 -422 
Q 3469 -461 2835 -461 
Q 2202 -461 2010 -377 
Q 1818 -294 1818 160 
L 1818 717 
Q 1818 1062 1760 1274 
Q 2042 1222 2278 1222 
L 2413 1235 
Q 2470 1235 2470 1203 
Q 2470 1171 2419 1132 
Q 2368 1094 2352 1056 
Q 2336 1018 2336 934 
L 2336 250 
Q 2336 90 2419 29 
Q 2502 -32 2822 -32 
Q 3142 -32 3603 0 
Q 4064 32 4176 166 
Q 4288 301 4371 678 
Q 4550 384 4896 307 
z
M 1363 960 
Q 1069 237 909 -390 
L 333 -230 
Q 717 454 800 1043 
L 1363 960 
z
" transform="scale(0.015625)"/>
      <path id="STHeiti-65ad" d="M 2067 3059 
L 2067 4275 
Q 2067 4826 2048 5101 
Q 2214 5056 2573 5056 
Q 2669 5056 2669 5024 
Q 2669 4992 2589 4912 
Q 2509 4832 2509 4659 
L 2509 3059 
Q 3142 3059 3424 3091 
L 3424 2637 
Q 3142 2669 2509 2669 
L 2509 1498 
Q 2509 909 2560 486 
L 2022 486 
Q 2067 1018 2067 1498 
L 2067 2336 
Q 1830 1504 1344 704 
Q 1248 947 1069 1203 
Q 1517 1728 1888 2669 
Q 1485 2662 1229 2637 
L 1229 3091 
Q 1536 3059 2067 3059 
z
M 4147 3181 
L 5325 3181 
Q 5824 3181 6086 3238 
L 6086 2701 
Q 5811 2746 5318 2746 
L 5318 384 
Q 5318 -160 5357 -634 
L 4762 -634 
Q 4800 -160 4800 384 
L 4800 2746 
L 4147 2746 
Q 4141 1466 3984 774 
Q 3827 83 3341 -480 
Q 3142 -282 2842 -198 
L 2842 -256 
Q 2515 -237 1651 -237 
Q 787 -237 467 -262 
Q 531 134 531 755 
L 531 3821 
Q 531 4371 506 4602 
Q 749 4557 1094 4557 
Q 1171 4557 1171 4534 
Q 1171 4512 1116 4467 
Q 1062 4422 1036 4374 
Q 1011 4326 1011 4224 
L 1011 224 
L 2259 224 
Q 2611 224 2842 288 
L 2842 -160 
Q 3187 211 3334 457 
Q 3482 704 3546 1088 
Q 3610 1472 3642 2368 
Q 3674 3264 3674 3856 
Q 3674 4448 3648 4749 
Q 4051 4723 4608 4812 
Q 5165 4902 5594 5056 
Q 5664 4896 5763 4736 
Q 5862 4576 5910 4531 
Q 5958 4486 5958 4451 
Q 5958 4416 5920 4416 
Q 5882 4416 5824 4429 
Q 5766 4442 5632 4442 
Q 5306 4442 4147 4301 
L 4147 3181 
z
M 3053 4698 
Q 3398 4538 3546 4525 
Q 3610 4518 3610 4483 
Q 3610 4448 3562 4425 
Q 3514 4403 3379 4128 
Q 3245 3853 3085 3450 
L 2688 3584 
Q 2976 4218 3053 4698 
z
M 1850 3578 
L 1389 3520 
Q 1363 4000 1216 4557 
L 1677 4634 
Q 1709 4154 1850 3578 
z
M 3462 1555 
L 3066 1254 
Q 2880 1670 2586 2106 
L 2938 2310 
Q 3213 1939 3462 1555 
z
" transform="scale(0.015625)"/>
      <path id="STHeiti-88c2" d="M 5056 5210 
Q 5229 5178 5613 5178 
Q 5709 5178 5709 5133 
Q 5709 5088 5645 5037 
Q 5581 4986 5581 4845 
L 5581 2752 
Q 5581 2470 5533 2352 
Q 5485 2234 5312 2176 
Q 5139 2118 4717 2067 
Q 4685 2374 4531 2592 
Q 4742 2566 4857 2566 
Q 4973 2566 5030 2624 
Q 5088 2682 5088 2982 
L 5088 4166 
Q 5088 4890 5056 5210 
z
M 2093 4083 
L 3648 4083 
Q 3290 3309 2973 3014 
Q 2656 2720 2256 2438 
Q 1856 2157 1254 1965 
L 3949 1958 
Q 5133 1958 6003 2035 
L 6003 1510 
Q 4960 1568 3206 1568 
Q 2899 1229 2400 915 
L 2400 -6 
Q 3002 269 3379 493 
Q 3373 250 3482 -6 
L 2490 -454 
Q 2259 -563 2035 -755 
Q 1933 -499 1773 -282 
Q 1920 -186 1920 19 
L 1920 646 
Q 1331 346 557 90 
Q 486 307 262 544 
Q 1651 832 2573 1568 
Q 1152 1555 397 1510 
L 397 2035 
Q 576 1990 1171 1971 
Q 1030 2214 845 2381 
Q 1472 2496 1990 2797 
Q 1779 3066 1581 3251 
L 1952 3494 
Q 2202 3270 2355 3046 
Q 2605 3219 2976 3680 
L 1773 3680 
Q 1478 3328 864 2848 
Q 678 3072 429 3168 
Q 1414 3654 1818 4506 
Q 1043 4499 678 4448 
L 678 4960 
Q 1133 4902 2192 4902 
Q 3251 4902 3699 4960 
L 3699 4448 
Q 3283 4506 2323 4506 
Q 2246 4282 2093 4083 
z
M 4045 4736 
Q 4173 4723 4320 4723 
L 4602 4736 
Q 4653 4736 4653 4704 
Q 4653 4672 4608 4624 
Q 4563 4576 4563 4397 
L 4563 3552 
Q 4563 3194 4589 2835 
L 4045 2835 
Q 4070 3091 4070 3552 
L 4070 4083 
Q 4070 4544 4045 4736 
z
M 3674 2157 
L 3117 2016 
Q 3059 2317 2906 2682 
L 3424 2861 
Q 3552 2592 3674 2157 
z
M 4518 499 
Q 5120 102 6048 -6 
Q 5856 -269 5811 -614 
Q 4211 -186 3302 1107 
L 3712 1299 
Q 3917 998 4198 742 
Q 4870 1235 4941 1382 
Q 5216 1146 5402 1050 
Q 5459 1018 5459 992 
Q 5459 966 5376 960 
Q 5293 954 5158 880 
Q 5024 806 4518 499 
z
" transform="scale(0.015625)"/>
     </defs>
     <use xlink:href="#STHeiti-8f6f"/>
     <use xlink:href="#STHeiti-878d" transform="translate(99.999985 0)"/>
     <use xlink:href="#STHeiti-5408" transform="translate(199.999969 0)"/>
     <use xlink:href="#STHeiti-6743" transform="translate(299.999954 0)"/>
     <use xlink:href="#STHeiti-91cd" transform="translate(399.999939 0)"/>
     <use xlink:href="#STHeiti-7531" transform="translate(499.999924 0)"/>
     <use xlink:href="#STHeiti-6ce8" transform="translate(599.999908 0)"/>
     <use xlink:href="#STHeiti-610f" transform="translate(699.999893 0)"/>
     <use xlink:href="#STHeiti-529b" transform="translate(799.999878 0)"/>
     <use xlink:href="#STHeiti-5206" transform="translate(899.999863 0)"/>
     <use xlink:href="#STHeiti-6570" transform="translate(999.999847 0)"/>
     <use xlink:href="#STHeiti-51b3" transform="translate(1099.999832 0)"/>
     <use xlink:href="#STHeiti-5b9a" transform="translate(1199.999817 0)"/>
     <use xlink:href="#STHeiti-20" transform="translate(1299.999802 0)"/>
     <use xlink:href="#STHeiti-20" transform="translate(1324.999786 0)"/>
     <use xlink:href="#STHeiti-7c" transform="translate(1349.999771 0)"/>
     <use xlink:href="#STHeiti-20" transform="translate(1417.199768 0)"/>
     <use xlink:href="#STHeiti-20" transform="translate(1442.199753 0)"/>
     <use xlink:href="#STHeiti-8fb9" transform="translate(1467.199738 0)"/>
     <use xlink:href="#STHeiti-754c" transform="translate(1567.199722 0)"/>
     <use xlink:href="#STHeiti-20" transform="translate(1667.199707 0)"/>
     <use xlink:href="#STHeiti-4f" transform="translate(1692.199692 0)"/>
     <use xlink:href="#STHeiti-76" transform="translate(1779.099686 0)"/>
     <use xlink:href="#STHeiti-65" transform="translate(1834.49968 0)"/>
     <use xlink:href="#STHeiti-72" transform="translate(1899.499664 0)"/>
     <use xlink:href="#STHeiti-6c" transform="translate(1929.599655 0)"/>
     <use xlink:href="#STHeiti-61" transform="translate(1949.59964 0)"/>
     <use xlink:href="#STHeiti-70" transform="translate(2017.899628 0)"/>
     <use xlink:href="#STHeiti-20" transform="translate(2086.099609 0)"/>
     <use xlink:href="#STHeiti-2192" transform="translate(2111.099594 0)"/>
     <use xlink:href="#STHeiti-20" transform="translate(2211.099579 0)"/>
     <use xlink:href="#STHeiti-907f" transform="translate(2236.099564 0)"/>
     <use xlink:href="#STHeiti-514d" transform="translate(2336.099548 0)"/>
     <use xlink:href="#STHeiti-7ec4" transform="translate(2436.099533 0)"/>
     <use xlink:href="#STHeiti-95f4" transform="translate(2536.099518 0)"/>
     <use xlink:href="#STHeiti-4fe1" transform="translate(2636.099503 0)"/>
     <use xlink:href="#STHeiti-606f" transform="translate(2736.099487 0)"/>
     <use xlink:href="#STHeiti-65ad" transform="translate(2836.099472 0)"/>
     <use xlink:href="#STHeiti-88c2" transform="translate(2936.099457 0)"/>
    </g>
   </g>
  </g>
 </g>
 <defs>
  <clipPath id="p0670111a84">
   <rect x="8.961189" y="7.2" width="1125.29892" height="410.4"/>
  </clipPath>
 </defs>
</svg>
