<?xml version="1.0" encoding="utf-8" standalone="no"?>
<!DOCTYPE svg PUBLIC "-//W3C//DTD SVG 1.1//EN"
  "http://www.w3.org/Graphics/SVG/1.1/DTD/svg11.dtd">
<svg xmlns:xlink="http://www.w3.org/1999/xlink" width="852.605719pt" height="496.8pt" viewBox="0 0 852.605719 496.8" xmlns="http://www.w3.org/2000/svg" version="1.1">
 <metadata>
  <rdf:RDF xmlns:dc="http://purl.org/dc/elements/1.1/" xmlns:cc="http://creativecommons.org/ns#" xmlns:rdf="http://www.w3.org/1999/02/22-rdf-syntax-ns#">
   <cc:Work>
    <dc:type rdf:resource="http://purl.org/dc/dcmitype/StillImage"/>
    <dc:date>2026-05-09T14:19:32.571222</dc:date>
    <dc:format>image/svg+xml</dc:format>
    <dc:creator>
     <cc:Agent>
      <dc:title>Matplotlib v3.10.8, https://matplotlib.org/</dc:title>
     </cc:Agent>
    </dc:creator>
   </cc:Work>
  </rdf:RDF>
 </metadata>
 <defs>
  <style type="text/css">*{stroke-linejoin: round; stroke-linecap: butt}</style>
 </defs>
 <g id="figure_1">
  <g id="patch_1">
   <path d="M 0 496.8 
L 852.605719 496.8 
L 852.605719 0 
L 0 0 
z
" style="fill: #ffffff"/>
  </g>
  <g id="axes_1">
   <g id="patch_2">
    <path d="M 47.111719 153.298286 
L 109.859719 153.298286 
Q 112.648519 153.298286 112.648519 150.541714 
L 112.648519 111.949714 
Q 112.648519 109.193143 109.859719 109.193143 
L 47.111719 109.193143 
Q 44.322919 109.193143 44.322919 111.949714 
L 44.322919 150.541714 
Q 44.322919 153.298286 47.111719 153.298286 
z
" clip-path="url(#p511f81a5ce)" style="fill: #e3f2fd; stroke: #1565c0; stroke-width: 1.8; stroke-linejoin: miter"/>
   </g>
   <g id="patch_3">
    <path d="M 146.711719 153.298286 
L 209.459719 153.298286 
Q 212.248519 153.298286 212.248519 150.541714 
L 212.248519 111.949714 
Q 212.248519 109.193143 209.459719 109.193143 
L 146.711719 109.193143 
Q 143.922919 109.193143 143.922919 111.949714 
L 143.922919 150.541714 
Q 143.922919 153.298286 146.711719 153.298286 
z
" clip-path="url(#p511f81a5ce)" style="fill: #e3f2fd; stroke: #1565c0; stroke-width: 1.8; stroke-linejoin: miter"/>
   </g>
   <g id="patch_4">
    <path d="M 246.311719 153.298286 
L 309.059719 153.298286 
Q 311.848519 153.298286 311.848519 150.541714 
L 311.848519 111.949714 
Q 311.848519 109.193143 309.059719 109.193143 
L 246.311719 109.193143 
Q 243.522919 109.193143 243.522919 111.949714 
L 243.522919 150.541714 
Q 243.522919 153.298286 246.311719 153.298286 
z
" clip-path="url(#p511f81a5ce)" style="fill: #e3f2fd; stroke: #1565c0; stroke-width: 1.8; stroke-linejoin: miter"/>
   </g>
   <g id="patch_5">
    <path d="M 345.911719 153.298286 
L 408.659719 153.298286 
Q 411.448519 153.298286 411.448519 150.541714 
L 411.448519 111.949714 
Q 411.448519 109.193143 408.659719 109.193143 
L 345.911719 109.193143 
Q 343.122919 109.193143 343.122919 111.949714 
L 343.122919 150.541714 
Q 343.122919 153.298286 345.911719 153.298286 
z
" clip-path="url(#p511f81a5ce)" style="fill: #e3f2fd; stroke: #1565c0; stroke-width: 1.8; stroke-linejoin: miter"/>
   </g>
   <g id="patch_6">
    <path d="M 445.511719 153.298286 
L 508.259719 153.298286 
Q 511.048519 153.298286 511.048519 150.541714 
L 511.048519 111.949714 
Q 511.048519 109.193143 508.259719 109.193143 
L 445.511719 109.193143 
Q 442.722919 109.193143 442.722919 111.949714 
L 442.722919 150.541714 
Q 442.722919 153.298286 445.511719 153.298286 
z
" clip-path="url(#p511f81a5ce)" style="fill: #e3f2fd; stroke: #1565c0; stroke-width: 1.8; stroke-linejoin: miter"/>
   </g>
   <g id="patch_7">
    <path d="M 545.111719 153.298286 
L 607.859719 153.298286 
Q 610.648519 153.298286 610.648519 150.541714 
L 610.648519 111.949714 
Q 610.648519 109.193143 607.859719 109.193143 
L 545.111719 109.193143 
Q 542.322919 109.193143 542.322919 111.949714 
L 542.322919 150.541714 
Q 542.322919 153.298286 545.111719 153.298286 
z
" clip-path="url(#p511f81a5ce)" style="fill: #e3f2fd; stroke: #1565c0; stroke-width: 1.8; stroke-linejoin: miter"/>
   </g>
   <g id="patch_8">
    <path d="M 644.711719 153.298286 
L 707.459719 153.298286 
Q 710.248519 153.298286 710.248519 150.541714 
L 710.248519 111.949714 
Q 710.248519 109.193143 707.459719 109.193143 
L 644.711719 109.193143 
Q 641.922919 109.193143 641.922919 111.949714 
L 641.922919 150.541714 
Q 641.922919 153.298286 644.711719 153.298286 
z
" clip-path="url(#p511f81a5ce)" style="fill: #e3f2fd; stroke: #1565c0; stroke-width: 1.8; stroke-linejoin: miter"/>
   </g>
   <g id="patch_9">
    <path d="M 744.311719 153.298286 
L 807.059719 153.298286 
Q 809.848519 153.298286 809.848519 150.541714 
L 809.848519 111.949714 
Q 809.848519 109.193143 807.059719 109.193143 
L 744.311719 109.193143 
Q 741.522919 109.193143 741.522919 111.949714 
L 741.522919 150.541714 
Q 741.522919 153.298286 744.311719 153.298286 
z
" clip-path="url(#p511f81a5ce)" style="fill: #e3f2fd; stroke: #1565c0; stroke-width: 1.8; stroke-linejoin: miter"/>
   </g>
   <g id="patch_10">
    <path d="M 221.411719 326.962286 
L 325.991719 326.962286 
Q 330.174919 326.962286 330.174919 322.827429 
L 330.174919 270.452571 
Q 330.174919 266.317714 325.991719 266.317714 
L 221.411719 266.317714 
Q 217.228519 266.317714 217.228519 270.452571 
L 217.228519 322.827429 
Q 217.228519 326.962286 221.411719 326.962286 
z
" clip-path="url(#p511f81a5ce)" style="fill: #ffebee; stroke: #c62828; stroke-width: 2.2; stroke-linejoin: miter"/>
   </g>
   <g id="patch_11">
    <path d="M 528.179719 326.962286 
L 632.759719 326.962286 
Q 636.942919 326.962286 636.942919 322.827429 
L 636.942919 270.452571 
Q 636.942919 266.317714 632.759719 266.317714 
L 528.179719 266.317714 
Q 523.996519 266.317714 523.996519 270.452571 
L 523.996519 322.827429 
Q 523.996519 326.962286 528.179719 326.962286 
z
" clip-path="url(#p511f81a5ce)" style="fill: #ffebee; stroke: #c62828; stroke-width: 2.2; stroke-linejoin: miter"/>
   </g>
   <g id="patch_12">
    <path d="M 49.203319 426.888 
L 107.768119 426.888 
Q 110.556919 426.888 110.556919 424.131429 
L 110.556919 389.674286 
Q 110.556919 386.917714 107.768119 386.917714 
L 49.203319 386.917714 
Q 46.414519 386.917714 46.414519 389.674286 
L 46.414519 424.131429 
Q 46.414519 426.888 49.203319 426.888 
z
" clip-path="url(#p511f81a5ce)" style="fill: #e8f5e9; stroke: #2e7d32; stroke-width: 1.5; stroke-linejoin: miter"/>
   </g>
   <g id="patch_13">
    <path d="M 148.803319 426.888 
L 207.368119 426.888 
Q 210.156919 426.888 210.156919 424.131429 
L 210.156919 389.674286 
Q 210.156919 386.917714 207.368119 386.917714 
L 148.803319 386.917714 
Q 146.014519 386.917714 146.014519 389.674286 
L 146.014519 424.131429 
Q 146.014519 426.888 148.803319 426.888 
z
" clip-path="url(#p511f81a5ce)" style="fill: #e8f5e9; stroke: #2e7d32; stroke-width: 1.5; stroke-linejoin: miter"/>
   </g>
   <g id="patch_14">
    <path d="M 248.403319 426.888 
L 306.968119 426.888 
Q 309.756919 426.888 309.756919 424.131429 
L 309.756919 389.674286 
Q 309.756919 386.917714 306.968119 386.917714 
L 248.403319 386.917714 
Q 245.614519 386.917714 245.614519 389.674286 
L 245.614519 424.131429 
Q 245.614519 426.888 248.403319 426.888 
z
" clip-path="url(#p511f81a5ce)" style="fill: #e8f5e9; stroke: #2e7d32; stroke-width: 1.5; stroke-linejoin: miter"/>
   </g>
   <g id="patch_15">
    <path d="M 348.003319 426.888 
L 406.568119 426.888 
Q 409.356919 426.888 409.356919 424.131429 
L 409.356919 389.674286 
Q 409.356919 386.917714 406.568119 386.917714 
L 348.003319 386.917714 
Q 345.214519 386.917714 345.214519 389.674286 
L 345.214519 424.131429 
Q 345.214519 426.888 348.003319 426.888 
z
" clip-path="url(#p511f81a5ce)" style="fill: #e8f5e9; stroke: #2e7d32; stroke-width: 1.5; stroke-linejoin: miter"/>
   </g>
   <g id="patch_16">
    <path d="M 447.603319 426.888 
L 506.168119 426.888 
Q 508.956919 426.888 508.956919 424.131429 
L 508.956919 389.674286 
Q 508.956919 386.917714 506.168119 386.917714 
L 447.603319 386.917714 
Q 444.814519 386.917714 444.814519 389.674286 
L 444.814519 424.131429 
Q 444.814519 426.888 447.603319 426.888 
z
" clip-path="url(#p511f81a5ce)" style="fill: #e8f5e9; stroke: #2e7d32; stroke-width: 1.5; stroke-linejoin: miter"/>
   </g>
   <g id="patch_17">
    <path d="M 547.203319 426.888 
L 605.768119 426.888 
Q 608.556919 426.888 608.556919 424.131429 
L 608.556919 389.674286 
Q 608.556919 386.917714 605.768119 386.917714 
L 547.203319 386.917714 
Q 544.414519 386.917714 544.414519 389.674286 
L 544.414519 424.131429 
Q 544.414519 426.888 547.203319 426.888 
z
" clip-path="url(#p511f81a5ce)" style="fill: #e8f5e9; stroke: #2e7d32; stroke-width: 1.5; stroke-linejoin: miter"/>
   </g>
   <g id="patch_18">
    <path d="M 646.803319 426.888 
L 705.368119 426.888 
Q 708.156919 426.888 708.156919 424.131429 
L 708.156919 389.674286 
Q 708.156919 386.917714 705.368119 386.917714 
L 646.803319 386.917714 
Q 644.014519 386.917714 644.014519 389.674286 
L 644.014519 424.131429 
Q 644.014519 426.888 646.803319 426.888 
z
" clip-path="url(#p511f81a5ce)" style="fill: #e8f5e9; stroke: #2e7d32; stroke-width: 1.5; stroke-linejoin: miter"/>
   </g>
   <g id="patch_19">
    <path d="M 746.403319 426.888 
L 804.968119 426.888 
Q 807.756919 426.888 807.756919 424.131429 
L 807.756919 389.674286 
Q 807.756919 386.917714 804.968119 386.917714 
L 746.403319 386.917714 
Q 743.614519 386.917714 743.614519 389.674286 
L 743.614519 424.131429 
Q 743.614519 426.888 746.403319 426.888 
z
" clip-path="url(#p511f81a5ce)" style="fill: #e8f5e9; stroke: #2e7d32; stroke-width: 1.5; stroke-linejoin: miter"/>
   </g>
   <g id="text_1">
    <!-- 压缩注意力（GQA/MLA）— 多 Q 共享少量 K/V -->
    <g style="fill: #1a1a2e" transform="translate(264.770484 32.966083) scale(0.15 -0.15)">
     <defs>
      <path id="STHeiti-538b" d="M 5754 4288 
Q 5325 4333 4262 4333 
L 1555 4333 
Q 1568 2784 1520 2000 
Q 1472 1216 1328 665 
Q 1184 115 870 -525 
Q 614 -326 275 -230 
Q 672 358 835 1072 
Q 998 1786 998 3174 
Q 998 3834 966 4870 
Q 1382 4826 3382 4826 
Q 5382 4826 5754 4870 
L 5754 4288 
z
M 3834 2822 
Q 4870 2822 5427 2886 
L 5427 2246 
Q 4870 2310 3834 2310 
L 3834 346 
Q 5178 346 5882 410 
L 5882 -211 
Q 5146 -147 3709 -147 
Q 2272 -147 1542 -211 
L 1542 410 
Q 2202 352 3283 346 
L 3283 2310 
Q 2483 2304 1997 2246 
L 1997 2886 
Q 2509 2829 3283 2822 
Q 3277 3917 3232 4032 
Q 3443 3994 3610 3994 
L 3910 3994 
Q 3981 3994 3981 3965 
Q 3981 3936 3933 3901 
Q 3885 3866 3859 3795 
Q 3834 3725 3834 3661 
L 3834 2822 
z
M 5466 1088 
L 4947 768 
Q 4685 1325 4365 1702 
L 4819 1965 
Q 5171 1530 5466 1088 
z
" transform="scale(0.015625)"/>
      <path id="STHeiti-7f29" d="M 3910 4582 
Q 3853 4902 3750 5146 
L 4352 5235 
Q 4448 4851 4538 4582 
Q 5478 4595 5907 4634 
L 5907 3712 
L 5402 3712 
L 5402 4173 
L 2893 4173 
L 2893 3456 
L 2387 3456 
L 2387 4634 
Q 2714 4582 3910 4582 
z
M 1414 2848 
L 1069 2803 
Q 749 2765 525 2682 
Q 480 2931 358 3104 
Q 570 3270 842 3836 
Q 1114 4403 1306 5101 
Q 1658 4947 1802 4924 
Q 1946 4902 1946 4857 
Q 1946 4813 1862 4787 
Q 1709 4736 941 3155 
L 1606 3232 
Q 1805 3629 1862 3872 
Q 2099 3648 2291 3571 
Q 2362 3546 2362 3507 
Q 2362 3469 2294 3440 
Q 2227 3411 1178 1690 
L 2214 1754 
Q 2182 1606 2182 1497 
Q 2182 1389 2189 1318 
L 1254 1267 
Q 794 1229 621 1158 
Q 608 1402 480 1619 
Q 851 1747 1414 2848 
z
M 2803 2419 
Q 2598 2157 2381 1914 
Q 2298 2106 2029 2157 
Q 2330 2406 2691 2889 
Q 3053 3373 3245 3904 
Q 3405 3789 3642 3706 
Q 3731 3674 3731 3642 
Q 3731 3610 3622 3552 
Q 3558 3501 3251 3027 
L 3251 -506 
L 2733 -506 
Q 2803 192 2803 870 
L 2803 2419 
z
M 4435 3085 
Q 3974 3072 3718 3027 
L 3718 3571 
Q 4077 3507 4829 3507 
Q 5581 3507 5939 3571 
L 5939 3027 
Q 5587 3091 4877 3091 
Q 4845 2803 4762 2438 
Q 5581 2438 5805 2483 
Q 5766 2240 5766 1869 
L 5766 493 
Q 5766 -13 5824 -435 
L 5306 -435 
L 5306 -26 
L 4250 -26 
L 4250 -448 
L 3725 -448 
Q 3782 0 3782 480 
L 3782 1869 
Q 3782 2195 3744 2483 
Q 3949 2445 4320 2438 
Q 4403 2829 4435 3085 
z
M 4250 1453 
L 5306 1453 
L 5306 2022 
L 4250 2022 
L 4250 1453 
z
M 5306 1037 
L 4250 1037 
L 4250 390 
L 5306 390 
L 5306 1037 
z
M 2432 787 
Q 2394 678 2394 556 
Q 2394 435 2413 314 
Q 992 109 512 -186 
Q 499 115 339 506 
Q 794 461 2432 787 
z
" transform="scale(0.015625)"/>
      <path id="STHeiti-6ce8" d="M 4384 4563 
L 3750 4358 
Q 3680 4755 3482 5114 
L 4083 5312 
Q 4282 4909 4384 4563 
z
M 2042 4390 
L 1651 3917 
Q 1248 4346 787 4627 
L 1158 5050 
Q 1632 4742 2042 4390 
z
M 3699 230 
L 3699 1926 
Q 2893 1920 2432 1862 
L 2432 2470 
Q 2893 2413 3699 2406 
L 3699 3750 
Q 2726 3744 2195 3686 
L 2195 4288 
Q 2816 4224 4041 4224 
Q 5267 4224 5888 4288 
L 5888 3686 
Q 5318 3744 4256 3750 
L 4256 2406 
Q 5146 2413 5651 2470 
L 5651 1862 
Q 5146 1920 4256 1926 
L 4256 230 
Q 5357 237 5939 294 
L 5939 -307 
Q 5274 -243 3962 -243 
Q 2650 -243 1984 -307 
L 1984 294 
Q 2579 237 3699 230 
z
M 1754 2938 
L 1363 2451 
Q 986 2874 416 3117 
L 781 3558 
Q 1325 3270 1754 2938 
z
M 1818 1779 
Q 1555 973 1178 -499 
Q 870 -243 518 -128 
Q 941 557 1299 2099 
Q 1510 1882 1818 1779 
z
" transform="scale(0.015625)"/>
      <path id="STHeiti-610f" d="M 2970 4723 
Q 2906 4992 2803 5197 
L 3469 5306 
Q 3597 4794 3622 4723 
Q 4851 4730 5536 4768 
L 5536 4288 
Q 4627 4339 3177 4339 
Q 1728 4339 819 4288 
L 819 4768 
Q 1510 4723 2970 4723 
z
M 2150 3731 
Q 2067 3910 1888 4096 
L 2522 4275 
Q 2618 4058 2758 3878 
Q 2413 3789 2259 3731 
L 3725 3731 
Q 3917 4013 3994 4275 
Q 4326 4186 4685 4134 
Q 4749 4122 4749 4109 
Q 4749 4096 4704 4083 
Q 4493 4019 4288 3731 
Q 5248 3731 5888 3770 
L 5888 3290 
Q 5274 3341 3261 3341 
Q 1248 3341 557 3290 
L 557 3770 
Q 1133 3731 2150 3731 
z
M 5178 1069 
Q 4774 1101 3248 1101 
Q 1722 1101 1325 1069 
Q 1382 1229 1382 1510 
L 1382 2541 
Q 1382 2829 1325 2989 
Q 1722 2957 3248 2957 
Q 4774 2957 5178 2989 
Q 5114 2842 5114 2541 
L 5114 1510 
Q 5114 1216 5178 1069 
z
M 4634 2208 
L 4634 2566 
L 1862 2566 
L 1862 2208 
L 4634 2208 
z
M 1862 1830 
L 1862 1485 
L 4634 1485 
L 4634 1830 
L 1862 1830 
z
M 3846 461 
L 3226 256 
Q 3130 602 2906 890 
L 3494 1056 
Q 3757 582 3846 461 
z
M 6048 134 
L 5542 -224 
Q 5216 314 4851 666 
L 5293 909 
L 6048 134 
z
M 4902 339 
Q 4678 -294 4444 -390 
Q 4211 -486 2957 -486 
Q 2349 -486 2211 -451 
Q 2074 -416 2006 -374 
Q 1939 -333 1939 -70 
L 1939 461 
Q 1939 672 1901 838 
Q 2086 781 2195 768 
Q 2304 755 2435 755 
Q 2566 755 2566 732 
Q 2566 710 2499 665 
Q 2432 621 2432 525 
L 2432 282 
Q 2432 154 2464 77 
Q 2496 0 2573 -35 
Q 2650 -70 3002 -70 
Q 3354 -70 3696 -41 
Q 4038 -13 4124 22 
Q 4211 58 4256 173 
Q 4301 288 4339 582 
Q 4550 378 4902 339 
z
M 1568 621 
Q 1318 38 1056 -435 
L 518 -218 
Q 877 192 998 768 
L 1568 621 
z
" transform="scale(0.015625)"/>
      <path id="STHeiti-529b" d="M 3270 3386 
Q 3066 1760 2554 989 
Q 2042 218 947 -499 
Q 678 -230 378 -109 
Q 1453 358 2032 1248 
Q 2611 2138 2682 3386 
Q 1248 3386 781 3328 
L 781 3923 
Q 1203 3872 2714 3866 
Q 2797 5082 2778 5267 
Q 3104 5139 3507 5114 
Q 3610 5107 3610 5062 
Q 3610 5018 3533 4966 
Q 3482 4928 3443 4742 
Q 3405 4557 3328 3866 
Q 5395 3866 5715 3923 
L 5389 582 
Q 5350 198 5241 6 
Q 5133 -186 4848 -304 
Q 4563 -422 3936 -538 
Q 3853 -122 3661 141 
Q 4154 134 4387 185 
Q 4621 237 4713 381 
Q 4806 525 4838 832 
L 5094 3386 
L 3270 3386 
z
" transform="scale(0.015625)"/>
      <path id="STHeiti-ff08" d="M 5651 -749 
L 5274 -749 
Q 4646 173 4409 835 
Q 4173 1498 4173 2266 
Q 4173 3034 4432 3750 
Q 4691 4467 5254 5267 
L 5645 5267 
Q 5082 4237 4928 3606 
Q 4774 2976 4774 2093 
Q 4774 1472 4953 861 
Q 5133 250 5651 -749 
z
" transform="scale(0.015625)"/>
      <path id="STHeiti-47" d="M 5318 4211 
L 4966 3872 
Q 4582 4243 4124 4441 
Q 3667 4640 3180 4640 
Q 2694 4640 2208 4377 
Q 1722 4115 1450 3670 
Q 1178 3226 1178 2707 
Q 1178 1901 1782 1302 
Q 2387 704 3296 704 
Q 3987 704 4483 1091 
Q 4979 1478 5075 2144 
L 3610 2144 
L 3610 2586 
L 5594 2586 
Q 5574 1491 4940 880 
Q 4307 269 3283 269 
Q 2106 269 1398 992 
Q 691 1715 691 2691 
Q 691 3667 1395 4380 
Q 2099 5094 3244 5094 
Q 4390 5094 5318 4211 
z
" transform="scale(0.015625)"/>
      <path id="STHeiti-51" d="M 4416 883 
L 5094 19 
L 4531 19 
L 4064 614 
Q 3494 269 2822 269 
Q 1779 269 1072 963 
Q 365 1658 365 2662 
Q 365 3693 1049 4393 
Q 1734 5094 2784 5094 
Q 3443 5094 4003 4774 
Q 4563 4454 4883 3897 
Q 5203 3341 5203 2682 
Q 5203 1626 4416 883 
z
M 4134 1242 
Q 4730 1830 4730 2668 
Q 4730 3507 4154 4076 
Q 3578 4646 2778 4646 
Q 1978 4646 1411 4070 
Q 845 3494 845 2659 
Q 845 1824 1421 1270 
Q 1997 717 2790 717 
Q 3322 717 3776 979 
L 2752 2278 
L 3309 2278 
L 4134 1242 
z
" transform="scale(0.015625)"/>
      <path id="STHeiti-41" d="M 2438 5165 
L 4582 384 
L 4090 384 
L 3366 1952 
L 1382 1952 
L 666 384 
L 154 384 
L 2323 5165 
L 2438 5165 
z
M 2381 4147 
L 1594 2419 
L 3162 2419 
L 2381 4147 
z
" transform="scale(0.015625)"/>
      <path id="STHeiti-2f" d="M 2611 5094 
L 704 -243 
L 224 -243 
L 2131 5094 
L 2611 5094 
z
" transform="scale(0.015625)"/>
      <path id="STHeiti-4d" d="M 352 384 
L 1005 4979 
L 1075 4979 
L 2944 1210 
L 4800 4979 
L 4870 4979 
L 5530 384 
L 5075 384 
L 4627 3674 
L 3002 384 
L 2886 384 
L 1242 3699 
L 794 384 
L 352 384 
z
" transform="scale(0.015625)"/>
      <path id="STHeiti-4c" d="M 557 4979 
L 1024 4979 
L 1024 826 
L 2790 826 
L 2790 384 
L 557 384 
L 557 4979 
z
" transform="scale(0.015625)"/>
      <path id="STHeiti-ff09" d="M 1120 5267 
Q 1747 4346 1984 3683 
Q 2221 3021 2221 2253 
Q 2221 1485 1961 768 
Q 1702 51 1139 -749 
L 749 -749 
Q 1312 282 1465 912 
Q 1619 1542 1619 2426 
Q 1619 3046 1440 3657 
Q 1261 4269 742 5267 
L 1120 5267 
z
" transform="scale(0.015625)"/>
      <path id="STHeiti-2014" d="M 6400 2112 
L 0 2112 
L 0 2458 
L 6400 2458 
L 6400 2112 
z
" transform="scale(0.015625)"/>
      <path id="STHeiti-20" transform="scale(0.015625)"/>
      <path id="STHeiti-591a" d="M 2016 3450 
Q 1747 3206 1453 2989 
Q 1376 3200 1005 3360 
Q 1587 3667 2041 4179 
Q 2496 4691 2656 5210 
Q 3066 5037 3315 4998 
Q 3405 4986 3405 4947 
Q 3405 4909 3289 4861 
Q 3174 4813 2912 4506 
L 3994 4506 
Q 5171 4506 5626 4557 
Q 5139 3840 4684 3440 
Q 4230 3040 3328 2573 
Q 3597 2464 3834 2438 
Q 3904 2432 3904 2400 
Q 3904 2368 3805 2310 
Q 3706 2253 3565 2138 
L 4557 2138 
Q 5542 2138 5926 2189 
Q 5504 1229 4979 675 
Q 4454 122 3372 -211 
Q 2291 -544 1050 -550 
Q 973 -211 736 45 
Q 902 -6 1324 -6 
Q 1747 -6 2435 106 
Q 3123 218 3635 397 
Q 3219 800 2598 1229 
Q 2144 864 1613 589 
Q 1478 819 1114 992 
Q 1702 1203 2320 1648 
Q 2938 2093 3277 2547 
Q 2400 2067 1197 1786 
Q 1126 2074 858 2291 
Q 1805 2451 2771 2842 
Q 2374 3206 2016 3450 
z
M 2605 4102 
Q 2502 3955 2323 3757 
Q 2758 3469 3258 3059 
Q 3667 3270 4060 3577 
Q 4454 3885 4595 4102 
L 2605 4102 
z
M 3136 1709 
Q 3078 1651 2950 1536 
Q 3469 1171 4109 627 
Q 4826 1088 5069 1709 
L 3136 1709 
z
" transform="scale(0.015625)"/>
      <path id="STHeiti-5171" d="M 2010 1952 
L 2010 3456 
Q 1523 3450 730 3398 
L 730 3974 
Q 1344 3923 2010 3917 
L 2010 4160 
Q 2010 4928 1978 5158 
Q 2195 5120 2611 5120 
Q 2701 5120 2701 5088 
Q 2701 5056 2624 5011 
Q 2547 4966 2547 4646 
L 2547 3917 
L 3834 3917 
L 3834 4275 
Q 3834 5107 3808 5274 
Q 4026 5235 4448 5235 
Q 4538 5235 4538 5203 
Q 4538 5171 4461 5126 
Q 4384 5082 4384 4762 
L 4384 3917 
Q 5146 3923 5715 3974 
L 5715 3398 
Q 4992 3450 4384 3456 
L 4384 1952 
Q 5325 1952 5990 2010 
L 5990 1408 
Q 5005 1485 3177 1485 
Q 1350 1485 358 1408 
L 358 2010 
Q 1030 1952 2010 1952 
z
M 2547 3456 
L 2547 1952 
L 3834 1952 
L 3834 3456 
L 2547 3456 
z
M 5856 -77 
L 5408 -634 
Q 4550 166 3603 698 
L 3974 1094 
Q 5011 493 5856 -77 
z
M 2362 1082 
Q 2579 870 2854 768 
Q 2976 723 2976 684 
Q 2976 646 2883 614 
Q 2790 582 2691 518 
Q 2592 454 2432 304 
Q 2272 154 1808 -140 
Q 1344 -435 864 -691 
Q 704 -442 410 -282 
Q 1018 -32 1590 368 
Q 2163 768 2362 1082 
z
" transform="scale(0.015625)"/>
      <path id="STHeiti-4eab" d="M 3590 4602 
Q 4954 4614 5837 4672 
L 5837 4122 
Q 4922 4186 3194 4186 
Q 1466 4186 550 4122 
L 550 4672 
Q 1318 4614 2970 4602 
Q 2899 4922 2797 5158 
L 3469 5242 
Q 3565 4890 3590 4602 
z
M 5158 2528 
Q 4563 2554 3126 2554 
Q 1690 2554 1318 2534 
Q 1350 2861 1350 3229 
Q 1350 3597 1318 3834 
Q 1869 3802 3238 3802 
Q 4608 3802 5158 3834 
Q 5146 3654 5146 3299 
Q 5146 2944 5158 2528 
z
M 4621 2963 
L 4621 3398 
L 1856 3398 
L 1856 2963 
L 4621 2963 
z
M 3552 672 
L 3552 6 
Q 3552 -192 3485 -297 
Q 3418 -403 3200 -476 
Q 2982 -550 2509 -614 
Q 2496 -211 2285 45 
Q 2592 19 2752 19 
Q 2912 19 2963 70 
Q 3014 122 3014 275 
L 3014 672 
Q 1318 672 486 608 
L 486 1171 
Q 1293 1120 3014 1107 
L 3014 1472 
L 4109 1850 
Q 1568 1856 845 1830 
L 845 2234 
Q 1235 2208 3027 2208 
Q 4819 2208 5318 2246 
L 5318 1728 
Q 4800 1690 4506 1581 
L 3552 1235 
L 3552 1107 
Q 5139 1120 5946 1171 
L 5946 608 
Q 4973 672 3552 672 
z
" transform="scale(0.015625)"/>
      <path id="STHeiti-5c11" d="M 3533 1299 
L 2861 1299 
Q 2906 1562 2906 1990 
L 2906 4634 
Q 2906 5018 2867 5242 
Q 3136 5184 3379 5184 
L 3533 5190 
Q 3597 5190 3597 5158 
Q 3597 5126 3542 5068 
Q 3488 5011 3488 4851 
L 3488 1997 
Q 3488 1581 3533 1299 
z
M 6106 2829 
L 5530 2413 
Q 4941 3366 4115 4096 
L 4538 4435 
L 6106 2829 
z
M 1536 4314 
Q 1862 4166 2150 4102 
Q 2266 4083 2266 4044 
Q 2266 4006 2173 3926 
Q 2080 3846 1891 3468 
Q 1702 3091 1203 1978 
Q 915 2138 563 2150 
Q 1222 3008 1536 4314 
z
M 4653 2394 
Q 5050 2118 5261 2061 
Q 5370 2035 5370 2006 
Q 5370 1978 5270 1920 
Q 5171 1862 5030 1651 
Q 4614 966 4166 582 
Q 3718 198 3148 -35 
Q 2579 -269 1069 -550 
Q 986 -198 659 141 
Q 1274 115 1904 224 
Q 2534 333 3030 531 
Q 3526 730 3785 960 
Q 4045 1190 4297 1587 
Q 4550 1984 4653 2394 
z
" transform="scale(0.015625)"/>
      <path id="STHeiti-91cf" d="M 5229 3379 
Q 5043 3411 3209 3411 
Q 1376 3411 1197 3379 
Q 1229 3834 1229 4186 
Q 1229 4538 1197 4934 
Q 1389 4890 3174 4890 
Q 4960 4890 5222 4934 
Q 5210 4461 5210 4115 
Q 5210 3770 5229 3379 
z
M 1690 4288 
L 4742 4288 
L 4742 4595 
L 1690 4595 
L 1690 4288 
z
M 4742 4019 
L 1690 4019 
L 1690 3693 
L 4742 3693 
L 4742 4019 
z
M 5952 2746 
Q 5082 2797 3190 2797 
Q 1299 2797 448 2746 
L 448 3174 
Q 1619 3130 3321 3130 
Q 5024 3130 5952 3174 
L 5952 2746 
z
M 3398 352 
L 3398 0 
Q 5075 0 5875 51 
L 5875 -384 
Q 4979 -339 3164 -339 
Q 1350 -339 467 -384 
L 467 51 
Q 1254 0 2938 0 
L 2938 352 
Q 1766 346 986 282 
L 986 742 
Q 1875 672 2938 666 
L 2938 1030 
Q 1363 1030 1178 1011 
Q 1210 1325 1210 1798 
Q 1210 2272 1178 2566 
Q 1370 2522 3155 2522 
Q 4941 2522 5210 2566 
Q 5190 2208 5190 1875 
Q 5190 1542 5216 1011 
Q 4928 1030 3398 1030 
L 3398 666 
Q 4659 666 5363 742 
L 5363 282 
Q 4608 352 3398 352 
z
M 2938 1907 
L 2938 2221 
L 1670 2221 
L 1670 1907 
L 2938 1907 
z
M 3398 2221 
L 3398 1907 
L 4723 1907 
L 4723 2221 
L 3398 2221 
z
M 3398 1638 
L 3398 1331 
L 4723 1331 
L 4723 1638 
L 3398 1638 
z
M 2938 1331 
L 2938 1638 
L 1670 1638 
L 1670 1331 
L 2938 1331 
z
" transform="scale(0.015625)"/>
      <path id="STHeiti-4b" d="M 557 4979 
L 1030 4979 
L 1030 3258 
L 2861 4979 
L 3482 4979 
L 1274 2918 
L 3654 384 
L 3046 384 
L 1030 2528 
L 1030 384 
L 557 384 
L 557 4979 
z
" transform="scale(0.015625)"/>
      <path id="STHeiti-56" d="M 211 4979 
L 710 4979 
L 2234 1312 
L 3782 4979 
L 4282 4979 
L 2278 269 
L 2182 269 
L 211 4979 
z
" transform="scale(0.015625)"/>
     </defs>
     <use xlink:href="#STHeiti-538b"/>
     <use xlink:href="#STHeiti-7f29" transform="translate(99.999985 0)"/>
     <use xlink:href="#STHeiti-6ce8" transform="translate(199.999969 0)"/>
     <use xlink:href="#STHeiti-610f" transform="translate(299.999954 0)"/>
     <use xlink:href="#STHeiti-529b" transform="translate(399.999939 0)"/>
     <use xlink:href="#STHeiti-ff08" transform="translate(499.999924 0)"/>
     <use xlink:href="#STHeiti-47" transform="translate(599.999908 0)"/>
     <use xlink:href="#STHeiti-51" transform="translate(687.19989 0)"/>
     <use xlink:href="#STHeiti-41" transform="translate(774.299881 0)"/>
     <use xlink:href="#STHeiti-2f" transform="translate(848.299866 0)"/>
     <use xlink:href="#STHeiti-4d" transform="translate(891.999863 0)"/>
     <use xlink:href="#STHeiti-4c" transform="translate(983.899857 0)"/>
     <use xlink:href="#STHeiti-41" transform="translate(1030.099854 0)"/>
     <use xlink:href="#STHeiti-ff09" transform="translate(1104.099838 0)"/>
     <use xlink:href="#STHeiti-2014" transform="translate(1204.099823 0)"/>
     <use xlink:href="#STHeiti-20" transform="translate(1304.099808 0)"/>
     <use xlink:href="#STHeiti-591a" transform="translate(1329.099792 0)"/>
     <use xlink:href="#STHeiti-20" transform="translate(1429.099777 0)"/>
     <use xlink:href="#STHeiti-51" transform="translate(1454.099762 0)"/>
     <use xlink:href="#STHeiti-20" transform="translate(1541.199753 0)"/>
     <use xlink:href="#STHeiti-5171" transform="translate(1566.199738 0)"/>
     <use xlink:href="#STHeiti-4eab" transform="translate(1666.199722 0)"/>
     <use xlink:href="#STHeiti-5c11" transform="translate(1766.199707 0)"/>
     <use xlink:href="#STHeiti-91cf" transform="translate(1866.199692 0)"/>
     <use xlink:href="#STHeiti-20" transform="translate(1966.199677 0)"/>
     <use xlink:href="#STHeiti-4b" transform="translate(1991.199661 0)"/>
     <use xlink:href="#STHeiti-2f" transform="translate(2050.299652 0)"/>
     <use xlink:href="#STHeiti-56" transform="translate(2093.999649 0)"/>
    </g>
   </g>
   <g id="text_2">
    <!-- Q1 -->
    <g style="fill: #1565c0" transform="translate(72.073219 134.224152) scale(0.09 -0.09)">
     <defs>
      <path id="STHeiti-31" d="M 1184 4979 
L 2086 4979 
L 2086 384 
L 1632 384 
L 1632 4531 
L 909 4531 
L 1184 4979 
z
" transform="scale(0.015625)"/>
     </defs>
     <use xlink:href="#STHeiti-51"/>
     <use xlink:href="#STHeiti-31" transform="translate(87.099991 0)"/>
    </g>
   </g>
   <g id="text_3">
    <!-- Q2 -->
    <g style="fill: #1565c0" transform="translate(171.673219 134.224152) scale(0.09 -0.09)">
     <defs>
      <path id="STHeiti-32" d="M 742 3539 
L 301 3539 
Q 333 4243 768 4668 
Q 1203 5094 1820 5094 
Q 2438 5094 2844 4694 
Q 3251 4294 3251 3718 
Q 3251 3290 3024 2925 
Q 2797 2560 2336 2061 
L 1190 826 
L 3315 826 
L 3315 384 
L 192 384 
L 1946 2278 
Q 2406 2778 2604 3066 
Q 2803 3354 2803 3725 
Q 2803 4096 2512 4377 
Q 2221 4659 1789 4659 
Q 1357 4659 1072 4368 
Q 787 4077 742 3539 
z
" transform="scale(0.015625)"/>
     </defs>
     <use xlink:href="#STHeiti-51"/>
     <use xlink:href="#STHeiti-32" transform="translate(87.099991 0)"/>
    </g>
   </g>
   <g id="text_4">
    <!-- Q3 -->
    <g style="fill: #1565c0" transform="translate(271.273219 134.224152) scale(0.09 -0.09)">
     <defs>
      <path id="STHeiti-33" d="M 845 3917 
L 378 3917 
Q 506 4486 867 4790 
Q 1229 5094 1750 5094 
Q 2272 5094 2659 4748 
Q 3046 4403 3046 3910 
Q 3046 3315 2458 2970 
Q 2861 2803 3081 2473 
Q 3302 2144 3302 1754 
Q 3302 1146 2857 707 
Q 2413 269 1734 269 
Q 1133 269 742 611 
Q 352 954 224 1613 
L 672 1613 
Q 794 1158 1046 937 
Q 1299 717 1760 717 
Q 2221 717 2534 1011 
Q 2848 1306 2848 1741 
Q 2848 2176 2502 2441 
Q 2157 2707 1498 2720 
L 1498 3142 
Q 1971 3142 2268 3360 
Q 2566 3578 2566 3901 
Q 2566 4224 2326 4438 
Q 2086 4653 1747 4653 
Q 1408 4653 1200 4470 
Q 992 4288 845 3917 
z
" transform="scale(0.015625)"/>
     </defs>
     <use xlink:href="#STHeiti-51"/>
     <use xlink:href="#STHeiti-33" transform="translate(87.099991 0)"/>
    </g>
   </g>
   <g id="text_5">
    <!-- Q4 -->
    <g style="fill: #1565c0" transform="translate(370.873219 134.224152) scale(0.09 -0.09)">
     <defs>
      <path id="STHeiti-34" d="M 2726 5094 
L 2816 5094 
L 2816 1894 
L 3373 1894 
L 3373 1453 
L 2816 1453 
L 2816 384 
L 2362 384 
L 2362 1453 
L 160 1453 
L 2726 5094 
z
M 2362 1894 
L 2362 3808 
L 1005 1894 
L 2362 1894 
z
" transform="scale(0.015625)"/>
     </defs>
     <use xlink:href="#STHeiti-51"/>
     <use xlink:href="#STHeiti-34" transform="translate(87.099991 0)"/>
    </g>
   </g>
   <g id="text_6">
    <!-- Q5 -->
    <g style="fill: #1565c0" transform="translate(470.473219 134.224152) scale(0.09 -0.09)">
     <defs>
      <path id="STHeiti-35" d="M 3149 4979 
L 3149 4544 
L 1510 4544 
L 1280 3290 
Q 1587 3379 1856 3379 
Q 2458 3379 2861 2953 
Q 3264 2528 3264 1862 
Q 3264 1197 2825 733 
Q 2387 269 1664 269 
Q 1114 269 726 598 
Q 339 928 262 1498 
L 730 1498 
Q 813 1114 1075 909 
Q 1338 704 1683 704 
Q 2138 704 2467 1043 
Q 2797 1382 2797 1888 
Q 2797 2349 2509 2646 
Q 2221 2944 1757 2944 
Q 1293 2944 730 2701 
L 1158 4979 
L 3149 4979 
z
" transform="scale(0.015625)"/>
     </defs>
     <use xlink:href="#STHeiti-51"/>
     <use xlink:href="#STHeiti-35" transform="translate(87.099991 0)"/>
    </g>
   </g>
   <g id="text_7">
    <!-- Q6 -->
    <g style="fill: #1565c0" transform="translate(570.073219 134.224152) scale(0.09 -0.09)">
     <defs>
      <path id="STHeiti-36" d="M 2349 5094 
L 2726 4851 
L 1485 2970 
Q 1747 3059 1984 3059 
Q 2496 3059 2880 2652 
Q 3264 2246 3264 1660 
Q 3264 1075 2845 672 
Q 2426 269 1827 269 
Q 1229 269 829 678 
Q 429 1088 429 1677 
Q 429 1958 537 2256 
Q 646 2554 954 3014 
L 2349 5094 
z
M 2810 1683 
Q 2810 2086 2528 2368 
Q 2246 2650 1843 2650 
Q 1440 2650 1158 2368 
Q 877 2086 877 1683 
Q 877 1280 1161 998 
Q 1446 717 1843 717 
Q 2240 717 2525 998 
Q 2810 1280 2810 1683 
z
" transform="scale(0.015625)"/>
     </defs>
     <use xlink:href="#STHeiti-51"/>
     <use xlink:href="#STHeiti-36" transform="translate(87.099991 0)"/>
    </g>
   </g>
   <g id="text_8">
    <!-- Q7 -->
    <g style="fill: #1565c0" transform="translate(669.673219 134.224152) scale(0.09 -0.09)">
     <defs>
      <path id="STHeiti-37" d="M 461 4979 
L 3373 4979 
L 915 269 
L 538 461 
L 2662 4544 
L 461 4544 
L 461 4979 
z
" transform="scale(0.015625)"/>
     </defs>
     <use xlink:href="#STHeiti-51"/>
     <use xlink:href="#STHeiti-37" transform="translate(87.099991 0)"/>
    </g>
   </g>
   <g id="text_9">
    <!-- Q8 -->
    <g style="fill: #1565c0" transform="translate(769.273219 134.224152) scale(0.09 -0.09)">
     <defs>
      <path id="STHeiti-38" d="M 2458 2906 
Q 3328 2477 3328 1702 
Q 3328 1088 2896 678 
Q 2464 269 1763 269 
Q 1062 269 640 678 
Q 218 1088 218 1664 
Q 218 2470 1107 2906 
Q 435 3264 435 3898 
Q 435 4371 828 4732 
Q 1222 5094 1779 5094 
Q 2336 5094 2726 4742 
Q 3117 4390 3117 3885 
Q 3117 3270 2458 2906 
z
M 2656 3904 
Q 2656 4211 2416 4432 
Q 2176 4653 1789 4653 
Q 1402 4653 1152 4432 
Q 902 4211 902 3897 
Q 902 3584 1174 3337 
Q 1446 3091 1792 3091 
Q 2138 3091 2397 3334 
Q 2656 3578 2656 3904 
z
M 2867 1696 
Q 2867 2086 2550 2380 
Q 2234 2675 1782 2675 
Q 1331 2675 1004 2371 
Q 678 2067 678 1654 
Q 678 1242 979 973 
Q 1280 704 1766 704 
Q 2253 704 2560 992 
Q 2867 1280 2867 1696 
z
" transform="scale(0.015625)"/>
     </defs>
     <use xlink:href="#STHeiti-51"/>
     <use xlink:href="#STHeiti-38" transform="translate(87.099991 0)"/>
    </g>
   </g>
   <g id="text_10">
    <!-- Q heads -->
    <g style="fill: #1565c0" transform="translate(11.065781 129.170933) scale(0.09 -0.09)">
     <defs>
      <path id="STHeiti-68" d="M 486 5094 
L 928 5094 
L 928 3174 
Q 1453 3872 2202 3872 
Q 2586 3872 2893 3664 
Q 3200 3456 3328 3120 
Q 3456 2784 3456 2131 
L 3456 384 
L 3014 384 
L 3014 2003 
Q 3014 2528 2982 2726 
Q 2950 2925 2841 3104 
Q 2733 3283 2550 3376 
Q 2368 3469 2109 3469 
Q 1850 3469 1613 3347 
Q 1376 3226 1209 3008 
Q 1043 2790 985 2560 
Q 928 2330 928 1632 
L 928 384 
L 486 384 
L 486 5094 
z
" transform="scale(0.015625)"/>
      <path id="STHeiti-65" d="M 3347 1485 
L 3718 1293 
Q 3168 269 2093 269 
Q 1325 269 825 797 
Q 326 1325 326 2067 
Q 326 2810 828 3341 
Q 1331 3872 2070 3872 
Q 2810 3872 3312 3379 
Q 3814 2886 3834 2035 
L 774 2035 
Q 794 1421 1162 1046 
Q 1530 672 2054 672 
Q 2918 672 3347 1485 
z
M 3347 2413 
Q 3258 2899 2899 3174 
Q 2541 3450 2074 3450 
Q 1114 3450 819 2413 
L 3347 2413 
z
" transform="scale(0.015625)"/>
      <path id="STHeiti-61" d="M 3872 3782 
L 3872 384 
L 3443 384 
L 3443 966 
Q 2861 269 2112 269 
Q 1363 269 848 803 
Q 333 1338 333 2077 
Q 333 2816 851 3344 
Q 1370 3872 2093 3872 
Q 2925 3872 3443 3162 
L 3443 3782 
L 3872 3782 
z
M 3469 2067 
Q 3469 2650 3078 3050 
Q 2688 3450 2121 3450 
Q 1555 3450 1164 3037 
Q 774 2624 774 2061 
Q 774 1498 1171 1085 
Q 1568 672 2121 672 
Q 2675 672 3072 1069 
Q 3469 1466 3469 2067 
z
" transform="scale(0.015625)"/>
      <path id="STHeiti-64" d="M 3878 5094 
L 3878 384 
L 3450 384 
L 3450 966 
Q 2867 269 2115 269 
Q 1363 269 851 800 
Q 339 1331 339 2073 
Q 339 2816 857 3344 
Q 1376 3872 2099 3872 
Q 2931 3872 3450 3162 
L 3450 5094 
L 3878 5094 
z
M 3475 2061 
Q 3475 2643 3091 3046 
Q 2707 3450 2131 3450 
Q 1555 3450 1168 3037 
Q 781 2624 781 2064 
Q 781 1504 1177 1088 
Q 1574 672 2115 672 
Q 2656 672 3065 1065 
Q 3475 1459 3475 2061 
z
" transform="scale(0.015625)"/>
      <path id="STHeiti-73" d="M 2195 3411 
L 1914 3123 
Q 1562 3462 1229 3462 
Q 1011 3462 864 3324 
Q 717 3187 717 2985 
Q 717 2784 873 2640 
Q 1030 2496 1414 2294 
Q 1798 2093 2000 1859 
Q 2202 1626 2202 1286 
Q 2202 858 1904 563 
Q 1606 269 1171 269 
Q 883 269 617 397 
Q 352 525 166 755 
L 442 1062 
Q 781 685 1152 685 
Q 1414 685 1600 857 
Q 1786 1030 1786 1264 
Q 1786 1498 1622 1648 
Q 1459 1798 1078 1990 
Q 698 2182 509 2409 
Q 320 2637 320 2998 
Q 320 3360 585 3616 
Q 851 3872 1289 3872 
Q 1728 3872 2195 3411 
z
" transform="scale(0.015625)"/>
     </defs>
     <use xlink:href="#STHeiti-51"/>
     <use xlink:href="#STHeiti-20" transform="translate(87.099991 0)"/>
     <use xlink:href="#STHeiti-68" transform="translate(112.099976 0)"/>
     <use xlink:href="#STHeiti-65" transform="translate(173.09996 0)"/>
     <use xlink:href="#STHeiti-61" transform="translate(238.099945 0)"/>
     <use xlink:href="#STHeiti-64" transform="translate(306.399933 0)"/>
     <use xlink:href="#STHeiti-73" transform="translate(374.899918 0)"/>
    </g>
    <!-- (n_h=8) -->
    <g style="fill: #1565c0" transform="translate(13.400156 139.277371) scale(0.09 -0.09)">
     <defs>
      <path id="STHeiti-28" d="M 1466 5370 
L 1978 5370 
Q 1651 4704 1475 3865 
Q 1299 3027 1299 2176 
Q 1299 506 1824 -762 
L 1338 -762 
Q 832 480 832 2118 
Q 832 3891 1466 5370 
z
" transform="scale(0.015625)"/>
      <path id="STHeiti-6e" d="M 486 3782 
L 928 3782 
L 928 3174 
Q 1453 3872 2202 3872 
Q 2586 3872 2893 3664 
Q 3200 3456 3328 3120 
Q 3456 2784 3456 2131 
L 3456 384 
L 3021 384 
L 3021 2003 
Q 3021 2598 2966 2809 
Q 2912 3021 2800 3168 
Q 2688 3315 2515 3392 
Q 2342 3469 2096 3469 
Q 1850 3469 1613 3347 
Q 1376 3226 1209 3008 
Q 1043 2790 985 2560 
Q 928 2330 928 1632 
L 928 384 
L 486 384 
L 486 3782 
z
" transform="scale(0.015625)"/>
      <path id="STHeiti-5f" d="M 0 -96 
L 3200 -96 
L 3200 -416 
L 0 -416 
L 0 -96 
z
" transform="scale(0.015625)"/>
      <path id="STHeiti-3d" d="M 3520 3584 
L 3520 3155 
L 358 3155 
L 358 3584 
L 3520 3584 
z
M 3520 2208 
L 3520 1779 
L 358 1779 
L 358 2208 
L 3520 2208 
z
" transform="scale(0.015625)"/>
      <path id="STHeiti-29" d="M 896 5370 
Q 1530 3891 1530 2118 
Q 1530 480 1024 -762 
L 538 -762 
Q 1062 506 1062 2176 
Q 1062 3027 886 3865 
Q 710 4704 384 5370 
L 896 5370 
z
" transform="scale(0.015625)"/>
     </defs>
     <use xlink:href="#STHeiti-28"/>
     <use xlink:href="#STHeiti-6e" transform="translate(36.899994 0)"/>
     <use xlink:href="#STHeiti-5f" transform="translate(97.899979 0)"/>
     <use xlink:href="#STHeiti-68" transform="translate(147.899963 0)"/>
     <use xlink:href="#STHeiti-3d" transform="translate(208.899948 0)"/>
     <use xlink:href="#STHeiti-38" transform="translate(269.499939 0)"/>
     <use xlink:href="#STHeiti-29" transform="translate(324.899933 0)"/>
    </g>
   </g>
   <g id="text_11">
    <!-- K/V 1 -->
    <g style="fill: #c62828" transform="translate(261.031406 299.949375) scale(0.1 -0.1)">
     <use xlink:href="#STHeiti-4b"/>
     <use xlink:href="#STHeiti-2f" transform="translate(59.099991 0)"/>
     <use xlink:href="#STHeiti-56" transform="translate(102.799988 0)"/>
     <use xlink:href="#STHeiti-20" transform="translate(172.999969 0)"/>
     <use xlink:href="#STHeiti-31" transform="translate(197.999954 0)"/>
    </g>
   </g>
   <g id="text_12">
    <!-- K/V 2 -->
    <g style="fill: #c62828" transform="translate(567.799406 299.949375) scale(0.1 -0.1)">
     <use xlink:href="#STHeiti-4b"/>
     <use xlink:href="#STHeiti-2f" transform="translate(59.099991 0)"/>
     <use xlink:href="#STHeiti-56" transform="translate(102.799988 0)"/>
     <use xlink:href="#STHeiti-20" transform="translate(172.999969 0)"/>
     <use xlink:href="#STHeiti-32" transform="translate(197.999954 0)"/>
    </g>
   </g>
   <g id="text_13">
    <!-- K/V heads -->
    <g style="fill: #c62828" transform="translate(7.2 294.565219) scale(0.09 -0.09)">
     <use xlink:href="#STHeiti-4b"/>
     <use xlink:href="#STHeiti-2f" transform="translate(59.099991 0)"/>
     <use xlink:href="#STHeiti-56" transform="translate(102.799988 0)"/>
     <use xlink:href="#STHeiti-20" transform="translate(172.999969 0)"/>
     <use xlink:href="#STHeiti-68" transform="translate(197.999954 0)"/>
     <use xlink:href="#STHeiti-65" transform="translate(258.999939 0)"/>
     <use xlink:href="#STHeiti-61" transform="translate(323.999924 0)"/>
     <use xlink:href="#STHeiti-64" transform="translate(392.299911 0)"/>
     <use xlink:href="#STHeiti-73" transform="translate(460.799896 0)"/>
    </g>
    <!-- (G=2) -->
    <g style="fill: #c62828" transform="translate(17.216016 304.671656) scale(0.09 -0.09)">
     <use xlink:href="#STHeiti-28"/>
     <use xlink:href="#STHeiti-47" transform="translate(36.899994 0)"/>
     <use xlink:href="#STHeiti-3d" transform="translate(124.099976 0)"/>
     <use xlink:href="#STHeiti-32" transform="translate(184.699966 0)"/>
     <use xlink:href="#STHeiti-29" transform="translate(240.09996 0)"/>
    </g>
   </g>
   <g id="patch_20">
    <path d="M 80.198506 152.947889 
Q 176.092375 210.496336 270.83586 267.354408 
" style="fill: none; opacity: 0.7; stroke: #78909c; stroke-width: 1.2; stroke-linecap: round"/>
    <path d="M 268.435231 263.581216 
L 270.83586 267.354408 
L 266.376929 267.010997 
" style="fill: none; opacity: 0.7; stroke: #78909c; stroke-width: 1.2; stroke-linecap: round"/>
   </g>
   <g id="patch_21">
    <path d="M 179.349199 153.46809 
Q 225.893428 210.496787 271.589343 266.48608 
" style="fill: none; opacity: 0.7; stroke: #78909c; stroke-width: 1.2; stroke-linecap: round"/>
    <path d="M 270.60961 262.122581 
L 271.589343 266.48608 
L 267.510704 264.651767 
" style="fill: none; opacity: 0.7; stroke: #78909c; stroke-width: 1.2; stroke-linecap: round"/>
   </g>
   <g id="patch_22">
    <path d="M 277.617754 153.918573 
Q 275.693737 210.496619 273.815317 265.733798 
" style="fill: none; opacity: 0.7; stroke: #78909c; stroke-width: 1.2; stroke-linecap: round"/>
    <path d="M 275.950109 261.804083 
L 273.815317 265.733798 
L 271.952419 261.668136 
" style="fill: none; opacity: 0.7; stroke: #78909c; stroke-width: 1.2; stroke-linecap: round"/>
   </g>
   <g id="patch_23">
    <path d="M 375.961204 153.418036 
Q 325.494613 210.496132 275.916705 266.56912 
" style="fill: none; opacity: 0.7; stroke: #78909c; stroke-width: 1.2; stroke-linecap: round"/>
    <path d="M 280.064573 264.897239 
L 275.916705 266.56912 
L 277.067921 262.247696 
" style="fill: none; opacity: 0.7; stroke: #78909c; stroke-width: 1.2; stroke-linecap: round"/>
   </g>
   <g id="patch_24">
    <path d="M 478.210233 153.418036 
Q 528.676825 210.496132 578.254733 266.56912 
" style="fill: none; opacity: 0.7; stroke: #78909c; stroke-width: 1.2; stroke-linecap: round"/>
    <path d="M 577.103517 262.247696 
L 578.254733 266.56912 
L 574.106864 264.897239 
" style="fill: none; opacity: 0.7; stroke: #78909c; stroke-width: 1.2; stroke-linecap: round"/>
   </g>
   <g id="patch_25">
    <path d="M 576.553683 153.918573 
Q 578.477701 210.496619 580.356121 265.733798 
" style="fill: none; opacity: 0.7; stroke: #78909c; stroke-width: 1.2; stroke-linecap: round"/>
    <path d="M 582.219018 261.668136 
L 580.356121 265.733798 
L 578.221329 261.804083 
" style="fill: none; opacity: 0.7; stroke: #78909c; stroke-width: 1.2; stroke-linecap: round"/>
   </g>
   <g id="patch_26">
    <path d="M 674.822238 153.46809 
Q 628.278009 210.496787 582.582095 266.48608 
" style="fill: none; opacity: 0.7; stroke: #78909c; stroke-width: 1.2; stroke-linecap: round"/>
    <path d="M 586.660734 264.651767 
L 582.582095 266.48608 
L 583.561828 262.122581 
" style="fill: none; opacity: 0.7; stroke: #78909c; stroke-width: 1.2; stroke-linecap: round"/>
   </g>
   <g id="patch_27">
    <path d="M 773.972932 152.947889 
Q 678.079063 210.496336 583.335577 267.354408 
" style="fill: none; opacity: 0.7; stroke: #78909c; stroke-width: 1.2; stroke-linecap: round"/>
    <path d="M 587.794508 267.010997 
L 583.335577 267.354408 
L 585.736206 263.581216 
" style="fill: none; opacity: 0.7; stroke: #78909c; stroke-width: 1.2; stroke-linecap: round"/>
   </g>
   <g id="text_14">
    <!-- O1 -->
    <g style="fill: #2e7d32" transform="translate(72.081656 409.881295) scale(0.09 -0.09)">
     <defs>
      <path id="STHeiti-4f" d="M 358 2662 
Q 358 3328 678 3891 
Q 998 4454 1555 4774 
Q 2112 5094 2768 5094 
Q 3424 5094 3990 4777 
Q 4557 4461 4880 3901 
Q 5203 3341 5203 2685 
Q 5203 2029 4883 1469 
Q 4563 909 4003 589 
Q 3443 269 2787 269 
Q 2131 269 1568 585 
Q 1005 902 681 1459 
Q 358 2016 358 2662 
z
M 4723 2682 
Q 4723 3507 4150 4076 
Q 3578 4646 2771 4646 
Q 1946 4646 1392 4073 
Q 838 3501 838 2678 
Q 838 1856 1408 1286 
Q 1978 717 2784 717 
Q 3590 717 4156 1273 
Q 4723 1830 4723 2682 
z
" transform="scale(0.015625)"/>
     </defs>
     <use xlink:href="#STHeiti-4f"/>
     <use xlink:href="#STHeiti-31" transform="translate(86.899994 0)"/>
    </g>
   </g>
   <g id="text_15">
    <!-- O2 -->
    <g style="fill: #2e7d32" transform="translate(171.681656 409.881295) scale(0.09 -0.09)">
     <use xlink:href="#STHeiti-4f"/>
     <use xlink:href="#STHeiti-32" transform="translate(86.899994 0)"/>
    </g>
   </g>
   <g id="text_16">
    <!-- O3 -->
    <g style="fill: #2e7d32" transform="translate(271.281656 409.881295) scale(0.09 -0.09)">
     <use xlink:href="#STHeiti-4f"/>
     <use xlink:href="#STHeiti-33" transform="translate(86.899994 0)"/>
    </g>
   </g>
   <g id="text_17">
    <!-- O4 -->
    <g style="fill: #2e7d32" transform="translate(370.881656 409.881295) scale(0.09 -0.09)">
     <use xlink:href="#STHeiti-4f"/>
     <use xlink:href="#STHeiti-34" transform="translate(86.899994 0)"/>
    </g>
   </g>
   <g id="text_18">
    <!-- O5 -->
    <g style="fill: #2e7d32" transform="translate(470.481656 409.881295) scale(0.09 -0.09)">
     <use xlink:href="#STHeiti-4f"/>
     <use xlink:href="#STHeiti-35" transform="translate(86.899994 0)"/>
    </g>
   </g>
   <g id="text_19">
    <!-- O6 -->
    <g style="fill: #2e7d32" transform="translate(570.081656 409.881295) scale(0.09 -0.09)">
     <use xlink:href="#STHeiti-4f"/>
     <use xlink:href="#STHeiti-36" transform="translate(86.899994 0)"/>
    </g>
   </g>
   <g id="text_20">
    <!-- O7 -->
    <g style="fill: #2e7d32" transform="translate(669.681656 409.881295) scale(0.09 -0.09)">
     <use xlink:href="#STHeiti-4f"/>
     <use xlink:href="#STHeiti-37" transform="translate(86.899994 0)"/>
    </g>
   </g>
   <g id="text_21">
    <!-- O8 -->
    <g style="fill: #2e7d32" transform="translate(769.281656 409.881295) scale(0.09 -0.09)">
     <use xlink:href="#STHeiti-4f"/>
     <use xlink:href="#STHeiti-38" transform="translate(86.899994 0)"/>
    </g>
   </g>
   <g id="text_22">
    <!-- 输出 -->
    <g style="fill: #2e7d32" transform="translate(20.681719 404.828076) scale(0.09 -0.09)">
     <defs>
      <path id="STHeiti-8f93" d="M 4730 3725 
L 4730 3309 
Q 4448 3360 4006 3360 
Q 3565 3360 3290 3309 
L 3290 3802 
Q 3578 3750 3994 3750 
Q 4410 3750 4653 3789 
Q 4230 4154 3949 4646 
Q 3258 3712 2381 2950 
Q 2176 3174 1978 3258 
Q 2995 3917 3706 5267 
Q 4058 5126 4288 5114 
Q 4358 5107 4358 5068 
Q 4358 5030 4326 5011 
L 4205 4928 
Q 4538 4397 4995 4089 
Q 5453 3782 6157 3642 
Q 5926 3450 5792 3123 
Q 5222 3322 4730 3725 
z
M 1389 2406 
Q 1389 3162 1363 3264 
Q 1504 3219 1856 3219 
Q 1920 3219 1920 3174 
Q 1920 3130 1869 3110 
Q 1811 3072 1811 2931 
L 1811 2451 
Q 2099 2490 2240 2534 
L 2240 2054 
Q 2061 2080 1811 2074 
L 1811 1197 
Q 2163 1312 2317 1382 
Q 2298 1254 2298 1100 
Q 2298 947 2304 877 
Q 2093 877 1811 800 
Q 1811 186 1856 -538 
L 1331 -538 
Q 1382 51 1389 672 
Q 826 506 557 390 
Q 493 678 358 909 
Q 698 915 1389 1082 
L 1389 2048 
Q 826 2003 544 1888 
Q 474 2131 314 2362 
Q 525 2438 656 2796 
Q 787 3155 992 3923 
Q 685 3917 506 3885 
L 506 4371 
Q 678 4333 1082 4326 
Q 1184 4813 1171 5216 
Q 1606 5082 1811 5082 
Q 1882 5082 1882 5053 
Q 1882 5024 1824 4992 
Q 1734 4934 1536 4326 
Q 2042 4326 2298 4371 
L 2298 3885 
Q 2029 3930 1408 3930 
L 915 2362 
L 1389 2406 
z
M 5235 2989 
Q 5446 2944 5760 2944 
Q 5850 2944 5850 2909 
Q 5850 2874 5789 2822 
Q 5728 2771 5728 2586 
L 5728 115 
Q 5728 -109 5686 -214 
Q 5645 -320 5497 -390 
Q 5350 -461 4998 -538 
Q 4934 -224 4774 -51 
Q 4960 -77 5088 -77 
Q 5216 -77 5257 -3 
Q 5299 70 5299 282 
L 5299 1958 
Q 5299 2630 5235 2989 
z
M 3706 717 
L 3002 717 
L 3002 -390 
L 2522 -390 
Q 2579 128 2579 557 
L 2579 2438 
Q 2579 2733 2534 2976 
Q 2867 2938 3305 2938 
Q 3744 2938 4154 2976 
Q 4122 2784 4122 2438 
L 4122 205 
Q 4122 -64 4086 -182 
Q 4051 -301 3926 -368 
Q 3802 -435 3501 -486 
Q 3469 -250 3315 -13 
Q 3430 -26 3526 -26 
Q 3622 -26 3664 41 
Q 3706 109 3706 365 
L 3706 717 
z
M 3002 2016 
L 3706 2016 
L 3706 2554 
L 3002 2554 
L 3002 2016 
z
M 3706 1638 
L 3002 1638 
L 3002 1088 
L 3706 1088 
L 3706 1638 
z
M 4461 2758 
Q 4653 2720 4819 2720 
L 4973 2726 
Q 5043 2726 5043 2684 
Q 5043 2643 4985 2608 
Q 4928 2573 4928 2413 
L 4928 1254 
Q 4928 896 4966 467 
L 4467 467 
Q 4506 909 4506 1254 
L 4506 2067 
Q 4506 2515 4461 2758 
z
" transform="scale(0.015625)"/>
      <path id="STHeiti-51fa" d="M 4858 2502 
L 3494 2502 
L 3494 326 
L 4973 371 
L 4973 1331 
Q 4973 1690 4934 1952 
Q 5203 1901 5408 1901 
L 5587 1907 
Q 5638 1907 5638 1891 
Q 5638 1875 5606 1843 
Q 5523 1760 5523 1325 
L 5523 102 
Q 5523 -275 5549 -608 
L 4934 -608 
Q 4960 -371 4973 -102 
L 3034 -160 
Q 1357 -211 845 -269 
Q 877 -19 877 256 
L 877 1523 
Q 877 1882 851 2016 
Q 1011 1984 1148 1968 
Q 1286 1952 1363 1958 
L 1491 1958 
Q 1542 1958 1542 1932 
Q 1542 1907 1513 1859 
Q 1485 1811 1459 1660 
Q 1434 1510 1434 1389 
L 1434 262 
L 2938 307 
L 2938 2502 
L 2163 2502 
Q 1613 2502 1094 2432 
Q 1146 2739 1146 3002 
L 1146 4006 
Q 1146 4346 1094 4576 
Q 1350 4531 1529 4531 
Q 1709 4531 1757 4540 
Q 1805 4550 1833 4550 
Q 1862 4550 1862 4531 
Q 1862 4512 1814 4464 
Q 1766 4416 1728 4256 
Q 1690 4096 1690 4013 
L 1690 2963 
L 2938 2963 
L 2938 4326 
Q 2938 4870 2893 5178 
Q 3149 5126 3254 5116 
Q 3360 5107 3616 5107 
Q 3680 5107 3680 5088 
Q 3680 5069 3629 5017 
Q 3578 4966 3536 4752 
Q 3494 4538 3494 4333 
L 3494 2963 
L 4858 2963 
L 4858 4006 
Q 4858 4365 4800 4627 
Q 5062 4582 5261 4582 
L 5472 4595 
Q 5517 4595 5517 4572 
Q 5517 4550 5498 4506 
Q 5402 4339 5402 4000 
L 5402 2842 
Q 5402 2477 5427 2202 
L 4813 2202 
Q 4851 2368 4858 2502 
z
" transform="scale(0.015625)"/>
     </defs>
     <use xlink:href="#STHeiti-8f93"/>
     <use xlink:href="#STHeiti-51fa" transform="translate(99.999985 0)"/>
    </g>
    <!-- (n_h=8) -->
    <g style="fill: #2e7d32" transform="translate(13.400156 414.934513) scale(0.09 -0.09)">
     <use xlink:href="#STHeiti-28"/>
     <use xlink:href="#STHeiti-6e" transform="translate(36.899994 0)"/>
     <use xlink:href="#STHeiti-5f" transform="translate(97.899979 0)"/>
     <use xlink:href="#STHeiti-68" transform="translate(147.899963 0)"/>
     <use xlink:href="#STHeiti-3d" transform="translate(208.899948 0)"/>
     <use xlink:href="#STHeiti-38" transform="translate(269.499939 0)"/>
     <use xlink:href="#STHeiti-29" transform="translate(324.899933 0)"/>
    </g>
   </g>
   <g id="patch_28">
    <path d="M 271.804249 324.828662 
Q 176.096296 356.250011 81.450596 387.322618 
" style="fill: none; opacity: 0.6; stroke: #2e7d32; stroke-linecap: round"/>
    <path d="M 85.874872 387.975134 
L 81.450596 387.322618 
L 84.627175 384.174706 
" style="fill: none; opacity: 0.6; stroke: #2e7d32; stroke-linecap: round"/>
   </g>
   <g id="patch_29">
    <path d="M 272.041395 325.31861 
Q 225.89364 356.25091 180.674591 386.56071 
" style="fill: none; opacity: 0.6; stroke: #2e7d32; stroke-linecap: round"/>
    <path d="M 185.11079 385.994903 
L 180.674591 386.56071 
L 182.883665 382.672266 
" style="fill: none; opacity: 0.6; stroke: #2e7d32; stroke-linecap: round"/>
   </g>
   <g id="patch_30">
    <path d="M 273.825976 326.204624 
Q 275.693772 356.251711 277.492202 385.182918 
" style="fill: none; opacity: 0.6; stroke: #2e7d32; stroke-linecap: round"/>
    <path d="M 279.240179 381.066539 
L 277.492202 385.182918 
L 275.247885 381.314709 
" style="fill: none; opacity: 0.6; stroke: #2e7d32; stroke-linecap: round"/>
   </g>
   <g id="patch_31">
    <path d="M 275.405569 325.259934 
Q 325.495296 356.251833 374.63426 386.655469 
" style="fill: none; opacity: 0.6; stroke: #2e7d32; stroke-linecap: round"/>
    <path d="M 372.285028 382.850064 
L 374.63426 386.655469 
L 370.180397 386.251611 
" style="fill: none; opacity: 0.6; stroke: #2e7d32; stroke-linecap: round"/>
   </g>
   <g id="patch_32">
    <path d="M 578.765868 325.259934 
Q 528.676142 356.251833 479.537177 386.655469 
" style="fill: none; opacity: 0.6; stroke: #2e7d32; stroke-linecap: round"/>
    <path d="M 483.991041 386.251611 
L 479.537177 386.655469 
L 481.886409 382.850064 
" style="fill: none; opacity: 0.6; stroke: #2e7d32; stroke-linecap: round"/>
   </g>
   <g id="patch_33">
    <path d="M 580.345462 326.204624 
Q 578.477666 356.251711 576.679235 385.182918 
" style="fill: none; opacity: 0.6; stroke: #2e7d32; stroke-linecap: round"/>
    <path d="M 578.923552 381.314709 
L 576.679235 385.182918 
L 574.931258 381.066539 
" style="fill: none; opacity: 0.6; stroke: #2e7d32; stroke-linecap: round"/>
   </g>
   <g id="patch_34">
    <path d="M 582.130043 325.31861 
Q 628.277798 356.25091 673.496847 386.56071 
" style="fill: none; opacity: 0.6; stroke: #2e7d32; stroke-linecap: round"/>
    <path d="M 671.287772 382.672266 
L 673.496847 386.56071 
L 669.060648 385.994903 
" style="fill: none; opacity: 0.6; stroke: #2e7d32; stroke-linecap: round"/>
   </g>
   <g id="patch_35">
    <path d="M 582.367189 324.828662 
Q 678.075141 356.250011 772.720842 387.322618 
" style="fill: none; opacity: 0.6; stroke: #2e7d32; stroke-linecap: round"/>
    <path d="M 769.544263 384.174706 
L 772.720842 387.322618 
L 768.296565 387.975134 
" style="fill: none; opacity: 0.6; stroke: #2e7d32; stroke-linecap: round"/>
   </g>
   <g id="text_23">
    <g id="patch_36">
     <path d="M 278.816031 474.467344 
L 575.355406 474.467344 
Q 579.205406 474.467344 579.205406 470.617344 
L 579.205406 460.342656 
Q 579.205406 456.492656 575.355406 456.492656 
L 278.816031 456.492656 
Q 274.966031 456.492656 274.966031 460.342656 
L 274.966031 470.617344 
Q 274.966031 474.467344 278.816031 474.467344 
z
" style="fill: #fff9c4; stroke: #f9a825; stroke-width: 1.8; stroke-linejoin: miter"/>
    </g>
    <!-- KV Cache 降低 n_h/G = 8/2 = 4×   |   参数和内存大幅节省 -->
    <g style="fill: #c62828" transform="translate(278.816031 469.142656) scale(0.11 -0.11)">
     <defs>
      <path id="STHeiti-43" d="M 4838 4128 
L 4480 3853 
Q 3840 4646 2835 4646 
Q 2016 4646 1424 4070 
Q 832 3494 832 2659 
Q 832 1824 1411 1264 
Q 1990 704 2861 704 
Q 3834 704 4480 1459 
L 4838 1184 
Q 4499 736 3980 502 
Q 3462 269 2835 269 
Q 1741 269 1043 960 
Q 346 1651 346 2707 
Q 346 3360 669 3913 
Q 992 4467 1565 4780 
Q 2138 5094 2797 5094 
Q 3456 5094 3981 4844 
Q 4506 4595 4838 4128 
z
" transform="scale(0.015625)"/>
      <path id="STHeiti-63" d="M 4038 3078 
L 3693 2861 
Q 3245 3456 2464 3456 
Q 1850 3456 1434 3062 
Q 1018 2669 1018 2086 
Q 1018 1504 1427 1088 
Q 1837 672 2464 672 
Q 3213 672 3693 1267 
L 4038 1037 
Q 3782 666 3350 467 
Q 2918 269 2419 269 
Q 1632 269 1104 787 
Q 576 1306 576 2054 
Q 576 2803 1110 3337 
Q 1645 3872 2483 3872 
Q 2976 3872 3395 3661 
Q 3814 3450 4038 3078 
z
" transform="scale(0.015625)"/>
      <path id="STHeiti-964d" d="M 4179 2893 
Q 3616 2541 2624 2195 
Q 2509 2419 2298 2624 
Q 3309 2861 3846 3168 
Q 3590 3430 3360 3885 
Q 3136 3546 2867 3245 
Q 2726 3392 2445 3501 
Q 3251 4243 3520 5274 
Q 3802 5133 3978 5085 
Q 4154 5037 4154 5008 
Q 4154 4979 4096 4941 
Q 3987 4870 3789 4595 
L 4941 4595 
Q 5434 4595 5606 4640 
Q 5152 3616 4582 3174 
Q 5050 2970 5818 2970 
Q 5971 2970 6144 2976 
Q 5984 2714 5920 2387 
Q 4672 2560 4179 2893 
z
M 4186 3398 
Q 4557 3680 4838 4192 
L 3558 4192 
Q 3814 3686 4186 3398 
z
M 2502 4883 
L 1766 2848 
Q 2118 2323 2224 2070 
Q 2330 1818 2330 1440 
Q 2330 1062 2115 886 
Q 1901 710 1395 672 
Q 1408 973 1171 1261 
Q 1274 1248 1357 1248 
Q 1869 1248 1869 1587 
Q 1869 1926 1744 2179 
Q 1619 2432 1331 2784 
L 1811 4442 
L 1062 4442 
L 1062 -621 
L 576 -621 
Q 602 -128 602 870 
L 602 4250 
Q 602 4627 576 4890 
Q 877 4864 1510 4864 
Q 2144 4864 2502 4883 
z
M 4038 806 
L 4038 1530 
Q 3155 1530 2726 1485 
L 2726 1978 
Q 3149 1939 4038 1933 
Q 4026 2394 3987 2541 
Q 4256 2509 4442 2509 
L 4589 2515 
Q 4659 2515 4659 2486 
Q 4659 2458 4601 2426 
Q 4544 2394 4521 2352 
Q 4499 2310 4499 2227 
L 4499 1933 
Q 5248 1933 5619 1978 
L 5619 1485 
Q 5203 1523 4499 1530 
L 4499 806 
Q 5555 806 5805 858 
L 5805 339 
Q 5581 378 4499 384 
Q 4499 -307 4538 -634 
L 4026 -634 
Q 4038 -429 4038 384 
Q 2963 378 2554 307 
Q 2637 704 2637 947 
Q 2637 1190 2630 1286 
L 3194 1286 
Q 3149 1184 3098 806 
L 4038 806 
z
" transform="scale(0.015625)"/>
      <path id="STHeiti-4f4e" d="M 1126 2778 
Q 922 2368 608 1920 
Q 480 2144 192 2342 
Q 1056 3251 1498 5139 
Q 1837 5018 2118 4954 
Q 2234 4928 2234 4889 
Q 2234 4851 2118 4764 
Q 2003 4678 1626 3853 
L 1626 -640 
L 1056 -640 
Q 1126 192 1126 768 
L 1126 2778 
z
M 4518 2861 
Q 5549 2861 5875 2906 
L 5875 2374 
Q 5600 2419 4544 2419 
Q 4608 1536 4934 857 
Q 5261 179 5427 179 
Q 5594 179 5670 762 
Q 5837 557 6138 390 
Q 5830 -448 5488 -448 
Q 5146 -448 4678 342 
Q 4211 1133 4070 2419 
L 2938 2419 
L 2938 454 
Q 3341 838 3661 1216 
Q 3718 909 3872 698 
L 3078 -58 
Q 2822 -294 2605 -570 
Q 2438 -294 2227 -83 
Q 2349 13 2400 160 
Q 2451 307 2451 621 
L 2451 3514 
Q 2451 4250 2400 4525 
Q 3014 4512 3808 4633 
Q 4602 4755 5274 4960 
Q 5414 4634 5562 4461 
Q 5594 4422 5594 4393 
Q 5594 4365 5536 4365 
L 5427 4371 
Q 5210 4371 4544 4282 
Q 4512 3840 4512 3481 
Q 4512 3123 4518 2861 
z
M 2938 2861 
L 4032 2861 
Q 4006 3270 4006 3603 
Q 4006 3936 4019 4205 
Q 3149 4077 2938 4096 
L 2938 2861 
z
M 4403 -378 
L 3859 -461 
Q 3834 -154 3725 288 
L 4237 410 
Q 4346 -19 4403 -378 
z
" transform="scale(0.015625)"/>
      <path id="STHeiti-d7" d="M 5133 3866 
L 3469 2202 
L 5126 544 
L 4806 224 
L 3149 1882 
L 1491 224 
L 1165 544 
L 2829 2202 
L 1165 3866 
L 1485 4186 
L 3149 2522 
L 4813 4186 
L 5133 3866 
z
" transform="scale(0.015625)"/>
      <path id="STHeiti-7c" d="M 1926 5280 
L 2374 5280 
L 2374 -672 
L 1926 -672 
L 1926 5280 
z
" transform="scale(0.015625)"/>
      <path id="STHeiti-53c2" d="M 4378 4051 
Q 4102 4282 3750 4550 
L 4154 4800 
Q 4915 4256 5363 3846 
L 4960 3462 
Q 4845 3610 4736 3718 
L 3110 3693 
Q 2950 3386 2797 3142 
L 4134 3142 
Q 5453 3142 5958 3200 
L 5958 2701 
Q 5389 2752 4390 2758 
Q 4710 2387 5107 2182 
Q 5504 1978 6112 1856 
Q 5978 1728 5859 1549 
Q 5741 1370 5734 1286 
Q 4461 1786 3930 2758 
L 2534 2758 
Q 1933 1946 787 1254 
Q 672 1402 410 1651 
Q 1421 2080 2003 2758 
Q 1210 2752 518 2701 
L 518 3200 
Q 1101 3142 2272 3142 
Q 2490 3514 2541 3680 
Q 1798 3654 1363 3597 
Q 1312 3878 1216 4083 
Q 1626 4166 1843 4323 
Q 2061 4480 2352 4793 
Q 2643 5107 2714 5306 
Q 3123 5062 3270 5030 
Q 3418 4998 3418 4960 
Q 3418 4922 3245 4845 
Q 3072 4768 2694 4467 
Q 2317 4166 2061 4051 
L 4378 4051 
z
M 3386 2541 
Q 3565 2336 3776 2234 
Q 3859 2195 3859 2150 
Q 3859 2106 3747 2106 
Q 3635 2106 3168 1798 
Q 2822 1574 2579 1456 
Q 2336 1338 1766 1120 
Q 1632 1318 1466 1472 
Q 1952 1606 2502 1913 
Q 3053 2221 3386 2541 
z
M 4115 1965 
Q 4192 1798 4461 1677 
Q 4538 1645 4538 1600 
Q 4538 1536 4416 1536 
Q 4397 1536 4205 1408 
Q 4013 1280 3878 1165 
Q 3526 883 2828 598 
Q 2131 314 1645 256 
Q 1536 480 1299 672 
Q 2867 787 4115 1965 
z
M 4806 1402 
Q 5005 1229 5216 1107 
Q 5286 1069 5286 1014 
Q 5286 960 5171 941 
Q 5094 934 4668 572 
Q 4243 211 3827 -13 
Q 3411 -237 2803 -397 
Q 2195 -557 1261 -666 
Q 1216 -422 998 -205 
Q 2208 -154 3075 169 
Q 3942 493 4806 1402 
z
" transform="scale(0.015625)"/>
      <path id="STHeiti-6570" d="M 4640 480 
Q 4173 -51 3194 -467 
Q 3059 -237 2803 -26 
Q 3238 70 3673 323 
Q 4109 576 4365 890 
Q 3994 1549 3962 2835 
Q 3744 2458 3520 2176 
Q 3366 2419 3206 2522 
Q 3584 3040 3837 3747 
Q 4090 4454 4147 5171 
Q 4486 5062 4800 5037 
Q 4877 5030 4877 4988 
Q 4877 4947 4781 4896 
Q 4704 4858 4480 4128 
L 5216 4128 
Q 5747 4128 6003 4179 
L 6003 3661 
Q 5850 3680 5562 3699 
Q 5440 1773 4934 896 
Q 5254 518 6112 250 
Q 5856 6 5754 -365 
Q 4902 141 4640 480 
z
M 4627 1363 
Q 5018 2253 5088 3706 
L 4352 3706 
Q 4237 3328 3981 2874 
L 4384 2886 
Q 4384 1907 4627 1363 
z
M 1549 3526 
Q 1222 3520 589 3488 
L 589 3942 
Q 1158 3898 1850 3898 
L 1850 4499 
Q 1850 4800 1786 5165 
Q 2042 5139 2362 5139 
Q 2458 5139 2458 5094 
Q 2458 5050 2406 5030 
Q 2355 5011 2336 4976 
Q 2317 4941 2317 4845 
L 2317 3898 
Q 2758 3904 3507 3942 
L 3507 3488 
Q 2810 3526 2317 3533 
Q 2317 2970 2362 2515 
L 1805 2515 
Q 1850 3034 1850 3456 
Q 1632 3014 1401 2745 
Q 1171 2477 755 2189 
Q 608 2406 282 2573 
Q 1030 2816 1549 3526 
z
M 2861 4922 
Q 3155 4826 3386 4794 
Q 3462 4781 3462 4755 
Q 3462 4730 3388 4701 
Q 3315 4672 3228 4521 
Q 3142 4371 3014 4122 
Q 2835 4166 2560 4186 
Q 2746 4461 2861 4922 
z
M 1510 4230 
L 973 4154 
Q 966 4461 883 4806 
L 1389 4870 
Q 1459 4595 1510 4230 
z
M 3360 2790 
L 3046 2477 
Q 2765 2816 2464 3078 
L 2790 3328 
Q 3034 3117 3360 2790 
z
M 2899 755 
Q 3168 666 3450 525 
Q 3251 314 3168 128 
Q 2886 288 2637 390 
Q 2394 128 1984 -51 
Q 1574 -230 781 -410 
Q 627 -115 346 109 
Q 1619 134 2157 557 
Q 1709 691 1030 781 
Q 1248 1165 1408 1555 
Q 800 1549 531 1504 
L 531 1965 
Q 858 1939 1536 1926 
Q 1600 2118 1696 2458 
Q 1946 2355 2214 2336 
Q 2342 2323 2342 2294 
Q 2342 2266 2243 2198 
Q 2144 2131 2035 1926 
L 2899 1926 
Q 3162 1926 3341 1971 
Q 3123 1158 2899 755 
z
M 1862 1555 
L 1626 1043 
Q 2118 966 2470 883 
Q 2662 1165 2726 1555 
L 1862 1555 
z
" transform="scale(0.015625)"/>
      <path id="STHeiti-548c" d="M 1702 4365 
Q 1062 4237 749 4205 
Q 685 4512 512 4685 
Q 1158 4710 1824 4860 
Q 2490 5011 2778 5210 
Q 2886 4870 3098 4666 
Q 3187 4576 3187 4550 
Q 3187 4525 3155 4525 
Q 3123 4525 3052 4537 
Q 2982 4550 2822 4550 
Q 2662 4550 2208 4461 
L 2208 3334 
Q 2950 3347 3194 3386 
L 3194 2854 
Q 2938 2886 2208 2899 
L 2208 467 
Q 2208 58 2266 -634 
L 1651 -634 
Q 1702 -13 1702 467 
L 1702 2176 
Q 1434 1344 710 358 
Q 550 602 282 858 
Q 1229 1894 1606 2906 
Q 762 2899 486 2854 
L 486 3386 
Q 742 3334 1702 3334 
L 1702 4365 
z
M 4019 787 
L 4019 58 
L 3443 58 
Q 3494 512 3494 928 
L 3494 4006 
Q 3494 4358 3456 4512 
Q 4019 4474 4640 4474 
Q 5261 4474 5818 4512 
Q 5779 4352 5779 4006 
L 5779 1088 
Q 5779 614 5824 218 
L 5254 218 
L 5254 787 
L 4019 787 
z
M 5254 1235 
L 5254 4013 
L 4019 4013 
L 4019 1235 
L 5254 1235 
z
M 3264 1408 
L 2835 1082 
Q 2618 1555 2246 2054 
L 2598 2355 
Q 2970 1837 3264 1408 
z
" transform="scale(0.015625)"/>
      <path id="STHeiti-5185" d="M 3302 2733 
Q 4141 2106 4787 1376 
L 4301 992 
Q 3654 1850 3174 2317 
Q 3008 1862 2768 1529 
Q 2528 1197 2093 781 
Q 1862 966 1581 1088 
Q 2323 1606 2569 2105 
Q 2816 2605 2886 3546 
L 1472 3546 
L 1472 -461 
L 890 -461 
Q 947 -51 947 486 
L 947 3130 
Q 947 3680 896 4077 
Q 1504 4006 2918 4019 
Q 2938 4653 2880 5158 
Q 3155 5133 3328 5133 
L 3616 5133 
Q 3706 5133 3706 5101 
Q 3706 5069 3622 5005 
Q 3590 4979 3545 4710 
Q 3501 4442 3475 4019 
Q 5082 4019 5562 4077 
Q 5517 3674 5517 3130 
L 5517 141 
Q 5517 -122 5443 -253 
Q 5370 -384 5139 -464 
Q 4909 -544 4410 -608 
Q 4397 -301 4154 13 
Q 4339 -6 4537 -6 
Q 4736 -6 4857 64 
Q 4979 134 4979 326 
L 4979 3546 
L 3430 3546 
Q 3373 3098 3302 2733 
z
" transform="scale(0.015625)"/>
      <path id="STHeiti-5b58" d="M 1549 2272 
Q 1088 1786 608 1427 
Q 397 1683 122 1811 
Q 685 2125 1251 2681 
Q 1818 3238 2202 3872 
Q 1318 3866 627 3834 
L 627 4384 
Q 1267 4339 2438 4333 
Q 2726 4954 2797 5254 
Q 3206 5082 3494 5024 
Q 3584 5011 3584 4979 
Q 3584 4947 3526 4922 
Q 3366 4851 3053 4326 
Q 4838 4326 5824 4384 
L 5824 3834 
Q 5005 3878 2778 3878 
Q 2451 3354 2048 2854 
L 2048 237 
Q 2048 -198 2080 -531 
L 1517 -531 
Q 1549 -198 1549 237 
L 1549 2272 
z
M 4499 1203 
L 4499 166 
Q 4499 -173 4444 -304 
Q 4390 -435 4198 -502 
Q 4006 -570 3475 -666 
Q 3437 -384 3245 -26 
Q 3507 -51 3686 -51 
Q 3866 -51 3930 41 
Q 3994 134 3994 435 
L 3994 1203 
Q 2842 1203 2195 1165 
L 2195 1683 
Q 2886 1632 3994 1632 
L 3994 2189 
L 4749 2714 
L 3533 2714 
Q 3072 2714 2630 2675 
L 2630 3168 
Q 2970 3130 4102 3130 
Q 5235 3130 5613 3181 
L 5613 2720 
Q 5363 2662 5242 2566 
L 4499 2003 
L 4499 1632 
Q 5530 1638 6074 1683 
L 6074 1165 
Q 5395 1197 4499 1203 
z
" transform="scale(0.015625)"/>
      <path id="STHeiti-5927" d="M 3264 2304 
Q 3078 1402 2560 739 
Q 2042 77 909 -486 
Q 723 -192 365 6 
Q 1370 275 2051 963 
Q 2733 1651 2829 3027 
Q 1427 3021 621 2970 
L 621 3584 
Q 1389 3533 2854 3520 
Q 2880 4051 2880 4454 
Q 2880 4858 2848 5158 
Q 3117 5120 3296 5120 
Q 3661 5120 3661 5094 
Q 3661 5069 3603 5024 
Q 3501 4947 3488 4659 
L 3411 3520 
Q 4973 3520 5773 3584 
L 5773 2970 
Q 4915 3027 3379 3027 
Q 3629 1946 4333 1171 
Q 5037 397 5997 237 
Q 5645 -6 5459 -448 
Q 4787 -115 4179 521 
Q 3571 1158 3264 2304 
z
" transform="scale(0.015625)"/>
      <path id="STHeiti-5e45" d="M 1286 4058 
Q 1286 4781 1248 5203 
Q 1530 5165 1805 5165 
Q 1920 5165 1920 5126 
Q 1920 5088 1827 5033 
Q 1734 4979 1734 4858 
L 1734 4058 
Q 2080 4058 2598 4083 
L 2598 998 
Q 2598 794 2480 707 
Q 2362 621 1997 570 
Q 1984 787 1818 1062 
Q 1926 1050 2003 1050 
Q 2080 1050 2115 1088 
Q 2150 1126 2150 1280 
L 2150 3674 
L 1734 3674 
L 1734 538 
Q 1734 -102 1786 -582 
L 1242 -582 
Q 1286 -64 1286 538 
L 1286 3674 
L 922 3674 
L 922 531 
L 442 531 
Q 474 947 474 1434 
L 474 4083 
Q 774 4070 1286 4058 
z
M 5958 4314 
Q 5408 4371 4393 4371 
Q 3379 4371 2829 4314 
L 2829 4832 
Q 3379 4774 4393 4774 
Q 5408 4774 5958 4832 
L 5958 4314 
z
M 5555 2573 
Q 5094 2605 4361 2605 
Q 3629 2605 3168 2573 
Q 3187 2938 3187 3258 
Q 3187 3578 3168 3942 
Q 3584 3904 4361 3904 
Q 5139 3904 5555 3942 
Q 5536 3578 5536 3258 
Q 5536 2938 5555 2573 
z
M 5146 2976 
L 5146 3514 
L 3590 3514 
L 3590 2976 
L 5146 2976 
z
M 3373 -275 
L 3373 -582 
L 2899 -582 
Q 2925 -333 2925 115 
L 2925 1587 
Q 2925 1888 2893 2202 
Q 3411 2170 4371 2170 
Q 5331 2170 5843 2202 
Q 5811 1958 5811 1587 
L 5811 179 
Q 5811 -269 5837 -518 
L 5363 -518 
L 5363 -275 
L 3373 -275 
z
M 4122 1798 
L 3373 1798 
L 3373 1120 
L 4122 1120 
L 4122 1798 
z
M 5363 1120 
L 5363 1798 
L 4550 1798 
L 4550 1120 
L 5363 1120 
z
M 3373 768 
L 3373 102 
L 4122 102 
L 4122 768 
L 3373 768 
z
M 5363 102 
L 5363 768 
L 4550 768 
L 4550 102 
L 5363 102 
z
" transform="scale(0.015625)"/>
      <path id="STHeiti-8282" d="M 2624 4422 
L 3814 4422 
Q 3814 4986 3776 5178 
Q 4051 5139 4378 5139 
Q 4442 5139 4442 5107 
Q 4442 5075 4387 5043 
Q 4333 5011 4333 4915 
L 4333 4422 
Q 5536 4422 6093 4474 
L 6093 3910 
Q 5453 3968 4333 3968 
L 4333 3219 
L 3814 3219 
L 3814 3968 
L 2624 3968 
L 2624 3226 
L 2106 3226 
L 2106 3968 
Q 1011 3968 365 3910 
L 365 4474 
Q 819 4422 2106 4422 
Q 2093 4954 2067 5184 
Q 2342 5146 2669 5146 
Q 2733 5146 2733 5114 
Q 2733 5082 2678 5050 
Q 2624 5018 2624 4922 
L 2624 4422 
z
M 2912 2381 
L 2912 454 
Q 2912 0 2976 -646 
L 2310 -646 
Q 2374 0 2374 454 
L 2374 2381 
Q 1325 2381 845 2323 
L 845 2886 
Q 1306 2829 2941 2829 
Q 4576 2829 5254 2886 
L 5190 1094 
Q 5178 710 5114 566 
Q 5050 422 4832 352 
Q 4614 282 4006 186 
Q 3962 550 3789 826 
Q 4045 787 4237 787 
Q 4429 787 4547 867 
Q 4666 947 4672 1267 
L 4698 2381 
L 2912 2381 
z
" transform="scale(0.015625)"/>
      <path id="STHeiti-7701" d="M 2848 2752 
L 4262 2752 
Q 4928 2752 5267 2810 
Q 5229 2560 5229 2272 
L 5229 198 
Q 5229 -205 5280 -486 
L 4710 -486 
L 4710 -160 
L 1990 -160 
L 1990 -570 
L 1421 -570 
Q 1466 -186 1466 186 
L 1466 2208 
Q 902 2003 550 1920 
Q 474 2221 237 2464 
Q 1446 2522 2950 3270 
L 2950 4634 
Q 2950 4986 2880 5280 
Q 3194 5222 3584 5222 
Q 3654 5222 3654 5190 
Q 3654 5158 3574 5113 
Q 3494 5069 3494 4941 
L 3494 3571 
Q 4013 3898 4230 4166 
Q 4448 3891 4627 3776 
Q 4691 3738 4691 3712 
Q 4691 3686 4601 3680 
Q 4512 3674 4089 3392 
Q 3667 3110 2848 2752 
z
M 4710 1894 
L 4710 2330 
L 1990 2330 
L 1990 1894 
L 4710 1894 
z
M 1990 1504 
L 1990 1069 
L 4710 1069 
L 4710 1504 
L 1990 1504 
z
M 1990 678 
L 1990 230 
L 4710 230 
L 4710 678 
L 1990 678 
z
M 6074 3866 
L 5651 3443 
Q 5152 4032 4403 4448 
L 4794 4819 
Q 5498 4346 6074 3866 
z
M 1875 4710 
Q 2112 4506 2342 4416 
Q 2438 4371 2438 4342 
Q 2438 4314 2332 4272 
Q 2227 4230 1888 3891 
Q 1549 3552 1158 3226 
Q 928 3430 678 3507 
Q 1357 3930 1875 4710 
z
" transform="scale(0.015625)"/>
     </defs>
     <use xlink:href="#STHeiti-4b"/>
     <use xlink:href="#STHeiti-56" transform="translate(59.099991 0)"/>
     <use xlink:href="#STHeiti-20" transform="translate(129.299973 0)"/>
     <use xlink:href="#STHeiti-43" transform="translate(154.299957 0)"/>
     <use xlink:href="#STHeiti-61" transform="translate(235.599945 0)"/>
     <use xlink:href="#STHeiti-63" transform="translate(303.899933 0)"/>
     <use xlink:href="#STHeiti-68" transform="translate(368.59993 0)"/>
     <use xlink:href="#STHeiti-65" transform="translate(429.599915 0)"/>
     <use xlink:href="#STHeiti-20" transform="translate(494.599899 0)"/>
     <use xlink:href="#STHeiti-964d" transform="translate(519.599884 0)"/>
     <use xlink:href="#STHeiti-4f4e" transform="translate(619.599869 0)"/>
     <use xlink:href="#STHeiti-20" transform="translate(719.599854 0)"/>
     <use xlink:href="#STHeiti-6e" transform="translate(744.599838 0)"/>
     <use xlink:href="#STHeiti-5f" transform="translate(805.599823 0)"/>
     <use xlink:href="#STHeiti-68" transform="translate(855.599808 0)"/>
     <use xlink:href="#STHeiti-2f" transform="translate(916.599792 0)"/>
     <use xlink:href="#STHeiti-47" transform="translate(960.299789 0)"/>
     <use xlink:href="#STHeiti-20" transform="translate(1047.499771 0)"/>
     <use xlink:href="#STHeiti-3d" transform="translate(1072.499756 0)"/>
     <use xlink:href="#STHeiti-20" transform="translate(1133.099747 0)"/>
     <use xlink:href="#STHeiti-38" transform="translate(1158.099731 0)"/>
     <use xlink:href="#STHeiti-2f" transform="translate(1213.499725 0)"/>
     <use xlink:href="#STHeiti-32" transform="translate(1257.199722 0)"/>
     <use xlink:href="#STHeiti-20" transform="translate(1312.599716 0)"/>
     <use xlink:href="#STHeiti-3d" transform="translate(1337.599701 0)"/>
     <use xlink:href="#STHeiti-20" transform="translate(1398.199692 0)"/>
     <use xlink:href="#STHeiti-34" transform="translate(1423.199677 0)"/>
     <use xlink:href="#STHeiti-d7" transform="translate(1478.59967 0)"/>
     <use xlink:href="#STHeiti-20" transform="translate(1578.599655 0)"/>
     <use xlink:href="#STHeiti-20" transform="translate(1603.59964 0)"/>
     <use xlink:href="#STHeiti-20" transform="translate(1628.599625 0)"/>
     <use xlink:href="#STHeiti-7c" transform="translate(1653.599609 0)"/>
     <use xlink:href="#STHeiti-20" transform="translate(1720.799606 0)"/>
     <use xlink:href="#STHeiti-20" transform="translate(1745.799591 0)"/>
     <use xlink:href="#STHeiti-20" transform="translate(1770.799576 0)"/>
     <use xlink:href="#STHeiti-53c2" transform="translate(1795.799561 0)"/>
     <use xlink:href="#STHeiti-6570" transform="translate(1895.799545 0)"/>
     <use xlink:href="#STHeiti-548c" transform="translate(1995.79953 0)"/>
     <use xlink:href="#STHeiti-5185" transform="translate(2095.799515 0)"/>
     <use xlink:href="#STHeiti-5b58" transform="translate(2195.7995 0)"/>
     <use xlink:href="#STHeiti-5927" transform="translate(2295.799484 0)"/>
     <use xlink:href="#STHeiti-5e45" transform="translate(2395.799469 0)"/>
     <use xlink:href="#STHeiti-8282" transform="translate(2495.799454 0)"/>
     <use xlink:href="#STHeiti-7701" transform="translate(2595.799438 0)"/>
    </g>
   </g>
  </g>
 </g>
 <defs>
  <clipPath id="p511f81a5ce">
   <rect x="8.765719" y="7.2" width="836.64" height="482.4"/>
  </clipPath>
 </defs>
</svg>
