<?xml version="1.0" encoding="utf-8" standalone="no"?>
<!DOCTYPE svg PUBLIC "-//W3C//DTD SVG 1.1//EN"
  "http://www.w3.org/Graphics/SVG/1.1/DTD/svg11.dtd">
<svg xmlns:xlink="http://www.w3.org/1999/xlink" width="1000.8pt" height="568.08pt" viewBox="0 0 1000.8 568.08" xmlns="http://www.w3.org/2000/svg" version="1.1">
 <metadata>
  <rdf:RDF xmlns:dc="http://purl.org/dc/elements/1.1/" xmlns:cc="http://creativecommons.org/ns#" xmlns:rdf="http://www.w3.org/1999/02/22-rdf-syntax-ns#">
   <cc:Work>
    <dc:type rdf:resource="http://purl.org/dc/dcmitype/StillImage"/>
    <dc:date>2026-05-09T14:20:24.279090</dc:date>
    <dc:format>image/svg+xml</dc:format>
    <dc:creator>
     <cc:Agent>
      <dc:title>Matplotlib v3.10.8, https://matplotlib.org/</dc:title>
     </cc:Agent>
    </dc:creator>
   </cc:Work>
  </rdf:RDF>
 </metadata>
 <defs>
  <style type="text/css">*{stroke-linejoin: round; stroke-linecap: butt}</style>
 </defs>
 <g id="figure_1">
  <g id="patch_1">
   <path d="M 0 568.08 
L 1000.8 568.08 
L 1000.8 0 
L 0 0 
z
" style="fill: #ffffff"/>
  </g>
  <g id="axes_1">
   <g id="patch_2">
    <path d="M 15.24 121.274437 
L 320.76 121.274437 
Q 328.8 121.274437 328.8 116.2215 
L 328.8 65.692125 
Q 328.8 60.639187 320.76 60.639187 
L 15.24 60.639187 
Q 7.2 60.639187 7.2 65.692125 
L 7.2 116.2215 
Q 7.2 121.274437 15.24 121.274437 
z
" clip-path="url(#p49888e520c)" style="fill: #2e7d32; opacity: 0.9; stroke: #000000; stroke-linejoin: miter"/>
   </g>
   <g id="patch_3">
    <path d="M 31.32 185.952037 
L 304.68 185.952037 
Q 311.112 185.952037 311.112 181.909687 
L 311.112 136.43325 
Q 311.112 132.3909 304.68 132.3909 
L 31.32 132.3909 
Q 24.888 132.3909 24.888 136.43325 
L 24.888 181.909687 
Q 24.888 185.952037 31.32 185.952037 
z
" clip-path="url(#p49888e520c)" style="fill: #eceff1; stroke: #607d8b; stroke-width: 1.5; stroke-linejoin: miter"/>
   </g>
   <g id="patch_4">
    <path d="M 31.32 236.481412 
L 304.68 236.481412 
Q 311.112 236.481412 311.112 232.439062 
L 311.112 197.0685 
Q 311.112 193.02615 304.68 193.02615 
L 31.32 193.02615 
Q 24.888 193.02615 24.888 197.0685 
L 24.888 232.439062 
Q 24.888 236.481412 31.32 236.481412 
z
" clip-path="url(#p49888e520c)" style="fill: #eeeeee; stroke-dasharray: 4.44,1.92; stroke-dashoffset: 0; stroke: #9e9e9e; stroke-width: 1.2; stroke-linejoin: miter"/>
   </g>
   <g id="patch_5">
    <path d="M 31.32 284.484319 
L 304.68 284.484319 
Q 311.112 284.484319 311.112 280.441969 
L 311.112 242.544937 
Q 311.112 238.502587 304.68 238.502587 
L 31.32 238.502587 
Q 24.888 238.502587 24.888 242.544937 
L 24.888 280.441969 
Q 24.888 284.484319 31.32 284.484319 
z
" clip-path="url(#p49888e520c)" style="fill: #e8f5e9; stroke: #2e7d32; stroke-width: 1.5; stroke-linejoin: miter"/>
   </g>
   <g id="patch_6">
    <path d="M 39.36 330.971344 
L 283.776 330.971344 
L 283.776 315.812531 
L 39.36 315.812531 
z
" clip-path="url(#p49888e520c)" style="fill: #4caf50; opacity: 0.8"/>
   </g>
   <g id="patch_7">
    <path d="M 39.36 371.394844 
L 224.6016 371.394844 
L 224.6016 356.236031 
L 39.36 356.236031 
z
" clip-path="url(#p49888e520c)" style="fill: #2e7d32; opacity: 0.8"/>
   </g>
   <g id="text_1">
    <!-- Non-Think -->
    <g style="fill: #ffffff" transform="translate(139.89 88.190437) scale(0.12 -0.12)">
     <defs>
      <path id="STHeiti-4e" d="M 563 384 
L 563 4979 
L 666 4979 
L 3718 1459 
L 3718 4979 
L 4173 4979 
L 4173 384 
L 4070 384 
L 1037 3859 
L 1037 384 
L 563 384 
z
" transform="scale(0.015625)"/>
      <path id="STHeiti-6f" d="M 326 2061 
Q 326 2810 841 3341 
Q 1357 3872 2096 3872 
Q 2835 3872 3350 3341 
Q 3866 2810 3866 2067 
Q 3866 1325 3357 797 
Q 2848 269 2099 269 
Q 1350 269 838 797 
Q 326 1325 326 2061 
z
M 3424 2054 
Q 3424 2618 3030 3030 
Q 2637 3443 2096 3443 
Q 1555 3443 1164 3030 
Q 774 2618 774 2048 
Q 774 1478 1152 1081 
Q 1530 685 2090 685 
Q 2650 685 3037 1085 
Q 3424 1485 3424 2054 
z
" transform="scale(0.015625)"/>
      <path id="STHeiti-6e" d="M 486 3782 
L 928 3782 
L 928 3174 
Q 1453 3872 2202 3872 
Q 2586 3872 2893 3664 
Q 3200 3456 3328 3120 
Q 3456 2784 3456 2131 
L 3456 384 
L 3021 384 
L 3021 2003 
Q 3021 2598 2966 2809 
Q 2912 3021 2800 3168 
Q 2688 3315 2515 3392 
Q 2342 3469 2096 3469 
Q 1850 3469 1613 3347 
Q 1376 3226 1209 3008 
Q 1043 2790 985 2560 
Q 928 2330 928 1632 
L 928 384 
L 486 384 
L 486 3782 
z
" transform="scale(0.015625)"/>
      <path id="STHeiti-2d" d="M 205 2304 
L 1920 2304 
L 1920 1920 
L 205 1920 
L 205 2304 
z
" transform="scale(0.015625)"/>
      <path id="STHeiti-54" d="M 102 4531 
L 102 4979 
L 2624 4979 
L 2624 4531 
L 1600 4531 
L 1600 384 
L 1133 384 
L 1133 4531 
L 102 4531 
z
" transform="scale(0.015625)"/>
      <path id="STHeiti-68" d="M 486 5094 
L 928 5094 
L 928 3174 
Q 1453 3872 2202 3872 
Q 2586 3872 2893 3664 
Q 3200 3456 3328 3120 
Q 3456 2784 3456 2131 
L 3456 384 
L 3014 384 
L 3014 2003 
Q 3014 2528 2982 2726 
Q 2950 2925 2841 3104 
Q 2733 3283 2550 3376 
Q 2368 3469 2109 3469 
Q 1850 3469 1613 3347 
Q 1376 3226 1209 3008 
Q 1043 2790 985 2560 
Q 928 2330 928 1632 
L 928 384 
L 486 384 
L 486 5094 
z
" transform="scale(0.015625)"/>
      <path id="STHeiti-69" d="M 282 4730 
Q 282 4877 387 4985 
Q 493 5094 643 5094 
Q 794 5094 899 4988 
Q 1005 4883 1005 4732 
Q 1005 4582 899 4476 
Q 794 4371 643 4371 
Q 493 4371 387 4480 
Q 282 4589 282 4730 
z
M 422 3782 
L 864 3782 
L 864 384 
L 422 384 
L 422 3782 
z
" transform="scale(0.015625)"/>
      <path id="STHeiti-6b" d="M 422 5094 
L 864 5094 
L 864 2413 
L 2432 3782 
L 3078 3782 
L 1210 2163 
L 3187 384 
L 2566 384 
L 864 1914 
L 864 384 
L 422 384 
L 422 5094 
z
" transform="scale(0.015625)"/>
     </defs>
     <use xlink:href="#STHeiti-4e"/>
     <use xlink:href="#STHeiti-6f" transform="translate(73.999985 0)"/>
     <use xlink:href="#STHeiti-6e" transform="translate(139.499969 0)"/>
     <use xlink:href="#STHeiti-2d" transform="translate(200.499954 0)"/>
     <use xlink:href="#STHeiti-54" transform="translate(233.699951 0)"/>
     <use xlink:href="#STHeiti-68" transform="translate(276.299942 0)"/>
     <use xlink:href="#STHeiti-69" transform="translate(337.299927 0)"/>
     <use xlink:href="#STHeiti-6e" transform="translate(357.299911 0)"/>
     <use xlink:href="#STHeiti-6b" transform="translate(418.299896 0)"/>
    </g>
    <!-- (快速模式) -->
    <g style="fill: #ffffff" transform="translate(139.57125 101.665687) scale(0.12 -0.12)">
     <defs>
      <path id="STHeiti-28" d="M 1466 5370 
L 1978 5370 
Q 1651 4704 1475 3865 
Q 1299 3027 1299 2176 
Q 1299 506 1824 -762 
L 1338 -762 
Q 832 480 832 2118 
Q 832 3891 1466 5370 
z
" transform="scale(0.015625)"/>
      <path id="STHeiti-5feb" d="M 3622 3699 
Q 3034 3693 2746 3648 
L 2746 4173 
Q 3066 4134 3622 4128 
Q 3622 4730 3584 5248 
Q 3821 5210 4275 5210 
Q 4352 5210 4352 5174 
Q 4352 5139 4291 5091 
Q 4230 5043 4195 4844 
Q 4160 4646 4134 4128 
Q 5235 4128 5562 4179 
Q 5523 4032 5510 3699 
L 5446 2240 
Q 5920 2259 6112 2291 
L 6112 1741 
Q 5741 1798 5056 1798 
L 4320 1798 
Q 4602 1043 4944 675 
Q 5286 307 6099 58 
Q 5830 -211 5683 -614 
Q 4941 -218 4557 352 
Q 4173 922 4058 1798 
L 4013 1798 
Q 3891 979 3513 403 
Q 3136 -173 2432 -602 
Q 2285 -416 1971 -224 
Q 3302 435 3526 1798 
Q 2797 1798 2483 1741 
L 2483 2291 
Q 2778 2234 3571 2234 
Q 3622 2995 3622 3699 
z
M 4998 2234 
L 5037 3699 
L 4115 3699 
Q 4096 2688 4058 2234 
L 4998 2234 
z
M 1248 5158 
Q 1485 5107 1862 5107 
Q 2016 5107 2016 5052 
Q 2016 4998 1933 4947 
Q 1850 4896 1821 4806 
Q 1792 4717 1792 4614 
L 1792 506 
Q 1792 19 1843 -570 
L 1222 -570 
Q 1293 6 1293 512 
L 1293 4314 
Q 1293 4730 1248 5158 
z
M 2816 2970 
L 2310 2758 
Q 2182 3264 1920 3731 
L 2400 3936 
Q 2662 3360 2816 2970 
z
M 979 3782 
Q 915 2701 858 2016 
L 275 2067 
Q 474 2733 474 3475 
Q 474 3635 467 3814 
L 979 3782 
z
" transform="scale(0.015625)"/>
      <path id="STHeiti-901f" d="M 3635 2086 
Q 3386 1606 3085 1270 
Q 2784 934 2240 518 
Q 2048 826 1722 947 
Q 2746 1338 3283 2189 
Q 2682 2189 2195 2157 
Q 2246 2528 2246 2995 
Q 2246 3462 2195 3795 
Q 2701 3744 3635 3744 
L 3635 4218 
Q 2688 4211 1946 4154 
L 1946 4710 
Q 2733 4653 3635 4646 
Q 3629 5043 3590 5293 
Q 3795 5242 4198 5242 
Q 4301 5242 4301 5210 
Q 4301 5178 4208 5085 
Q 4115 4992 4115 4838 
L 4115 4646 
Q 5152 4646 5837 4698 
L 5837 4154 
Q 5082 4211 4115 4218 
L 4115 3744 
Q 4960 3750 5613 3795 
Q 5568 3488 5568 2957 
Q 5568 2426 5613 2144 
Q 5082 2182 4115 2189 
L 4115 1645 
Q 4115 1030 4166 442 
L 3590 442 
Q 3635 941 3635 1645 
L 3635 2086 
z
M 4115 3322 
L 4115 2598 
L 5088 2598 
L 5088 3322 
L 4115 3322 
z
M 3635 2598 
L 3635 3322 
L 2720 3322 
L 2720 2598 
L 3635 2598 
z
M 1619 3814 
L 1024 3610 
Q 883 4224 589 4730 
L 1133 4928 
Q 1357 4442 1619 3814 
z
M 1485 531 
Q 1850 461 2349 230 
Q 2694 70 3555 70 
Q 4416 70 6029 314 
Q 5850 -45 5818 -390 
Q 4672 -429 3859 -429 
Q 3046 -429 2614 -342 
Q 2182 -256 1779 -32 
Q 1536 109 1389 109 
Q 1242 109 1101 -28 
Q 960 -166 762 -474 
Q 531 -218 256 -70 
Q 723 371 960 480 
L 960 2496 
Q 582 2496 358 2458 
L 358 3008 
Q 666 2963 973 2963 
Q 1280 2963 1555 3008 
Q 1485 2701 1485 2253 
L 1485 531 
z
M 5869 1171 
L 5485 698 
Q 5082 1203 4307 1619 
L 4666 1984 
Q 5402 1510 5869 1171 
z
" transform="scale(0.015625)"/>
      <path id="STHeiti-6a21" d="M 4909 4461 
Q 5683 4461 6048 4512 
L 6048 4019 
Q 5626 4077 4909 4077 
L 4909 3546 
Q 5376 3558 5600 3578 
Q 5574 3238 5574 2640 
Q 5574 2042 5600 1626 
Q 5165 1651 4218 1651 
Q 4198 1440 4147 1216 
Q 5440 1216 6035 1280 
L 6035 781 
Q 5523 845 4416 845 
Q 4941 102 6086 38 
Q 5798 -243 5786 -570 
Q 4461 -198 4038 826 
Q 3859 352 3449 32 
Q 3040 -288 2278 -550 
Q 2170 -275 1952 -51 
Q 2662 102 3036 310 
Q 3411 518 3565 845 
Q 2822 845 2157 781 
L 2157 1280 
Q 2605 1222 3674 1216 
Q 3706 1440 3706 1651 
Q 3085 1651 2682 1632 
Q 2701 2099 2701 2627 
Q 2701 3155 2682 3578 
Q 3053 3552 3315 3546 
L 3315 4077 
Q 2656 4051 2426 4019 
L 2426 4512 
Q 2714 4474 3315 4461 
Q 3315 4851 3277 5114 
Q 3610 5075 3808 5075 
Q 3872 5075 3872 5043 
Q 3872 5011 3817 4979 
Q 3763 4947 3763 4851 
L 3763 4461 
L 4461 4461 
Q 4461 4858 4422 5114 
Q 4755 5075 4954 5075 
Q 5018 5075 5018 5043 
Q 5018 5011 4963 4979 
Q 4909 4947 4909 4851 
L 4909 4461 
z
M 4461 4077 
L 3763 4077 
L 3763 3546 
L 4461 3546 
L 4461 4077 
z
M 5120 2784 
L 5120 3181 
L 3149 3181 
L 3149 2784 
L 5120 2784 
z
M 3149 2419 
L 3149 2016 
L 5120 2016 
L 5120 2419 
L 3149 2419 
z
M 1190 2317 
Q 934 1510 614 992 
Q 506 1248 218 1408 
Q 550 1760 768 2205 
Q 986 2650 1184 3373 
Q 800 3366 480 3322 
L 480 3814 
Q 723 3770 1190 3763 
Q 1190 4755 1139 5094 
Q 1338 5069 1485 5069 
L 1734 5082 
Q 1818 5082 1818 5037 
Q 1818 4992 1744 4925 
Q 1670 4858 1670 4749 
L 1670 3763 
Q 2157 3770 2400 3814 
L 2400 3322 
Q 2067 3366 1670 3366 
L 1670 659 
Q 1670 160 1734 -544 
L 1126 -544 
Q 1190 160 1190 659 
L 1190 2317 
z
M 2048 2771 
Q 2317 2304 2522 1850 
L 2106 1632 
Q 1984 2093 1690 2566 
L 2048 2771 
z
" transform="scale(0.015625)"/>
      <path id="STHeiti-5f0f" d="M 3437 4032 
Q 3328 5248 3322 5280 
Q 3635 5210 4000 5210 
Q 4122 5210 4122 5171 
Q 4122 5133 4051 5062 
Q 3936 4954 3936 4333 
Q 3936 4198 3942 4045 
Q 5197 4083 5869 4166 
L 5882 3533 
Q 5536 3558 5062 3558 
Q 4589 3558 3987 3546 
Q 4109 2182 4384 1561 
Q 4659 941 4940 601 
Q 5222 262 5372 262 
Q 5523 262 5574 457 
Q 5626 653 5658 986 
Q 5933 678 6227 576 
Q 6093 19 5939 -265 
Q 5786 -550 5581 -550 
Q 5325 -550 4816 -70 
Q 4307 410 3945 1277 
Q 3584 2144 3475 3533 
L 2464 3507 
Q 1069 3475 454 3392 
L 448 4019 
Q 922 4000 1498 4000 
Q 2074 4000 2445 4006 
L 3437 4032 
z
M 5357 4563 
L 4915 4186 
Q 4710 4467 4378 4710 
L 4794 5056 
Q 4992 4902 5357 4563 
z
M 2298 659 
Q 3091 838 3475 998 
Q 3456 832 3456 710 
Q 3456 589 3462 461 
Q 1939 109 774 -333 
Q 717 83 582 365 
Q 1043 403 1792 550 
L 1792 2086 
Q 1171 2080 806 2022 
L 806 2624 
Q 1210 2560 1984 2560 
Q 2758 2560 3155 2624 
L 3155 2022 
Q 2842 2080 2298 2086 
L 2298 659 
z
" transform="scale(0.015625)"/>
      <path id="STHeiti-29" d="M 896 5370 
Q 1530 3891 1530 2118 
Q 1530 480 1024 -762 
L 538 -762 
Q 1062 506 1062 2176 
Q 1062 3027 886 3865 
Q 710 4704 384 5370 
L 896 5370 
z
" transform="scale(0.015625)"/>
     </defs>
     <use xlink:href="#STHeiti-28"/>
     <use xlink:href="#STHeiti-5feb" transform="translate(36.899994 0)"/>
     <use xlink:href="#STHeiti-901f" transform="translate(136.899979 0)"/>
     <use xlink:href="#STHeiti-6a21" transform="translate(236.899963 0)"/>
     <use xlink:href="#STHeiti-5f0f" transform="translate(336.899948 0)"/>
     <use xlink:href="#STHeiti-29" transform="translate(436.899933 0)"/>
    </g>
   </g>
   <g id="text_2">
    <!-- 输入 Prompt -->
    <g style="fill: #455a64" transform="translate(139.214844 162.616) scale(0.1 -0.1)">
     <defs>
      <path id="STHeiti-8f93" d="M 4730 3725 
L 4730 3309 
Q 4448 3360 4006 3360 
Q 3565 3360 3290 3309 
L 3290 3802 
Q 3578 3750 3994 3750 
Q 4410 3750 4653 3789 
Q 4230 4154 3949 4646 
Q 3258 3712 2381 2950 
Q 2176 3174 1978 3258 
Q 2995 3917 3706 5267 
Q 4058 5126 4288 5114 
Q 4358 5107 4358 5068 
Q 4358 5030 4326 5011 
L 4205 4928 
Q 4538 4397 4995 4089 
Q 5453 3782 6157 3642 
Q 5926 3450 5792 3123 
Q 5222 3322 4730 3725 
z
M 1389 2406 
Q 1389 3162 1363 3264 
Q 1504 3219 1856 3219 
Q 1920 3219 1920 3174 
Q 1920 3130 1869 3110 
Q 1811 3072 1811 2931 
L 1811 2451 
Q 2099 2490 2240 2534 
L 2240 2054 
Q 2061 2080 1811 2074 
L 1811 1197 
Q 2163 1312 2317 1382 
Q 2298 1254 2298 1100 
Q 2298 947 2304 877 
Q 2093 877 1811 800 
Q 1811 186 1856 -538 
L 1331 -538 
Q 1382 51 1389 672 
Q 826 506 557 390 
Q 493 678 358 909 
Q 698 915 1389 1082 
L 1389 2048 
Q 826 2003 544 1888 
Q 474 2131 314 2362 
Q 525 2438 656 2796 
Q 787 3155 992 3923 
Q 685 3917 506 3885 
L 506 4371 
Q 678 4333 1082 4326 
Q 1184 4813 1171 5216 
Q 1606 5082 1811 5082 
Q 1882 5082 1882 5053 
Q 1882 5024 1824 4992 
Q 1734 4934 1536 4326 
Q 2042 4326 2298 4371 
L 2298 3885 
Q 2029 3930 1408 3930 
L 915 2362 
L 1389 2406 
z
M 5235 2989 
Q 5446 2944 5760 2944 
Q 5850 2944 5850 2909 
Q 5850 2874 5789 2822 
Q 5728 2771 5728 2586 
L 5728 115 
Q 5728 -109 5686 -214 
Q 5645 -320 5497 -390 
Q 5350 -461 4998 -538 
Q 4934 -224 4774 -51 
Q 4960 -77 5088 -77 
Q 5216 -77 5257 -3 
Q 5299 70 5299 282 
L 5299 1958 
Q 5299 2630 5235 2989 
z
M 3706 717 
L 3002 717 
L 3002 -390 
L 2522 -390 
Q 2579 128 2579 557 
L 2579 2438 
Q 2579 2733 2534 2976 
Q 2867 2938 3305 2938 
Q 3744 2938 4154 2976 
Q 4122 2784 4122 2438 
L 4122 205 
Q 4122 -64 4086 -182 
Q 4051 -301 3926 -368 
Q 3802 -435 3501 -486 
Q 3469 -250 3315 -13 
Q 3430 -26 3526 -26 
Q 3622 -26 3664 41 
Q 3706 109 3706 365 
L 3706 717 
z
M 3002 2016 
L 3706 2016 
L 3706 2554 
L 3002 2554 
L 3002 2016 
z
M 3706 1638 
L 3002 1638 
L 3002 1088 
L 3706 1088 
L 3706 1638 
z
M 4461 2758 
Q 4653 2720 4819 2720 
L 4973 2726 
Q 5043 2726 5043 2684 
Q 5043 2643 4985 2608 
Q 4928 2573 4928 2413 
L 4928 1254 
Q 4928 896 4966 467 
L 4467 467 
Q 4506 909 4506 1254 
L 4506 2067 
Q 4506 2515 4461 2758 
z
" transform="scale(0.015625)"/>
      <path id="STHeiti-5165" d="M 2893 3898 
Q 2470 4429 1984 4698 
L 2426 5133 
Q 3078 4608 3385 4150 
Q 3693 3693 3936 2938 
Q 4326 1722 4784 1210 
Q 5242 698 6074 326 
Q 5741 58 5549 -314 
Q 4768 218 4355 794 
Q 3942 1370 3571 2605 
Q 3456 2982 3264 3341 
Q 2938 2029 2317 1126 
Q 1696 224 986 -307 
Q 742 -26 422 102 
Q 1466 736 2086 1808 
Q 2707 2880 2893 3898 
z
" transform="scale(0.015625)"/>
      <path id="STHeiti-20" transform="scale(0.015625)"/>
      <path id="STHeiti-50" d="M 557 4979 
L 1472 4979 
Q 2285 4979 2534 4915 
Q 2784 4851 2992 4691 
Q 3200 4531 3315 4291 
Q 3430 4051 3430 3757 
Q 3430 3283 3174 2982 
Q 2918 2682 2531 2602 
Q 2144 2522 1344 2522 
L 1018 2522 
L 1018 384 
L 557 384 
L 557 4979 
z
M 1018 4531 
L 1018 2963 
L 1792 2963 
Q 2490 2950 2720 3190 
Q 2950 3430 2950 3757 
Q 2950 4531 1830 4531 
L 1018 4531 
z
" transform="scale(0.015625)"/>
      <path id="STHeiti-72" d="M 320 3782 
L 768 3782 
L 768 3290 
Q 947 3590 1116 3731 
Q 1286 3872 1494 3872 
Q 1702 3872 1914 3757 
L 1683 3386 
Q 1587 3443 1485 3443 
Q 1286 3443 1110 3238 
Q 934 3034 851 2710 
Q 768 2387 768 1536 
L 768 384 
L 320 384 
L 320 3782 
z
" transform="scale(0.015625)"/>
      <path id="STHeiti-6d" d="M 486 3782 
L 922 3782 
L 922 3194 
Q 1376 3872 2086 3872 
Q 2464 3872 2761 3657 
Q 3059 3443 3162 3053 
Q 3373 3450 3699 3661 
Q 4026 3872 4451 3872 
Q 4877 3872 5222 3542 
Q 5568 3213 5568 2240 
L 5568 384 
L 5120 384 
L 5120 2240 
Q 5120 2707 5062 2928 
Q 5005 3149 4813 3299 
Q 4621 3450 4304 3450 
Q 3987 3450 3712 3238 
Q 3437 3027 3334 2700 
Q 3232 2374 3232 1715 
L 3232 384 
L 2803 384 
L 2803 2125 
Q 2803 2669 2745 2902 
Q 2688 3136 2489 3293 
Q 2291 3450 2003 3450 
Q 1715 3450 1462 3280 
Q 1210 3110 1066 2816 
Q 922 2522 922 1824 
L 922 384 
L 486 384 
L 486 3782 
z
" transform="scale(0.015625)"/>
      <path id="STHeiti-70" d="M 493 3782 
L 928 3782 
L 928 3162 
Q 1446 3872 2278 3872 
Q 2995 3872 3513 3344 
Q 4032 2816 4032 2073 
Q 4032 1331 3520 800 
Q 3008 269 2291 269 
Q 1510 269 928 966 
L 928 -858 
L 493 -858 
L 493 3782 
z
M 3597 2067 
Q 3597 2637 3203 3043 
Q 2810 3450 2240 3450 
Q 1670 3450 1283 3050 
Q 896 2650 896 2061 
Q 896 1472 1293 1072 
Q 1690 672 2243 672 
Q 2797 672 3197 1078 
Q 3597 1485 3597 2067 
z
" transform="scale(0.015625)"/>
      <path id="STHeiti-74" d="M 1312 922 
Q 1312 749 1357 717 
Q 1402 685 1587 685 
L 1850 685 
L 1850 314 
Q 1581 269 1427 269 
Q 1139 269 1004 409 
Q 870 550 870 851 
L 870 3411 
L 269 3411 
L 269 3782 
L 870 3782 
L 870 5094 
L 1312 5094 
L 1312 3782 
L 2003 3782 
L 2003 3411 
L 1312 3411 
L 1312 922 
z
" transform="scale(0.015625)"/>
     </defs>
     <use xlink:href="#STHeiti-8f93"/>
     <use xlink:href="#STHeiti-5165" transform="translate(99.999985 0)"/>
     <use xlink:href="#STHeiti-20" transform="translate(199.999969 0)"/>
     <use xlink:href="#STHeiti-50" transform="translate(224.999954 0)"/>
     <use xlink:href="#STHeiti-72" transform="translate(284.199951 0)"/>
     <use xlink:href="#STHeiti-6f" transform="translate(314.299942 0)"/>
     <use xlink:href="#STHeiti-6d" transform="translate(379.799927 0)"/>
     <use xlink:href="#STHeiti-70" transform="translate(473.599915 0)"/>
     <use xlink:href="#STHeiti-74" transform="translate(541.799896 0)"/>
    </g>
   </g>
   <g id="patch_8">
    <path d="M 168 183.908164 
Q 168 184.434641 168 183.284067 
" style="fill: none; stroke: #455a64; stroke-width: 1.5; stroke-linecap: round"/>
    <path d="M 170 179.284067 
L 168 183.284067 
L 166 179.284067 
" style="fill: none; stroke: #455a64; stroke-width: 1.5; stroke-linecap: round"/>
   </g>
   <g id="text_3">
    <!-- 无 Thinking Trace -->
    <g style="fill: #9e9e9e" transform="translate(131.829844 217.732219) scale(0.09 -0.09)">
     <defs>
      <path id="STHeiti-65e0" d="M 3181 3021 
Q 5050 3021 5856 3066 
L 5856 2496 
Q 5229 2534 4006 2534 
L 4006 512 
Q 4006 365 4096 313 
Q 4186 262 4547 262 
Q 4909 262 5075 304 
Q 5242 346 5306 499 
Q 5370 653 5446 1120 
Q 5818 749 6042 749 
Q 5901 237 5776 41 
Q 5651 -154 5382 -218 
Q 5114 -282 4474 -282 
Q 3834 -282 3648 -179 
Q 3462 -77 3462 352 
L 3462 2541 
L 3091 2541 
Q 2861 1421 2390 765 
Q 1920 109 890 -480 
Q 685 -205 397 13 
Q 1318 371 1833 976 
Q 2349 1581 2541 2541 
Q 1222 2528 602 2496 
L 602 3066 
Q 1235 3034 2618 3021 
Q 2682 3680 2688 4339 
Q 1651 4326 1165 4294 
L 1165 4870 
Q 1792 4826 3129 4826 
Q 4467 4826 5306 4870 
L 5306 4294 
Q 4698 4339 3277 4339 
Q 3277 3706 3181 3021 
z
" transform="scale(0.015625)"/>
      <path id="STHeiti-67" d="M 3462 3782 
L 3904 3782 
L 3904 1158 
Q 3904 461 3782 134 
Q 3661 -192 3430 -409 
Q 3200 -627 2873 -742 
Q 2547 -858 2157 -858 
Q 826 -858 403 205 
L 877 205 
Q 1248 -461 2138 -461 
Q 2566 -461 2883 -294 
Q 3200 -128 3331 131 
Q 3462 390 3462 941 
L 3462 1088 
Q 3200 762 2841 602 
Q 2483 442 2086 442 
Q 1344 442 851 947 
Q 358 1453 358 2138 
Q 358 2848 883 3360 
Q 1408 3872 2153 3872 
Q 2899 3872 3462 3194 
L 3462 3782 
z
M 3482 2138 
Q 3482 2694 3104 3072 
Q 2726 3450 2170 3450 
Q 1581 3450 1190 3043 
Q 800 2637 800 2112 
Q 800 1587 1177 1219 
Q 1555 851 2144 851 
Q 2733 851 3107 1209 
Q 3482 1568 3482 2138 
z
" transform="scale(0.015625)"/>
      <path id="STHeiti-61" d="M 3872 3782 
L 3872 384 
L 3443 384 
L 3443 966 
Q 2861 269 2112 269 
Q 1363 269 848 803 
Q 333 1338 333 2077 
Q 333 2816 851 3344 
Q 1370 3872 2093 3872 
Q 2925 3872 3443 3162 
L 3443 3782 
L 3872 3782 
z
M 3469 2067 
Q 3469 2650 3078 3050 
Q 2688 3450 2121 3450 
Q 1555 3450 1164 3037 
Q 774 2624 774 2061 
Q 774 1498 1171 1085 
Q 1568 672 2121 672 
Q 2675 672 3072 1069 
Q 3469 1466 3469 2067 
z
" transform="scale(0.015625)"/>
      <path id="STHeiti-63" d="M 4038 3078 
L 3693 2861 
Q 3245 3456 2464 3456 
Q 1850 3456 1434 3062 
Q 1018 2669 1018 2086 
Q 1018 1504 1427 1088 
Q 1837 672 2464 672 
Q 3213 672 3693 1267 
L 4038 1037 
Q 3782 666 3350 467 
Q 2918 269 2419 269 
Q 1632 269 1104 787 
Q 576 1306 576 2054 
Q 576 2803 1110 3337 
Q 1645 3872 2483 3872 
Q 2976 3872 3395 3661 
Q 3814 3450 4038 3078 
z
" transform="scale(0.015625)"/>
      <path id="STHeiti-65" d="M 3347 1485 
L 3718 1293 
Q 3168 269 2093 269 
Q 1325 269 825 797 
Q 326 1325 326 2067 
Q 326 2810 828 3341 
Q 1331 3872 2070 3872 
Q 2810 3872 3312 3379 
Q 3814 2886 3834 2035 
L 774 2035 
Q 794 1421 1162 1046 
Q 1530 672 2054 672 
Q 2918 672 3347 1485 
z
M 3347 2413 
Q 3258 2899 2899 3174 
Q 2541 3450 2074 3450 
Q 1114 3450 819 2413 
L 3347 2413 
z
" transform="scale(0.015625)"/>
     </defs>
     <use xlink:href="#STHeiti-65e0"/>
     <use xlink:href="#STHeiti-20" transform="translate(99.999985 0)"/>
     <use xlink:href="#STHeiti-54" transform="translate(124.999969 0)"/>
     <use xlink:href="#STHeiti-68" transform="translate(167.59996 0)"/>
     <use xlink:href="#STHeiti-69" transform="translate(228.599945 0)"/>
     <use xlink:href="#STHeiti-6e" transform="translate(248.59993 0)"/>
     <use xlink:href="#STHeiti-6b" transform="translate(309.599915 0)"/>
     <use xlink:href="#STHeiti-69" transform="translate(359.799911 0)"/>
     <use xlink:href="#STHeiti-6e" transform="translate(379.799896 0)"/>
     <use xlink:href="#STHeiti-67" transform="translate(440.799881 0)"/>
     <use xlink:href="#STHeiti-20" transform="translate(508.099869 0)"/>
     <use xlink:href="#STHeiti-54" transform="translate(533.099854 0)"/>
     <use xlink:href="#STHeiti-72" transform="translate(575.699844 0)"/>
     <use xlink:href="#STHeiti-61" transform="translate(605.799835 0)"/>
     <use xlink:href="#STHeiti-63" transform="translate(674.099823 0)"/>
     <use xlink:href="#STHeiti-65" transform="translate(738.79982 0)"/>
    </g>
   </g>
   <g id="patch_9">
    <path d="M 168 234.437539 
Q 168 234.964016 168 233.813442 
" style="fill: none; stroke: #455a64; stroke-width: 1.5; stroke-linecap: round"/>
    <path d="M 170 229.813442 
L 168 233.813442 
L 166 229.813442 
" style="fill: none; stroke: #455a64; stroke-width: 1.5; stroke-linecap: round"/>
   </g>
   <g id="text_4">
    <!-- 输出答案 -->
    <g style="fill: #2e7d32" transform="translate(148 264.802828) scale(0.1 -0.1)">
     <defs>
      <path id="STHeiti-51fa" d="M 4858 2502 
L 3494 2502 
L 3494 326 
L 4973 371 
L 4973 1331 
Q 4973 1690 4934 1952 
Q 5203 1901 5408 1901 
L 5587 1907 
Q 5638 1907 5638 1891 
Q 5638 1875 5606 1843 
Q 5523 1760 5523 1325 
L 5523 102 
Q 5523 -275 5549 -608 
L 4934 -608 
Q 4960 -371 4973 -102 
L 3034 -160 
Q 1357 -211 845 -269 
Q 877 -19 877 256 
L 877 1523 
Q 877 1882 851 2016 
Q 1011 1984 1148 1968 
Q 1286 1952 1363 1958 
L 1491 1958 
Q 1542 1958 1542 1932 
Q 1542 1907 1513 1859 
Q 1485 1811 1459 1660 
Q 1434 1510 1434 1389 
L 1434 262 
L 2938 307 
L 2938 2502 
L 2163 2502 
Q 1613 2502 1094 2432 
Q 1146 2739 1146 3002 
L 1146 4006 
Q 1146 4346 1094 4576 
Q 1350 4531 1529 4531 
Q 1709 4531 1757 4540 
Q 1805 4550 1833 4550 
Q 1862 4550 1862 4531 
Q 1862 4512 1814 4464 
Q 1766 4416 1728 4256 
Q 1690 4096 1690 4013 
L 1690 2963 
L 2938 2963 
L 2938 4326 
Q 2938 4870 2893 5178 
Q 3149 5126 3254 5116 
Q 3360 5107 3616 5107 
Q 3680 5107 3680 5088 
Q 3680 5069 3629 5017 
Q 3578 4966 3536 4752 
Q 3494 4538 3494 4333 
L 3494 2963 
L 4858 2963 
L 4858 4006 
Q 4858 4365 4800 4627 
Q 5062 4582 5261 4582 
L 5472 4595 
Q 5517 4595 5517 4572 
Q 5517 4550 5498 4506 
Q 5402 4339 5402 4000 
L 5402 2842 
Q 5402 2477 5427 2202 
L 4813 2202 
Q 4851 2368 4858 2502 
z
" transform="scale(0.015625)"/>
      <path id="STHeiti-7b54" d="M 4173 4186 
Q 3917 3821 3789 3654 
Q 3578 3814 3341 3872 
Q 3597 4096 3849 4512 
Q 4102 4928 4147 5216 
Q 4429 5069 4736 4992 
Q 4813 4973 4813 4944 
Q 4813 4915 4755 4890 
Q 4659 4851 4448 4576 
L 5088 4576 
Q 5856 4576 6061 4627 
L 6061 4134 
Q 5862 4186 4992 4186 
Q 5210 3680 5286 3450 
L 4730 3302 
Q 4691 3686 4531 4186 
L 4173 4186 
z
M 1594 4147 
Q 1158 3514 819 3238 
Q 646 3430 378 3520 
Q 691 3738 1043 4221 
Q 1395 4704 1555 5146 
Q 1843 4992 2125 4928 
Q 2202 4915 2202 4886 
Q 2202 4858 2138 4832 
Q 2029 4781 1850 4525 
L 2317 4525 
Q 3142 4525 3366 4576 
L 3366 4096 
Q 3149 4147 2394 4147 
Q 2547 3763 2618 3514 
L 2067 3386 
Q 2048 3725 1946 4147 
L 1594 4147 
z
M 3373 3226 
Q 2976 2784 2208 2234 
L 4301 2234 
L 4301 1786 
Q 4006 1811 3206 1811 
Q 2406 1811 2189 1786 
L 2189 2214 
Q 1325 1613 678 1344 
Q 525 1619 250 1779 
Q 1114 2074 1958 2614 
Q 2803 3155 3136 3840 
Q 3462 3725 3706 3686 
Q 3776 3674 3776 3638 
Q 3776 3603 3718 3580 
Q 3661 3558 3616 3514 
Q 4090 2912 4733 2566 
Q 5376 2221 6080 2202 
Q 5882 1920 5792 1606 
Q 4262 1933 3373 3226 
z
M 4512 -166 
L 2048 -166 
L 2048 -602 
L 1523 -602 
Q 1562 -243 1562 230 
L 1562 851 
Q 1562 1242 1536 1453 
Q 2086 1402 3312 1402 
Q 4538 1402 5024 1453 
Q 4998 1242 4998 851 
L 4998 314 
Q 4998 -179 5037 -538 
L 4512 -538 
L 4512 -166 
z
M 2048 224 
L 4512 224 
L 4512 992 
L 2048 992 
L 2048 224 
z
" transform="scale(0.015625)"/>
      <path id="STHeiti-6848" d="M 2938 4621 
Q 2906 4915 2848 5126 
L 3424 5197 
Q 3456 4915 3533 4621 
Q 5050 4621 5747 4685 
L 5747 3904 
L 5158 3904 
L 5158 4250 
L 1280 4250 
L 1280 3834 
L 717 3834 
L 717 4685 
Q 1408 4621 2938 4621 
z
M 1971 3206 
Q 1254 3200 666 3155 
L 666 3616 
Q 1427 3558 2253 3558 
Q 2464 3840 2611 4160 
Q 2918 4051 3059 4006 
Q 3200 3962 3200 3923 
Q 3200 3885 3107 3833 
Q 3014 3782 2803 3558 
L 4365 3558 
Q 5190 3558 5747 3616 
L 5747 3149 
Q 5318 3194 4621 3206 
Q 4493 2880 4045 2528 
Q 4966 2330 5664 2131 
Q 5498 1971 5357 1683 
Q 4461 2029 3674 2246 
Q 3302 2035 2582 1862 
Q 1862 1690 1037 1619 
Q 928 1862 723 2106 
Q 1222 2093 1932 2176 
Q 2643 2259 3072 2400 
Q 2374 2554 1478 2694 
Q 1773 2970 1971 3206 
z
M 4096 3206 
L 2483 3206 
Q 2355 3059 2234 2899 
Q 2835 2797 3520 2643 
Q 3891 2893 4096 3206 
z
M 3450 1318 
Q 5062 1325 5869 1382 
L 5869 896 
Q 5133 947 3930 954 
Q 4288 614 4880 387 
Q 5472 160 6125 134 
Q 5946 -134 5888 -442 
Q 5158 -320 4518 57 
Q 3878 435 3533 960 
L 3450 960 
L 3450 198 
Q 3450 -256 3488 -602 
L 2912 -602 
Q 2963 -275 2963 198 
L 2963 960 
L 2918 960 
Q 2598 480 2009 80 
Q 1421 -320 710 -544 
Q 595 -250 346 -83 
Q 1779 288 2470 960 
Q 1114 947 454 896 
L 454 1382 
Q 1267 1318 2957 1318 
Q 2944 1606 2906 1786 
Q 3130 1754 3360 1754 
L 3558 1766 
Q 3610 1766 3610 1740 
Q 3610 1715 3530 1632 
Q 3450 1549 3450 1421 
L 3450 1318 
z
" transform="scale(0.015625)"/>
     </defs>
     <use xlink:href="#STHeiti-8f93"/>
     <use xlink:href="#STHeiti-51fa" transform="translate(99.999985 0)"/>
     <use xlink:href="#STHeiti-7b54" transform="translate(199.999969 0)"/>
     <use xlink:href="#STHeiti-6848" transform="translate(299.999954 0)"/>
    </g>
   </g>
   <g id="text_5">
    <!-- 速度最快 -->
    <g style="fill: #546e7a" transform="translate(150 303.180187) scale(0.09 -0.09)">
     <defs>
      <path id="STHeiti-5ea6" d="M 3661 4557 
Q 5344 4563 5779 4614 
L 5779 4090 
Q 5133 4147 4275 4147 
L 1510 4147 
Q 1542 3526 1542 2995 
Q 1542 1786 1379 931 
Q 1216 77 858 -557 
Q 608 -294 326 -160 
Q 685 352 851 1081 
Q 1018 1811 1018 2726 
Q 1018 3642 934 4614 
Q 1446 4563 3059 4557 
Q 3008 4806 2854 5101 
L 3437 5210 
Q 3533 4909 3661 4557 
z
M 2522 3430 
Q 2515 3840 2464 3987 
Q 2707 3923 2938 3923 
L 3053 3930 
Q 3091 3930 3091 3907 
Q 3091 3885 3059 3846 
Q 2989 3770 2982 3430 
L 4269 3430 
Q 4269 3898 4230 4045 
Q 4454 3974 4685 3974 
L 4845 3987 
Q 4877 3987 4877 3968 
Q 4877 3949 4838 3910 
Q 4774 3840 4768 3430 
Q 5472 3437 5888 3482 
L 5888 3014 
Q 5421 3066 4768 3072 
L 4768 2746 
Q 4768 2336 4813 2086 
Q 4538 2138 3658 2138 
Q 2778 2138 2477 2086 
Q 2522 2387 2522 2707 
L 2522 3066 
Q 2074 3059 1773 3014 
L 1773 3482 
Q 2080 3437 2522 3430 
z
M 2982 3072 
L 2982 2522 
L 4269 2522 
L 4269 3072 
L 2982 3072 
z
M 2336 1382 
Q 1997 1363 1843 1344 
L 1843 1824 
Q 2541 1766 3574 1766 
Q 4608 1766 5267 1824 
Q 4787 851 4090 365 
Q 4832 83 5760 83 
Q 5907 83 6067 90 
Q 5824 -192 5779 -557 
Q 4499 -422 3629 64 
Q 2976 -307 1869 -582 
Q 1773 -326 1459 -26 
Q 2278 13 3168 358 
Q 2707 723 2336 1382 
z
M 2880 1389 
Q 3162 877 3622 582 
Q 4147 928 4435 1389 
L 2880 1389 
z
" transform="scale(0.015625)"/>
      <path id="STHeiti-6700" d="M 5190 3117 
Q 4710 3162 3219 3162 
Q 1728 3162 1254 3117 
Q 1299 3232 1299 3520 
L 1299 4570 
Q 1299 4877 1254 4986 
Q 1779 4947 3225 4947 
Q 4672 4947 5190 4986 
Q 5152 4877 5152 4570 
L 5152 3520 
Q 5152 3219 5190 3117 
z
M 4634 4205 
L 4634 4563 
L 1792 4563 
L 1792 4205 
L 4634 4205 
z
M 4634 3514 
L 4634 3853 
L 1792 3853 
L 1792 3514 
L 4634 3514 
z
M 1056 2406 
Q 838 2400 403 2362 
L 403 2880 
Q 960 2816 3161 2816 
Q 5363 2816 5907 2880 
L 5907 2362 
Q 5568 2413 3040 2413 
L 3040 570 
L 3398 634 
Q 3373 390 3379 205 
L 3040 179 
Q 3053 -358 3085 -666 
L 2554 -666 
Q 2592 -224 2592 128 
Q 1894 38 634 -211 
Q 602 38 506 320 
Q 730 326 1056 346 
L 1056 2406 
z
M 2598 2413 
L 1498 2413 
L 1498 2003 
L 2598 2003 
L 2598 2413 
z
M 2598 1216 
L 2598 1664 
L 1498 1664 
L 1498 1216 
L 2598 1216 
z
M 2598 506 
L 2598 890 
L 1498 890 
L 1498 390 
L 2598 506 
z
M 4723 307 
Q 5216 19 5894 0 
Q 5709 -288 5645 -589 
Q 4858 -352 4416 -26 
Q 4109 -314 3616 -653 
Q 3456 -429 3187 -282 
Q 3718 -45 4077 269 
Q 3731 646 3462 1235 
L 3853 1363 
Q 4058 883 4371 576 
Q 4723 1011 4870 1613 
Q 3674 1613 3360 1574 
L 3360 2048 
Q 3725 2003 4425 2003 
Q 5126 2003 5478 2048 
Q 5216 883 4723 307 
z
" transform="scale(0.015625)"/>
     </defs>
     <use xlink:href="#STHeiti-901f"/>
     <use xlink:href="#STHeiti-5ea6" transform="translate(99.999985 0)"/>
     <use xlink:href="#STHeiti-6700" transform="translate(199.999969 0)"/>
     <use xlink:href="#STHeiti-5feb" transform="translate(299.999954 0)"/>
    </g>
   </g>
   <g id="text_6">
    <!-- 95% -->
    <g style="fill: #2e7d32" transform="translate(287.796 326.039437) scale(0.08 -0.08)">
     <defs>
      <path id="STHeiti-39" d="M 1229 269 
L 851 512 
L 2093 2394 
Q 1850 2310 1613 2310 
Q 1062 2310 688 2707 
Q 314 3104 314 3696 
Q 314 4288 730 4691 
Q 1146 5094 1750 5094 
Q 2355 5094 2748 4681 
Q 3142 4269 3142 3693 
Q 3142 3373 3011 3049 
Q 2880 2726 2624 2349 
L 1229 269 
z
M 762 3680 
Q 762 3277 1043 2995 
Q 1325 2714 1728 2714 
Q 2131 2714 2412 2998 
Q 2694 3283 2694 3680 
Q 2694 4077 2412 4361 
Q 2131 4646 1728 4646 
Q 1325 4646 1043 4364 
Q 762 4083 762 3680 
z
" transform="scale(0.015625)"/>
      <path id="STHeiti-35" d="M 3149 4979 
L 3149 4544 
L 1510 4544 
L 1280 3290 
Q 1587 3379 1856 3379 
Q 2458 3379 2861 2953 
Q 3264 2528 3264 1862 
Q 3264 1197 2825 733 
Q 2387 269 1664 269 
Q 1114 269 726 598 
Q 339 928 262 1498 
L 730 1498 
Q 813 1114 1075 909 
Q 1338 704 1683 704 
Q 2138 704 2467 1043 
Q 2797 1382 2797 1888 
Q 2797 2349 2509 2646 
Q 2221 2944 1757 2944 
Q 1293 2944 730 2701 
L 1158 4979 
L 3149 4979 
z
" transform="scale(0.015625)"/>
      <path id="STHeiti-25" d="M 4314 5184 
L 966 64 
L 550 64 
L 3603 4730 
Q 3232 4640 2845 4614 
Q 2458 4589 2278 4595 
L 2112 4602 
Q 2304 4333 2304 4032 
Q 2304 3571 1993 3248 
Q 1683 2925 1225 2925 
Q 768 2925 454 3238 
Q 141 3552 141 4006 
Q 141 4461 464 4774 
Q 787 5088 1210 5088 
Q 1382 5088 1702 5021 
Q 2022 4954 2490 4954 
Q 3232 4954 3949 5184 
L 4314 5184 
z
M 1914 4013 
Q 1914 4301 1712 4499 
Q 1510 4698 1225 4698 
Q 941 4698 739 4496 
Q 538 4294 538 4012 
Q 538 3731 739 3529 
Q 941 3328 1225 3328 
Q 1510 3328 1712 3526 
Q 1914 3725 1914 4013 
z
M 2656 1331 
Q 2656 1773 2973 2093 
Q 3290 2413 3734 2413 
Q 4179 2413 4496 2096 
Q 4813 1779 4813 1331 
Q 4813 883 4496 566 
Q 4179 250 3734 250 
Q 3290 250 2973 566 
Q 2656 883 2656 1331 
z
M 4422 1331 
Q 4422 1613 4220 1814 
Q 4019 2016 3734 2016 
Q 3450 2016 3251 1814 
Q 3053 1613 3053 1331 
Q 3053 1050 3251 848 
Q 3450 646 3734 646 
Q 4019 646 4220 844 
Q 4422 1043 4422 1331 
z
" transform="scale(0.015625)"/>
     </defs>
     <use xlink:href="#STHeiti-39"/>
     <use xlink:href="#STHeiti-35" transform="translate(55.399994 0)"/>
     <use xlink:href="#STHeiti-25" transform="translate(110.799988 0)"/>
    </g>
   </g>
   <g id="text_7">
    <!-- 准确率: 基础 -->
    <g style="fill: #546e7a" transform="translate(143.128359 343.603687) scale(0.09 -0.09)">
     <defs>
      <path id="STHeiti-51c6" d="M 2893 -58 
L 2893 -602 
L 2342 -602 
Q 2419 -198 2419 774 
L 2419 2918 
Q 2246 2637 1939 2208 
Q 1792 2464 1555 2611 
Q 2054 3168 2348 3798 
Q 2643 4429 2790 5254 
Q 3168 5082 3411 5062 
Q 3520 5050 3520 5011 
Q 3520 4973 3424 4896 
Q 3328 4819 3002 4115 
L 4371 4115 
Q 5626 4115 5843 4147 
L 5843 3616 
Q 5613 3648 4525 3648 
L 4525 2886 
Q 5446 2886 5658 2918 
L 5658 2387 
Q 5510 2413 4525 2419 
L 4525 1690 
Q 5523 1696 5651 1722 
L 5651 1190 
Q 5504 1216 4525 1222 
L 4525 410 
Q 5760 410 5984 442 
L 5984 -90 
Q 5747 -58 4512 -58 
L 2893 -58 
z
M 2893 3648 
L 2893 2886 
L 4032 2886 
L 4032 3648 
L 2893 3648 
z
M 2893 2419 
L 2893 1690 
L 4032 1690 
L 4032 2419 
L 2893 2419 
z
M 2893 1222 
L 2893 410 
L 4032 410 
L 4032 1222 
L 2893 1222 
z
M 4851 4410 
L 4250 4256 
Q 4160 4762 3987 5024 
L 4538 5190 
Q 4646 4813 4851 4410 
z
M 1760 3718 
L 1280 3315 
Q 986 3814 486 4307 
L 979 4672 
Q 1331 4179 1760 3718 
z
M 1773 1946 
Q 1619 1709 1388 1184 
Q 1158 659 973 90 
Q 659 352 352 525 
Q 915 1203 1318 2387 
Q 1491 2086 1773 1946 
z
" transform="scale(0.015625)"/>
      <path id="STHeiti-786e" d="M 4576 966 
L 4576 250 
Q 4576 -205 4608 -442 
L 4070 -442 
Q 4122 -128 4122 250 
L 4122 966 
L 3437 966 
Q 3309 -64 2662 -634 
Q 2445 -448 2150 -333 
Q 2579 -51 2787 419 
Q 2995 890 2995 1651 
L 2995 2803 
Q 2995 3386 2950 3597 
Q 3334 3552 4250 3539 
L 4710 4179 
L 3654 4179 
Q 3450 3904 3117 3597 
Q 2861 3738 2656 3802 
Q 3424 4352 3725 5325 
Q 3987 5178 4224 5114 
Q 4320 5088 4320 5049 
Q 4320 5011 4233 4960 
Q 4147 4909 3904 4557 
Q 5178 4563 5472 4621 
L 4768 3539 
Q 5498 3552 5888 3597 
Q 5837 3251 5837 2797 
L 5837 160 
Q 5837 -154 5795 -278 
Q 5754 -403 5600 -467 
Q 5446 -531 5037 -602 
Q 4998 -294 4838 -38 
Q 5069 -58 5193 -58 
Q 5318 -58 5356 -16 
Q 5395 26 5395 160 
L 5395 966 
L 4576 966 
z
M 4122 2458 
L 4122 3149 
L 3450 3149 
L 3450 2458 
L 4122 2458 
z
M 4576 3149 
L 4576 2458 
L 5395 2458 
L 5395 3149 
L 4576 3149 
z
M 4122 1350 
L 4122 2067 
L 3450 2067 
L 3450 1350 
L 4122 1350 
z
M 4576 2067 
L 4576 1350 
L 5395 1350 
L 5395 2067 
L 4576 2067 
z
M 928 1958 
Q 698 1581 544 1363 
Q 435 1645 275 1856 
Q 1043 2720 1293 4198 
Q 826 4192 538 4141 
L 538 4678 
Q 928 4621 1657 4621 
Q 2387 4621 2778 4678 
L 2778 4141 
Q 2445 4198 1786 4205 
Q 1683 3642 1466 3066 
Q 2202 3072 2490 3104 
Q 2432 2790 2432 2483 
L 2432 934 
Q 2432 570 2477 160 
L 1978 160 
L 1978 602 
L 1376 602 
L 1376 -346 
L 858 -346 
Q 928 115 928 646 
L 928 1958 
z
M 1978 1018 
L 1978 2637 
L 1376 2637 
L 1376 1018 
L 1978 1018 
z
" transform="scale(0.015625)"/>
      <path id="STHeiti-7387" d="M 3066 4621 
Q 2970 4934 2867 5152 
L 3526 5254 
Q 3546 4902 3616 4621 
Q 5018 4627 5837 4685 
L 5837 4115 
Q 4941 4179 3277 4179 
Q 1613 4179 678 4115 
L 678 4685 
Q 1568 4621 3066 4621 
z
M 3046 2790 
L 2662 2739 
Q 2195 2675 2106 2637 
Q 2106 2854 2010 3059 
Q 2336 3155 2842 4128 
Q 3110 3955 3251 3913 
Q 3392 3872 3392 3846 
Q 3392 3821 3251 3769 
Q 3110 3718 2944 3497 
Q 2778 3277 2573 3085 
L 3373 3142 
Q 3686 3501 3859 3770 
Q 4077 3546 4307 3443 
Q 4397 3405 4397 3360 
Q 4397 3315 4307 3308 
Q 4218 3302 3965 3126 
Q 3712 2950 3411 2636 
Q 3110 2323 2624 1952 
L 3808 2035 
Q 3661 2278 3552 2413 
L 3942 2656 
Q 4211 2176 4595 1600 
L 4141 1389 
Q 4109 1466 4000 1683 
L 3456 1651 
L 3456 1018 
Q 5126 1018 5990 1075 
L 5990 518 
Q 5126 576 3456 576 
Q 3469 -160 3520 -691 
L 2886 -691 
Q 2944 -70 2944 576 
Q 1325 563 506 518 
L 506 1075 
Q 1331 1030 2950 1018 
L 2950 1613 
Q 2419 1574 2093 1491 
Q 2048 1786 1933 1965 
Q 2157 1965 2377 2147 
Q 2598 2330 3046 2790 
z
M 5248 3898 
Q 5453 3629 5709 3475 
Q 5760 3443 5760 3414 
Q 5760 3386 5677 3386 
Q 5594 3386 5389 3296 
Q 5184 3206 4755 2803 
Q 4595 3002 4384 3117 
Q 4934 3482 5248 3898 
z
M 1958 3238 
L 1587 2848 
Q 1261 3219 877 3507 
L 1222 3859 
Q 1517 3558 1958 3238 
z
M 5811 1933 
L 5414 1485 
Q 5030 1920 4461 2291 
L 4826 2675 
Q 5242 2317 5811 1933 
z
M 2003 2170 
Q 1824 2099 1024 1350 
Q 890 1645 704 1888 
Q 1018 2003 1357 2272 
Q 1696 2541 1798 2662 
Q 1830 2413 2003 2170 
z
" transform="scale(0.015625)"/>
      <path id="STHeiti-3a" d="M 582 3482 
Q 582 3642 697 3757 
Q 813 3872 969 3872 
Q 1126 3872 1238 3760 
Q 1350 3648 1350 3485 
Q 1350 3322 1241 3210 
Q 1133 3098 969 3098 
Q 806 3098 694 3210 
Q 582 3322 582 3482 
z
M 582 685 
Q 582 845 697 957 
Q 813 1069 969 1069 
Q 1126 1069 1238 957 
Q 1350 845 1350 681 
Q 1350 518 1238 406 
Q 1126 294 969 294 
Q 813 294 697 409 
Q 582 525 582 685 
z
" transform="scale(0.015625)"/>
      <path id="STHeiti-57fa" d="M 2598 1920 
Q 2099 1126 723 378 
Q 608 698 307 806 
Q 1171 1056 2112 1914 
Q 1075 1907 499 1850 
L 499 2349 
Q 1107 2304 1766 2291 
L 1766 4179 
Q 1139 4166 723 4128 
L 723 4640 
Q 1222 4602 1760 4582 
Q 1754 4922 1696 5133 
Q 1926 5082 2272 5082 
Q 2349 5082 2349 5046 
Q 2349 5011 2310 4979 
Q 2240 4909 2240 4717 
L 2240 4582 
L 4166 4582 
Q 4166 4986 4122 5203 
Q 4429 5146 4710 5146 
Q 4800 5146 4800 5107 
Q 4800 5069 4762 5037 
Q 4634 4941 4634 4774 
L 4634 4582 
Q 5222 4595 5760 4640 
L 5760 4128 
Q 5312 4166 4634 4179 
L 4634 2291 
Q 5120 2298 5926 2349 
L 5926 1850 
Q 5466 1901 4512 1914 
Q 4966 1261 5946 1075 
Q 5670 826 5619 480 
Q 4301 1184 4045 1920 
L 2598 1920 
z
M 2240 3789 
L 4173 3789 
L 4173 4179 
L 2240 4179 
L 2240 3789 
z
M 4173 3462 
L 2240 3462 
L 2240 3034 
L 4173 3034 
L 4173 3462 
z
M 2240 2707 
L 2240 2291 
L 4173 2291 
L 4173 2707 
L 2240 2707 
z
M 3475 998 
Q 4154 1005 4512 1043 
L 4512 589 
Q 4058 634 3475 634 
L 3475 90 
Q 4742 90 5536 141 
L 5536 -365 
Q 4685 -314 3254 -314 
Q 1824 -314 979 -365 
L 979 141 
Q 1773 90 3021 90 
L 3021 640 
Q 2419 634 1971 589 
L 1971 1043 
Q 2349 1005 3021 998 
Q 3021 1382 2970 1651 
Q 3238 1613 3533 1613 
Q 3616 1613 3616 1584 
Q 3616 1555 3568 1520 
Q 3520 1485 3497 1417 
Q 3475 1350 3475 1286 
L 3475 998 
z
" transform="scale(0.015625)"/>
      <path id="STHeiti-7840" d="M 5286 2675 
L 4563 2675 
L 4563 224 
L 5331 224 
L 5331 1350 
Q 5331 1747 5299 1965 
Q 5626 1939 5802 1939 
Q 5978 1939 5978 1900 
Q 5978 1862 5923 1836 
Q 5869 1811 5837 1750 
Q 5805 1690 5805 1632 
L 5805 -38 
Q 5805 -275 5837 -570 
L 5293 -570 
Q 5312 -448 5325 -211 
L 4096 -211 
Q 3277 -211 2899 -256 
Q 2925 -166 2925 205 
L 2925 1530 
Q 2925 1939 2899 2035 
Q 3155 1978 3443 1978 
Q 3514 1978 3514 1926 
Q 3514 1901 3482 1881 
Q 3450 1862 3421 1795 
Q 3392 1728 3392 1664 
L 3392 224 
L 4096 224 
L 4096 2675 
Q 3251 2675 2912 2637 
Q 2938 2726 2938 3091 
L 2938 4192 
Q 2938 4602 2912 4698 
Q 3104 4659 3232 4656 
Q 3360 4653 3440 4653 
Q 3520 4653 3520 4621 
Q 3520 4589 3462 4547 
Q 3405 4506 3405 4333 
L 3405 3104 
L 4096 3104 
L 4096 4429 
Q 4096 4928 4058 5184 
Q 4179 5165 4332 5152 
Q 4486 5139 4557 5139 
L 4666 5146 
Q 4736 5146 4736 5107 
Q 4736 5069 4685 5030 
Q 4563 4928 4563 4659 
L 4563 3104 
L 5286 3104 
L 5286 4250 
Q 5286 4454 5242 4736 
Q 5376 4704 5530 4704 
Q 5856 4704 5856 4675 
Q 5856 4646 5818 4614 
Q 5760 4570 5760 4384 
L 5760 2938 
Q 5760 2566 5786 2470 
L 5274 2470 
Q 5280 2515 5286 2675 
z
M 1402 4173 
Q 870 4166 582 4109 
L 582 4704 
Q 998 4640 1654 4640 
Q 2310 4640 2739 4704 
L 2739 4109 
Q 2464 4160 1907 4173 
Q 1811 3533 1517 2893 
L 2010 2893 
Q 2400 2893 2605 2925 
Q 2560 2765 2560 2310 
L 2560 787 
Q 2560 454 2579 0 
L 2118 0 
L 2118 333 
L 1427 333 
L 1427 -397 
L 915 -397 
Q 966 0 966 531 
L 966 1888 
Q 794 1600 621 1402 
Q 518 1734 301 1939 
Q 794 2413 1037 2915 
Q 1280 3418 1402 4173 
z
M 2118 762 
L 2118 2451 
L 1427 2451 
L 1427 762 
L 2118 762 
z
" transform="scale(0.015625)"/>
     </defs>
     <use xlink:href="#STHeiti-51c6"/>
     <use xlink:href="#STHeiti-786e" transform="translate(99.999985 0)"/>
     <use xlink:href="#STHeiti-7387" transform="translate(199.999969 0)"/>
     <use xlink:href="#STHeiti-3a" transform="translate(299.999954 0)"/>
     <use xlink:href="#STHeiti-20" transform="translate(327.699951 0)"/>
     <use xlink:href="#STHeiti-57fa" transform="translate(352.699936 0)"/>
     <use xlink:href="#STHeiti-7840" transform="translate(452.699921 0)"/>
    </g>
   </g>
   <g id="text_8">
    <!-- 72% -->
    <g style="fill: #2e7d32" transform="translate(228.6216 366.462937) scale(0.08 -0.08)">
     <defs>
      <path id="STHeiti-37" d="M 461 4979 
L 3373 4979 
L 915 269 
L 538 461 
L 2662 4544 
L 461 4544 
L 461 4979 
z
" transform="scale(0.015625)"/>
      <path id="STHeiti-32" d="M 742 3539 
L 301 3539 
Q 333 4243 768 4668 
Q 1203 5094 1820 5094 
Q 2438 5094 2844 4694 
Q 3251 4294 3251 3718 
Q 3251 3290 3024 2925 
Q 2797 2560 2336 2061 
L 1190 826 
L 3315 826 
L 3315 384 
L 192 384 
L 1946 2278 
Q 2406 2778 2604 3066 
Q 2803 3354 2803 3725 
Q 2803 4096 2512 4377 
Q 2221 4659 1789 4659 
Q 1357 4659 1072 4368 
Q 787 4077 742 3539 
z
" transform="scale(0.015625)"/>
     </defs>
     <use xlink:href="#STHeiti-37"/>
     <use xlink:href="#STHeiti-32" transform="translate(55.399994 0)"/>
     <use xlink:href="#STHeiti-25" transform="translate(110.799988 0)"/>
    </g>
   </g>
   <g id="text_9">
    <!-- 速度 -->
    <g style="fill: #888888" transform="translate(157.02 318.294562) scale(0.075 -0.075)">
     <use xlink:href="#STHeiti-901f"/>
     <use xlink:href="#STHeiti-5ea6" transform="translate(99.999985 0)"/>
    </g>
   </g>
   <g id="text_10">
    <!-- 准确率 -->
    <g style="fill: #888888" transform="translate(149.52 358.755562) scale(0.075 -0.075)">
     <use xlink:href="#STHeiti-51c6"/>
     <use xlink:href="#STHeiti-786e" transform="translate(99.999985 0)"/>
     <use xlink:href="#STHeiti-7387" transform="translate(199.999969 0)"/>
    </g>
   </g>
  </g>
  <g id="axes_2">
   <g id="patch_10">
    <path d="M 347.64 121.274437 
L 653.16 121.274437 
Q 661.2 121.274437 661.2 116.2215 
L 661.2 65.692125 
Q 661.2 60.639187 653.16 60.639187 
L 347.64 60.639187 
Q 339.6 60.639187 339.6 65.692125 
L 339.6 116.2215 
Q 339.6 121.274437 347.64 121.274437 
z
" clip-path="url(#p762412ea46)" style="fill: #f9a825; opacity: 0.9; stroke: #000000; stroke-linejoin: miter"/>
   </g>
   <g id="patch_11">
    <path d="M 363.72 185.952037 
L 637.08 185.952037 
Q 643.512 185.952037 643.512 181.909687 
L 643.512 136.43325 
Q 643.512 132.3909 637.08 132.3909 
L 363.72 132.3909 
Q 357.288 132.3909 357.288 136.43325 
L 357.288 181.909687 
Q 357.288 185.952037 363.72 185.952037 
z
" clip-path="url(#p762412ea46)" style="fill: #eceff1; stroke: #607d8b; stroke-width: 1.5; stroke-linejoin: miter"/>
   </g>
   <g id="patch_12">
    <path d="M 363.72 249.113756 
L 637.08 249.113756 
Q 643.512 249.113756 643.512 245.071406 
L 643.512 192.015562 
Q 643.512 187.973212 637.08 187.973212 
L 363.72 187.973212 
Q 357.288 187.973212 357.288 192.015562 
L 357.288 245.071406 
Q 357.288 249.113756 363.72 249.113756 
z
" clip-path="url(#p762412ea46)" style="fill: #fff9c4; stroke: #f9a825; stroke-width: 1.8; stroke-linejoin: miter"/>
   </g>
   <g id="patch_13">
    <path d="M 363.72 297.116662 
L 637.08 297.116662 
Q 643.512 297.116662 643.512 293.074312 
L 643.512 255.177281 
Q 643.512 251.134931 637.08 251.134931 
L 363.72 251.134931 
Q 357.288 251.134931 357.288 255.177281 
L 357.288 293.074312 
Q 357.288 297.116662 363.72 297.116662 
z
" clip-path="url(#p762412ea46)" style="fill: #e8f5e9; stroke: #2e7d32; stroke-width: 1.5; stroke-linejoin: miter"/>
   </g>
   <g id="patch_14">
    <path d="M 371.76 343.603687 
L 513.264 343.603687 
L 513.264 328.444875 
L 371.76 328.444875 
z
" clip-path="url(#p762412ea46)" style="fill: #4caf50; opacity: 0.8"/>
   </g>
   <g id="patch_15">
    <path d="M 371.76 384.027187 
L 598.1664 384.027187 
L 598.1664 368.868375 
L 371.76 368.868375 
z
" clip-path="url(#p762412ea46)" style="fill: #f9a825; opacity: 0.8"/>
   </g>
   <g id="text_11">
    <!-- Think High -->
    <g style="fill: #ffffff" transform="translate(471.816563 88.190437) scale(0.12 -0.12)">
     <defs>
      <path id="STHeiti-48" d="M 550 4979 
L 1018 4979 
L 1018 3053 
L 3354 3053 
L 3354 4979 
L 3814 4979 
L 3814 384 
L 3354 384 
L 3354 2605 
L 1018 2605 
L 1018 384 
L 550 384 
L 550 4979 
z
" transform="scale(0.015625)"/>
     </defs>
     <use xlink:href="#STHeiti-54"/>
     <use xlink:href="#STHeiti-68" transform="translate(42.599991 0)"/>
     <use xlink:href="#STHeiti-69" transform="translate(103.599976 0)"/>
     <use xlink:href="#STHeiti-6e" transform="translate(123.59996 0)"/>
     <use xlink:href="#STHeiti-6b" transform="translate(184.599945 0)"/>
     <use xlink:href="#STHeiti-20" transform="translate(234.799942 0)"/>
     <use xlink:href="#STHeiti-48" transform="translate(259.799927 0)"/>
     <use xlink:href="#STHeiti-69" transform="translate(328.099915 0)"/>
     <use xlink:href="#STHeiti-67" transform="translate(348.099899 0)"/>
     <use xlink:href="#STHeiti-68" transform="translate(415.399887 0)"/>
    </g>
    <!-- (均衡模式) -->
    <g style="fill: #ffffff" transform="translate(471.97125 101.665687) scale(0.12 -0.12)">
     <defs>
      <path id="STHeiti-5747" d="M 3565 3648 
Q 3290 3053 2822 2349 
Q 2624 2496 2278 2598 
Q 2643 2950 3001 3692 
Q 3360 4435 3456 5190 
Q 3814 5082 4205 5024 
Q 4282 5011 4282 4976 
Q 4282 4941 4192 4889 
Q 4102 4838 4019 4681 
Q 3936 4525 3770 4102 
L 4928 4102 
Q 5408 4102 5869 4154 
L 5741 416 
Q 5728 -38 5635 -236 
Q 5542 -435 5267 -531 
Q 4992 -627 4339 -685 
Q 4288 -320 4038 19 
Q 4333 -6 4525 -6 
Q 4877 -6 5033 96 
Q 5190 198 5203 627 
L 5306 3648 
L 3565 3648 
z
M 1690 1062 
Q 2150 1203 2509 1363 
Q 2464 1171 2464 1040 
Q 2464 909 2477 787 
Q 1459 538 493 19 
Q 448 416 262 755 
Q 646 794 1152 915 
L 1152 3059 
Q 685 3059 422 3021 
L 422 3578 
Q 659 3546 1152 3533 
Q 1152 4691 1114 4998 
Q 1261 4973 1747 4973 
Q 1830 4973 1830 4937 
Q 1830 4902 1760 4864 
Q 1690 4826 1690 4710 
L 1690 3533 
Q 2170 3539 2432 3578 
L 2432 3021 
Q 2182 3059 1690 3066 
L 1690 1062 
z
M 4416 2131 
L 3866 1875 
Q 3648 2445 3354 2778 
L 3891 3053 
Q 4160 2534 4416 2131 
z
M 4883 1280 
Q 3757 838 2976 454 
Q 2886 749 2714 1094 
Q 3770 1318 4864 1862 
Q 4851 1747 4851 1612 
Q 4851 1478 4883 1280 
z
" transform="scale(0.015625)"/>
      <path id="STHeiti-8861" d="M 2624 4211 
Q 2515 4077 2291 3846 
Q 2112 4000 1869 4045 
Q 2586 4685 2778 5203 
Q 3123 5024 3228 5005 
Q 3334 4986 3334 4960 
Q 3334 4934 3225 4870 
Q 3117 4806 2899 4550 
L 3674 4550 
Q 3981 4550 4186 4570 
L 3578 3706 
Q 4006 3706 4390 3725 
Q 4371 3526 4371 3302 
L 4371 2208 
Q 4371 1926 4390 1734 
Q 3955 1754 3244 1754 
Q 2534 1754 2074 1734 
Q 2093 1933 2093 2214 
L 2093 3296 
Q 2093 3514 2074 3725 
Q 2509 3706 3104 3706 
L 3424 4211 
L 2624 4211 
z
M 3046 2880 
L 3046 3366 
L 2502 3366 
L 2502 2880 
L 3046 2880 
z
M 3981 2880 
L 3981 3366 
L 3424 3366 
L 3424 2880 
L 3981 2880 
z
M 3046 2093 
L 3046 2573 
L 2502 2573 
L 2502 2093 
L 3046 2093 
z
M 3981 2093 
L 3981 2573 
L 3424 2573 
L 3424 2093 
L 3981 2093 
z
M 1523 5126 
Q 1645 5024 1785 4928 
Q 1926 4832 1990 4819 
Q 2054 4806 2054 4764 
Q 2054 4723 1971 4697 
Q 1888 4672 1507 4237 
Q 1126 3802 768 3424 
Q 614 3597 333 3763 
Q 723 4045 1001 4349 
Q 1280 4653 1523 5126 
z
M 5971 4192 
Q 5882 4205 5373 4205 
Q 4864 4205 4570 4192 
L 4570 4659 
Q 4774 4640 5283 4640 
Q 5792 4640 5971 4659 
L 5971 4192 
z
M 1427 2675 
L 1427 -582 
L 870 -582 
Q 928 -58 928 448 
L 928 2029 
Q 723 1792 531 1600 
Q 454 1824 250 2048 
Q 730 2419 989 2790 
Q 1248 3162 1453 3622 
Q 1741 3386 1856 3341 
Q 1971 3296 1971 3257 
Q 1971 3219 1875 3200 
Q 1805 3181 1427 2675 
z
M 5133 2816 
Q 4704 2822 4512 2803 
L 4512 3290 
Q 4717 3270 5325 3270 
Q 5933 3270 6118 3290 
L 6118 2803 
Q 6048 2816 5632 2816 
L 5632 109 
Q 5632 -205 5577 -342 
Q 5523 -480 5350 -537 
Q 5178 -595 4768 -614 
Q 4742 -326 4525 -26 
Q 4755 -64 4886 -64 
Q 5018 -64 5075 -3 
Q 5133 58 5133 275 
L 5133 2816 
z
M 2816 928 
Q 1990 922 1741 883 
L 1741 1325 
Q 2086 1286 2899 1280 
Q 2944 1453 2950 1638 
Q 3258 1530 3494 1530 
Q 3558 1530 3558 1501 
Q 3558 1472 3500 1427 
Q 3443 1382 3398 1280 
Q 4390 1280 4672 1325 
L 4672 883 
Q 4294 928 3283 928 
Q 3277 870 3238 787 
Q 3859 403 4307 90 
L 3994 -333 
Q 3622 -6 3046 422 
Q 2790 51 2144 -416 
Q 2042 -256 1690 -109 
Q 2624 352 2816 928 
z
" transform="scale(0.015625)"/>
     </defs>
     <use xlink:href="#STHeiti-28"/>
     <use xlink:href="#STHeiti-5747" transform="translate(36.899994 0)"/>
     <use xlink:href="#STHeiti-8861" transform="translate(136.899979 0)"/>
     <use xlink:href="#STHeiti-6a21" transform="translate(236.899963 0)"/>
     <use xlink:href="#STHeiti-5f0f" transform="translate(336.899948 0)"/>
     <use xlink:href="#STHeiti-29" transform="translate(436.899933 0)"/>
    </g>
   </g>
   <g id="text_12">
    <!-- 输入 Prompt -->
    <g style="fill: #455a64" transform="translate(471.614844 162.616) scale(0.1 -0.1)">
     <use xlink:href="#STHeiti-8f93"/>
     <use xlink:href="#STHeiti-5165" transform="translate(99.999985 0)"/>
     <use xlink:href="#STHeiti-20" transform="translate(199.999969 0)"/>
     <use xlink:href="#STHeiti-50" transform="translate(224.999954 0)"/>
     <use xlink:href="#STHeiti-72" transform="translate(284.199951 0)"/>
     <use xlink:href="#STHeiti-6f" transform="translate(314.299942 0)"/>
     <use xlink:href="#STHeiti-6d" transform="translate(379.799927 0)"/>
     <use xlink:href="#STHeiti-70" transform="translate(473.599915 0)"/>
     <use xlink:href="#STHeiti-74" transform="translate(541.799896 0)"/>
    </g>
   </g>
   <g id="patch_16">
    <path d="M 500.4 183.908164 
Q 500.4 184.434641 500.4 183.284067 
" style="fill: none; stroke: #455a64; stroke-width: 1.5; stroke-linecap: round"/>
    <path d="M 502.4 179.284067 
L 500.4 183.284067 
L 498.4 179.284067 
" style="fill: none; stroke: #455a64; stroke-width: 1.5; stroke-linecap: round"/>
   </g>
   <g id="text_13">
    <!-- &lt;think&gt; -->
    <g style="fill: #f9a825" transform="translate(486.508125 199.716) scale(0.08 -0.08)">
     <defs>
      <path id="STHeiti-3c" d="M 3552 1466 
L 3552 1011 
L 326 2477 
L 326 2886 
L 3552 4358 
L 3552 3898 
L 934 2675 
L 3552 1466 
z
" transform="scale(0.015625)"/>
      <path id="STHeiti-3e" d="M 326 1466 
L 2944 2675 
L 326 3898 
L 326 4358 
L 3552 2886 
L 3552 2477 
L 326 1011 
L 326 1466 
z
" transform="scale(0.015625)"/>
     </defs>
     <use xlink:href="#STHeiti-3c"/>
     <use xlink:href="#STHeiti-74" transform="translate(60.599991 0)"/>
     <use xlink:href="#STHeiti-68" transform="translate(94.499985 0)"/>
     <use xlink:href="#STHeiti-69" transform="translate(155.499969 0)"/>
     <use xlink:href="#STHeiti-6e" transform="translate(175.499954 0)"/>
     <use xlink:href="#STHeiti-6b" transform="translate(236.499939 0)"/>
     <use xlink:href="#STHeiti-3e" transform="translate(286.699936 0)"/>
    </g>
   </g>
   <g id="text_14">
    <!-- ... 推理步骤 ... -->
    <g style="fill: #f9a825" transform="translate(475.75125 212.979961) scale(0.08 -0.08)">
     <defs>
      <path id="STHeiti-2e" d="M 582 685 
Q 582 845 697 957 
Q 813 1069 969 1069 
Q 1126 1069 1238 957 
Q 1350 845 1350 681 
Q 1350 518 1238 406 
Q 1126 294 969 294 
Q 813 294 697 409 
Q 582 525 582 685 
z
" transform="scale(0.015625)"/>
      <path id="STHeiti-63a8" d="M 4986 4499 
L 4448 4198 
Q 4307 4550 3994 4902 
L 4493 5197 
Q 4723 4819 4986 4499 
z
M 3251 -32 
L 3251 -544 
L 2701 -544 
Q 2771 -58 2771 832 
L 2771 3027 
Q 2598 2733 2477 2554 
Q 2291 2739 2035 2816 
Q 2810 3552 3085 5190 
Q 3507 5018 3648 5002 
Q 3789 4986 3789 4941 
Q 3789 4896 3705 4838 
Q 3622 4781 3548 4643 
Q 3475 4506 3277 4064 
L 4454 4064 
Q 5670 4064 5882 4096 
L 5882 3578 
Q 5734 3603 4698 3603 
L 4698 2874 
Q 5549 2880 5690 2906 
L 5690 2387 
Q 5536 2413 4698 2419 
L 4698 1626 
Q 5555 1632 5702 1658 
L 5702 1146 
Q 5555 1171 4698 1171 
L 4698 422 
Q 5862 422 6048 461 
L 6048 -64 
Q 5920 -32 4646 -32 
L 3251 -32 
z
M 3251 3603 
L 3251 2874 
L 4186 2874 
L 4186 3603 
L 3251 3603 
z
M 3251 2419 
L 3251 1626 
L 4186 1626 
L 4186 2419 
L 3251 2419 
z
M 3251 1171 
L 3251 422 
L 4186 422 
L 4186 1171 
L 3251 1171 
z
M 1171 2074 
L 1171 3347 
Q 730 3347 429 3315 
L 429 3821 
Q 736 3789 1171 3789 
Q 1171 4762 1114 5120 
Q 1350 5082 1715 5082 
Q 1843 5082 1843 5043 
Q 1843 5005 1760 4928 
Q 1677 4851 1677 4685 
L 1677 3789 
Q 2138 3802 2304 3821 
L 2304 3315 
Q 2138 3334 1677 3347 
L 1677 2246 
Q 2074 2400 2221 2477 
Q 2202 2214 2259 2016 
Q 2054 1952 1677 1798 
L 1677 134 
Q 1677 -102 1613 -211 
Q 1549 -320 1366 -377 
Q 1184 -435 736 -499 
Q 691 -205 480 96 
Q 621 83 793 83 
Q 966 83 1068 160 
Q 1171 237 1171 435 
L 1171 1581 
Q 774 1395 486 1210 
Q 454 1414 339 1850 
Q 749 1939 1171 2074 
z
" transform="scale(0.015625)"/>
      <path id="STHeiti-7406" d="M 4397 864 
L 4397 160 
Q 5389 166 6086 211 
L 6086 -333 
Q 5389 -275 4096 -275 
Q 2803 -275 2099 -333 
L 2099 211 
Q 2816 166 3910 160 
L 3910 864 
Q 3187 864 2682 800 
L 2682 1350 
Q 3174 1286 3910 1280 
L 3910 1920 
Q 2771 1914 2598 1882 
Q 2637 2630 2637 3443 
Q 2637 4256 2598 4864 
Q 2797 4813 4214 4813 
Q 5632 4813 5754 4864 
Q 5722 4352 5722 3549 
Q 5722 2746 5766 1882 
Q 5658 1920 4397 1920 
L 4397 1280 
Q 5210 1286 5702 1350 
L 5702 800 
Q 5261 858 4397 864 
z
M 3910 3590 
L 3910 4390 
L 3110 4390 
L 3110 3590 
L 3910 3590 
z
M 4397 4390 
L 4397 3590 
L 5229 3590 
L 5229 4390 
L 4397 4390 
z
M 4397 3187 
L 4397 2336 
L 5229 2336 
L 5229 3187 
L 4397 3187 
z
M 3910 2336 
L 3910 3187 
L 3110 3187 
L 3110 2336 
L 3910 2336 
z
M 1171 4224 
Q 768 4218 429 4179 
L 429 4717 
Q 774 4678 1436 4678 
Q 2099 4678 2438 4717 
L 2438 4179 
Q 2131 4211 1670 4230 
L 1670 2861 
Q 2138 2874 2368 2906 
L 2368 2362 
Q 2035 2400 1670 2406 
L 1670 883 
Q 2035 1011 2368 1184 
Q 2342 979 2342 864 
Q 2342 749 2355 621 
Q 1184 269 448 -218 
Q 448 -45 400 182 
Q 352 410 275 563 
Q 710 595 1171 723 
L 1171 2406 
Q 685 2394 435 2362 
L 435 2906 
Q 742 2861 1171 2854 
L 1171 4224 
z
" transform="scale(0.015625)"/>
      <path id="STHeiti-6b65" d="M 3526 4461 
Q 5056 4461 5478 4499 
L 5478 3974 
Q 5056 4013 3526 4013 
L 3526 3098 
Q 5062 3098 6035 3155 
L 6035 2605 
Q 4915 2669 3257 2669 
Q 1600 2669 467 2605 
L 467 3162 
Q 947 3104 1555 3098 
L 1555 4006 
Q 1555 4365 1510 4717 
Q 1696 4678 2170 4678 
Q 2221 4678 2221 4652 
Q 2221 4627 2147 4579 
Q 2074 4531 2074 4403 
L 2074 3098 
L 3008 3098 
L 3008 4570 
Q 3008 4979 2963 5274 
Q 3277 5235 3584 5235 
Q 3667 5235 3667 5203 
Q 3667 5171 3622 5146 
Q 3526 5101 3526 4966 
L 3526 4461 
z
M 2976 262 
L 2976 1683 
Q 2976 2163 2931 2406 
Q 3213 2381 3571 2381 
Q 3674 2381 3674 2345 
Q 3674 2310 3610 2265 
Q 3546 2221 3520 2169 
Q 3494 2118 3494 2029 
L 3494 531 
Q 4365 1114 4960 2285 
Q 5088 2170 5245 2070 
Q 5402 1971 5494 1939 
Q 5587 1907 5587 1875 
Q 5587 1843 5500 1814 
Q 5414 1786 4717 915 
Q 4192 275 3225 -128 
Q 2259 -531 902 -659 
Q 870 -358 666 -83 
Q 1286 -83 1907 9 
Q 2528 102 2976 262 
z
M 1741 2170 
Q 2022 1978 2298 1933 
Q 2381 1914 2381 1888 
Q 2381 1862 2323 1837 
Q 2176 1773 1274 621 
Q 1056 838 755 960 
Q 1037 1133 1312 1472 
Q 1587 1811 1741 2170 
z
" transform="scale(0.015625)"/>
      <path id="STHeiti-9aa4" d="M 2534 4576 
L 2323 4544 
L 2323 4966 
Q 2579 4928 3286 4928 
Q 3994 4928 4211 4966 
L 4211 4544 
Q 4058 4570 3994 4576 
L 3994 2970 
L 4186 3021 
Q 4160 2918 4160 2841 
Q 4160 2765 4166 2694 
L 4000 2662 
Q 4013 2419 4032 2298 
L 3578 2298 
L 3603 2579 
Q 2899 2445 2413 2304 
Q 2406 2502 2291 2726 
L 2534 2733 
L 2534 4576 
z
M 3610 4589 
L 2912 4589 
L 2912 4186 
L 3610 4186 
L 3610 4589 
z
M 3610 3514 
L 3610 3878 
L 2912 3878 
L 2912 3514 
L 3610 3514 
z
M 3610 2880 
L 3610 3206 
L 2912 3206 
L 2912 2765 
L 3610 2880 
z
M 1926 2227 
Q 2170 2240 2355 2272 
Q 2253 685 2249 374 
Q 2246 64 2172 -131 
Q 2099 -326 1910 -416 
Q 1722 -506 1338 -531 
Q 1306 -230 1094 -19 
Q 1293 -38 1437 -38 
Q 1581 -38 1661 13 
Q 1741 64 1779 198 
Q 1818 333 1850 771 
Q 1882 1210 1888 1856 
Q 1030 1856 672 1811 
Q 723 2202 723 3046 
Q 723 3891 710 4083 
Q 845 4051 1018 4051 
L 1210 4058 
Q 1280 4058 1280 4032 
Q 1280 4006 1235 3955 
Q 1107 3827 1107 2227 
L 1523 2227 
L 1645 4442 
Q 915 4442 486 4397 
L 486 4877 
Q 864 4826 1264 4826 
Q 1664 4826 2125 4877 
Q 2080 4563 2048 4102 
L 1926 2227 
z
M 5082 3130 
Q 4832 2797 4531 2541 
Q 4467 2714 4243 2867 
Q 4557 3091 4768 3379 
Q 4518 3565 4224 3750 
L 4474 4026 
Q 4915 3738 4966 3693 
Q 5101 3955 5222 4326 
Q 4531 4326 4333 4282 
L 4333 4755 
Q 4595 4710 5068 4710 
Q 5542 4710 5786 4755 
Q 5555 3942 5286 3469 
L 5933 2982 
L 5626 2611 
Q 5357 2899 5082 3130 
z
M 3853 1824 
Q 3296 1766 2867 1734 
Q 2880 1946 2752 2125 
Q 4038 2093 5222 2496 
Q 5306 2208 5446 2093 
Q 5517 2035 5517 1993 
Q 5517 1952 5449 1968 
Q 5382 1984 5280 1984 
Q 5030 1984 4282 1875 
L 4282 1587 
Q 4410 1357 4595 1165 
Q 5101 1510 5376 1805 
Q 5510 1594 5690 1453 
Q 5728 1421 5728 1389 
Q 5728 1357 5658 1344 
Q 5453 1299 4845 928 
Q 5510 384 6170 262 
Q 5850 58 5702 -256 
Q 4768 288 4282 1152 
L 4282 198 
Q 4282 -230 4314 -538 
L 3808 -538 
Q 3853 -109 3853 198 
L 3853 627 
Q 3712 608 3475 333 
Q 3206 45 2650 -352 
Q 2515 -141 2291 -6 
Q 3053 339 3514 941 
Q 3635 781 3853 678 
L 3853 1824 
z
M 3245 1683 
Q 3322 1568 3539 1427 
Q 3603 1389 3603 1360 
Q 3603 1331 3520 1321 
Q 3437 1312 3334 1184 
Q 3232 1056 3043 902 
Q 2854 749 2707 666 
Q 2592 858 2426 954 
Q 2918 1184 3245 1683 
z
M 1632 883 
Q 883 698 422 461 
Q 410 755 282 1037 
Q 832 1043 1613 1306 
Q 1600 1229 1600 1123 
Q 1600 1018 1632 883 
z
" transform="scale(0.015625)"/>
     </defs>
     <use xlink:href="#STHeiti-2e"/>
     <use xlink:href="#STHeiti-2e" transform="translate(27.699997 0)"/>
     <use xlink:href="#STHeiti-2e" transform="translate(55.399994 0)"/>
     <use xlink:href="#STHeiti-20" transform="translate(83.099991 0)"/>
     <use xlink:href="#STHeiti-63a8" transform="translate(108.099976 0)"/>
     <use xlink:href="#STHeiti-7406" transform="translate(208.09996 0)"/>
     <use xlink:href="#STHeiti-6b65" transform="translate(308.099945 0)"/>
     <use xlink:href="#STHeiti-9aa4" transform="translate(408.09993 0)"/>
     <use xlink:href="#STHeiti-20" transform="translate(508.099915 0)"/>
     <use xlink:href="#STHeiti-2e" transform="translate(533.099899 0)"/>
     <use xlink:href="#STHeiti-2e" transform="translate(560.799896 0)"/>
     <use xlink:href="#STHeiti-2e" transform="translate(588.499893 0)"/>
    </g>
   </g>
   <g id="patch_17">
    <path d="M 500.4 247.069883 
Q 500.4 247.596359 500.4 246.445785 
" style="fill: none; stroke: #455a64; stroke-width: 1.5; stroke-linecap: round"/>
    <path d="M 502.4 242.445785 
L 500.4 246.445785 
L 498.4 242.445785 
" style="fill: none; stroke: #455a64; stroke-width: 1.5; stroke-linecap: round"/>
   </g>
   <g id="text_15">
    <!-- 输出答案 -->
    <g style="fill: #2e7d32" transform="translate(480.4 277.435172) scale(0.1 -0.1)">
     <use xlink:href="#STHeiti-8f93"/>
     <use xlink:href="#STHeiti-51fa" transform="translate(99.999985 0)"/>
     <use xlink:href="#STHeiti-7b54" transform="translate(199.999969 0)"/>
     <use xlink:href="#STHeiti-6848" transform="translate(299.999954 0)"/>
    </g>
   </g>
   <g id="text_16">
    <!-- 速度适中 -->
    <g style="fill: #546e7a" transform="translate(482.4 315.812531) scale(0.09 -0.09)">
     <defs>
      <path id="STHeiti-9002" d="M 3661 4390 
Q 2906 4294 2458 4262 
Q 2438 4538 2221 4730 
Q 2957 4704 3817 4841 
Q 4678 4979 5210 5190 
Q 5306 4960 5536 4710 
Q 5606 4634 5606 4595 
Q 5606 4557 5526 4576 
Q 5446 4595 5283 4595 
Q 5120 4595 4954 4570 
L 4154 4454 
L 4154 3686 
Q 5210 3693 5875 3744 
L 5875 3200 
Q 5171 3251 4154 3251 
L 4154 2528 
Q 5152 2534 5440 2579 
Q 5402 2355 5402 2054 
L 5402 1094 
Q 5402 813 5446 538 
L 4909 538 
L 4909 838 
L 2931 838 
L 2931 422 
L 2406 422 
Q 2451 723 2451 986 
L 2451 2054 
Q 2451 2349 2406 2579 
Q 2784 2534 3661 2528 
L 3661 3251 
Q 2656 3245 1997 3194 
L 1997 3744 
Q 2637 3693 3661 3686 
L 3661 4390 
z
M 4909 1254 
L 4909 2106 
L 2931 2106 
L 2931 1254 
L 4909 1254 
z
M 1818 3955 
L 1286 3635 
Q 1030 4192 640 4608 
L 1133 4928 
Q 1421 4486 1818 3955 
z
M 1581 614 
Q 1805 570 2374 275 
Q 2714 102 3786 102 
Q 4858 102 6016 269 
Q 5811 -19 5811 -403 
Q 4749 -435 3977 -435 
Q 3206 -435 2768 -342 
Q 2330 -250 1894 6 
Q 1562 205 1430 205 
Q 1299 205 1174 70 
Q 1050 -64 826 -410 
Q 608 -141 371 13 
Q 813 454 1069 557 
L 1069 2496 
Q 512 2496 403 2470 
L 403 3008 
Q 723 2957 1052 2957 
Q 1382 2957 1638 3008 
Q 1581 2746 1581 2253 
L 1581 614 
z
" transform="scale(0.015625)"/>
      <path id="STHeiti-4e2d" d="M 5011 1517 
L 3482 1517 
L 3482 582 
Q 3482 45 3546 -570 
L 2861 -570 
Q 2925 90 2925 582 
L 2925 1517 
L 1440 1517 
L 1440 1062 
L 851 1062 
Q 896 1555 896 2016 
L 896 3398 
Q 896 3763 851 4058 
Q 1254 4000 2925 3987 
L 2925 4288 
Q 2925 5075 2861 5242 
Q 3213 5203 3539 5203 
Q 3629 5203 3629 5174 
Q 3629 5146 3555 5085 
Q 3482 5024 3482 4736 
L 3482 3987 
Q 5114 3994 5619 4058 
Q 5587 3603 5587 3270 
L 5587 2042 
Q 5587 1779 5619 1126 
L 5011 1126 
L 5011 1517 
z
M 3482 1997 
L 5011 1997 
L 5011 3507 
L 3482 3507 
L 3482 1997 
z
M 1440 1997 
L 2925 1997 
L 2925 3507 
L 1440 3507 
L 1440 1997 
z
" transform="scale(0.015625)"/>
     </defs>
     <use xlink:href="#STHeiti-901f"/>
     <use xlink:href="#STHeiti-5ea6" transform="translate(99.999985 0)"/>
     <use xlink:href="#STHeiti-9002" transform="translate(199.999969 0)"/>
     <use xlink:href="#STHeiti-4e2d" transform="translate(299.999954 0)"/>
    </g>
   </g>
   <g id="text_17">
    <!-- 55% -->
    <g style="fill: #2e7d32" transform="translate(517.284 338.671781) scale(0.08 -0.08)">
     <use xlink:href="#STHeiti-35"/>
     <use xlink:href="#STHeiti-35" transform="translate(55.399994 0)"/>
     <use xlink:href="#STHeiti-25" transform="translate(110.799988 0)"/>
    </g>
   </g>
   <g id="text_18">
    <!-- 准确率: 高 -->
    <g style="fill: #546e7a" transform="translate(480.028359 356.236031) scale(0.09 -0.09)">
     <defs>
      <path id="STHeiti-9ad8" d="M 3558 4621 
Q 5421 4634 5843 4672 
L 5843 4147 
Q 5440 4186 3414 4186 
Q 1389 4186 493 4122 
L 493 4672 
Q 1274 4621 2944 4621 
Q 2842 4979 2720 5165 
L 3507 5254 
Q 3507 5018 3558 4621 
z
M 4909 3846 
Q 4870 3584 4870 3257 
Q 4870 2931 4915 2573 
Q 4314 2611 3232 2611 
Q 2150 2611 1434 2560 
Q 1485 2835 1485 3187 
Q 1485 3539 1446 3834 
Q 2074 3776 3088 3776 
Q 4102 3776 4909 3846 
z
M 1997 3418 
L 1997 3002 
L 4378 3002 
L 4378 3418 
L 1997 3418 
z
M 4442 -621 
Q 4461 -550 4461 -486 
Q 4461 -301 4262 -45 
Q 4506 -64 4691 -64 
Q 4877 -64 4941 -6 
Q 5005 51 5005 205 
L 5005 1811 
L 1350 1811 
L 1350 -576 
L 774 -576 
Q 832 -109 832 320 
L 832 1664 
Q 832 1990 781 2278 
Q 1632 2214 3254 2214 
Q 4877 2214 5606 2285 
Q 5549 2042 5549 1664 
L 5549 147 
Q 5549 -166 5488 -304 
Q 5427 -442 5203 -512 
Q 4979 -582 4442 -621 
z
M 4416 1440 
Q 4384 1120 4384 784 
Q 4384 448 4422 109 
Q 4096 134 3267 134 
Q 2438 134 1920 96 
Q 1952 429 1952 761 
Q 1952 1094 1926 1427 
Q 2227 1376 3126 1376 
Q 4026 1376 4416 1440 
z
M 2438 992 
L 2438 525 
L 3898 525 
L 3898 992 
L 2438 992 
z
" transform="scale(0.015625)"/>
     </defs>
     <use xlink:href="#STHeiti-51c6"/>
     <use xlink:href="#STHeiti-786e" transform="translate(99.999985 0)"/>
     <use xlink:href="#STHeiti-7387" transform="translate(199.999969 0)"/>
     <use xlink:href="#STHeiti-3a" transform="translate(299.999954 0)"/>
     <use xlink:href="#STHeiti-20" transform="translate(327.699951 0)"/>
     <use xlink:href="#STHeiti-9ad8" transform="translate(352.699936 0)"/>
    </g>
   </g>
   <g id="text_19">
    <!-- 88% -->
    <g style="fill: #f9a825" transform="translate(602.1864 379.095281) scale(0.08 -0.08)">
     <defs>
      <path id="STHeiti-38" d="M 2458 2906 
Q 3328 2477 3328 1702 
Q 3328 1088 2896 678 
Q 2464 269 1763 269 
Q 1062 269 640 678 
Q 218 1088 218 1664 
Q 218 2470 1107 2906 
Q 435 3264 435 3898 
Q 435 4371 828 4732 
Q 1222 5094 1779 5094 
Q 2336 5094 2726 4742 
Q 3117 4390 3117 3885 
Q 3117 3270 2458 2906 
z
M 2656 3904 
Q 2656 4211 2416 4432 
Q 2176 4653 1789 4653 
Q 1402 4653 1152 4432 
Q 902 4211 902 3897 
Q 902 3584 1174 3337 
Q 1446 3091 1792 3091 
Q 2138 3091 2397 3334 
Q 2656 3578 2656 3904 
z
M 2867 1696 
Q 2867 2086 2550 2380 
Q 2234 2675 1782 2675 
Q 1331 2675 1004 2371 
Q 678 2067 678 1654 
Q 678 1242 979 973 
Q 1280 704 1766 704 
Q 2253 704 2560 992 
Q 2867 1280 2867 1696 
z
" transform="scale(0.015625)"/>
     </defs>
     <use xlink:href="#STHeiti-38"/>
     <use xlink:href="#STHeiti-38" transform="translate(55.399994 0)"/>
     <use xlink:href="#STHeiti-25" transform="translate(110.799988 0)"/>
    </g>
   </g>
   <g id="text_20">
    <!-- 速度 -->
    <g style="fill: #888888" transform="translate(489.42 330.926906) scale(0.075 -0.075)">
     <use xlink:href="#STHeiti-901f"/>
     <use xlink:href="#STHeiti-5ea6" transform="translate(99.999985 0)"/>
    </g>
   </g>
   <g id="text_21">
    <!-- 准确率 -->
    <g style="fill: #888888" transform="translate(481.92 371.387906) scale(0.075 -0.075)">
     <use xlink:href="#STHeiti-51c6"/>
     <use xlink:href="#STHeiti-786e" transform="translate(99.999985 0)"/>
     <use xlink:href="#STHeiti-7387" transform="translate(199.999969 0)"/>
    </g>
   </g>
  </g>
  <g id="axes_3">
   <g id="patch_18">
    <path d="M 680.04 121.274437 
L 985.56 121.274437 
Q 993.6 121.274437 993.6 116.2215 
L 993.6 65.692125 
Q 993.6 60.639187 985.56 60.639187 
L 680.04 60.639187 
Q 672 60.639187 672 65.692125 
L 672 116.2215 
Q 672 121.274437 680.04 121.274437 
z
" clip-path="url(#pbf14df4396)" style="fill: #c62828; opacity: 0.9; stroke: #000000; stroke-linejoin: miter"/>
   </g>
   <g id="patch_19">
    <path d="M 696.12 185.952037 
L 969.48 185.952037 
Q 975.912 185.952037 975.912 181.909687 
L 975.912 136.43325 
Q 975.912 132.3909 969.48 132.3909 
L 696.12 132.3909 
Q 689.688 132.3909 689.688 136.43325 
L 689.688 181.909687 
Q 689.688 185.952037 696.12 185.952037 
z
" clip-path="url(#pbf14df4396)" style="fill: #eceff1; stroke: #607d8b; stroke-width: 1.5; stroke-linejoin: miter"/>
   </g>
   <g id="patch_20">
    <path d="M 696.12 302.1696 
L 969.48 302.1696 
Q 975.912 302.1696 975.912 298.12725 
L 975.912 192.015562 
Q 975.912 187.973212 969.48 187.973212 
L 696.12 187.973212 
Q 689.688 187.973212 689.688 192.015562 
L 689.688 298.12725 
Q 689.688 302.1696 696.12 302.1696 
z
" clip-path="url(#pbf14df4396)" style="fill: #ffebee; stroke: #c62828; stroke-width: 1.8; stroke-linejoin: miter"/>
   </g>
   <g id="patch_21">
    <path d="M 696.12 350.172506 
L 969.48 350.172506 
Q 975.912 350.172506 975.912 346.130156 
L 975.912 308.233125 
Q 975.912 304.190775 969.48 304.190775 
L 696.12 304.190775 
Q 689.688 304.190775 689.688 308.233125 
L 689.688 346.130156 
Q 689.688 350.172506 696.12 350.172506 
z
" clip-path="url(#pbf14df4396)" style="fill: #e8f5e9; stroke: #2e7d32; stroke-width: 1.5; stroke-linejoin: miter"/>
   </g>
   <g id="patch_22">
    <path d="M 704.16 396.659531 
L 755.616 396.659531 
L 755.616 381.500719 
L 704.16 381.500719 
z
" clip-path="url(#pbf14df4396)" style="fill: #4caf50; opacity: 0.8"/>
   </g>
   <g id="patch_23">
    <path d="M 704.16 437.083031 
L 953.7216 437.083031 
L 953.7216 421.924219 
L 704.16 421.924219 
z
" clip-path="url(#pbf14df4396)" style="fill: #c62828; opacity: 0.8"/>
   </g>
   <g id="text_22">
    <!-- Think Max -->
    <g style="fill: #ffffff" transform="translate(804.72 88.190437) scale(0.12 -0.12)">
     <defs>
      <path id="STHeiti-4d" d="M 352 384 
L 1005 4979 
L 1075 4979 
L 2944 1210 
L 4800 4979 
L 4870 4979 
L 5530 384 
L 5075 384 
L 4627 3674 
L 3002 384 
L 2886 384 
L 1242 3699 
L 794 384 
L 352 384 
z
" transform="scale(0.015625)"/>
      <path id="STHeiti-78" d="M 1530 1805 
L 544 384 
L 26 384 
L 1267 2176 
L 147 3782 
L 672 3782 
L 1530 2554 
L 2381 3782 
L 2906 3782 
L 1792 2182 
L 3053 384 
L 2522 384 
L 1530 1805 
z
" transform="scale(0.015625)"/>
     </defs>
     <use xlink:href="#STHeiti-54"/>
     <use xlink:href="#STHeiti-68" transform="translate(42.599991 0)"/>
     <use xlink:href="#STHeiti-69" transform="translate(103.599976 0)"/>
     <use xlink:href="#STHeiti-6e" transform="translate(123.59996 0)"/>
     <use xlink:href="#STHeiti-6b" transform="translate(184.599945 0)"/>
     <use xlink:href="#STHeiti-20" transform="translate(234.799942 0)"/>
     <use xlink:href="#STHeiti-4d" transform="translate(259.799927 0)"/>
     <use xlink:href="#STHeiti-61" transform="translate(351.699921 0)"/>
     <use xlink:href="#STHeiti-78" transform="translate(419.999908 0)"/>
    </g>
    <!-- (精准模式) -->
    <g style="fill: #ffffff" transform="translate(804.37125 101.665687) scale(0.12 -0.12)">
     <defs>
      <path id="STHeiti-7cbe" d="M 1363 3123 
L 1363 4410 
Q 1363 4934 1325 5242 
Q 1562 5197 1770 5197 
Q 1978 5197 1978 5158 
Q 1978 5120 1898 5056 
Q 1818 4992 1818 4851 
L 1818 3123 
Q 2278 3123 2509 3149 
L 2509 2694 
Q 2259 2720 1818 2720 
L 1818 448 
Q 1818 -141 1869 -576 
L 1318 -576 
Q 1363 -198 1363 448 
L 1363 2022 
Q 1030 1139 595 480 
Q 448 755 256 966 
Q 864 1600 1274 2720 
Q 736 2720 410 2694 
L 410 3149 
Q 762 3123 1363 3123 
z
M 4512 3878 
Q 5280 3885 5690 3923 
L 5690 3462 
Q 5184 3507 4512 3507 
L 4512 3072 
Q 5600 3072 6080 3136 
L 6080 2624 
Q 5568 2688 4397 2688 
Q 3226 2688 2720 2624 
L 2720 3136 
Q 3098 3085 4026 3072 
L 4026 3507 
Q 3328 3501 2963 3462 
L 2963 3923 
Q 3341 3885 4026 3878 
L 4026 4275 
Q 3315 4256 2982 4211 
L 2982 4717 
Q 3366 4672 4026 4659 
Q 4026 5075 4006 5229 
Q 4250 5178 4538 5178 
Q 4614 5178 4614 5142 
Q 4614 5107 4563 5059 
Q 4512 5011 4512 4851 
L 4512 4653 
Q 5453 4653 5901 4717 
L 5901 4211 
Q 5453 4275 4512 4275 
L 4512 3878 
z
M 2278 4646 
Q 2547 4557 2803 4557 
Q 2848 4557 2848 4521 
Q 2848 4486 2797 4454 
Q 2707 4397 2400 3514 
Q 2253 3597 2010 3629 
Q 2234 4173 2278 4646 
z
M 1152 3654 
L 685 3526 
Q 621 4019 454 4461 
L 877 4582 
Q 998 4064 1152 3654 
z
M 3475 429 
L 3475 -531 
L 2970 -531 
Q 3008 -122 3008 384 
L 3008 1786 
Q 3008 2227 2989 2400 
Q 3258 2374 4323 2374 
Q 5389 2374 5638 2400 
Q 5626 2176 5626 1850 
L 5626 154 
Q 5626 -154 5581 -278 
Q 5536 -403 5382 -464 
Q 5229 -525 4819 -595 
Q 4768 -333 4576 -38 
Q 4794 -64 4922 -64 
Q 5050 -64 5091 0 
Q 5133 64 5133 269 
L 5133 429 
L 3475 429 
z
M 5133 1574 
L 5133 1984 
L 3475 1984 
L 3475 1574 
L 5133 1574 
z
M 3475 1197 
L 3475 806 
L 5133 806 
L 5133 1197 
L 3475 1197 
z
M 2746 1594 
L 2330 1306 
Q 2093 1754 1850 2112 
L 2202 2355 
Q 2438 1958 2746 1594 
z
" transform="scale(0.015625)"/>
     </defs>
     <use xlink:href="#STHeiti-28"/>
     <use xlink:href="#STHeiti-7cbe" transform="translate(36.899994 0)"/>
     <use xlink:href="#STHeiti-51c6" transform="translate(136.899979 0)"/>
     <use xlink:href="#STHeiti-6a21" transform="translate(236.899963 0)"/>
     <use xlink:href="#STHeiti-5f0f" transform="translate(336.899948 0)"/>
     <use xlink:href="#STHeiti-29" transform="translate(436.899933 0)"/>
    </g>
   </g>
   <g id="text_23">
    <!-- 输入 Prompt -->
    <g style="fill: #455a64" transform="translate(804.014844 162.616) scale(0.1 -0.1)">
     <use xlink:href="#STHeiti-8f93"/>
     <use xlink:href="#STHeiti-5165" transform="translate(99.999985 0)"/>
     <use xlink:href="#STHeiti-20" transform="translate(199.999969 0)"/>
     <use xlink:href="#STHeiti-50" transform="translate(224.999954 0)"/>
     <use xlink:href="#STHeiti-72" transform="translate(284.199951 0)"/>
     <use xlink:href="#STHeiti-6f" transform="translate(314.299942 0)"/>
     <use xlink:href="#STHeiti-6d" transform="translate(379.799927 0)"/>
     <use xlink:href="#STHeiti-70" transform="translate(473.599915 0)"/>
     <use xlink:href="#STHeiti-74" transform="translate(541.799896 0)"/>
    </g>
   </g>
   <g id="patch_24">
    <path d="M 832.8 183.908164 
Q 832.8 184.434641 832.8 183.284067 
" style="fill: none; stroke: #455a64; stroke-width: 1.5; stroke-linecap: round"/>
    <path d="M 834.8 179.284067 
L 832.8 183.284067 
L 830.8 179.284067 
" style="fill: none; stroke: #455a64; stroke-width: 1.5; stroke-linecap: round"/>
   </g>
   <g id="text_24">
    <!-- &lt;think&gt; -->
    <g style="fill: #c62828" transform="translate(818.908125 199.716) scale(0.08 -0.08)">
     <use xlink:href="#STHeiti-3c"/>
     <use xlink:href="#STHeiti-74" transform="translate(60.599991 0)"/>
     <use xlink:href="#STHeiti-68" transform="translate(94.499985 0)"/>
     <use xlink:href="#STHeiti-69" transform="translate(155.499969 0)"/>
     <use xlink:href="#STHeiti-6e" transform="translate(175.499954 0)"/>
     <use xlink:href="#STHeiti-6b" transform="translate(236.499939 0)"/>
     <use xlink:href="#STHeiti-3e" transform="translate(286.699936 0)"/>
    </g>
   </g>
   <g id="text_25">
    <!-- ... 推理步骤 ... -->
    <g style="fill: #c62828" transform="translate(808.15125 226.243922) scale(0.08 -0.08)">
     <use xlink:href="#STHeiti-2e"/>
     <use xlink:href="#STHeiti-2e" transform="translate(27.699997 0)"/>
     <use xlink:href="#STHeiti-2e" transform="translate(55.399994 0)"/>
     <use xlink:href="#STHeiti-20" transform="translate(83.099991 0)"/>
     <use xlink:href="#STHeiti-63a8" transform="translate(108.099976 0)"/>
     <use xlink:href="#STHeiti-7406" transform="translate(208.09996 0)"/>
     <use xlink:href="#STHeiti-6b65" transform="translate(308.099945 0)"/>
     <use xlink:href="#STHeiti-9aa4" transform="translate(408.09993 0)"/>
     <use xlink:href="#STHeiti-20" transform="translate(508.099915 0)"/>
     <use xlink:href="#STHeiti-2e" transform="translate(533.099899 0)"/>
     <use xlink:href="#STHeiti-2e" transform="translate(560.799896 0)"/>
     <use xlink:href="#STHeiti-2e" transform="translate(588.499893 0)"/>
    </g>
   </g>
   <g id="text_26">
    <!-- ~2048 tokens -->
    <g style="fill: #c62828" transform="translate(807.935 252.771844) scale(0.08 -0.08)">
     <defs>
      <path id="STHeiti-7e" d="M 3526 3002 
L 3526 2496 
Q 3187 2310 3036 2252 
Q 2886 2195 2739 2195 
Q 2438 2195 1990 2396 
Q 1542 2598 1404 2646 
Q 1267 2694 1142 2694 
Q 1018 2694 854 2630 
Q 691 2566 352 2368 
L 352 2867 
Q 678 3053 838 3110 
Q 998 3168 1146 3168 
Q 1440 3168 1987 2909 
Q 2534 2650 2752 2650 
Q 2970 2650 3526 3002 
z
" transform="scale(0.015625)"/>
      <path id="STHeiti-30" d="M 1747 269 
Q 1005 269 605 880 
Q 205 1491 205 2681 
Q 205 3872 605 4483 
Q 1005 5094 1741 5094 
Q 2477 5094 2909 4470 
Q 3341 3846 3341 2681 
Q 3341 1517 2905 893 
Q 2470 269 1747 269 
z
M 1760 4659 
Q 1229 4659 934 4147 
Q 640 3635 640 2669 
Q 640 685 1760 685 
Q 2304 685 2608 1206 
Q 2912 1728 2912 2681 
Q 2912 3635 2598 4147 
Q 2285 4659 1760 4659 
z
" transform="scale(0.015625)"/>
      <path id="STHeiti-34" d="M 2726 5094 
L 2816 5094 
L 2816 1894 
L 3373 1894 
L 3373 1453 
L 2816 1453 
L 2816 384 
L 2362 384 
L 2362 1453 
L 160 1453 
L 2726 5094 
z
M 2362 1894 
L 2362 3808 
L 1005 1894 
L 2362 1894 
z
" transform="scale(0.015625)"/>
      <path id="STHeiti-73" d="M 2195 3411 
L 1914 3123 
Q 1562 3462 1229 3462 
Q 1011 3462 864 3324 
Q 717 3187 717 2985 
Q 717 2784 873 2640 
Q 1030 2496 1414 2294 
Q 1798 2093 2000 1859 
Q 2202 1626 2202 1286 
Q 2202 858 1904 563 
Q 1606 269 1171 269 
Q 883 269 617 397 
Q 352 525 166 755 
L 442 1062 
Q 781 685 1152 685 
Q 1414 685 1600 857 
Q 1786 1030 1786 1264 
Q 1786 1498 1622 1648 
Q 1459 1798 1078 1990 
Q 698 2182 509 2409 
Q 320 2637 320 2998 
Q 320 3360 585 3616 
Q 851 3872 1289 3872 
Q 1728 3872 2195 3411 
z
" transform="scale(0.015625)"/>
     </defs>
     <use xlink:href="#STHeiti-7e"/>
     <use xlink:href="#STHeiti-32" transform="translate(60.599991 0)"/>
     <use xlink:href="#STHeiti-30" transform="translate(115.999985 0)"/>
     <use xlink:href="#STHeiti-34" transform="translate(171.399979 0)"/>
     <use xlink:href="#STHeiti-38" transform="translate(226.799973 0)"/>
     <use xlink:href="#STHeiti-20" transform="translate(282.199966 0)"/>
     <use xlink:href="#STHeiti-74" transform="translate(307.199951 0)"/>
     <use xlink:href="#STHeiti-6f" transform="translate(341.099945 0)"/>
     <use xlink:href="#STHeiti-6b" transform="translate(406.59993 0)"/>
     <use xlink:href="#STHeiti-65" transform="translate(456.799927 0)"/>
     <use xlink:href="#STHeiti-6e" transform="translate(521.799911 0)"/>
     <use xlink:href="#STHeiti-73" transform="translate(582.799896 0)"/>
    </g>
   </g>
   <g id="text_27">
    <!-- &lt;/think&gt; -->
    <g style="fill: #c62828" transform="translate(817.16 279.299766) scale(0.08 -0.08)">
     <defs>
      <path id="STHeiti-2f" d="M 2611 5094 
L 704 -243 
L 224 -243 
L 2131 5094 
L 2611 5094 
z
" transform="scale(0.015625)"/>
     </defs>
     <use xlink:href="#STHeiti-3c"/>
     <use xlink:href="#STHeiti-2f" transform="translate(60.599991 0)"/>
     <use xlink:href="#STHeiti-74" transform="translate(104.299988 0)"/>
     <use xlink:href="#STHeiti-68" transform="translate(138.199982 0)"/>
     <use xlink:href="#STHeiti-69" transform="translate(199.199966 0)"/>
     <use xlink:href="#STHeiti-6e" transform="translate(219.199951 0)"/>
     <use xlink:href="#STHeiti-6b" transform="translate(280.199936 0)"/>
     <use xlink:href="#STHeiti-3e" transform="translate(330.399933 0)"/>
    </g>
   </g>
   <g id="patch_25">
    <path d="M 832.8 300.125726 
Q 832.8 300.652203 832.8 299.501629 
" style="fill: none; stroke: #455a64; stroke-width: 1.5; stroke-linecap: round"/>
    <path d="M 834.8 295.501629 
L 832.8 299.501629 
L 830.8 295.501629 
" style="fill: none; stroke: #455a64; stroke-width: 1.5; stroke-linecap: round"/>
   </g>
   <g id="text_28">
    <!-- 输出答案 -->
    <g style="fill: #2e7d32" transform="translate(812.8 330.491016) scale(0.1 -0.1)">
     <use xlink:href="#STHeiti-8f93"/>
     <use xlink:href="#STHeiti-51fa" transform="translate(99.999985 0)"/>
     <use xlink:href="#STHeiti-7b54" transform="translate(199.999969 0)"/>
     <use xlink:href="#STHeiti-6848" transform="translate(299.999954 0)"/>
    </g>
   </g>
   <g id="text_29">
    <!-- 速度最慢 -->
    <g style="fill: #546e7a" transform="translate(814.8 368.868375) scale(0.09 -0.09)">
     <defs>
      <path id="STHeiti-6162" d="M 1088 5030 
Q 1165 5005 1638 5005 
Q 1722 5005 1722 4969 
Q 1722 4934 1686 4886 
Q 1651 4838 1625 4713 
Q 1600 4589 1600 4493 
L 1600 454 
Q 1600 -19 1651 -602 
L 1101 -602 
Q 1146 -83 1146 461 
L 1146 4109 
Q 1146 4621 1088 5030 
z
M 5446 3213 
Q 4794 3251 4029 3251 
Q 3264 3251 2605 3213 
Q 2643 3610 2643 4122 
Q 2643 4634 2605 4954 
Q 3104 4915 4032 4915 
Q 4960 4915 5446 4954 
Q 5414 4582 5414 4073 
Q 5414 3565 5446 3213 
z
M 4979 4243 
L 4979 4582 
L 3078 4582 
L 3078 4243 
L 4979 4243 
z
M 4979 3565 
L 4979 3910 
L 3078 3910 
L 3078 3565 
L 4979 3565 
z
M 2445 3219 
L 2029 3027 
Q 1901 3475 1715 3802 
L 2099 3974 
Q 2304 3552 2445 3219 
z
M 864 3629 
Q 845 2989 787 2125 
L 250 2150 
Q 384 2733 384 3290 
Q 384 3456 371 3648 
L 864 3629 
z
M 5914 1664 
Q 5178 1715 4077 1715 
Q 2976 1715 2253 1664 
Q 2278 1882 2278 2304 
Q 2278 2726 2253 2976 
Q 3130 2925 4157 2925 
Q 5184 2925 5914 2976 
Q 5888 2765 5888 2329 
Q 5888 1894 5914 1664 
z
M 3328 2029 
L 3328 2605 
L 2707 2605 
L 2707 2029 
L 3328 2029 
z
M 4333 2029 
L 4333 2605 
L 3699 2605 
L 3699 2029 
L 4333 2029 
z
M 5459 2029 
L 5459 2605 
L 4710 2605 
L 4710 2029 
L 5459 2029 
z
M 2848 973 
Q 2656 966 2451 941 
L 2451 1402 
Q 2803 1357 3945 1357 
Q 5088 1357 5574 1402 
Q 5203 800 4998 576 
Q 4794 352 4506 166 
Q 5075 -6 6048 -6 
Q 5882 -250 5824 -595 
Q 4858 -461 4051 -83 
Q 3245 -429 2374 -563 
Q 2323 -352 2118 -115 
Q 2861 -115 3616 141 
Q 3232 384 2848 973 
z
M 3309 979 
Q 3616 563 4077 314 
Q 4410 486 4781 979 
L 3309 979 
z
" transform="scale(0.015625)"/>
     </defs>
     <use xlink:href="#STHeiti-901f"/>
     <use xlink:href="#STHeiti-5ea6" transform="translate(99.999985 0)"/>
     <use xlink:href="#STHeiti-6700" transform="translate(199.999969 0)"/>
     <use xlink:href="#STHeiti-6162" transform="translate(299.999954 0)"/>
    </g>
   </g>
   <g id="text_30">
    <!-- 20% -->
    <g style="fill: #2e7d32" transform="translate(759.636 391.727625) scale(0.08 -0.08)">
     <use xlink:href="#STHeiti-32"/>
     <use xlink:href="#STHeiti-30" transform="translate(55.399994 0)"/>
     <use xlink:href="#STHeiti-25" transform="translate(110.799988 0)"/>
    </g>
   </g>
   <g id="text_31">
    <!-- 准确率: 最高 -->
    <g style="fill: #546e7a" transform="translate(807.928359 409.291875) scale(0.09 -0.09)">
     <use xlink:href="#STHeiti-51c6"/>
     <use xlink:href="#STHeiti-786e" transform="translate(99.999985 0)"/>
     <use xlink:href="#STHeiti-7387" transform="translate(199.999969 0)"/>
     <use xlink:href="#STHeiti-3a" transform="translate(299.999954 0)"/>
     <use xlink:href="#STHeiti-20" transform="translate(327.699951 0)"/>
     <use xlink:href="#STHeiti-6700" transform="translate(352.699936 0)"/>
     <use xlink:href="#STHeiti-9ad8" transform="translate(452.699921 0)"/>
    </g>
   </g>
   <g id="text_32">
    <!-- 97% -->
    <g style="fill: #c62828" transform="translate(957.7416 432.151125) scale(0.08 -0.08)">
     <use xlink:href="#STHeiti-39"/>
     <use xlink:href="#STHeiti-37" transform="translate(55.399994 0)"/>
     <use xlink:href="#STHeiti-25" transform="translate(110.799988 0)"/>
    </g>
   </g>
   <g id="text_33">
    <!-- 速度 -->
    <g style="fill: #888888" transform="translate(821.82 383.98275) scale(0.075 -0.075)">
     <use xlink:href="#STHeiti-901f"/>
     <use xlink:href="#STHeiti-5ea6" transform="translate(99.999985 0)"/>
    </g>
   </g>
   <g id="text_34">
    <!-- 准确率 -->
    <g style="fill: #888888" transform="translate(814.32 424.44375) scale(0.075 -0.075)">
     <use xlink:href="#STHeiti-51c6"/>
     <use xlink:href="#STHeiti-786e" transform="translate(99.999985 0)"/>
     <use xlink:href="#STHeiti-7387" transform="translate(199.999969 0)"/>
    </g>
   </g>
  </g>
  <g id="text_35">
   <!-- 三档推理努力模式对比 -->
   <g transform="translate(420.4 19.935) scale(0.16 -0.16)">
    <defs>
     <path id="STHeiti-4e09" d="M 5427 3936 
Q 4678 4000 3212 4000 
Q 1747 4000 998 3936 
L 998 4576 
Q 1754 4512 3216 4512 
Q 4678 4512 5427 4576 
L 5427 3936 
z
M 5011 2061 
Q 4397 2125 3187 2125 
Q 1978 2125 1363 2061 
L 1363 2701 
Q 1990 2637 3193 2637 
Q 4397 2637 5011 2701 
L 5011 2061 
z
M 5901 -26 
Q 4992 38 3219 38 
Q 1446 38 538 -26 
L 538 614 
Q 1453 550 3222 550 
Q 4992 550 5901 614 
L 5901 -26 
z
" transform="scale(0.015625)"/>
     <path id="STHeiti-6863" d="M 1216 2400 
Q 986 1702 557 1043 
Q 442 1350 230 1574 
Q 813 2144 1210 3392 
Q 813 3386 422 3341 
L 422 3859 
Q 730 3814 1216 3808 
Q 1216 4832 1165 5171 
Q 1331 5146 1504 5146 
L 1792 5158 
Q 1869 5158 1869 5113 
Q 1869 5069 1798 4985 
Q 1728 4902 1728 4403 
L 1728 3808 
Q 2022 3814 2349 3859 
L 2349 3341 
Q 2080 3379 1728 3386 
L 1728 621 
Q 1728 6 1773 -582 
L 1158 -582 
Q 1216 51 1216 621 
L 1216 2400 
z
M 4410 2880 
Q 5478 2886 5818 2950 
Q 5798 2611 5798 2042 
L 5798 384 
Q 5798 -173 5824 -614 
L 5274 -614 
L 5274 -192 
L 3462 -192 
Q 2861 -192 2515 -237 
L 2515 294 
Q 2861 250 3462 250 
L 5274 250 
L 5274 1178 
L 3725 1178 
Q 3200 1178 2778 1146 
L 2778 1645 
Q 3200 1613 3725 1613 
L 5274 1613 
L 5274 2470 
L 3309 2470 
Q 2880 2470 2611 2426 
L 2611 2931 
Q 3046 2886 3917 2880 
L 3917 4077 
Q 3917 4691 3878 5139 
Q 4090 5101 4518 5101 
Q 4589 5101 4589 5072 
Q 4589 5043 4537 5001 
Q 4486 4960 4448 4829 
Q 4410 4698 4410 4531 
L 4410 2880 
z
M 5331 4787 
Q 5485 4691 5657 4608 
Q 5830 4525 5875 4518 
Q 5920 4512 5920 4486 
Q 5920 4461 5850 4416 
Q 5709 4307 5242 3283 
L 4787 3418 
Q 5114 3955 5331 4787 
z
M 3571 3437 
L 3053 3283 
Q 2854 4096 2662 4467 
L 3155 4621 
Q 3328 4019 3571 3437 
z
M 2694 1997 
L 2310 1677 
Q 2131 2054 1792 2515 
L 2138 2765 
Q 2445 2374 2694 1997 
z
" transform="scale(0.015625)"/>
     <path id="STHeiti-52aa" d="M 1382 4442 
Q 1510 4838 1568 5222 
Q 1958 5120 2189 5114 
Q 2304 5107 2304 5072 
Q 2304 5037 2221 4973 
Q 2138 4909 1914 4442 
Q 2918 4442 3245 4486 
Q 3117 3910 2976 3606 
Q 2835 3302 2573 2957 
Q 2912 2778 3078 2694 
Q 2906 2458 2784 2259 
Q 2509 2445 2253 2592 
Q 1779 2157 902 1792 
Q 710 2010 435 2208 
Q 1171 2349 1830 2816 
Q 1453 3008 883 3238 
Q 1101 3667 1235 4019 
Q 800 4013 557 3974 
L 557 4486 
Q 800 4448 1382 4442 
z
M 1715 4019 
Q 1594 3750 1485 3475 
Q 1747 3366 2189 3155 
Q 2483 3501 2605 4019 
L 1715 4019 
z
M 4819 2918 
Q 5248 2618 6099 2534 
Q 5901 2214 5811 1907 
Q 4870 2227 4461 2611 
Q 4102 2342 3539 2118 
Q 3405 2342 3155 2502 
Q 3808 2701 4147 2938 
Q 3904 3200 3616 3789 
L 4070 3930 
Q 4237 3386 4474 3187 
Q 4909 3642 5101 4179 
Q 3770 4179 3501 4134 
L 3501 4672 
Q 3821 4627 4611 4627 
Q 5402 4627 5830 4672 
Q 5536 3629 4819 2918 
z
M 3181 1126 
Q 3014 442 2553 93 
Q 2093 -256 1069 -576 
Q 954 -333 678 -51 
Q 1568 77 2051 355 
Q 2534 634 2688 1126 
Q 1549 1126 947 1075 
L 947 1613 
Q 1485 1562 2778 1555 
Q 2797 1741 2810 2144 
Q 3162 2061 3430 2042 
Q 3501 2035 3501 2006 
Q 3501 1978 3443 1939 
Q 3386 1901 3296 1555 
Q 4736 1555 5280 1613 
L 5056 -102 
Q 5030 -294 4960 -380 
Q 4890 -467 4662 -518 
Q 4435 -570 3885 -621 
Q 3827 -314 3642 -19 
Q 3917 -51 4118 -51 
Q 4320 -51 4432 3 
Q 4544 58 4563 230 
L 4678 1126 
L 3181 1126 
z
" transform="scale(0.015625)"/>
     <path id="STHeiti-529b" d="M 3270 3386 
Q 3066 1760 2554 989 
Q 2042 218 947 -499 
Q 678 -230 378 -109 
Q 1453 358 2032 1248 
Q 2611 2138 2682 3386 
Q 1248 3386 781 3328 
L 781 3923 
Q 1203 3872 2714 3866 
Q 2797 5082 2778 5267 
Q 3104 5139 3507 5114 
Q 3610 5107 3610 5062 
Q 3610 5018 3533 4966 
Q 3482 4928 3443 4742 
Q 3405 4557 3328 3866 
Q 5395 3866 5715 3923 
L 5389 582 
Q 5350 198 5241 6 
Q 5133 -186 4848 -304 
Q 4563 -422 3936 -538 
Q 3853 -122 3661 141 
Q 4154 134 4387 185 
Q 4621 237 4713 381 
Q 4806 525 4838 832 
L 5094 3386 
L 3270 3386 
z
" transform="scale(0.015625)"/>
     <path id="STHeiti-5bf9" d="M 5338 3846 
Q 5894 3846 6125 3891 
L 6125 3341 
Q 5734 3379 5338 3379 
L 5338 38 
Q 5338 -294 5066 -432 
Q 4794 -570 4237 -602 
Q 4166 -294 3981 26 
Q 4160 13 4352 13 
Q 4544 13 4665 61 
Q 4787 109 4787 275 
L 4787 3379 
L 3878 3379 
Q 3373 3379 3040 3347 
L 3040 3891 
Q 3322 3846 3878 3846 
L 4787 3846 
Q 4787 5030 4762 5254 
Q 5056 5190 5414 5190 
Q 5517 5190 5517 5152 
Q 5517 5114 5453 5072 
Q 5389 5030 5363 4995 
Q 5338 4960 5338 4877 
L 5338 3846 
z
M 1965 1203 
Q 1434 250 768 -339 
Q 576 -90 262 64 
Q 1133 704 1638 1747 
Q 1069 2662 749 2957 
L 1178 3238 
Q 1485 2848 1882 2310 
Q 2157 3053 2278 3968 
L 1210 3968 
Q 806 3968 467 3942 
L 467 4467 
Q 826 4429 1648 4429 
Q 2470 4429 2938 4467 
Q 2765 3085 2240 1792 
Q 2829 922 3040 390 
L 2509 96 
Q 2336 563 1965 1203 
z
M 3283 2470 
L 3757 2669 
Q 4045 2131 4262 1427 
L 3757 1229 
Q 3590 1888 3283 2470 
z
" transform="scale(0.015625)"/>
     <path id="STHeiti-6bd4" d="M 4000 2291 
L 4000 467 
Q 4000 314 4041 253 
Q 4083 192 4217 173 
Q 4352 154 4681 154 
Q 5011 154 5142 205 
Q 5274 256 5354 438 
Q 5434 621 5555 1107 
Q 5773 826 6144 717 
Q 5971 198 5811 -22 
Q 5651 -243 5382 -316 
Q 5114 -390 4570 -390 
Q 4026 -390 3808 -329 
Q 3590 -269 3526 -99 
Q 3462 70 3462 461 
L 3462 4301 
Q 3462 4934 3424 5222 
Q 3712 5171 3869 5177 
Q 4026 5184 4096 5184 
Q 4166 5184 4166 5155 
Q 4166 5126 4105 5036 
Q 4045 4947 4022 4828 
Q 4000 4710 4000 4499 
L 4000 2842 
Q 4864 3386 5421 3936 
Q 5632 3610 5888 3443 
Q 5939 3411 5939 3379 
Q 5939 3347 5830 3318 
Q 5722 3290 5190 2998 
Q 4659 2707 4000 2291 
z
M 1485 2835 
L 1485 346 
L 2938 1286 
Q 2925 1203 2925 1114 
Q 2925 864 3034 691 
L 1715 -122 
Q 1344 -346 1139 -538 
Q 960 -192 749 -13 
Q 851 58 896 147 
Q 941 237 941 506 
L 941 3949 
Q 941 4768 915 5011 
Q 1126 4979 1286 4979 
L 1549 4979 
Q 1613 4979 1613 4950 
Q 1613 4922 1581 4870 
Q 1485 4730 1485 4224 
L 1485 3309 
Q 2368 3309 2970 3347 
L 2970 2790 
Q 2381 2829 1485 2835 
z
" transform="scale(0.015625)"/>
    </defs>
    <use xlink:href="#STHeiti-4e09"/>
    <use xlink:href="#STHeiti-6863" transform="translate(99.999985 0)"/>
    <use xlink:href="#STHeiti-63a8" transform="translate(199.999969 0)"/>
    <use xlink:href="#STHeiti-7406" transform="translate(299.999954 0)"/>
    <use xlink:href="#STHeiti-52aa" transform="translate(399.999939 0)"/>
    <use xlink:href="#STHeiti-529b" transform="translate(499.999924 0)"/>
    <use xlink:href="#STHeiti-6a21" transform="translate(599.999908 0)"/>
    <use xlink:href="#STHeiti-5f0f" transform="translate(699.999893 0)"/>
    <use xlink:href="#STHeiti-5bf9" transform="translate(799.999878 0)"/>
    <use xlink:href="#STHeiti-6bd4" transform="translate(899.999863 0)"/>
   </g>
  </g>
 </g>
 <defs>
  <clipPath id="p49888e520c">
   <rect x="7.2" y="55.58625" width="321.6" height="505.29375"/>
  </clipPath>
  <clipPath id="p762412ea46">
   <rect x="339.6" y="55.58625" width="321.6" height="505.29375"/>
  </clipPath>
  <clipPath id="pbf14df4396">
   <rect x="672" y="55.58625" width="321.6" height="505.29375"/>
  </clipPath>
 </defs>
</svg>
