<?xml version="1.0" encoding="utf-8"?>
<svg xmlns="http://www.w3.org/2000/svg" viewBox="0 0 900 480" width="900" height="480">
  <defs>
    <style>
      text { font-family: 'PingFang SC', 'Noto Sans CJK SC', 'Microsoft YaHei', sans-serif; }
    </style>
    <!-- Gradient for attention heatmap (sharp diagonal) -->
    <linearGradient id="attn-diag" x1="0" y1="0" x2="1" y2="1">
      <stop offset="0%" stop-color="#EF4444"/>
      <stop offset="40%" stop-color="#FEF2F2"/>
      <stop offset="100%" stop-color="#FEF2F2"/>
    </linearGradient>
    <!-- Color scale -->
    <linearGradient id="scale-grad" x1="0" y1="0" x2="1" y2="0">
      <stop offset="0%" stop-color="#F8FAFC"/>
      <stop offset="50%" stop-color="#93C5FD"/>
      <stop offset="100%" stop-color="#EF4444"/>
    </linearGradient>
  </defs>

  <!-- Background -->
  <rect width="900" height="480" fill="#F8FAFC"/>

  <!-- Title -->
  <text x="450" y="30" text-anchor="middle" font-size="16" font-weight="bold" fill="#1E293B">全局混合权重可视化对比</text>
  <text x="450" y="50" text-anchor="middle" font-size="12" fill="#64748B">不同架构的特征混合模式——权重矩阵 G 的热力图</text>

  <!-- ===== Panel A: Attention ===== -->
  <rect x="30" y="65" width="250" height="340" rx="10" fill="#fff" stroke="#E2E8F0" stroke-width="1.5"/>
  <text x="155" y="88" text-anchor="middle" font-size="13" font-weight="bold" fill="#EF4444">(a) Attention 机制</text>
  <text x="155" y="104" text-anchor="middle" font-size="11" fill="#64748B">动态 Q/K 内积权重</text>

  <!-- 8x8 attention heatmap: sharp diagonal pattern -->
  <!-- Row 0 -->
  <rect x="55" y="115" width="30" height="30" fill="#EF4444"/><rect x="85" y="115" width="30" height="30" fill="#FEE2E2"/><rect x="115" y="115" width="30" height="30" fill="#FEF2F2"/><rect x="145" y="115" width="30" height="30" fill="#FEF2F2"/><rect x="175" y="115" width="30" height="30" fill="#FEF2F2"/><rect x="205" y="115" width="30" height="30" fill="#FEF2F2"/><rect x="235" y="115" width="30" height="30" fill="#FEF2F2"/><rect x="265" y="115" width="30" height="30" fill="#FEF2F2"/>
  <!-- Row 1 -->
  <rect x="55" y="145" width="30" height="30" fill="#FEE2E2"/><rect x="85" y="145" width="30" height="30" fill="#EF4444"/><rect x="115" y="145" width="30" height="30" fill="#FEE2E2"/><rect x="145" y="145" width="30" height="30" fill="#FEF2F2"/><rect x="175" y="145" width="30" height="30" fill="#FEF2F2"/><rect x="205" y="145" width="30" height="30" fill="#FEF2F2"/><rect x="235" y="145" width="30" height="30" fill="#FEF2F2"/><rect x="265" y="145" width="30" height="30" fill="#FEF2F2"/>
  <!-- Row 2 -->
  <rect x="55" y="175" width="30" height="30" fill="#FEF2F2"/><rect x="85" y="175" width="30" height="30" fill="#FEE2E2"/><rect x="115" y="175" width="30" height="30" fill="#EF4444"/><rect x="145" y="175" width="30" height="30" fill="#FEE2E2"/><rect x="175" y="175" width="30" height="30" fill="#FEF2F2"/><rect x="205" y="175" width="30" height="30" fill="#FEF2F2"/><rect x="235" y="175" width="30" height="30" fill="#FEF2F2"/><rect x="265" y="175" width="30" height="30" fill="#FEF2F2"/>
  <!-- Row 3 -->
  <rect x="55" y="205" width="30" height="30" fill="#FEF2F2"/><rect x="85" y="205" width="30" height="30" fill="#FEF2F2"/><rect x="115" y="205" width="30" height="30" fill="#FEE2E2"/><rect x="145" y="205" width="30" height="30" fill="#EF4444"/><rect x="175" y="205" width="30" height="30" fill="#FEE2E2"/><rect x="205" y="205" width="30" height="30" fill="#FEF2F2"/><rect x="235" y="205" width="30" height="30" fill="#FEF2F2"/><rect x="265" y="205" width="30" height="30" fill="#FEF2F2"/>
  <!-- Row 4 -->
  <rect x="55" y="235" width="30" height="30" fill="#FEF2F2"/><rect x="85" y="235" width="30" height="30" fill="#FEF2F2"/><rect x="115" y="235" width="30" height="30" fill="#FEF2F2"/><rect x="145" y="235" width="30" height="30" fill="#FEE2E2"/><rect x="175" y="235" width="30" height="30" fill="#EF4444"/><rect x="205" y="235" width="30" height="30" fill="#FEE2E2"/><rect x="235" y="235" width="30" height="30" fill="#FEF2F2"/><rect x="265" y="235" width="30" height="30" fill="#FEF2F2"/>
  <!-- Row 5 -->
  <rect x="55" y="265" width="30" height="30" fill="#FEF2F2"/><rect x="85" y="265" width="30" height="30" fill="#FEF2F2"/><rect x="115" y="265" width="30" height="30" fill="#FEF2F2"/><rect x="145" y="265" width="30" height="30" fill="#FEF2F2"/><rect x="175" y="265" width="30" height="30" fill="#FEE2E2"/><rect x="205" y="265" width="30" height="30" fill="#EF4444"/><rect x="235" y="265" width="30" height="30" fill="#FEE2E2"/><rect x="265" y="265" width="30" height="30" fill="#FEF2F2"/>
  <!-- Row 6 -->
  <rect x="55" y="295" width="30" height="30" fill="#FEF2F2"/><rect x="85" y="295" width="30" height="30" fill="#FEF2F2"/><rect x="115" y="295" width="30" height="30" fill="#FEF2F2"/><rect x="145" y="295" width="30" height="30" fill="#FEF2F2"/><rect x="175" y="295" width="30" height="30" fill="#FEF2F2"/><rect x="235" y="295" width="30" height="30" fill="#FEE2E2"/><rect x="205" y="295" width="30" height="30" fill="#FEE2E2"/><rect x="265" y="295" width="30" height="30" fill="#EF4444"/>
  <!-- Row 7 -->
  <rect x="55" y="325" width="30" height="30" fill="#FEF2F2"/><rect x="85" y="325" width="30" height="30" fill="#FEF2F2"/><rect x="115" y="325" width="30" height="30" fill="#FEF2F2"/><rect x="145" y="325" width="30" height="30" fill="#FEF2F2"/><rect x="175" y="325" width="30" height="30" fill="#FEF2F2"/><rect x="205" y="325" width="30" height="30" fill="#FEF2F2"/><rect x="235" y="325" width="30" height="30" fill="#EF4444"/><rect x="265" y="325" width="30" height="30" fill="#FEE2E2"/>

  <!-- Grid overlay for attention -->
  <rect x="55" y="115" width="240" height="240" fill="none" stroke="#E2E8F0" stroke-width="0.5"/>
  <!-- Axis labels -->
  <text x="175" y="370" text-anchor="middle" font-size="10" fill="#64748B">Token 索引 (Key)</text>
  <text x="42" y="235" text-anchor="middle" font-size="10" fill="#64748B" transform="rotate(-90, 42, 235)">Token 索引 (Query)</text>

  <!-- Description -->
  <rect x="45" y="378" width="220" height="20" rx="4" fill="#FEE2E2"/>
  <text x="155" y="392" text-anchor="middle" font-size="11" fill="#EF4444">尖锐稀疏 — 梯度受阻</text>
  <text x="155" y="412" text-anchor="middle" font-size="10" fill="#64748B">动态权重, O(L²) 计算</text>
  <text x="155" y="428" text-anchor="middle" font-size="10" fill="#64748B">异构场景注意力坍塌</text>

  <!-- ===== Panel B: TokenMixer ===== -->
  <rect x="320" y="65" width="250" height="340" rx="10" fill="#fff" stroke="#E2E8F0" stroke-width="1.5"/>
  <text x="445" y="88" text-anchor="middle" font-size="13" font-weight="bold" fill="#7C3AED">(b) TokenMixer</text>
  <text x="445" y="104" text-anchor="middle" font-size="11" fill="#64748B">固定排列矩阵 (Split &amp; Concat)</text>

  <!-- 8x8 TokenMixer heatmap: permutation matrix pattern -->
  <!-- Each row has exactly one "1" in a permuted position: 0→4,1→5,2→6,3→7,4→0,5→1,6→2,7→3 -->
  <rect x="345" y="115" width="30" height="30" fill="#F8FAFC"/><rect x="375" y="115" width="30" height="30" fill="#F8FAFC"/><rect x="405" y="115" width="30" height="30" fill="#F8FAFC"/><rect x="435" y="115" width="30" height="30" fill="#F8FAFC"/><rect x="465" y="115" width="30" height="30" fill="#7C3AED"/><rect x="495" y="115" width="30" height="30" fill="#F8FAFC"/><rect x="525" y="115" width="30" height="30" fill="#F8FAFC"/><rect x="555" y="115" width="30" height="30" fill="#F8FAFC"/>

  <rect x="345" y="145" width="30" height="30" fill="#F8FAFC"/><rect x="375" y="145" width="30" height="30" fill="#F8FAFC"/><rect x="405" y="145" width="30" height="30" fill="#F8FAFC"/><rect x="435" y="145" width="30" height="30" fill="#F8FAFC"/><rect x="465" y="145" width="30" height="30" fill="#F8FAFC"/><rect x="495" y="145" width="30" height="30" fill="#7C3AED"/><rect x="525" y="145" width="30" height="30" fill="#F8FAFC"/><rect x="555" y="145" width="30" height="30" fill="#F8FAFC"/>

  <rect x="345" y="175" width="30" height="30" fill="#F8FAFC"/><rect x="375" y="175" width="30" height="30" fill="#F8FAFC"/><rect x="405" y="175" width="30" height="30" fill="#F8FAFC"/><rect x="435" y="175" width="30" height="30" fill="#F8FAFC"/><rect x="465" y="175" width="30" height="30" fill="#F8FAFC"/><rect x="495" y="175" width="30" height="30" fill="#F8FAFC"/><rect x="525" y="175" width="30" height="30" fill="#7C3AED"/><rect x="555" y="175" width="30" height="30" fill="#F8FAFC"/>

  <rect x="345" y="205" width="30" height="30" fill="#F8FAFC"/><rect x="375" y="205" width="30" height="30" fill="#F8FAFC"/><rect x="405" y="205" width="30" height="30" fill="#F8FAFC"/><rect x="435" y="205" width="30" height="30" fill="#F8FAFC"/><rect x="465" y="205" width="30" height="30" fill="#F8FAFC"/><rect x="495" y="205" width="30" height="30" fill="#F8FAFC"/><rect x="525" y="205" width="30" height="30" fill="#F8FAFC"/><rect x="555" y="205" width="30" height="30" fill="#7C3AED"/>

  <rect x="345" y="235" width="30" height="30" fill="#7C3AED"/><rect x="375" y="235" width="30" height="30" fill="#F8FAFC"/><rect x="405" y="235" width="30" height="30" fill="#F8FAFC"/><rect x="435" y="235" width="30" height="30" fill="#F8FAFC"/><rect x="465" y="235" width="30" height="30" fill="#F8FAFC"/><rect x="495" y="235" width="30" height="30" fill="#F8FAFC"/><rect x="525" y="235" width="30" height="30" fill="#F8FAFC"/><rect x="555" y="235" width="30" height="30" fill="#F8FAFC"/>

  <rect x="345" y="265" width="30" height="30" fill="#F8FAFC"/><rect x="375" y="265" width="30" height="30" fill="#7C3AED"/><rect x="405" y="265" width="30" height="30" fill="#F8FAFC"/><rect x="435" y="265" width="30" height="30" fill="#F8FAFC"/><rect x="465" y="265" width="30" height="30" fill="#F8FAFC"/><rect x="495" y="265" width="30" height="30" fill="#F8FAFC"/><rect x="525" y="265" width="30" height="30" fill="#F8FAFC"/><rect x="555" y="265" width="30" height="30" fill="#F8FAFC"/>

  <rect x="345" y="295" width="30" height="30" fill="#F8FAFC"/><rect x="375" y="295" width="30" height="30" fill="#F8FAFC"/><rect x="405" y="295" width="30" height="30" fill="#7C3AED"/><rect x="435" y="295" width="30" height="30" fill="#F8FAFC"/><rect x="465" y="295" width="30" height="30" fill="#F8FAFC"/><rect x="495" y="295" width="30" height="30" fill="#F8FAFC"/><rect x="525" y="295" width="30" height="30" fill="#F8FAFC"/><rect x="555" y="295" width="30" height="30" fill="#F8FAFC"/>

  <rect x="345" y="325" width="30" height="30" fill="#F8FAFC"/><rect x="375" y="325" width="30" height="30" fill="#F8FAFC"/><rect x="405" y="325" width="30" height="30" fill="#F8FAFC"/><rect x="435" y="325" width="30" height="30" fill="#7C3AED"/><rect x="465" y="325" width="30" height="30" fill="#F8FAFC"/><rect x="495" y="325" width="30" height="30" fill="#F8FAFC"/><rect x="525" y="325" width="30" height="30" fill="#F8FAFC"/><rect x="555" y="325" width="30" height="30" fill="#F8FAFC"/>

  <!-- Grid overlay for tokenmixer -->
  <rect x="345" y="115" width="240" height="240" fill="none" stroke="#E2E8F0" stroke-width="0.5"/>
  <text x="465" y="370" text-anchor="middle" font-size="10" fill="#64748B">Token 索引 (Key)</text>
  <text x="332" y="235" text-anchor="middle" font-size="10" fill="#64748B" transform="rotate(-90, 332, 235)">Token 索引 (Query)</text>

  <rect x="335" y="378" width="220" height="20" rx="4" fill="#EDE9FE"/>
  <text x="445" y="392" text-anchor="middle" font-size="11" fill="#7C3AED">稀疏固定 — 缺乏可学习性</text>
  <text x="445" y="412" text-anchor="middle" font-size="10" fill="#64748B">W^perm = G ⊗ I (排列矩阵)</text>
  <text x="445" y="428" text-anchor="middle" font-size="10" fill="#64748B">强制要求 T=H 约束</text>

  <!-- ===== Panel C: UniMixer ===== -->
  <rect x="610" y="65" width="270" height="340" rx="10" fill="#fff" stroke="#E2E8F0" stroke-width="1.5"/>
  <text x="745" y="88" text-anchor="middle" font-size="13" font-weight="bold" fill="#2563EB">(c) UniMixer</text>
  <text x="745" y="104" text-anchor="middle" font-size="11" fill="#64748B">可学习均匀分散权重</text>

  <!-- 8x8 UniMixer heatmap: uniform, diffuse pattern -->
  <!-- All cells have moderate uniform-ish values with slight variation -->
  <rect x="635" y="115" width="30" height="30" fill="#60A5FA"/><rect x="665" y="115" width="30" height="30" fill="#93C5FD"/><rect x="695" y="115" width="30" height="30" fill="#BFDBFE"/><rect x="725" y="115" width="30" height="30" fill="#93C5FD"/><rect x="755" y="115" width="30" height="30" fill="#60A5FA"/><rect x="785" y="115" width="30" height="30" fill="#93C5FD"/><rect x="815" y="115" width="30" height="30" fill="#BFDBFE"/><rect x="845" y="115" width="30" height="30" fill="#93C5FD"/>

  <rect x="635" y="145" width="30" height="30" fill="#93C5FD"/><rect x="665" y="145" width="30" height="30" fill="#60A5FA"/><rect x="695" y="145" width="30" height="30" fill="#93C5FD"/><rect x="725" y="145" width="30" height="30" fill="#BFDBFE"/><rect x="755" y="145" width="30" height="30" fill="#93C5FD"/><rect x="785" y="145" width="30" height="30" fill="#60A5FA"/><rect x="815" y="145" width="30" height="30" fill="#93C5FD"/><rect x="845" y="145" width="30" height="30" fill="#BFDBFE"/>

  <rect x="635" y="175" width="30" height="30" fill="#BFDBFE"/><rect x="665" y="175" width="30" height="30" fill="#93C5FD"/><rect x="695" y="175" width="30" height="30" fill="#60A5FA"/><rect x="725" y="175" width="30" height="30" fill="#93C5FD"/><rect x="755" y="175" width="30" height="30" fill="#BFDBFE"/><rect x="785" y="175" width="30" height="30" fill="#93C5FD"/><rect x="815" y="175" width="30" height="30" fill="#60A5FA"/><rect x="845" y="175" width="30" height="30" fill="#93C5FD"/>

  <rect x="635" y="205" width="30" height="30" fill="#93C5FD"/><rect x="665" y="205" width="30" height="30" fill="#BFDBFE"/><rect x="695" y="205" width="30" height="30" fill="#93C5FD"/><rect x="725" y="205" width="30" height="30" fill="#60A5FA"/><rect x="755" y="205" width="30" height="30" fill="#93C5FD"/><rect x="785" y="205" width="30" height="30" fill="#BFDBFE"/><rect x="815" y="205" width="30" height="30" fill="#93C5FD"/><rect x="845" y="205" width="30" height="30" fill="#60A5FA"/>

  <rect x="635" y="235" width="30" height="30" fill="#60A5FA"/><rect x="665" y="235" width="30" height="30" fill="#93C5FD"/><rect x="695" y="235" width="30" height="30" fill="#BFDBFE"/><rect x="725" y="235" width="30" height="30" fill="#93C5FD"/><rect x="755" y="235" width="30" height="30" fill="#3B82F6"/><rect x="785" y="235" width="30" height="30" fill="#93C5FD"/><rect x="815" y="235" width="30" height="30" fill="#BFDBFE"/><rect x="845" y="235" width="30" height="30" fill="#93C5FD"/>

  <rect x="635" y="265" width="30" height="30" fill="#93C5FD"/><rect x="665" y="265" width="30" height="30" fill="#60A5FA"/><rect x="695" y="265" width="30" height="30" fill="#93C5FD"/><rect x="725" y="265" width="30" height="30" fill="#BFDBFE"/><rect x="755" y="265" width="30" height="30" fill="#93C5FD"/><rect x="785" y="265" width="30" height="30" fill="#3B82F6"/><rect x="815" y="265" width="30" height="30" fill="#93C5FD"/><rect x="845" y="265" width="30" height="30" fill="#BFDBFE"/>

  <rect x="635" y="295" width="30" height="30" fill="#BFDBFE"/><rect x="665" y="295" width="30" height="30" fill="#93C5FD"/><rect x="695" y="295" width="30" height="30" fill="#60A5FA"/><rect x="725" y="295" width="30" height="30" fill="#93C5FD"/><rect x="755" y="295" width="30" height="30" fill="#BFDBFE"/><rect x="785" y="295" width="30" height="30" fill="#93C5FD"/><rect x="815" y="295" width="30" height="30" fill="#3B82F6"/><rect x="845" y="295" width="30" height="30" fill="#93C5FD"/>

  <rect x="635" y="325" width="30" height="30" fill="#93C5FD"/><rect x="665" y="325" width="30" height="30" fill="#BFDBFE"/><rect x="695" y="325" width="30" height="30" fill="#93C5FD"/><rect x="725" y="325" width="30" height="30" fill="#60A5FA"/><rect x="755" y="325" width="30" height="30" fill="#93C5FD"/><rect x="785" y="325" width="30" height="30" fill="#BFDBFE"/><rect x="815" y="325" width="30" height="30" fill="#93C5FD"/><rect x="845" y="325" width="30" height="30" fill="#3B82F6"/>

  <!-- Grid overlay for unimixer -->
  <rect x="635" y="115" width="240" height="240" fill="none" stroke="#E2E8F0" stroke-width="0.5"/>
  <text x="755" y="370" text-anchor="middle" font-size="10" fill="#64748B">Token 索引 (Key)</text>
  <text x="622" y="235" text-anchor="middle" font-size="10" fill="#64748B" transform="rotate(-90, 622, 235)">Token 索引 (Query)</text>

  <rect x="625" y="378" width="240" height="20" rx="4" fill="#DBEAFE"/>
  <text x="745" y="392" text-anchor="middle" font-size="11" fill="#2563EB">均匀分散 — 最优混合模式</text>
  <text x="745" y="412" text-anchor="middle" font-size="10" fill="#64748B">端到端可学习参数 W_G</text>
  <text x="745" y="428" text-anchor="middle" font-size="10" fill="#64748B">双随机约束保证稀疏性</text>

  <!-- ===== Color Scale Legend ===== -->
  <text x="450" y="458" text-anchor="middle" font-size="11" fill="#64748B">权重强度</text>
  <rect x="350" y="463" width="200" height="12" rx="4" fill="url(#scale-grad)" stroke="#E2E8F0" stroke-width="1"/>
  <text x="350" y="476" text-anchor="middle" font-size="10" fill="#64748B">0</text>
  <text x="550" y="476" text-anchor="middle" font-size="10" fill="#64748B">1</text>

  <!-- Key insight box -->
  <rect x="30" y="450" width="300" height="28" rx="6" fill="#FEF3C7" stroke="#FCD34D" stroke-width="1"/>
  <text x="180" y="466" text-anchor="middle" font-size="11" fill="#92400E">核心发现: 注意力在异构场景下权重坍塌</text>

  <rect x="580" y="450" width="300" height="28" rx="6" fill="#D1FAE5" stroke="#6EE7B7" stroke-width="1"/>
  <text x="730" y="466" text-anchor="middle" font-size="11" fill="#065F46">UniMixer: 均匀分散, 梯度畅通无阻</text>
</svg>
