<?xml version="1.0" encoding="utf-8" standalone="no"?>
<!DOCTYPE svg PUBLIC "-//W3C//DTD SVG 1.1//EN"
  "http://www.w3.org/Graphics/SVG/1.1/DTD/svg11.dtd">
<svg xmlns:xlink="http://www.w3.org/1999/xlink" width="942.4pt" height="618.4pt" viewBox="0 0 942.4 618.4" xmlns="http://www.w3.org/2000/svg" version="1.1">
 <metadata>
  <rdf:RDF xmlns:dc="http://purl.org/dc/elements/1.1/" xmlns:cc="http://creativecommons.org/ns#" xmlns:rdf="http://www.w3.org/1999/02/22-rdf-syntax-ns#">
   <cc:Work>
    <dc:type rdf:resource="http://purl.org/dc/dcmitype/StillImage"/>
    <dc:date>2026-04-21T13:41:49.691291</dc:date>
    <dc:format>image/svg+xml</dc:format>
    <dc:creator>
     <cc:Agent>
      <dc:title>Matplotlib v3.10.8, https://matplotlib.org/</dc:title>
     </cc:Agent>
    </dc:creator>
   </cc:Work>
  </rdf:RDF>
 </metadata>
 <defs>
  <style type="text/css">*{stroke-linejoin: round; stroke-linecap: butt}</style>
 </defs>
 <g id="figure_1">
  <g id="patch_1">
   <path d="M 0 618.4 
L 942.4 618.4 
L 942.4 0 
L 0 0 
z
" style="fill: #ffffff"/>
  </g>
  <g id="axes_1">
   <g id="line2d_1">
    <path d="M 471.2 504.611765 
L 471.2 64.047059 
" clip-path="url(#p6fb20d4c5e)" style="fill: none; stroke-dasharray: 6.66,2.88; stroke-dashoffset: 0; stroke: #cccccc; stroke-width: 1.8"/>
   </g>
   <g id="text_1">
    <!-- Post-Attention LayerNorm：注意力输出下缩放 -->
    <g transform="translate(300.3925 40.656029) scale(0.16 -0.16)">
     <defs>
      <path id="PingFangHK-Regular-50" d="M 461 4570 
L 461 0 
L 986 0 
L 986 1869 
L 2323 1869 
C 3373 1869 3904 2323 3904 3226 
C 3904 4122 3379 4570 2330 4570 
L 461 4570 
z
M 986 4115 
L 2298 4115 
C 2662 4115 2931 4045 3110 3891 
C 3290 3757 3379 3533 3379 3226 
C 3379 2918 3290 2694 3117 2547 
C 2938 2400 2669 2323 2298 2323 
L 986 2323 
L 986 4115 
z
" transform="scale(0.015625)"/>
      <path id="PingFangHK-Regular-6f" d="M 1875 3398 
C 1376 3398 986 3232 691 2886 
C 410 2560 269 2150 269 1651 
C 269 1158 410 749 691 429 
C 986 83 1376 -90 1875 -90 
C 2368 -90 2765 83 3066 429 
C 3341 749 3482 1158 3482 1651 
C 3482 2150 3341 2560 3059 2886 
C 2765 3232 2368 3398 1875 3398 
z
M 1875 2970 
C 2221 2970 2496 2835 2701 2566 
C 2874 2323 2963 2022 2963 1651 
C 2963 1293 2874 986 2701 742 
C 2496 474 2221 339 1875 339 
C 1523 339 1248 474 1056 742 
C 877 986 794 1286 794 1651 
C 794 2022 877 2323 1056 2566 
C 1248 2835 1523 2970 1875 2970 
z
" transform="scale(0.015625)"/>
      <path id="PingFangHK-Regular-73" d="M 1568 3398 
C 1197 3398 890 3315 659 3149 
C 410 2982 288 2765 288 2483 
C 288 2202 410 1990 666 1837 
C 819 1734 1094 1638 1485 1542 
C 1843 1453 2080 1382 2189 1331 
C 2394 1229 2502 1088 2502 902 
C 2502 531 2202 339 1613 339 
C 1331 339 1120 390 979 493 
C 838 608 742 794 704 1056 
L 205 1056 
C 282 294 755 -90 1626 -90 
C 2560 -90 3027 256 3027 934 
C 3027 1222 2893 1446 2630 1613 
C 2458 1722 2176 1824 1779 1920 
C 1446 2010 1216 2080 1094 2138 
C 902 2234 813 2355 813 2496 
C 813 2643 883 2758 1024 2842 
C 1152 2931 1331 2970 1562 2970 
C 1824 2970 2029 2918 2170 2816 
C 2298 2726 2381 2573 2426 2368 
L 2925 2368 
C 2835 3059 2387 3398 1568 3398 
z
" transform="scale(0.015625)"/>
      <path id="PingFangHK-Regular-74" d="M 1280 4378 
L 774 4166 
L 774 3309 
L 109 3309 
L 109 2880 
L 774 2880 
L 774 774 
C 774 525 826 339 934 211 
C 1050 70 1248 0 1517 0 
L 2016 0 
L 2016 429 
L 1594 429 
C 1478 429 1395 461 1350 512 
C 1299 563 1280 653 1280 774 
L 1280 2880 
L 2099 2880 
L 2099 3309 
L 1280 3309 
L 1280 4378 
z
" transform="scale(0.015625)"/>
      <path id="PingFangHK-Regular-2d" d="M 320 1875 
L 320 1440 
L 3552 1440 
L 3552 1875 
L 320 1875 
z
" transform="scale(0.015625)"/>
      <path id="PingFangHK-Regular-41" d="M 1798 4570 
L 0 0 
L 563 0 
L 1050 1280 
L 3149 1280 
L 3635 0 
L 4205 0 
L 2406 4570 
L 1798 4570 
z
M 1216 1722 
L 2093 4006 
L 2118 4006 
L 2982 1722 
L 1216 1722 
z
" transform="scale(0.015625)"/>
      <path id="PingFangHK-Regular-65" d="M 1760 3398 
C 1280 3398 902 3226 621 2880 
C 339 2554 205 2144 205 1658 
C 205 1120 346 698 640 378 
C 922 70 1306 -90 1779 -90 
C 2208 -90 2560 38 2835 282 
C 3059 486 3206 742 3283 1062 
L 2771 1062 
C 2688 832 2579 659 2438 544 
C 2272 410 2048 339 1779 339 
C 1466 339 1216 442 1037 646 
C 858 851 762 1139 736 1510 
L 3347 1510 
C 3334 2086 3206 2541 2963 2861 
C 2694 3219 2291 3398 1760 3398 
z
M 1773 2970 
C 2400 2970 2752 2618 2816 1907 
L 749 1907 
C 781 2234 883 2490 1062 2682 
C 1242 2874 1478 2970 1773 2970 
z
" transform="scale(0.015625)"/>
      <path id="PingFangHK-Regular-6e" d="M 1946 3398 
C 1728 3398 1530 3347 1350 3245 
C 1171 3149 1024 3008 909 2822 
L 909 3309 
L 397 3309 
L 397 0 
L 909 0 
L 909 1997 
C 928 2298 1024 2534 1203 2714 
C 1370 2880 1568 2963 1798 2963 
C 2374 2963 2669 2643 2669 1997 
L 2669 0 
L 3181 0 
L 3181 2035 
C 3181 2944 2765 3398 1946 3398 
z
" transform="scale(0.015625)"/>
      <path id="PingFangHK-Regular-69" d="M 819 4557 
C 710 4557 621 4525 544 4448 
C 467 4384 435 4294 435 4179 
C 435 4070 467 3981 544 3904 
C 621 3834 710 3795 819 3795 
C 928 3795 1018 3834 1094 3904 
C 1171 3981 1210 4070 1210 4179 
C 1210 4294 1171 4384 1094 4448 
C 1018 4525 928 4557 819 4557 
z
M 563 3309 
L 563 0 
L 1075 0 
L 1075 3309 
L 563 3309 
z
" transform="scale(0.015625)"/>
      <path id="PingFangHK-Regular-20" transform="scale(0.015625)"/>
      <path id="PingFangHK-Regular-4c" d="M 461 4570 
L 461 0 
L 3622 0 
L 3622 454 
L 979 454 
L 979 4570 
L 461 4570 
z
" transform="scale(0.015625)"/>
      <path id="PingFangHK-Regular-61" d="M 1837 3398 
C 1440 3398 1126 3322 883 3168 
C 614 3002 442 2739 371 2394 
L 877 2355 
C 928 2566 1037 2726 1210 2829 
C 1363 2931 1562 2976 1805 2976 
C 2381 2976 2669 2701 2669 2144 
L 2669 1971 
L 1875 1958 
C 1376 1952 992 1856 723 1677 
C 416 1485 269 1203 269 826 
C 269 557 371 333 576 160 
C 774 -6 1037 -90 1370 -90 
C 1677 -90 1952 -19 2195 115 
C 2400 230 2573 378 2701 557 
L 2701 0 
L 3181 0 
L 3181 2125 
C 3181 2509 3078 2810 2886 3027 
C 2656 3277 2310 3398 1837 3398 
z
M 2669 1587 
L 2669 1306 
C 2669 1050 2547 819 2310 621 
C 2067 416 1792 314 1478 314 
C 1274 314 1107 365 979 461 
C 851 563 794 685 794 838 
C 794 1318 1165 1562 1907 1574 
L 2669 1587 
z
" transform="scale(0.015625)"/>
      <path id="PingFangHK-Regular-79" d="M 32 3309 
L 1344 77 
L 774 -1267 
L 1331 -1267 
L 3142 3309 
L 2579 3309 
L 1600 698 
L 589 3309 
L 32 3309 
z
" transform="scale(0.015625)"/>
      <path id="PingFangHK-Regular-72" d="M 1850 3398 
C 1619 3398 1421 3328 1248 3187 
C 1107 3078 992 2925 902 2733 
L 902 3309 
L 397 3309 
L 397 0 
L 902 0 
L 902 1754 
C 902 2061 986 2323 1165 2541 
C 1338 2771 1555 2880 1811 2880 
C 1971 2880 2138 2861 2304 2810 
L 2304 3322 
C 2182 3373 2029 3398 1850 3398 
z
" transform="scale(0.015625)"/>
      <path id="PingFangHK-Regular-4e" d="M 461 4570 
L 461 0 
L 986 0 
L 986 3757 
L 1005 3757 
L 3603 0 
L 4141 0 
L 4141 4570 
L 3616 4570 
L 3616 851 
L 3597 851 
L 1011 4570 
L 461 4570 
z
" transform="scale(0.015625)"/>
      <path id="PingFangHK-Regular-6d" d="M 1843 3398 
C 1472 3398 1158 3226 909 2867 
L 909 3309 
L 397 3309 
L 397 0 
L 909 0 
L 909 2016 
C 909 2278 986 2502 1139 2682 
C 1293 2874 1485 2963 1722 2963 
C 2227 2963 2483 2675 2483 2086 
L 2483 0 
L 2995 0 
L 2995 2074 
C 2995 2342 3066 2554 3219 2720 
C 3360 2886 3546 2963 3763 2963 
C 4045 2963 4250 2893 4378 2739 
C 4499 2598 4563 2381 4563 2086 
L 4563 0 
L 5075 0 
L 5075 2170 
C 5075 2547 4966 2848 4762 3072 
C 4544 3290 4269 3398 3923 3398 
C 3693 3398 3501 3347 3341 3245 
C 3162 3149 3008 2989 2880 2771 
C 2694 3194 2349 3398 1843 3398 
z
" transform="scale(0.015625)"/>
      <path id="PingFangHK-Regular-ff1a" d="M 3200 3898 
C 3085 3898 2995 3859 2918 3776 
C 2842 3706 2810 3616 2810 3501 
C 2810 3392 2842 3302 2918 3226 
C 2995 3149 3085 3110 3200 3110 
C 3309 3110 3405 3149 3482 3226 
C 3558 3302 3597 3392 3597 3501 
C 3597 3616 3558 3706 3482 3776 
C 3405 3859 3309 3898 3200 3898 
z
M 3200 1555 
C 3085 1555 2995 1517 2918 1434 
C 2842 1363 2810 1274 2810 1158 
C 2810 1050 2842 960 2918 883 
C 2995 806 3085 768 3200 768 
C 3309 768 3405 806 3482 883 
C 3558 960 3597 1050 3597 1158 
C 3597 1274 3558 1363 3482 1434 
C 3405 1517 3309 1555 3200 1555 
z
" transform="scale(0.015625)"/>
      <path id="PingFangHK-Regular-6ce8" d="M 838 5133 
L 506 4813 
C 979 4480 1357 4160 1626 3859 
L 1952 4186 
C 1651 4499 1280 4813 838 5133 
z
M 678 3622 
L 352 3309 
C 800 2963 1152 2643 1408 2349 
L 1734 2675 
C 1453 2995 1101 3309 678 3622 
z
M 1485 1856 
C 1197 1088 858 339 474 -390 
L 934 -589 
C 1286 122 1606 883 1894 1690 
L 1485 1856 
z
M 2202 4147 
L 2202 3693 
L 3866 3693 
L 3866 2157 
L 2381 2157 
L 2381 1715 
L 3866 1715 
L 3866 32 
L 2042 32 
L 2042 -422 
L 6106 -422 
L 6106 32 
L 4333 32 
L 4333 1715 
L 5811 1715 
L 5811 2157 
L 4333 2157 
L 4333 3693 
L 5984 3693 
L 5984 4147 
L 4077 4147 
L 4339 4250 
C 4243 4557 4102 4890 3923 5261 
L 3488 5139 
C 3654 4819 3795 4493 3923 4147 
L 2202 4147 
z
" transform="scale(0.015625)"/>
      <path id="PingFangHK-Regular-610f" d="M 1754 4442 
L 1958 3936 
L 422 3936 
L 422 3533 
L 5978 3533 
L 5978 3936 
L 4384 3936 
L 4634 4442 
L 5677 4442 
L 5677 4838 
L 3424 4838 
C 3360 5005 3290 5152 3226 5286 
L 2733 5210 
C 2797 5101 2861 4979 2918 4838 
L 723 4838 
L 723 4442 
L 1754 4442 
z
M 2438 3936 
L 2234 4442 
L 4154 4442 
L 3904 3936 
L 2438 3936 
z
M 1152 3155 
L 1152 1261 
L 5248 1261 
L 5248 3155 
L 1152 3155 
z
M 4800 1619 
L 1600 1619 
L 1600 2042 
L 4800 2042 
L 4800 1619 
z
M 1600 2381 
L 1600 2790 
L 4800 2790 
L 4800 2381 
L 1600 2381 
z
M 896 960 
C 774 538 582 147 320 -205 
L 717 -454 
C 986 -83 1190 358 1344 870 
L 896 960 
z
M 4077 -538 
C 4320 -538 4493 -493 4608 -416 
C 4736 -314 4826 -45 4870 397 
L 4435 538 
C 4410 218 4358 19 4282 -45 
C 4230 -96 4134 -122 3994 -122 
L 2650 -122 
C 2445 -122 2342 -26 2342 154 
L 2342 902 
L 1869 902 
L 1869 58 
C 1869 -339 2080 -538 2515 -538 
L 4077 -538 
z
M 3270 1139 
L 2880 896 
C 3149 627 3354 378 3507 147 
L 3891 416 
C 3750 627 3539 870 3270 1139 
z
M 5280 1018 
L 4909 787 
C 5254 365 5523 -19 5728 -371 
L 6112 -102 
C 5920 218 5638 589 5280 1018 
z
" transform="scale(0.015625)"/>
      <path id="PingFangHK-Regular-529b" d="M 2669 5210 
L 2669 4570 
C 2662 4352 2656 4134 2643 3917 
L 742 3917 
L 742 3469 
L 2605 3469 
C 2528 2720 2387 2080 2176 1549 
C 1843 806 1254 205 416 -243 
L 666 -634 
C 1523 -198 2138 410 2522 1190 
C 2797 1805 2982 2560 3078 3469 
L 5101 3469 
C 5062 1958 4986 966 4870 499 
C 4755 58 4518 -166 4154 -166 
C 3923 -166 3674 -160 3418 -147 
L 3546 -595 
L 4384 -595 
C 4717 -570 4960 -435 5114 -179 
C 5267 90 5376 563 5440 1235 
C 5504 1920 5542 2816 5568 3917 
L 3117 3917 
C 3130 4128 3136 4346 3142 4570 
L 3142 5210 
L 2669 5210 
z
" transform="scale(0.015625)"/>
      <path id="PingFangHK-Regular-8f93" d="M 1466 3450 
L 1466 2496 
L 832 2496 
C 992 2906 1139 3373 1280 3898 
L 2515 3898 
L 2515 4333 
L 1389 4333 
C 1446 4589 1504 4864 1562 5152 
L 1139 5248 
C 1082 4928 1024 4627 960 4333 
L 326 4333 
L 326 3898 
L 858 3898 
C 710 3328 550 2848 371 2464 
L 467 2080 
L 1466 2080 
L 1466 1126 
C 1094 1056 698 992 275 941 
L 333 493 
C 723 550 1101 614 1466 685 
L 1466 -640 
L 1894 -640 
L 1894 781 
L 2502 934 
L 2502 1370 
C 2310 1318 2112 1267 1894 1216 
L 1894 2080 
L 2483 2080 
L 2483 2496 
L 1894 2496 
L 1894 3450 
L 1466 3450 
z
M 3354 3776 
L 3354 3398 
L 5190 3398 
L 5190 3782 
L 3360 3782 
C 3680 4090 3987 4429 4294 4800 
C 4781 4173 5325 3642 5926 3206 
L 6170 3571 
C 5587 3981 5018 4525 4461 5216 
L 4128 5216 
C 3610 4576 3021 4013 2368 3533 
L 2618 3149 
C 2867 3341 3110 3552 3354 3776 
z
M 3802 -595 
C 4115 -595 4275 -429 4275 -102 
L 4275 2886 
L 2765 2886 
L 2765 -640 
L 3168 -640 
L 3168 557 
L 3885 557 
L 3885 -19 
C 3885 -160 3814 -230 3674 -230 
L 3392 -218 
L 3494 -595 
L 3802 -595 
z
M 3168 915 
L 3168 1523 
L 3885 1523 
L 3885 915 
L 3168 915 
z
M 3168 1882 
L 3168 2515 
L 3885 2515 
L 3885 1882 
L 3168 1882 
z
M 4659 2707 
L 4659 410 
L 5018 410 
L 5018 2707 
L 4659 2707 
z
M 5357 -608 
C 5664 -608 5824 -422 5824 -58 
L 5824 2995 
L 5421 2995 
L 5421 45 
C 5421 -134 5350 -230 5216 -230 
C 5056 -230 4890 -218 4717 -205 
L 4813 -608 
L 5357 -608 
z
" transform="scale(0.015625)"/>
      <path id="PingFangHK-Regular-51fa" d="M 4934 3002 
L 3437 3002 
L 3437 5235 
L 2963 5235 
L 2963 3002 
L 1466 3002 
L 1466 4749 
L 1005 4749 
L 1005 2554 
L 2963 2554 
L 2963 205 
L 1158 205 
L 1158 1952 
L 691 1952 
L 691 -595 
L 1158 -595 
L 1158 -237 
L 5242 -237 
L 5242 -595 
L 5709 -595 
L 5709 1952 
L 5242 1952 
L 5242 205 
L 3437 205 
L 3437 2554 
L 5395 2554 
L 5395 4749 
L 4934 4749 
L 4934 3002 
z
" transform="scale(0.015625)"/>
      <path id="PingFangHK-Regular-4e0b" d="M 352 4890 
L 352 4435 
L 2797 4435 
L 2797 -653 
L 3264 -653 
L 3264 2982 
C 3840 2675 4557 2240 5408 1677 
L 5683 2086 
C 4864 2611 4058 3072 3264 3469 
L 3264 4435 
L 6042 4435 
L 6042 4890 
L 352 4890 
z
" transform="scale(0.015625)"/>
      <path id="PingFangHK-Regular-7f29" d="M 5997 4717 
L 4448 4717 
C 4378 4922 4307 5107 4230 5274 
L 3744 5197 
C 3827 5056 3904 4896 3974 4717 
L 2374 4717 
L 2374 3757 
L 2810 3757 
L 2810 4333 
L 5562 4333 
L 5562 3853 
L 5997 3853 
L 5997 4717 
z
M 2797 2240 
L 2797 -563 
L 3213 -563 
L 3213 2957 
C 3341 3226 3450 3507 3539 3802 
L 3155 3981 
C 2950 3277 2618 2650 2170 2099 
L 2317 1626 
C 2490 1818 2650 2022 2797 2240 
z
M 3718 3680 
L 3718 3270 
L 4608 3270 
L 4486 2675 
L 3789 2675 
L 3789 -570 
L 4198 -570 
L 4198 -275 
L 5414 -275 
L 5414 -570 
L 5824 -570 
L 5824 2675 
L 4890 2675 
L 5024 3270 
L 5901 3270 
L 5901 3680 
L 3718 3680 
z
M 4198 115 
L 4198 1037 
L 5414 1037 
L 5414 115 
L 4198 115 
z
M 4198 1421 
L 4198 2278 
L 5414 2278 
L 5414 1421 
L 4198 1421 
z
M 2323 614 
C 1766 378 1114 192 371 51 
L 429 -410 
C 1133 -262 1766 -70 2323 173 
L 2323 614 
z
M 1299 5248 
C 1069 4493 800 3814 493 3226 
C 435 3136 371 3078 294 3040 
L 410 2618 
C 742 2669 1075 2726 1408 2790 
C 1088 2163 813 1722 589 1466 
C 531 1414 461 1370 378 1331 
L 499 909 
C 1024 986 1568 1146 2138 1376 
L 2138 1805 
C 1773 1645 1408 1517 1050 1427 
C 1389 1888 1818 2656 2336 3731 
L 1926 3885 
C 1818 3648 1715 3424 1619 3219 
C 1350 3162 1088 3117 832 3078 
C 1139 3578 1440 4243 1741 5075 
L 1299 5248 
z
" transform="scale(0.015625)"/>
      <path id="PingFangHK-Regular-653e" d="M 352 4275 
L 352 3834 
L 1018 3834 
L 1018 3232 
C 1005 1606 742 422 218 -314 
L 576 -627 
C 1050 58 1331 1088 1421 2464 
L 2266 2464 
C 2259 1184 2234 422 2182 179 
C 2138 -38 1990 -147 1734 -147 
C 1594 -147 1434 -141 1254 -128 
L 1357 -525 
C 1568 -538 1715 -550 1798 -550 
C 2272 -550 2541 -365 2605 0 
C 2669 358 2701 1325 2701 2893 
L 1440 2893 
C 1440 3008 1446 3117 1446 3232 
L 1446 3834 
L 3002 3834 
L 3002 4275 
L 1888 4275 
L 2022 4326 
C 1920 4621 1786 4941 1613 5293 
L 1165 5165 
C 1318 4877 1459 4582 1574 4275 
L 352 4275 
z
M 3930 3808 
L 5030 3808 
C 4998 2950 4813 2202 4467 1555 
C 4218 1965 4013 2400 3859 2874 
L 3494 2669 
C 3674 2118 3917 1606 4211 1133 
C 3827 602 3315 166 2675 -173 
L 2938 -589 
C 3565 -230 4077 211 4480 742 
C 4838 243 5274 -205 5798 -602 
L 6106 -243 
C 5574 160 5120 621 4749 1139 
C 5184 1882 5427 2771 5466 3808 
L 5939 3808 
L 5939 4250 
L 4077 4250 
C 4166 4544 4237 4851 4301 5184 
L 3846 5261 
C 3667 4198 3328 3354 2822 2726 
L 3098 2381 
C 3430 2765 3712 3245 3930 3808 
z
" transform="scale(0.015625)"/>
     </defs>
     <use xlink:href="#PingFangHK-Regular-50"/>
     <use xlink:href="#PingFangHK-Regular-6f" transform="translate(64.199997 0)"/>
     <use xlink:href="#PingFangHK-Regular-73" transform="translate(122.799988 0)"/>
     <use xlink:href="#PingFangHK-Regular-74" transform="translate(173.299973 0)"/>
     <use xlink:href="#PingFangHK-Regular-2d" transform="translate(208.799957 0)"/>
     <use xlink:href="#PingFangHK-Regular-41" transform="translate(269.299942 0)"/>
     <use xlink:href="#PingFangHK-Regular-74" transform="translate(334.999939 0)"/>
     <use xlink:href="#PingFangHK-Regular-74" transform="translate(370.499924 0)"/>
     <use xlink:href="#PingFangHK-Regular-65" transform="translate(405.999908 0)"/>
     <use xlink:href="#PingFangHK-Regular-6e" transform="translate(461.499893 0)"/>
     <use xlink:href="#PingFangHK-Regular-74" transform="translate(517.399887 0)"/>
     <use xlink:href="#PingFangHK-Regular-69" transform="translate(552.899872 0)"/>
     <use xlink:href="#PingFangHK-Regular-6f" transform="translate(578.499863 0)"/>
     <use xlink:href="#PingFangHK-Regular-6e" transform="translate(637.099854 0)"/>
     <use xlink:href="#PingFangHK-Regular-20" transform="translate(692.999847 0)"/>
     <use xlink:href="#PingFangHK-Regular-4c" transform="translate(726.299835 0)"/>
     <use xlink:href="#PingFangHK-Regular-61" transform="translate(785.099823 0)"/>
     <use xlink:href="#PingFangHK-Regular-79" transform="translate(840.999817 0)"/>
     <use xlink:href="#PingFangHK-Regular-65" transform="translate(890.599808 0)"/>
     <use xlink:href="#PingFangHK-Regular-72" transform="translate(946.099792 0)"/>
     <use xlink:href="#PingFangHK-Regular-4e" transform="translate(982.599777 0)"/>
     <use xlink:href="#PingFangHK-Regular-6f" transform="translate(1054.499771 0)"/>
     <use xlink:href="#PingFangHK-Regular-72" transform="translate(1113.099762 0)"/>
     <use xlink:href="#PingFangHK-Regular-6d" transform="translate(1149.599747 0)"/>
     <use xlink:href="#PingFangHK-Regular-ff1a" transform="translate(1235.099731 0)"/>
     <use xlink:href="#PingFangHK-Regular-6ce8" transform="translate(1335.099716 0)"/>
     <use xlink:href="#PingFangHK-Regular-610f" transform="translate(1435.099701 0)"/>
     <use xlink:href="#PingFangHK-Regular-529b" transform="translate(1535.099686 0)"/>
     <use xlink:href="#PingFangHK-Regular-8f93" transform="translate(1635.09967 0)"/>
     <use xlink:href="#PingFangHK-Regular-51fa" transform="translate(1735.099655 0)"/>
     <use xlink:href="#PingFangHK-Regular-4e0b" transform="translate(1835.09964 0)"/>
     <use xlink:href="#PingFangHK-Regular-7f29" transform="translate(1935.099625 0)"/>
     <use xlink:href="#PingFangHK-Regular-653e" transform="translate(2035.099609 0)"/>
    </g>
   </g>
   <g id="text_2">
    <!-- Pre-LN（标准） -->
    <g style="fill: #222222" transform="translate(187.049363 81.756636) scale(0.13 -0.13)">
     <defs>
      <path id="PingFangHK-Regular-ff08" d="M 5440 5293 
C 5158 4883 4941 4442 4781 3974 
C 4589 3424 4499 2867 4499 2298 
C 4499 1741 4589 1184 4781 634 
C 4941 173 5158 -269 5440 -685 
L 5888 -685 
C 5632 -256 5427 186 5280 640 
C 5088 1203 4998 1760 4998 2304 
C 4998 2854 5088 3405 5280 3968 
C 5427 4429 5632 4870 5888 5293 
L 5440 5293 
z
" transform="scale(0.015625)"/>
      <path id="PingFangHK-Regular-6807" d="M 1222 5210 
L 1222 4000 
L 442 4000 
L 442 3558 
L 1222 3558 
C 1024 2752 698 2029 237 1402 
L 435 902 
C 755 1402 1018 1952 1222 2554 
L 1222 -634 
L 1677 -634 
L 1677 2573 
C 1869 2330 2093 2010 2355 1606 
L 2618 1997 
C 2304 2387 1990 2746 1677 3066 
L 1677 3558 
L 2419 3558 
L 2419 4000 
L 1677 4000 
L 1677 5210 
L 1222 5210 
z
M 3110 2317 
C 2931 1523 2643 806 2246 160 
L 2643 -96 
C 3027 557 3328 1325 3533 2221 
L 3110 2317 
z
M 5427 2349 
L 5011 2214 
C 5261 1523 5491 736 5702 -154 
L 6118 32 
C 5926 851 5696 1626 5427 2349 
z
M 3994 -570 
C 4365 -570 4557 -378 4557 0 
L 4557 2848 
L 6125 2848 
L 6125 3290 
L 2534 3290 
L 2534 2848 
L 4096 2848 
L 4096 115 
C 4096 -70 4006 -166 3834 -166 
C 3648 -166 3456 -154 3251 -141 
L 3341 -570 
L 3994 -570 
z
M 2874 4845 
L 2874 4410 
L 5792 4410 
L 5792 4845 
L 2874 4845 
z
" transform="scale(0.015625)"/>
      <path id="PingFangHK-Regular-51c6" d="M 710 5018 
L 320 4774 
C 749 4230 1088 3738 1331 3296 
L 1715 3558 
C 1485 3974 1146 4461 710 5018 
z
M 1331 2234 
C 1050 1338 710 454 326 -410 
L 762 -595 
C 1120 237 1453 1120 1747 2067 
L 1331 2234 
z
M 2848 2394 
L 4173 2394 
L 4173 1517 
L 2848 1517 
L 2848 2394 
z
M 2848 1088 
L 4173 1088 
L 4173 134 
L 2848 134 
L 2848 1088 
z
M 2848 -294 
L 6099 -294 
L 6099 134 
L 4614 134 
L 4614 1088 
L 5843 1088 
L 5843 1517 
L 4614 1517 
L 4614 2394 
L 5830 2394 
L 5830 2822 
L 4614 2822 
L 4614 3699 
L 5965 3699 
L 5965 4134 
L 4525 4134 
L 4698 4198 
C 4614 4525 4499 4890 4346 5286 
L 3904 5158 
C 4051 4832 4173 4493 4275 4134 
L 2912 4134 
C 3046 4461 3162 4800 3258 5152 
L 2816 5242 
C 2586 4339 2195 3507 1638 2752 
L 1792 2266 
C 2010 2541 2214 2829 2400 3130 
L 2400 -646 
L 2848 -646 
L 2848 -294 
z
M 4173 3699 
L 4173 2822 
L 2848 2822 
L 2848 3699 
L 4173 3699 
z
" transform="scale(0.015625)"/>
      <path id="PingFangHK-Regular-ff09" d="M 512 5293 
C 768 4870 966 4429 1120 3968 
C 1306 3405 1402 2854 1402 2304 
C 1402 1760 1306 1203 1120 640 
C 966 186 768 -256 512 -685 
L 960 -685 
C 1235 -269 1453 173 1619 634 
C 1805 1184 1901 1741 1901 2298 
C 1901 2867 1805 3424 1619 3974 
C 1453 4442 1235 4883 960 5293 
L 512 5293 
z
" transform="scale(0.015625)"/>
     </defs>
     <use xlink:href="#PingFangHK-Regular-50"/>
     <use xlink:href="#PingFangHK-Regular-72" transform="translate(64.199997 0)"/>
     <use xlink:href="#PingFangHK-Regular-65" transform="translate(100.699982 0)"/>
     <use xlink:href="#PingFangHK-Regular-2d" transform="translate(156.199966 0)"/>
     <use xlink:href="#PingFangHK-Regular-4c" transform="translate(216.699951 0)"/>
     <use xlink:href="#PingFangHK-Regular-4e" transform="translate(275.499939 0)"/>
     <use xlink:href="#PingFangHK-Regular-ff08" transform="translate(347.399933 0)"/>
     <use xlink:href="#PingFangHK-Regular-6807" transform="translate(447.399918 0)"/>
     <use xlink:href="#PingFangHK-Regular-51c6" transform="translate(547.399902 0)"/>
     <use xlink:href="#PingFangHK-Regular-ff09" transform="translate(647.399887 0)"/>
    </g>
   </g>
   <g id="text_3">
    <!-- 标准 Pre-LN 架构 -->
    <g style="fill: #666666" transform="translate(194.930769 105.784099) scale(0.1 -0.1)">
     <defs>
      <path id="PingFangHK-Regular-67b6" d="M 3661 4762 
L 3661 2554 
L 5722 2554 
L 5722 4762 
L 3661 4762 
z
M 5280 2970 
L 4096 2970 
L 4096 4346 
L 5280 4346 
L 5280 2970 
z
M 1408 5210 
L 1408 4634 
L 448 4634 
L 448 4237 
L 1376 4237 
C 1267 3475 909 2906 294 2522 
L 634 2221 
C 1312 2669 1709 3341 1824 4237 
L 2656 4237 
C 2643 3565 2611 3149 2560 2995 
C 2496 2835 2349 2752 2118 2746 
L 1754 2778 
L 1869 2362 
C 2010 2349 2125 2336 2227 2336 
C 2547 2336 2771 2445 2906 2662 
C 3034 2880 3098 3533 3104 4634 
L 1856 4634 
L 1856 5210 
L 1408 5210 
z
M 422 1773 
L 422 1338 
L 2547 1338 
C 2080 787 1344 326 339 -38 
L 602 -461 
C 1683 13 2464 608 2938 1338 
L 2970 1338 
L 2970 -627 
L 3430 -627 
L 3430 1338 
L 3469 1338 
C 3904 685 4659 90 5741 -448 
L 6061 -51 
C 5030 358 4294 826 3853 1338 
L 5984 1338 
L 5984 1773 
L 3430 1773 
L 3430 2291 
L 2970 2291 
L 2970 1773 
L 422 1773 
z
" transform="scale(0.015625)"/>
      <path id="PingFangHK-Regular-6784" d="M 3360 5235 
C 3213 4326 2938 3558 2541 2931 
L 2835 2547 
C 3091 2931 3309 3373 3488 3866 
L 5434 3866 
C 5427 1882 5395 704 5338 333 
C 5280 0 5094 -173 4787 -173 
C 4582 -173 4346 -160 4064 -147 
L 4166 -563 
C 4493 -576 4723 -582 4858 -582 
C 5389 -582 5690 -320 5766 198 
C 5830 710 5869 2080 5869 4294 
L 3622 4294 
C 3699 4576 3763 4870 3814 5178 
L 3360 5235 
z
M 2835 742 
C 3462 870 4026 998 4512 1133 
C 4563 954 4621 762 4678 557 
L 5082 736 
C 4915 1306 4723 1843 4506 2342 
L 4122 2208 
C 4211 1990 4307 1747 4397 1478 
C 4090 1402 3738 1325 3354 1248 
C 3539 1587 3789 2182 4102 3034 
L 3699 3181 
C 3245 1901 2931 1216 2752 1120 
L 2835 742 
z
M 1747 2624 
C 1926 2394 2144 2086 2394 1715 
L 2650 2106 
C 2342 2483 2042 2822 1747 3130 
L 1747 3533 
L 2534 3533 
L 2534 3974 
L 1747 3974 
L 1747 5222 
L 1293 5222 
L 1293 3974 
L 365 3974 
L 365 3533 
L 1261 3533 
C 1056 2726 717 2003 237 1370 
L 435 870 
C 794 1402 1075 1990 1293 2643 
L 1293 -614 
L 1747 -614 
L 1747 2624 
z
" transform="scale(0.015625)"/>
     </defs>
     <use xlink:href="#PingFangHK-Regular-6807"/>
     <use xlink:href="#PingFangHK-Regular-51c6" transform="translate(99.999985 0)"/>
     <use xlink:href="#PingFangHK-Regular-20" transform="translate(199.999969 0)"/>
     <use xlink:href="#PingFangHK-Regular-50" transform="translate(233.299957 0)"/>
     <use xlink:href="#PingFangHK-Regular-72" transform="translate(297.499954 0)"/>
     <use xlink:href="#PingFangHK-Regular-65" transform="translate(333.999939 0)"/>
     <use xlink:href="#PingFangHK-Regular-2d" transform="translate(389.499924 0)"/>
     <use xlink:href="#PingFangHK-Regular-4c" transform="translate(449.999908 0)"/>
     <use xlink:href="#PingFangHK-Regular-4e" transform="translate(508.799896 0)"/>
     <use xlink:href="#PingFangHK-Regular-20" transform="translate(580.69989 0)"/>
     <use xlink:href="#PingFangHK-Regular-67b6" transform="translate(613.999878 0)"/>
     <use xlink:href="#PingFangHK-Regular-6784" transform="translate(713.999863 0)"/>
    </g>
   </g>
   <g id="patch_2">
    <path d="M 121.415385 174.898824 
L 349.846154 174.898824 
Q 354.129231 174.898824 354.129231 170.635294 
L 354.129231 128 
Q 354.129231 123.736471 349.846154 123.736471 
L 121.415385 123.736471 
Q 117.132308 123.736471 117.132308 128 
L 117.132308 170.635294 
Q 117.132308 174.898824 121.415385 174.898824 
z
" clip-path="url(#p6fb20d4c5e)" style="fill: #fffde0; stroke: #b8960a; stroke-width: 1.8; stroke-linejoin: miter"/>
   </g>
   <g id="patch_3">
    <path d="M 235.630769 174.054653 
Q 235.630769 176.675778 235.630769 177.508048 
" style="fill: none; stroke: #888888; stroke-width: 1.6; stroke-linecap: round"/>
    <path d="M 237.630769 173.508048 
L 235.630769 177.508048 
L 233.630769 173.508048 
" style="fill: none; stroke: #888888; stroke-width: 1.6; stroke-linecap: round"/>
   </g>
   <g id="patch_4">
    <path d="M 121.415385 237.430588 
L 349.846154 237.430588 
Q 354.129231 237.430588 354.129231 233.167059 
L 354.129231 190.531765 
Q 354.129231 186.268235 349.846154 186.268235 
L 121.415385 186.268235 
Q 117.132308 186.268235 117.132308 190.531765 
L 117.132308 233.167059 
Q 117.132308 237.430588 121.415385 237.430588 
z
" clip-path="url(#p6fb20d4c5e)" style="fill: #dce8ff; stroke: #1a5fa8; stroke-width: 1.8; stroke-linejoin: miter"/>
   </g>
   <g id="patch_5">
    <path d="M 235.630769 236.586418 
Q 235.630769 239.207542 235.630769 240.039812 
" style="fill: none; stroke: #888888; stroke-width: 1.6; stroke-linecap: round"/>
    <path d="M 237.630769 236.039812 
L 235.630769 240.039812 
L 233.630769 236.039812 
" style="fill: none; stroke: #888888; stroke-width: 1.6; stroke-linecap: round"/>
   </g>
   <g id="patch_6">
    <path d="M 121.415385 299.962353 
L 349.846154 299.962353 
Q 354.129231 299.962353 354.129231 295.698824 
L 354.129231 253.063529 
Q 354.129231 248.8 349.846154 248.8 
L 121.415385 248.8 
Q 117.132308 248.8 117.132308 253.063529 
L 117.132308 295.698824 
Q 117.132308 299.962353 121.415385 299.962353 
z
" clip-path="url(#p6fb20d4c5e)" style="fill: #e8fbe8; stroke: #1a7a40; stroke-width: 1.8; stroke-linejoin: miter"/>
   </g>
   <g id="patch_7">
    <path d="M 235.630769 299.118182 
Q 235.630769 301.739307 235.630769 302.571577 
" style="fill: none; stroke: #888888; stroke-width: 1.6; stroke-linecap: round"/>
    <path d="M 237.630769 298.571577 
L 235.630769 302.571577 
L 233.630769 298.571577 
" style="fill: none; stroke: #888888; stroke-width: 1.6; stroke-linecap: round"/>
   </g>
   <g id="patch_8">
    <path d="M 121.415385 362.494118 
L 349.846154 362.494118 
Q 354.129231 362.494118 354.129231 358.230588 
L 354.129231 315.595294 
Q 354.129231 311.331765 349.846154 311.331765 
L 121.415385 311.331765 
Q 117.132308 311.331765 117.132308 315.595294 
L 117.132308 358.230588 
Q 117.132308 362.494118 121.415385 362.494118 
z
" clip-path="url(#p6fb20d4c5e)" style="fill: #fff4e0; stroke: #b85000; stroke-width: 1.8; stroke-linejoin: miter"/>
   </g>
   <g id="text_4">
    <!-- NormFormer（含 Post-Attn LN） -->
    <g style="fill: #222222" transform="translate(606.539231 81.756636) scale(0.13 -0.13)">
     <defs>
      <path id="PingFangHK-Regular-46" d="M 461 4570 
L 461 0 
L 986 0 
L 986 2125 
L 3386 2125 
L 3386 2579 
L 986 2579 
L 986 4115 
L 3520 4115 
L 3520 4570 
L 461 4570 
z
" transform="scale(0.015625)"/>
      <path id="PingFangHK-Regular-542b" d="M 5293 1523 
L 4122 1523 
C 4448 1805 4742 2118 5005 2458 
L 5005 2822 
L 1254 2822 
L 1254 2413 
L 4442 2413 
C 4128 2067 3808 1766 3475 1523 
L 1114 1523 
L 1114 -646 
L 1562 -646 
L 1562 -346 
L 4845 -346 
L 4845 -646 
L 5293 -646 
L 5293 1523 
z
M 1562 83 
L 1562 1094 
L 4845 1094 
L 4845 83 
L 1562 83 
z
M 3008 5190 
C 2355 4448 1427 3840 211 3379 
L 461 2989 
C 986 3194 1478 3430 1926 3712 
L 1926 3430 
L 4435 3430 
L 4435 3731 
C 4858 3469 5357 3226 5920 3002 
L 6170 3392 
C 4858 3904 3930 4506 3392 5190 
L 3008 5190 
z
M 2118 3840 
C 2515 4109 2874 4416 3200 4762 
C 3482 4429 3834 4122 4262 3840 
L 2118 3840 
z
" transform="scale(0.015625)"/>
     </defs>
     <use xlink:href="#PingFangHK-Regular-4e"/>
     <use xlink:href="#PingFangHK-Regular-6f" transform="translate(71.899994 0)"/>
     <use xlink:href="#PingFangHK-Regular-72" transform="translate(130.499985 0)"/>
     <use xlink:href="#PingFangHK-Regular-6d" transform="translate(166.999969 0)"/>
     <use xlink:href="#PingFangHK-Regular-46" transform="translate(252.499954 0)"/>
     <use xlink:href="#PingFangHK-Regular-6f" transform="translate(310.199951 0)"/>
     <use xlink:href="#PingFangHK-Regular-72" transform="translate(368.799942 0)"/>
     <use xlink:href="#PingFangHK-Regular-6d" transform="translate(405.299927 0)"/>
     <use xlink:href="#PingFangHK-Regular-65" transform="translate(490.799911 0)"/>
     <use xlink:href="#PingFangHK-Regular-72" transform="translate(546.299896 0)"/>
     <use xlink:href="#PingFangHK-Regular-ff08" transform="translate(582.799881 0)"/>
     <use xlink:href="#PingFangHK-Regular-542b" transform="translate(682.799866 0)"/>
     <use xlink:href="#PingFangHK-Regular-20" transform="translate(782.79985 0)"/>
     <use xlink:href="#PingFangHK-Regular-50" transform="translate(816.099838 0)"/>
     <use xlink:href="#PingFangHK-Regular-6f" transform="translate(880.299835 0)"/>
     <use xlink:href="#PingFangHK-Regular-73" transform="translate(938.899826 0)"/>
     <use xlink:href="#PingFangHK-Regular-74" transform="translate(989.399811 0)"/>
     <use xlink:href="#PingFangHK-Regular-2d" transform="translate(1024.899796 0)"/>
     <use xlink:href="#PingFangHK-Regular-41" transform="translate(1085.39978 0)"/>
     <use xlink:href="#PingFangHK-Regular-74" transform="translate(1151.099777 0)"/>
     <use xlink:href="#PingFangHK-Regular-74" transform="translate(1186.599762 0)"/>
     <use xlink:href="#PingFangHK-Regular-6e" transform="translate(1222.099747 0)"/>
     <use xlink:href="#PingFangHK-Regular-20" transform="translate(1277.999741 0)"/>
     <use xlink:href="#PingFangHK-Regular-4c" transform="translate(1311.299728 0)"/>
     <use xlink:href="#PingFangHK-Regular-4e" transform="translate(1370.099716 0)"/>
     <use xlink:href="#PingFangHK-Regular-ff09" transform="translate(1441.99971 0)"/>
    </g>
   </g>
   <g id="text_5">
    <!-- 注意力输出后插入额外 LayerNorm -->
    <g style="fill: #666666" transform="translate(629.664543 106.269256) scale(0.1 -0.1)">
     <defs>
      <path id="PingFangHK-Regular-540e" d="M 1459 2970 
L 6067 2970 
L 6067 3418 
L 1459 3418 
L 1459 4314 
C 3021 4352 4429 4493 5683 4749 
L 5453 5165 
C 4134 4890 2656 4742 1005 4723 
L 1005 2803 
C 966 1498 717 474 250 -269 
L 589 -621 
C 1126 230 1421 1370 1459 2803 
L 1459 2970 
z
M 5562 2074 
L 2048 2074 
L 2048 -640 
L 2509 -640 
L 2509 -339 
L 5101 -339 
L 5101 -640 
L 5562 -640 
L 5562 2074 
z
M 2509 109 
L 2509 1632 
L 5101 1632 
L 5101 109 
L 2509 109 
z
" transform="scale(0.015625)"/>
      <path id="PingFangHK-Regular-63d2" d="M 2176 2618 
C 1990 2502 1805 2400 1613 2298 
L 1613 3610 
L 2176 3610 
L 2176 4051 
L 1613 4051 
L 1613 5222 
L 1165 5222 
L 1165 4051 
L 352 4051 
L 352 3610 
L 1165 3610 
L 1165 2093 
C 883 1971 602 1869 314 1786 
L 422 1350 
C 672 1440 922 1536 1165 1645 
L 1165 58 
C 1165 -102 1088 -186 941 -186 
C 800 -186 646 -173 486 -154 
L 582 -589 
L 1101 -589 
C 1440 -589 1613 -410 1613 -58 
L 1613 1856 
C 1798 1958 1984 2061 2176 2170 
L 2176 2618 
z
M 4698 2682 
L 4698 2278 
L 5453 2278 
L 5453 1434 
L 4691 1434 
L 4691 1037 
L 5453 1037 
L 5453 128 
L 4378 128 
L 4378 3354 
L 6118 3354 
L 6118 3776 
L 4378 3776 
L 4378 4544 
L 5811 4544 
L 5811 4966 
L 2554 4966 
L 2554 4544 
L 3949 4544 
L 3949 3776 
L 2374 3776 
L 2374 3354 
L 3949 3354 
L 3949 128 
L 2848 128 
L 2848 1030 
L 3642 1030 
L 3642 1427 
L 2848 1427 
L 2848 2208 
C 3174 2298 3475 2413 3757 2541 
L 3488 2906 
C 3162 2726 2810 2586 2426 2496 
L 2426 -595 
L 2848 -595 
L 2848 -282 
L 5453 -282 
L 5453 -646 
L 5882 -646 
L 5882 2682 
L 4698 2682 
z
" transform="scale(0.015625)"/>
      <path id="PingFangHK-Regular-5165" d="M 3053 4518 
C 2643 2470 1715 909 269 -160 
L 544 -550 
C 1875 435 2771 1837 3226 3654 
C 3603 2054 4474 646 5830 -570 
L 6093 -173 
C 4480 1299 3584 3014 3405 4966 
L 2099 4966 
L 2099 4518 
L 3053 4518 
z
" transform="scale(0.015625)"/>
      <path id="PingFangHK-Regular-989d" d="M 998 2656 
C 1216 2541 1427 2419 1632 2298 
C 1248 1965 787 1734 243 1606 
L 416 1261 
C 1018 1421 1542 1696 1978 2093 
C 2387 1843 2739 1600 3034 1357 
L 3322 1645 
C 3002 1882 2643 2118 2240 2362 
C 2451 2605 2643 2893 2810 3226 
L 2810 3539 
L 1613 3539 
C 1670 3667 1722 3808 1773 3955 
L 1357 4013 
C 1171 3443 813 2963 288 2566 
L 531 2240 
C 698 2368 851 2509 998 2656 
z
M 1901 2560 
C 1696 2682 1472 2803 1235 2925 
C 1299 3008 1357 3091 1414 3181 
L 2355 3181 
C 2227 2957 2074 2752 1901 2560 
z
M 3117 4614 
L 2042 4614 
C 1952 4858 1862 5069 1773 5261 
L 1312 5184 
C 1414 5011 1510 4819 1600 4614 
L 429 4614 
L 429 3552 
L 832 3552 
L 832 4218 
L 2714 4218 
L 2714 3558 
L 3117 3558 
L 3117 4614 
z
M 2803 1344 
L 826 1344 
L 826 -602 
L 1242 -602 
L 1242 -269 
L 2394 -269 
L 2394 -602 
L 2803 -602 
L 2803 1344 
z
M 1242 122 
L 1242 960 
L 2394 960 
L 2394 122 
L 1242 122 
z
M 3334 4960 
L 3334 4538 
L 4525 4538 
C 4499 4288 4461 4045 4410 3814 
L 3494 3814 
L 3494 806 
L 3904 806 
L 3904 3430 
L 5504 3430 
L 5504 813 
L 5914 813 
L 5914 3814 
L 4838 3814 
C 4890 4045 4934 4282 4966 4538 
L 6144 4538 
L 6144 4960 
L 3334 4960 
z
M 5094 710 
L 4819 442 
C 5267 58 5626 -301 5882 -640 
L 6182 -346 
C 5888 6 5530 358 5094 710 
z
M 4486 3053 
L 4486 1888 
C 4474 1331 4371 877 4186 525 
C 3981 192 3629 -77 3123 -282 
L 3360 -646 
C 3891 -435 4275 -141 4512 243 
C 4749 653 4877 1203 4890 1888 
L 4890 3053 
L 4486 3053 
z
" transform="scale(0.015625)"/>
      <path id="PingFangHK-Regular-5916" d="M 4070 5216 
L 4070 -634 
L 4544 -634 
L 4544 2771 
C 4915 2477 5357 2061 5882 1536 
L 6163 1958 
C 5613 2451 5075 2893 4544 3283 
L 4544 5216 
L 4070 5216 
z
M 1485 2675 
L 1242 2317 
C 1581 2150 1920 1920 2253 1638 
C 1805 947 1178 371 378 -90 
L 691 -480 
C 2355 512 3290 1978 3507 3917 
L 3507 4320 
L 1952 4320 
C 2042 4582 2118 4858 2182 5146 
L 1722 5222 
C 1466 4070 966 3149 237 2470 
L 550 2080 
C 1062 2554 1478 3149 1786 3878 
L 3053 3878 
C 2957 3194 2758 2566 2464 2003 
C 2170 2259 1843 2483 1485 2675 
z
" transform="scale(0.015625)"/>
     </defs>
     <use xlink:href="#PingFangHK-Regular-6ce8"/>
     <use xlink:href="#PingFangHK-Regular-610f" transform="translate(99.999985 0)"/>
     <use xlink:href="#PingFangHK-Regular-529b" transform="translate(199.999969 0)"/>
     <use xlink:href="#PingFangHK-Regular-8f93" transform="translate(299.999954 0)"/>
     <use xlink:href="#PingFangHK-Regular-51fa" transform="translate(399.999939 0)"/>
     <use xlink:href="#PingFangHK-Regular-540e" transform="translate(499.999924 0)"/>
     <use xlink:href="#PingFangHK-Regular-63d2" transform="translate(599.999908 0)"/>
     <use xlink:href="#PingFangHK-Regular-5165" transform="translate(699.999893 0)"/>
     <use xlink:href="#PingFangHK-Regular-989d" transform="translate(799.999878 0)"/>
     <use xlink:href="#PingFangHK-Regular-5916" transform="translate(899.999863 0)"/>
     <use xlink:href="#PingFangHK-Regular-20" transform="translate(999.999847 0)"/>
     <use xlink:href="#PingFangHK-Regular-4c" transform="translate(1033.299835 0)"/>
     <use xlink:href="#PingFangHK-Regular-61" transform="translate(1092.099823 0)"/>
     <use xlink:href="#PingFangHK-Regular-79" transform="translate(1147.999817 0)"/>
     <use xlink:href="#PingFangHK-Regular-65" transform="translate(1197.599808 0)"/>
     <use xlink:href="#PingFangHK-Regular-72" transform="translate(1253.099792 0)"/>
     <use xlink:href="#PingFangHK-Regular-4e" transform="translate(1289.599777 0)"/>
     <use xlink:href="#PingFangHK-Regular-6f" transform="translate(1361.499771 0)"/>
     <use xlink:href="#PingFangHK-Regular-72" transform="translate(1420.099762 0)"/>
     <use xlink:href="#PingFangHK-Regular-6d" transform="translate(1456.599747 0)"/>
    </g>
   </g>
   <g id="patch_9">
    <path d="M 592.553846 174.898824 
L 820.984615 174.898824 
Q 825.267692 174.898824 825.267692 170.635294 
L 825.267692 128 
Q 825.267692 123.736471 820.984615 123.736471 
L 592.553846 123.736471 
Q 588.270769 123.736471 588.270769 128 
L 588.270769 170.635294 
Q 588.270769 174.898824 592.553846 174.898824 
z
" clip-path="url(#p6fb20d4c5e)" style="fill: #fffde0; stroke: #b8960a; stroke-width: 1.8; stroke-linejoin: miter"/>
   </g>
   <g id="patch_10">
    <path d="M 706.769231 174.054653 
Q 706.769231 176.675778 706.769231 177.508048 
" style="fill: none; stroke: #888888; stroke-width: 1.6; stroke-linecap: round"/>
    <path d="M 708.769231 173.508048 
L 706.769231 177.508048 
L 704.769231 173.508048 
" style="fill: none; stroke: #888888; stroke-width: 1.6; stroke-linecap: round"/>
   </g>
   <g id="patch_11">
    <path d="M 592.553846 237.430588 
L 820.984615 237.430588 
Q 825.267692 237.430588 825.267692 233.167059 
L 825.267692 190.531765 
Q 825.267692 186.268235 820.984615 186.268235 
L 592.553846 186.268235 
Q 588.270769 186.268235 588.270769 190.531765 
L 588.270769 233.167059 
Q 588.270769 237.430588 592.553846 237.430588 
z
" clip-path="url(#p6fb20d4c5e)" style="fill: #dce8ff; stroke: #1a5fa8; stroke-width: 1.8; stroke-linejoin: miter"/>
   </g>
   <g id="patch_12">
    <path d="M 706.769231 236.586418 
Q 706.769231 239.207542 706.769231 240.039812 
" style="fill: none; stroke: #888888; stroke-width: 1.6; stroke-linecap: round"/>
    <path d="M 708.769231 236.039812 
L 706.769231 240.039812 
L 704.769231 236.039812 
" style="fill: none; stroke: #888888; stroke-width: 1.6; stroke-linecap: round"/>
   </g>
   <g id="patch_13">
    <path d="M 592.553846 299.962353 
L 820.984615 299.962353 
Q 825.267692 299.962353 825.267692 295.698824 
L 825.267692 253.063529 
Q 825.267692 248.8 820.984615 248.8 
L 592.553846 248.8 
Q 588.270769 248.8 588.270769 253.063529 
L 588.270769 295.698824 
Q 588.270769 299.962353 592.553846 299.962353 
z
" clip-path="url(#p6fb20d4c5e)" style="fill: #e0ffe0; stroke: #1a7a40; stroke-width: 1.8; stroke-linejoin: miter"/>
   </g>
   <g id="text_6">
    <!-- ← NEW -->
    <g style="fill: #cc0000" transform="translate(828.123077 277.416489) scale(0.11 -0.11)">
     <defs>
      <path id="DejaVuSans-Bold-2190" d="M 313 1788 
L 313 2225 
L 1541 3453 
L 1994 3000 
L 1375 2381 
L 4997 2381 
L 4997 1631 
L 1375 1631 
L 1994 1013 
L 1541 559 
L 313 1788 
z
" transform="scale(0.015625)"/>
      <path id="DejaVuSans-Bold-20" transform="scale(0.015625)"/>
      <path id="DejaVuSans-Bold-4e" d="M 588 4666 
L 1931 4666 
L 3628 1466 
L 3628 4666 
L 4769 4666 
L 4769 0 
L 3425 0 
L 1728 3200 
L 1728 0 
L 588 0 
L 588 4666 
z
" transform="scale(0.015625)"/>
      <path id="DejaVuSans-Bold-45" d="M 588 4666 
L 3834 4666 
L 3834 3756 
L 1791 3756 
L 1791 2888 
L 3713 2888 
L 3713 1978 
L 1791 1978 
L 1791 909 
L 3903 909 
L 3903 0 
L 588 0 
L 588 4666 
z
" transform="scale(0.015625)"/>
      <path id="DejaVuSans-Bold-57" d="M 191 4666 
L 1344 4666 
L 2150 1275 
L 2950 4666 
L 4109 4666 
L 4909 1275 
L 5716 4666 
L 6859 4666 
L 5759 0 
L 4372 0 
L 3525 3547 
L 2688 0 
L 1300 0 
L 191 4666 
z
" transform="scale(0.015625)"/>
     </defs>
     <use xlink:href="#DejaVuSans-Bold-2190"/>
     <use xlink:href="#DejaVuSans-Bold-20" transform="translate(83.789062 0)"/>
     <use xlink:href="#DejaVuSans-Bold-4e" transform="translate(118.603516 0)"/>
     <use xlink:href="#DejaVuSans-Bold-45" transform="translate(202.294922 0)"/>
     <use xlink:href="#DejaVuSans-Bold-57" transform="translate(270.605469 0)"/>
    </g>
   </g>
   <g id="patch_14">
    <path d="M 706.769231 299.118182 
Q 706.769231 301.739307 706.769231 302.571577 
" style="fill: none; stroke: #888888; stroke-width: 1.6; stroke-linecap: round"/>
    <path d="M 708.769231 298.571577 
L 706.769231 302.571577 
L 704.769231 298.571577 
" style="fill: none; stroke: #888888; stroke-width: 1.6; stroke-linecap: round"/>
   </g>
   <g id="patch_15">
    <path d="M 592.553846 362.494118 
L 820.984615 362.494118 
Q 825.267692 362.494118 825.267692 358.230588 
L 825.267692 315.595294 
Q 825.267692 311.331765 820.984615 311.331765 
L 592.553846 311.331765 
Q 588.270769 311.331765 588.270769 315.595294 
L 588.270769 358.230588 
Q 588.270769 362.494118 592.553846 362.494118 
z
" clip-path="url(#p6fb20d4c5e)" style="fill: #e8fbe8; stroke: #2d7a3a; stroke-width: 1.8; stroke-linejoin: miter"/>
   </g>
   <g id="patch_16">
    <path d="M 706.769231 361.649947 
Q 706.769231 364.271072 706.769231 365.103342 
" style="fill: none; stroke: #888888; stroke-width: 1.6; stroke-linecap: round"/>
    <path d="M 708.769231 361.103342 
L 706.769231 365.103342 
L 704.769231 361.103342 
" style="fill: none; stroke: #888888; stroke-width: 1.6; stroke-linecap: round"/>
   </g>
   <g id="patch_17">
    <path d="M 592.553846 425.025882 
L 820.984615 425.025882 
Q 825.267692 425.025882 825.267692 420.762353 
L 825.267692 378.127059 
Q 825.267692 373.863529 820.984615 373.863529 
L 592.553846 373.863529 
Q 588.270769 373.863529 588.270769 378.127059 
L 588.270769 420.762353 
Q 588.270769 425.025882 592.553846 425.025882 
z
" clip-path="url(#p6fb20d4c5e)" style="fill: #fff4e0; stroke: #b85000; stroke-width: 1.8; stroke-linejoin: miter"/>
   </g>
   <g id="text_7">
    <g id="patch_18">
     <path d="M 210.781016 544.250138 
L 731.618984 544.250138 
Q 737.118984 544.250138 737.118984 538.750138 
L 737.118984 527.32045 
Q 737.118984 521.82045 731.618984 521.82045 
L 210.781016 521.82045 
Q 205.281016 521.82045 205.281016 527.32045 
L 205.281016 538.750138 
Q 205.281016 544.250138 210.781016 544.250138 
z
" style="fill: #f0f4ff; stroke: #6688cc; stroke-width: 1.5; stroke-linejoin: miter"/>
    </g>
    <!-- 关键机制：训练后 Post-Attn LN 的 gamma &lt; 1，系统性地下缩放注意力输出，避免残差分支主导信号传播 -->
    <g style="fill: #333333" transform="translate(210.781016 536.417794) scale(0.11 -0.11)">
     <defs>
      <path id="PingFangHK-Regular-5173" d="M 1984 5203 
L 1562 4998 
C 1824 4678 2067 4314 2298 3904 
L 2714 4115 
C 2483 4512 2240 4870 1984 5203 
z
M 4390 5261 
C 4198 4723 3987 4269 3744 3898 
L 819 3898 
L 819 3450 
L 2963 3450 
L 2963 3149 
C 2957 2835 2925 2541 2867 2259 
L 454 2259 
L 454 1811 
L 2752 1811 
C 2662 1530 2541 1280 2387 1050 
C 2003 538 1318 122 339 -192 
L 589 -595 
C 1574 -282 2285 160 2720 723 
C 2925 998 3085 1318 3206 1683 
C 3552 710 4422 -64 5830 -634 
L 6099 -205 
C 4755 275 3930 947 3616 1811 
L 5946 1811 
L 5946 2259 
L 3347 2259 
C 3398 2528 3424 2829 3437 3149 
L 3437 3450 
L 5574 3450 
L 5574 3898 
L 4256 3898 
C 4486 4262 4678 4678 4832 5139 
L 4390 5261 
z
" transform="scale(0.015625)"/>
      <path id="PingFangHK-Regular-952e" d="M 621 2931 
L 621 2797 
L 1139 2797 
L 1139 2010 
L 422 2010 
L 422 1587 
L 1139 1587 
L 1139 128 
C 1139 38 1082 -26 966 -70 
L 1152 -454 
C 1574 -294 1952 -90 2278 154 
L 2202 550 
C 1984 371 1766 230 1555 115 
L 1555 1587 
L 2214 1587 
L 2214 2010 
L 1555 2010 
L 1555 2797 
L 2118 2797 
L 2118 3206 
L 742 3206 
C 851 3475 954 3757 1043 4064 
L 2138 4064 
L 2138 4506 
L 1165 4506 
C 1216 4723 1261 4947 1312 5184 
L 877 5274 
C 736 4467 518 3731 218 3066 
L 576 2835 
C 589 2867 608 2899 621 2931 
z
M 5760 2541 
L 5760 3430 
L 6061 3430 
L 6061 3802 
L 5760 3802 
L 5760 4717 
L 4870 4717 
L 4870 5190 
L 4454 5190 
L 4454 4717 
L 3821 4717 
L 3821 4346 
L 4454 4346 
L 4454 3802 
L 3603 3802 
L 3603 3430 
L 4454 3430 
L 4454 2912 
L 3821 2912 
L 3821 2541 
L 4454 2541 
L 4454 2048 
L 3757 2048 
L 3757 1683 
L 4454 1683 
L 4454 1178 
L 3597 1178 
L 3597 794 
L 4454 794 
L 4454 166 
L 4870 166 
L 4870 794 
L 5990 794 
L 5990 1178 
L 4870 1178 
L 4870 1683 
L 5830 1683 
L 5830 2048 
L 4870 2048 
L 4870 2541 
L 5760 2541 
z
M 4870 4346 
L 5370 4346 
L 5370 3802 
L 4870 3802 
L 4870 4346 
z
M 4870 3430 
L 5370 3430 
L 5370 2912 
L 4870 2912 
L 4870 3430 
z
M 5139 -115 
C 4518 -90 4064 -13 3776 128 
C 3571 224 3379 371 3213 576 
C 3411 1139 3520 1824 3533 2624 
L 3533 2874 
L 2874 2874 
C 3085 3258 3296 3712 3514 4250 
L 3514 4627 
L 2355 4627 
L 2355 4230 
L 3098 4230 
C 2893 3725 2656 3251 2400 2816 
L 2400 2496 
L 3162 2496 
C 3136 1933 3059 1434 2931 998 
C 2778 1293 2656 1626 2573 2003 
L 2227 1875 
C 2355 1338 2534 890 2758 531 
C 2618 211 2432 -64 2214 -294 
L 2528 -602 
C 2726 -384 2899 -134 3040 160 
C 3155 26 3290 -90 3443 -186 
C 3776 -403 4422 -518 5370 -531 
L 6067 -531 
L 6150 -90 
C 5901 -102 5562 -115 5139 -115 
z
" transform="scale(0.015625)"/>
      <path id="PingFangHK-Regular-673a" d="M 371 3974 
L 371 3533 
L 1306 3533 
C 1094 2733 742 2022 250 1402 
L 448 902 
C 806 1427 1101 2003 1325 2643 
L 1325 -608 
L 1786 -608 
L 1786 2765 
C 1965 2515 2176 2189 2419 1786 
L 2688 2182 
C 2381 2560 2080 2899 1786 3206 
L 1786 3533 
L 2579 3533 
L 2579 3974 
L 1786 3974 
L 1786 5222 
L 1325 5222 
L 1325 3974 
L 371 3974 
z
M 2278 -326 
L 2656 -666 
C 2957 -205 3162 269 3270 768 
C 3386 1242 3443 1830 3443 2534 
L 3443 4525 
L 4582 4525 
L 4582 70 
C 4582 -301 4787 -486 5197 -486 
L 5459 -486 
C 5664 -486 5818 -448 5920 -378 
C 6022 -288 6086 -134 6112 96 
C 6138 339 6157 685 6157 1146 
L 5734 1280 
C 5734 666 5715 301 5690 173 
C 5677 83 5645 26 5594 -13 
C 5549 -38 5491 -51 5414 -51 
L 5197 -51 
C 5094 -51 5050 6 5050 115 
L 5050 4960 
L 2982 4960 
L 2982 2534 
C 2982 1875 2938 1350 2854 960 
C 2746 506 2554 77 2278 -326 
z
" transform="scale(0.015625)"/>
      <path id="PingFangHK-Regular-5236" d="M 998 3987 
L 1894 3987 
L 1894 3162 
L 346 3162 
L 346 2733 
L 1894 2733 
L 1894 2061 
L 634 2061 
L 634 -243 
L 1082 -243 
L 1082 1632 
L 1894 1632 
L 1894 -646 
L 2355 -646 
L 2355 1632 
L 3162 1632 
L 3162 467 
C 3162 301 3066 218 2886 218 
L 2573 237 
L 2688 -198 
L 3027 -198 
C 3411 -198 3603 -6 3603 371 
L 3603 2061 
L 2355 2061 
L 2355 2733 
L 3738 2733 
L 3738 3162 
L 2355 3162 
L 2355 3987 
L 3552 3987 
L 3552 4416 
L 2355 4416 
L 2355 5210 
L 1894 5210 
L 1894 4416 
L 1152 4416 
C 1203 4589 1242 4774 1274 4979 
L 838 5050 
C 749 4442 544 3968 224 3622 
L 595 3354 
C 749 3520 883 3731 998 3987 
z
M 4115 4634 
L 4115 678 
L 4563 678 
L 4563 4634 
L 4115 4634 
z
M 5286 -582 
C 5677 -582 5875 -378 5875 19 
L 5875 5210 
L 5421 5210 
L 5421 134 
C 5421 -70 5318 -173 5126 -173 
C 4845 -173 4550 -160 4243 -141 
L 4346 -582 
L 5286 -582 
z
" transform="scale(0.015625)"/>
      <path id="PingFangHK-Regular-8bad" d="M 4083 4787 
L 4083 -218 
L 4525 -218 
L 4525 4787 
L 4083 4787 
z
M 5421 5101 
L 5421 -653 
L 5875 -653 
L 5875 5101 
L 5421 5101 
z
M 2810 5082 
L 2810 2266 
C 2797 1056 2541 179 2029 -371 
L 2374 -678 
C 2944 -58 3238 922 3251 2266 
L 3251 5082 
L 2810 5082 
z
M 1037 5165 
L 717 4851 
C 1178 4506 1549 4173 1818 3859 
L 2131 4179 
C 1837 4512 1472 4838 1037 5165 
z
M 288 3270 
L 288 2829 
L 1229 2829 
L 1229 339 
C 1229 230 1178 134 1088 51 
L 1267 -358 
C 1651 -77 2010 243 2349 602 
L 2227 1082 
C 2035 877 1850 691 1670 525 
L 1670 3270 
L 288 3270 
z
" transform="scale(0.015625)"/>
      <path id="PingFangHK-Regular-7ec3" d="M 2310 659 
C 1734 416 1050 218 269 77 
L 326 -384 
C 1069 -230 1734 -38 2310 205 
L 2310 659 
z
M 1344 5216 
C 1114 4461 845 3795 525 3213 
C 467 3130 403 3072 326 3034 
L 442 2611 
C 774 2669 1101 2733 1427 2797 
C 1107 2195 832 1773 608 1517 
C 550 1466 480 1421 403 1382 
L 525 954 
C 1114 1043 1722 1203 2362 1446 
L 2362 1862 
C 1933 1702 1504 1574 1075 1485 
C 1421 1939 1869 2701 2406 3770 
L 1984 3930 
C 1869 3680 1754 3443 1638 3213 
C 1382 3162 1126 3117 870 3078 
C 1178 3571 1478 4224 1786 5043 
L 1344 5216 
z
M 3085 1363 
C 2899 838 2630 326 2278 -179 
L 2675 -403 
C 2982 38 3251 570 3488 1197 
L 3085 1363 
z
M 5485 1370 
L 5075 1235 
C 5331 762 5568 218 5779 -397 
L 6170 -224 
C 5978 339 5747 870 5485 1370 
z
M 4058 -582 
C 4422 -582 4608 -410 4608 -70 
L 4608 1734 
L 5971 1734 
L 5971 2144 
L 4608 2144 
L 4608 3386 
L 3750 3386 
C 3827 3603 3904 3840 3981 4083 
L 5971 4083 
L 5971 4512 
L 4109 4512 
C 4166 4717 4224 4928 4282 5152 
L 3834 5235 
C 3770 4986 3712 4742 3648 4512 
L 2227 4512 
L 2227 4083 
L 3520 4083 
C 3443 3840 3366 3610 3290 3386 
L 2458 3386 
L 2458 2970 
L 3123 2970 
C 2989 2662 2848 2381 2707 2131 
L 2810 1734 
L 4166 1734 
L 4166 70 
C 4166 -96 4083 -179 3923 -179 
L 3309 -160 
L 3424 -582 
L 4058 -582 
z
M 3590 2970 
L 4166 2970 
L 4166 2144 
L 3219 2144 
C 3347 2400 3469 2675 3590 2970 
z
" transform="scale(0.015625)"/>
      <path id="PingFangHK-Regular-7684" d="M 2586 4122 
L 1555 4122 
C 1683 4442 1779 4794 1856 5171 
L 1395 5235 
C 1338 4851 1248 4480 1120 4122 
L 525 4122 
L 525 -429 
L 973 -429 
L 973 122 
L 2138 122 
L 2138 -243 
L 2586 -243 
L 2586 4122 
z
M 973 550 
L 973 1952 
L 2138 1952 
L 2138 550 
L 973 550 
z
M 973 2368 
L 973 3686 
L 2138 3686 
L 2138 2368 
L 973 2368 
z
M 3699 2637 
L 3328 2406 
C 3770 1882 4122 1408 4384 986 
L 4749 1242 
C 4506 1638 4160 2106 3699 2637 
z
M 5894 4115 
L 3853 4115 
C 3968 4448 4058 4806 4134 5184 
L 3680 5242 
C 3514 4333 3213 3565 2765 2938 
L 3040 2573 
C 3290 2899 3501 3264 3680 3667 
L 5440 3667 
C 5427 1824 5402 717 5363 358 
C 5312 32 5139 -134 4838 -134 
C 4640 -134 4410 -128 4141 -115 
L 4250 -538 
C 4557 -550 4774 -563 4902 -563 
C 5440 -563 5734 -314 5798 173 
C 5862 672 5894 1990 5894 4115 
z
" transform="scale(0.015625)"/>
      <path id="PingFangHK-Regular-67" d="M 1760 3398 
C 1299 3398 934 3238 666 2912 
C 397 2605 269 2214 269 1728 
C 269 1248 397 858 666 550 
C 934 237 1299 77 1760 77 
C 2259 77 2630 301 2874 742 
L 2874 160 
C 2874 -570 2541 -941 1875 -941 
C 1574 -941 1350 -883 1203 -774 
C 1056 -672 960 -506 922 -282 
L 410 -282 
C 467 -640 614 -909 851 -1088 
C 1082 -1267 1427 -1357 1875 -1357 
C 2880 -1357 3386 -826 3386 230 
L 3386 3309 
L 2874 3309 
L 2874 2739 
C 2630 3181 2259 3398 1760 3398 
z
M 1837 2976 
C 2163 2976 2419 2861 2611 2618 
C 2790 2400 2880 2099 2880 1728 
C 2880 1370 2790 1075 2611 851 
C 2419 621 2163 506 1830 506 
C 1472 506 1210 634 1030 877 
C 870 1094 794 1382 794 1728 
C 794 2099 883 2400 1062 2618 
C 1248 2861 1504 2976 1837 2976 
z
" transform="scale(0.015625)"/>
      <path id="PingFangHK-Regular-3c" d="M 3552 3296 
L 320 1856 
L 320 1453 
L 3552 6 
L 3552 486 
L 922 1651 
L 3552 2822 
L 3552 3296 
z
" transform="scale(0.015625)"/>
      <path id="PingFangHK-Regular-31" d="M 1472 4570 
C 1318 4397 1139 4243 922 4102 
C 704 3974 486 3885 282 3827 
L 282 3302 
C 710 3430 1069 3635 1357 3930 
L 1357 0 
L 1882 0 
L 1882 4570 
L 1472 4570 
z
" transform="scale(0.015625)"/>
      <path id="PingFangHK-Regular-ff0c" d="M 3194 2746 
C 3066 2746 2963 2714 2893 2637 
C 2816 2566 2778 2470 2778 2349 
C 2778 2240 2810 2144 2886 2067 
C 2963 1990 3053 1952 3162 1952 
C 3226 1952 3277 1965 3302 1978 
C 3302 1824 3258 1683 3168 1549 
C 3059 1421 2925 1325 2758 1267 
L 2758 954 
C 3027 1024 3251 1165 3418 1370 
C 3584 1587 3667 1837 3667 2118 
C 3667 2304 3622 2451 3539 2566 
C 3450 2688 3334 2746 3194 2746 
z
" transform="scale(0.015625)"/>
      <path id="PingFangHK-Regular-7cfb" d="M 2989 -602 
C 3334 -602 3507 -429 3507 -83 
L 3507 1549 
C 4109 1587 4653 1632 5139 1683 
C 5274 1478 5395 1274 5510 1075 
L 5875 1325 
C 5606 1773 5229 2298 4730 2899 
L 4390 2688 
C 4570 2470 4730 2259 4883 2048 
C 4096 1971 3162 1901 2074 1843 
C 2976 2208 4026 2797 5229 3603 
L 4787 3814 
C 4493 3616 4211 3424 3930 3245 
L 2170 3110 
C 2771 3379 3341 3725 3885 4147 
L 3546 4390 
C 2726 3770 1907 3347 1075 3130 
L 1146 2739 
C 1862 2771 2573 2810 3290 2861 
C 2515 2419 1818 2099 1190 1901 
C 1069 1862 934 1830 794 1818 
L 922 1414 
C 1683 1440 2387 1478 3040 1517 
L 3040 26 
C 3040 -122 2970 -198 2829 -198 
C 2611 -198 2387 -186 2157 -166 
L 2259 -602 
L 2989 -602 
z
M 4339 1235 
L 4038 947 
C 4685 422 5197 -64 5568 -525 
L 5888 -205 
C 5466 275 4954 755 4339 1235 
z
M 1990 1171 
C 1562 672 1037 230 416 -141 
L 691 -512 
C 1331 -109 1875 358 2310 896 
L 1990 1171 
z
M 4518 5210 
C 4058 5030 3546 4883 2989 4755 
C 2355 4614 1645 4493 864 4403 
L 1101 4026 
C 2029 4173 2778 4314 3341 4448 
C 3872 4582 4397 4755 4915 4960 
L 4518 5210 
z
" transform="scale(0.015625)"/>
      <path id="PingFangHK-Regular-7edf" d="M 2445 819 
C 1856 525 1171 294 390 122 
L 448 -339 
C 1190 -160 1856 83 2445 378 
L 2445 819 
z
M 1421 5242 
C 1165 4486 870 3821 525 3238 
C 461 3149 397 3091 320 3059 
L 442 2637 
C 794 2688 1146 2752 1491 2816 
C 1139 2202 838 1773 595 1517 
C 538 1466 467 1414 384 1376 
L 512 954 
C 1126 1056 1773 1242 2445 1523 
L 2445 1952 
C 1990 1754 1542 1600 1094 1485 
C 1466 1946 1933 2707 2496 3770 
L 2080 3930 
C 1958 3686 1843 3462 1728 3245 
C 1446 3194 1165 3142 883 3104 
C 1216 3590 1542 4243 1862 5062 
L 1421 5242 
z
M 2662 2432 
C 3597 2502 4461 2598 5254 2726 
C 5363 2560 5459 2400 5549 2234 
L 5907 2483 
C 5670 2906 5331 3392 4896 3949 
L 4544 3731 
C 4704 3526 4858 3315 4998 3110 
C 4410 3014 3814 2944 3219 2893 
C 3437 3149 3686 3552 3968 4109 
L 5926 4109 
L 5926 4550 
L 4486 4550 
C 4397 4819 4301 5069 4205 5286 
L 3738 5210 
C 3840 5011 3936 4794 4026 4550 
L 2394 4550 
L 2394 4109 
L 3488 4109 
C 3142 3443 2867 3034 2650 2874 
C 2624 2867 2598 2854 2560 2842 
L 2662 2432 
z
M 3181 2170 
C 3155 1446 3066 922 2912 589 
C 2752 262 2483 -19 2106 -262 
L 2400 -627 
C 2835 -346 3142 -6 3328 390 
C 3494 768 3597 1363 3629 2170 
L 3181 2170 
z
M 5459 -525 
C 5741 -512 5920 -435 6003 -307 
C 6086 -166 6131 211 6131 813 
L 5734 954 
C 5734 576 5715 301 5690 122 
C 5664 -19 5581 -96 5440 -109 
L 5024 -109 
C 4922 -96 4877 -26 4877 109 
L 4877 2227 
L 4435 2227 
L 4435 32 
C 4435 -339 4627 -525 5011 -525 
L 5459 -525 
z
" transform="scale(0.015625)"/>
      <path id="PingFangHK-Regular-6027" d="M 474 3994 
C 454 3379 378 2797 243 2246 
L 621 2138 
C 749 2714 826 3328 838 3968 
L 474 3994 
z
M 2080 4128 
L 1741 4019 
C 1888 3661 2010 3283 2106 2893 
L 2426 2976 
C 2368 2848 2304 2714 2234 2573 
L 2573 2266 
C 2797 2662 2970 3098 3085 3565 
L 4083 3565 
L 4083 2016 
L 2618 2016 
L 2618 1562 
L 4083 1562 
L 4083 0 
L 2253 0 
L 2253 -448 
L 6118 -448 
L 6118 0 
L 4557 0 
L 4557 1562 
L 5856 1562 
L 5856 2016 
L 4557 2016 
L 4557 3565 
L 5952 3565 
L 5952 4006 
L 4557 4006 
L 4557 5203 
L 4083 5203 
L 4083 4006 
L 3168 4006 
C 3206 4250 3232 4506 3245 4774 
L 2829 4832 
C 2797 4198 2669 3603 2451 3046 
C 2342 3456 2221 3814 2080 4128 
z
M 1165 5210 
L 1165 -614 
L 1632 -614 
L 1632 5210 
L 1165 5210 
z
" transform="scale(0.015625)"/>
      <path id="PingFangHK-Regular-5730" d="M 4109 5229 
L 4109 3603 
L 3290 3360 
L 3290 4576 
L 2848 4576 
L 2848 3226 
L 2387 3091 
L 2387 2643 
L 2848 2778 
L 2848 154 
C 2848 -294 3046 -525 3456 -525 
L 5325 -525 
C 5568 -525 5741 -461 5856 -339 
C 5984 -198 6067 205 6112 864 
L 5683 998 
C 5658 474 5613 154 5536 45 
C 5478 -45 5382 -90 5242 -90 
L 3597 -90 
C 3392 -90 3290 26 3290 243 
L 3290 2912 
L 4109 3155 
L 4109 736 
L 4550 736 
L 4550 3283 
L 5453 3552 
C 5395 2899 5306 2298 5184 1734 
L 5606 1606 
C 5786 2496 5882 3341 5894 4134 
L 4550 3738 
L 4550 5229 
L 4109 5229 
z
M 339 3501 
L 339 3053 
L 1094 3053 
L 1094 794 
C 819 717 538 646 256 582 
L 371 122 
C 1101 314 1773 550 2400 832 
L 2400 1286 
C 2125 1158 1843 1050 1555 947 
L 1555 3053 
L 2272 3053 
L 2272 3501 
L 1555 3501 
L 1555 5203 
L 1094 5203 
L 1094 3501 
L 339 3501 
z
" transform="scale(0.015625)"/>
      <path id="PingFangHK-Regular-907f" d="M 3462 4493 
L 3462 3475 
L 2669 3475 
L 2669 4493 
L 3462 4493 
z
M 2662 3085 
L 3859 3085 
L 3859 4896 
L 2266 4896 
L 2266 3328 
C 2259 2266 2106 1402 1798 730 
L 2106 454 
C 2451 1197 2637 2074 2662 3085 
z
M 4909 2643 
L 4909 1926 
L 4198 1926 
L 4198 1536 
L 4909 1536 
L 4909 282 
L 5325 282 
L 5325 1536 
L 6010 1536 
L 6010 1926 
L 5325 1926 
L 5325 2643 
L 6125 2643 
L 6125 3040 
L 5594 3040 
C 5722 3328 5824 3642 5901 3981 
L 5523 4032 
C 5459 3686 5357 3360 5222 3040 
L 4109 3040 
L 4109 2643 
L 4909 2643 
z
M 5133 5222 
L 4723 5146 
C 4800 4992 4870 4813 4934 4614 
L 4128 4614 
L 4128 4218 
L 6093 4218 
L 6093 4614 
L 5331 4614 
C 5267 4838 5203 5043 5133 5222 
z
M 4646 4013 
L 4320 3872 
C 4435 3661 4550 3411 4653 3123 
L 4973 3258 
C 4883 3526 4774 3776 4646 4013 
z
M 2707 2522 
L 2707 422 
L 3962 422 
L 3962 2522 
L 2707 2522 
z
M 3603 781 
L 3066 781 
L 3066 2170 
L 3603 2170 
L 3603 781 
z
M 794 5139 
L 493 4851 
C 896 4544 1216 4250 1446 3974 
L 1747 4275 
C 1491 4563 1171 4851 794 5139 
z
M 358 3616 
L 358 3194 
L 1248 3194 
C 1062 2854 838 2515 570 2176 
L 570 1824 
L 1344 1824 
C 1254 1382 1139 986 998 640 
C 768 550 531 224 282 -326 
L 621 -627 
C 845 -64 1018 218 1146 218 
C 1203 218 1254 198 1306 154 
C 1536 -77 1792 -243 2067 -352 
C 2310 -448 2669 -506 3130 -518 
C 3514 -531 3962 -538 4474 -538 
L 6035 -538 
L 6138 -96 
C 5434 -115 4858 -128 4416 -128 
C 3942 -128 3526 -122 3155 -122 
C 2771 -115 2464 -70 2246 13 
C 2022 109 1811 256 1606 448 
C 1542 499 1485 544 1421 582 
C 1562 941 1683 1382 1773 1907 
L 1773 2214 
L 1094 2214 
C 1338 2547 1555 2893 1747 3251 
L 1747 3616 
L 358 3616 
z
" transform="scale(0.015625)"/>
      <path id="PingFangHK-Regular-514d" d="M 1120 3341 
L 1120 1536 
L 2682 1536 
C 2643 1446 2605 1350 2560 1261 
C 2202 646 1459 128 346 -282 
L 640 -646 
C 1882 -166 2682 442 3027 1184 
C 3078 1299 3130 1414 3174 1536 
L 3507 1536 
L 3507 134 
C 3507 -314 3706 -538 4102 -538 
L 5357 -538 
C 5581 -538 5741 -480 5843 -365 
C 5958 -230 6035 147 6080 762 
L 5638 902 
C 5619 422 5581 134 5517 32 
C 5466 -45 5389 -90 5274 -90 
L 4243 -90 
C 4058 -90 3968 19 3968 230 
L 3968 1536 
L 5427 1536 
L 5427 3475 
L 3859 3475 
C 4122 3706 4384 3987 4653 4320 
L 4653 4672 
L 2445 4672 
C 2560 4826 2669 4986 2771 5152 
L 2310 5261 
C 1792 4467 1133 3834 326 3347 
L 621 2995 
C 787 3104 954 3219 1120 3341 
z
M 3270 3475 
L 1293 3475 
C 1587 3712 1856 3968 2106 4250 
L 4051 4250 
C 3795 3955 3539 3699 3270 3475 
z
M 4986 1971 
L 3302 1971 
C 3379 2298 3418 2656 3430 3046 
L 4986 3046 
L 4986 1971 
z
M 2822 1971 
L 1568 1971 
L 1568 3046 
L 2970 3046 
C 2957 2656 2906 2298 2822 1971 
z
" transform="scale(0.015625)"/>
      <path id="PingFangHK-Regular-6b8b" d="M 1107 4435 
C 979 3354 698 2541 262 1997 
L 493 1587 
C 838 1958 1107 2470 1299 3130 
L 2176 3130 
C 2099 2656 1997 2214 1856 1811 
C 1632 2003 1402 2150 1171 2266 
L 979 1901 
C 1229 1779 1466 1613 1696 1408 
C 1382 698 947 147 384 -237 
L 608 -646 
C 1690 83 2349 1357 2592 3162 
L 2592 3558 
L 1408 3558 
C 1466 3827 1517 4122 1562 4435 
L 2822 4435 
L 2822 4870 
L 403 4870 
L 403 4435 
L 1107 4435 
z
M 5491 1747 
C 5235 1427 4954 1146 4640 890 
C 4544 1146 4467 1434 4403 1766 
L 6048 2061 
L 5978 2483 
L 4339 2182 
C 4314 2368 4294 2566 4282 2778 
L 5638 3008 
L 5574 3418 
L 4256 3200 
C 4243 3379 4237 3571 4237 3763 
L 5747 3974 
L 5690 4397 
L 4230 4192 
L 4230 5242 
L 3763 5242 
L 3763 4128 
L 2822 3994 
L 2886 3578 
L 3763 3699 
C 3763 3507 3770 3315 3782 3123 
L 2982 2989 
L 3046 2573 
L 3814 2701 
C 3827 2496 3853 2298 3885 2099 
L 2790 1901 
L 2854 1485 
L 3962 1683 
C 3962 1658 3968 1632 3981 1594 
C 4058 1235 4160 915 4282 627 
C 3770 282 3174 26 2502 -154 
L 2771 -525 
C 3379 -365 3949 -109 4474 237 
C 4512 166 4550 96 4602 32 
C 4877 -352 5165 -544 5459 -550 
C 5754 -550 5978 -173 6131 570 
L 5734 819 
C 5645 230 5536 -64 5408 -64 
C 5248 -64 5069 96 4864 410 
L 4819 486 
C 5184 774 5530 1114 5850 1510 
L 5491 1747 
z
M 4954 5261 
L 4614 5050 
C 4864 4813 5062 4595 5210 4390 
L 5549 4634 
C 5408 4813 5210 5024 4954 5261 
z
" transform="scale(0.015625)"/>
      <path id="PingFangHK-Regular-5dee" d="M 621 4531 
L 621 4102 
L 2970 4102 
L 2970 3533 
L 998 3533 
L 998 3104 
L 2970 3104 
L 2970 2554 
L 435 2554 
L 435 2118 
L 1875 2118 
C 1574 1370 1030 819 237 474 
L 538 115 
C 1133 410 1600 813 1946 1338 
L 1946 1005 
L 3315 1005 
L 3315 -26 
L 1043 -26 
L 1043 -474 
L 5965 -474 
L 5965 -26 
L 3776 -26 
L 3776 1005 
L 5587 1005 
L 5587 1453 
L 2016 1453 
C 2138 1658 2240 1875 2323 2118 
L 5990 2118 
L 5990 2554 
L 3443 2554 
L 3443 3104 
L 5453 3104 
L 5453 3533 
L 3443 3533 
L 3443 4102 
L 5805 4102 
L 5805 4531 
L 4384 4531 
C 4512 4749 4608 4979 4678 5229 
L 4198 5293 
C 4134 5030 4045 4774 3917 4531 
L 2547 4531 
C 2458 4806 2362 5050 2272 5267 
L 1792 5190 
C 1894 4992 1990 4774 2080 4531 
L 621 4531 
z
" transform="scale(0.015625)"/>
      <path id="PingFangHK-Regular-5206" d="M 2310 5094 
C 2054 4608 1773 4192 1466 3834 
C 1114 3430 717 3104 282 2854 
L 531 2451 
C 1062 2810 1491 3174 1811 3546 
C 2112 3885 2413 4320 2714 4851 
L 2310 5094 
z
M 2522 2240 
C 2387 1638 2189 1152 1920 781 
C 1619 397 1171 45 582 -275 
L 877 -659 
C 1530 -294 2022 115 2349 576 
C 2624 986 2835 1542 2989 2240 
L 4582 2240 
C 4550 1242 4480 595 4365 288 
C 4256 -6 4032 -154 3686 -154 
C 3354 -154 3002 -147 2630 -134 
L 2758 -589 
L 3923 -589 
C 4243 -570 4474 -467 4614 -282 
C 4762 -90 4864 256 4928 742 
C 4992 1235 5030 1882 5050 2682 
L 1229 2682 
L 1229 2240 
L 2522 2240 
z
M 4115 5178 
L 3718 4954 
C 4109 3942 4800 3117 5792 2477 
L 6099 2842 
C 5146 3411 4486 4192 4115 5178 
z
" transform="scale(0.015625)"/>
      <path id="PingFangHK-Regular-652f" d="M 2950 5229 
L 2950 4390 
L 461 4390 
L 461 3942 
L 2950 3942 
L 2950 2963 
L 947 2963 
L 947 2534 
L 1440 2534 
C 1542 2189 1709 1862 1939 1568 
C 2189 1248 2483 960 2816 710 
C 2125 301 1293 -19 320 -250 
L 582 -659 
C 1600 -384 2470 -19 3200 442 
C 3520 237 3878 51 4269 -115 
C 4762 -320 5286 -499 5837 -646 
L 6106 -243 
C 5587 -115 5101 32 4646 205 
C 4262 358 3910 531 3590 710 
C 4269 1222 4787 1837 5146 2554 
L 5146 2963 
L 3424 2963 
L 3424 3942 
L 5939 3942 
L 5939 4390 
L 3424 4390 
L 3424 5229 
L 2950 5229 
z
M 3194 960 
C 2912 1152 2656 1376 2432 1632 
C 2189 1894 2010 2195 1894 2534 
L 4627 2534 
C 4294 1920 3814 1395 3194 960 
z
" transform="scale(0.015625)"/>
      <path id="PingFangHK-Regular-4e3b" d="M 2970 3686 
L 2970 2176 
L 896 2176 
L 896 1747 
L 2970 1747 
L 2970 32 
L 365 32 
L 365 -422 
L 6042 -422 
L 6042 32 
L 3437 32 
L 3437 1747 
L 5510 1747 
L 5510 2176 
L 3437 2176 
L 3437 3686 
L 5818 3686 
L 5818 4141 
L 3181 4141 
L 3430 4237 
C 3341 4544 3219 4877 3059 5242 
L 2611 5120 
C 2765 4806 2899 4480 3008 4141 
L 589 4141 
L 589 3686 
L 2970 3686 
z
" transform="scale(0.015625)"/>
      <path id="PingFangHK-Regular-5bfc" d="M 314 1683 
L 314 1235 
L 4211 1235 
L 4211 -6 
C 4211 -160 4115 -237 3930 -237 
C 3686 -237 3437 -224 3168 -205 
L 3270 -659 
L 4090 -659 
C 4474 -659 4672 -480 4672 -122 
L 4672 1235 
L 6080 1235 
L 6080 1683 
L 4672 1683 
L 4672 2086 
L 4211 2086 
L 4211 1683 
L 314 1683 
z
M 5114 4979 
L 986 4979 
L 986 2829 
C 986 2483 1171 2304 1555 2304 
L 5280 2304 
C 5549 2317 5728 2413 5818 2605 
C 5869 2733 5914 2938 5946 3226 
L 5510 3366 
C 5485 3098 5446 2931 5408 2861 
C 5357 2784 5274 2739 5146 2733 
L 1722 2733 
C 1542 2733 1446 2822 1446 2995 
L 1446 3456 
L 5114 3456 
L 5114 4979 
z
M 1446 3878 
L 1446 4563 
L 4653 4563 
L 4653 3878 
L 1446 3878 
z
M 1786 1043 
L 1459 730 
C 1907 365 2266 19 2522 -307 
L 2867 38 
C 2573 371 2214 710 1786 1043 
z
" transform="scale(0.015625)"/>
      <path id="PingFangHK-Regular-4fe1" d="M 986 2944 
L 986 -653 
L 1440 -653 
L 1440 3699 
C 1664 4134 1850 4595 2003 5088 
L 1574 5286 
C 1286 4288 832 3398 205 2624 
L 352 2131 
C 582 2387 794 2662 986 2944 
z
M 1978 4384 
L 1978 3949 
L 6144 3949 
L 6144 4384 
L 4128 4384 
L 4371 4474 
C 4294 4710 4192 4966 4058 5248 
L 3616 5126 
C 3744 4883 3853 4640 3949 4384 
L 1978 4384 
z
M 2566 3430 
L 2566 3014 
L 5594 3014 
L 5594 3430 
L 2566 3430 
z
M 2566 2528 
L 2566 2106 
L 5594 2106 
L 5594 2528 
L 2566 2528 
z
M 5709 1581 
L 2445 1581 
L 2445 -640 
L 2893 -640 
L 2893 -294 
L 5261 -294 
L 5261 -640 
L 5709 -640 
L 5709 1581 
z
M 2893 141 
L 2893 1152 
L 5261 1152 
L 5261 141 
L 2893 141 
z
" transform="scale(0.015625)"/>
      <path id="PingFangHK-Regular-53f7" d="M 1325 4998 
L 1325 3270 
L 5075 3270 
L 5075 4998 
L 1325 4998 
z
M 4602 3686 
L 1798 3686 
L 1798 4582 
L 4602 4582 
L 4602 3686 
z
M 1786 2278 
L 1485 1114 
L 4698 1114 
C 4659 538 4602 179 4525 38 
C 4442 -102 4230 -173 3885 -173 
C 3622 -173 3322 -160 2982 -134 
L 3136 -557 
C 3386 -582 3667 -595 3987 -595 
C 4422 -595 4717 -499 4870 -307 
C 5024 -109 5126 506 5165 1530 
L 2035 1530 
L 2253 2278 
L 6074 2278 
L 6074 2720 
L 320 2720 
L 320 2278 
L 1786 2278 
z
" transform="scale(0.015625)"/>
      <path id="PingFangHK-Regular-4f20" d="M 1069 2931 
L 1069 -653 
L 1530 -653 
L 1530 3629 
C 1786 4070 1990 4538 2157 5030 
L 1722 5235 
C 1408 4250 909 3373 230 2611 
L 378 2118 
C 627 2374 858 2650 1069 2931 
z
M 2240 4410 
L 2240 3962 
L 3379 3962 
C 3315 3718 3245 3469 3168 3219 
L 1958 3219 
L 1958 2778 
L 3027 2778 
C 2880 2349 2720 1933 2554 1536 
L 5293 1536 
C 4998 1152 4602 787 4096 435 
C 3725 614 3341 781 2944 934 
L 2701 576 
C 3520 269 4326 -154 5107 -691 
L 5370 -294 
C 5088 -109 4800 64 4499 224 
C 5088 672 5517 1120 5786 1568 
L 5786 1965 
L 3155 1965 
C 3258 2214 3366 2483 3469 2778 
L 6144 2778 
L 6144 3219 
L 3616 3219 
C 3693 3456 3763 3706 3834 3962 
L 5882 3962 
L 5882 4410 
L 3949 4410 
C 4006 4659 4064 4922 4128 5190 
L 3680 5235 
L 3488 4410 
L 2240 4410 
z
" transform="scale(0.015625)"/>
      <path id="PingFangHK-Regular-64ad" d="M 4320 2957 
C 4826 2675 5267 2374 5638 2054 
L 2662 2054 
C 3168 2362 3552 2739 3821 3174 
L 3904 3174 
L 3904 2259 
L 4320 2259 
L 4320 2957 
z
M 2534 1978 
L 2534 -646 
L 2957 -646 
L 2957 -333 
L 5261 -333 
L 5261 -646 
L 5683 -646 
L 5683 2016 
L 5875 1843 
L 6157 2182 
C 5696 2541 5152 2867 4518 3174 
L 6003 3174 
L 6003 3584 
L 5216 3584 
C 5350 3789 5472 4026 5581 4282 
L 5184 4422 
C 5075 4128 4947 3846 4806 3584 
L 4320 3584 
L 4320 4557 
C 4922 4614 5453 4704 5914 4826 
L 5702 5190 
C 4794 4973 3654 4858 2285 4858 
L 2419 4474 
C 2944 4474 3443 4493 3904 4525 
L 3904 3584 
L 3392 3584 
C 3302 3853 3200 4090 3091 4282 
L 2707 4134 
C 2822 3968 2918 3782 3008 3584 
L 2272 3584 
L 2272 3174 
L 3488 3174 
C 3181 2797 2707 2483 2067 2227 
L 2067 2579 
C 1901 2483 1728 2387 1549 2298 
L 1549 3558 
L 2106 3558 
L 2106 4000 
L 1549 4000 
L 1549 5210 
L 1088 5210 
L 1088 4000 
L 346 4000 
L 346 3558 
L 1088 3558 
L 1088 2093 
C 813 1984 531 1888 243 1811 
L 358 1357 
C 602 1446 845 1536 1088 1638 
L 1088 64 
C 1088 -90 1005 -173 851 -173 
C 698 -173 531 -160 365 -141 
L 461 -582 
L 1011 -582 
C 1370 -582 1549 -403 1549 -51 
L 1549 1850 
C 1722 1939 1894 2029 2067 2125 
L 2067 2214 
L 2291 1850 
C 2368 1888 2451 1933 2534 1978 
z
M 2957 58 
L 2957 672 
L 3917 672 
L 3917 58 
L 2957 58 
z
M 4314 58 
L 4314 672 
L 5261 672 
L 5261 58 
L 4314 58 
z
M 2957 1037 
L 2957 1677 
L 3917 1677 
L 3917 1037 
L 2957 1037 
z
M 4314 1037 
L 4314 1677 
L 5261 1677 
L 5261 1037 
L 4314 1037 
z
" transform="scale(0.015625)"/>
     </defs>
     <use xlink:href="#PingFangHK-Regular-5173"/>
     <use xlink:href="#PingFangHK-Regular-952e" transform="translate(99.999985 0)"/>
     <use xlink:href="#PingFangHK-Regular-673a" transform="translate(199.999969 0)"/>
     <use xlink:href="#PingFangHK-Regular-5236" transform="translate(299.999954 0)"/>
     <use xlink:href="#PingFangHK-Regular-ff1a" transform="translate(399.999939 0)"/>
     <use xlink:href="#PingFangHK-Regular-8bad" transform="translate(499.999924 0)"/>
     <use xlink:href="#PingFangHK-Regular-7ec3" transform="translate(599.999908 0)"/>
     <use xlink:href="#PingFangHK-Regular-540e" transform="translate(699.999893 0)"/>
     <use xlink:href="#PingFangHK-Regular-20" transform="translate(799.999878 0)"/>
     <use xlink:href="#PingFangHK-Regular-50" transform="translate(833.299866 0)"/>
     <use xlink:href="#PingFangHK-Regular-6f" transform="translate(897.499863 0)"/>
     <use xlink:href="#PingFangHK-Regular-73" transform="translate(956.099854 0)"/>
     <use xlink:href="#PingFangHK-Regular-74" transform="translate(1006.599838 0)"/>
     <use xlink:href="#PingFangHK-Regular-2d" transform="translate(1042.099823 0)"/>
     <use xlink:href="#PingFangHK-Regular-41" transform="translate(1102.599808 0)"/>
     <use xlink:href="#PingFangHK-Regular-74" transform="translate(1168.299805 0)"/>
     <use xlink:href="#PingFangHK-Regular-74" transform="translate(1203.799789 0)"/>
     <use xlink:href="#PingFangHK-Regular-6e" transform="translate(1239.299774 0)"/>
     <use xlink:href="#PingFangHK-Regular-20" transform="translate(1295.199768 0)"/>
     <use xlink:href="#PingFangHK-Regular-4c" transform="translate(1328.499756 0)"/>
     <use xlink:href="#PingFangHK-Regular-4e" transform="translate(1387.299744 0)"/>
     <use xlink:href="#PingFangHK-Regular-20" transform="translate(1459.199738 0)"/>
     <use xlink:href="#PingFangHK-Regular-7684" transform="translate(1492.499725 0)"/>
     <use xlink:href="#PingFangHK-Regular-20" transform="translate(1592.49971 0)"/>
     <use xlink:href="#PingFangHK-Regular-67" transform="translate(1625.799698 0)"/>
     <use xlink:href="#PingFangHK-Regular-61" transform="translate(1684.899689 0)"/>
     <use xlink:href="#PingFangHK-Regular-6d" transform="translate(1740.799683 0)"/>
     <use xlink:href="#PingFangHK-Regular-6d" transform="translate(1826.299667 0)"/>
     <use xlink:href="#PingFangHK-Regular-61" transform="translate(1911.799652 0)"/>
     <use xlink:href="#PingFangHK-Regular-20" transform="translate(1967.699646 0)"/>
     <use xlink:href="#PingFangHK-Regular-3c" transform="translate(2000.999634 0)"/>
     <use xlink:href="#PingFangHK-Regular-20" transform="translate(2061.499619 0)"/>
     <use xlink:href="#PingFangHK-Regular-31" transform="translate(2094.799606 0)"/>
     <use xlink:href="#PingFangHK-Regular-ff0c" transform="translate(2134.899597 0)"/>
     <use xlink:href="#PingFangHK-Regular-7cfb" transform="translate(2234.899582 0)"/>
     <use xlink:href="#PingFangHK-Regular-7edf" transform="translate(2334.899567 0)"/>
     <use xlink:href="#PingFangHK-Regular-6027" transform="translate(2434.899551 0)"/>
     <use xlink:href="#PingFangHK-Regular-5730" transform="translate(2534.899536 0)"/>
     <use xlink:href="#PingFangHK-Regular-4e0b" transform="translate(2634.899521 0)"/>
     <use xlink:href="#PingFangHK-Regular-7f29" transform="translate(2734.899506 0)"/>
     <use xlink:href="#PingFangHK-Regular-653e" transform="translate(2834.89949 0)"/>
     <use xlink:href="#PingFangHK-Regular-6ce8" transform="translate(2934.899475 0)"/>
     <use xlink:href="#PingFangHK-Regular-610f" transform="translate(3034.89946 0)"/>
     <use xlink:href="#PingFangHK-Regular-529b" transform="translate(3134.899445 0)"/>
     <use xlink:href="#PingFangHK-Regular-8f93" transform="translate(3234.899429 0)"/>
     <use xlink:href="#PingFangHK-Regular-51fa" transform="translate(3334.899414 0)"/>
     <use xlink:href="#PingFangHK-Regular-ff0c" transform="translate(3434.899399 0)"/>
     <use xlink:href="#PingFangHK-Regular-907f" transform="translate(3534.899384 0)"/>
     <use xlink:href="#PingFangHK-Regular-514d" transform="translate(3634.899368 0)"/>
     <use xlink:href="#PingFangHK-Regular-6b8b" transform="translate(3734.899353 0)"/>
     <use xlink:href="#PingFangHK-Regular-5dee" transform="translate(3834.899338 0)"/>
     <use xlink:href="#PingFangHK-Regular-5206" transform="translate(3934.899323 0)"/>
     <use xlink:href="#PingFangHK-Regular-652f" transform="translate(4034.899307 0)"/>
     <use xlink:href="#PingFangHK-Regular-4e3b" transform="translate(4134.899292 0)"/>
     <use xlink:href="#PingFangHK-Regular-5bfc" transform="translate(4234.899277 0)"/>
     <use xlink:href="#PingFangHK-Regular-4fe1" transform="translate(4334.899261 0)"/>
     <use xlink:href="#PingFangHK-Regular-53f7" transform="translate(4434.899246 0)"/>
     <use xlink:href="#PingFangHK-Regular-4f20" transform="translate(4534.899231 0)"/>
     <use xlink:href="#PingFangHK-Regular-64ad" transform="translate(4634.899216 0)"/>
    </g>
   </g>
   <g id="text_8">
    <!-- LayerNorm(x) -->
    <g style="fill: #b8960a" transform="translate(189.297644 152.57546) scale(0.12 -0.12)">
     <defs>
      <path id="DejaVuSans-Bold-4c" d="M 588 4666 
L 1791 4666 
L 1791 909 
L 3903 909 
L 3903 0 
L 588 0 
L 588 4666 
z
" transform="scale(0.015625)"/>
      <path id="DejaVuSans-Bold-61" d="M 2106 1575 
Q 1756 1575 1579 1456 
Q 1403 1338 1403 1106 
Q 1403 894 1545 773 
Q 1688 653 1941 653 
Q 2256 653 2472 879 
Q 2688 1106 2688 1447 
L 2688 1575 
L 2106 1575 
z
M 3816 1997 
L 3816 0 
L 2688 0 
L 2688 519 
Q 2463 200 2181 54 
Q 1900 -91 1497 -91 
Q 953 -91 614 226 
Q 275 544 275 1050 
Q 275 1666 698 1953 
Q 1122 2241 2028 2241 
L 2688 2241 
L 2688 2328 
Q 2688 2594 2478 2717 
Q 2269 2841 1825 2841 
Q 1466 2841 1156 2769 
Q 847 2697 581 2553 
L 581 3406 
Q 941 3494 1303 3539 
Q 1666 3584 2028 3584 
Q 2975 3584 3395 3211 
Q 3816 2838 3816 1997 
z
" transform="scale(0.015625)"/>
      <path id="DejaVuSans-Bold-79" d="M 78 3500 
L 1197 3500 
L 2138 1125 
L 2938 3500 
L 4056 3500 
L 2584 -331 
Q 2363 -916 2067 -1148 
Q 1772 -1381 1288 -1381 
L 641 -1381 
L 641 -647 
L 991 -647 
Q 1275 -647 1404 -556 
Q 1534 -466 1606 -231 
L 1638 -134 
L 78 3500 
z
" transform="scale(0.015625)"/>
      <path id="DejaVuSans-Bold-65" d="M 4031 1759 
L 4031 1441 
L 1416 1441 
Q 1456 1047 1700 850 
Q 1944 653 2381 653 
Q 2734 653 3104 758 
Q 3475 863 3866 1075 
L 3866 213 
Q 3469 63 3072 -14 
Q 2675 -91 2278 -91 
Q 1328 -91 801 392 
Q 275 875 275 1747 
Q 275 2603 792 3093 
Q 1309 3584 2216 3584 
Q 3041 3584 3536 3087 
Q 4031 2591 4031 1759 
z
M 2881 2131 
Q 2881 2450 2695 2645 
Q 2509 2841 2209 2841 
Q 1884 2841 1681 2658 
Q 1478 2475 1428 2131 
L 2881 2131 
z
" transform="scale(0.015625)"/>
      <path id="DejaVuSans-Bold-72" d="M 3138 2547 
Q 2991 2616 2845 2648 
Q 2700 2681 2553 2681 
Q 2122 2681 1889 2404 
Q 1656 2128 1656 1613 
L 1656 0 
L 538 0 
L 538 3500 
L 1656 3500 
L 1656 2925 
Q 1872 3269 2151 3426 
Q 2431 3584 2822 3584 
Q 2878 3584 2943 3579 
Q 3009 3575 3134 3559 
L 3138 2547 
z
" transform="scale(0.015625)"/>
      <path id="DejaVuSans-Bold-6f" d="M 2203 2784 
Q 1831 2784 1636 2517 
Q 1441 2250 1441 1747 
Q 1441 1244 1636 976 
Q 1831 709 2203 709 
Q 2569 709 2762 976 
Q 2956 1244 2956 1747 
Q 2956 2250 2762 2517 
Q 2569 2784 2203 2784 
z
M 2203 3584 
Q 3106 3584 3614 3096 
Q 4122 2609 4122 1747 
Q 4122 884 3614 396 
Q 3106 -91 2203 -91 
Q 1297 -91 786 396 
Q 275 884 275 1747 
Q 275 2609 786 3096 
Q 1297 3584 2203 3584 
z
" transform="scale(0.015625)"/>
      <path id="DejaVuSans-Bold-6d" d="M 3781 2919 
Q 3994 3244 4286 3414 
Q 4578 3584 4928 3584 
Q 5531 3584 5847 3212 
Q 6163 2841 6163 2131 
L 6163 0 
L 5038 0 
L 5038 1825 
Q 5041 1866 5042 1909 
Q 5044 1953 5044 2034 
Q 5044 2406 4934 2573 
Q 4825 2741 4581 2741 
Q 4263 2741 4089 2478 
Q 3916 2216 3909 1719 
L 3909 0 
L 2784 0 
L 2784 1825 
Q 2784 2406 2684 2573 
Q 2584 2741 2328 2741 
Q 2006 2741 1831 2477 
Q 1656 2213 1656 1722 
L 1656 0 
L 531 0 
L 531 3500 
L 1656 3500 
L 1656 2988 
Q 1863 3284 2130 3434 
Q 2397 3584 2719 3584 
Q 3081 3584 3359 3409 
Q 3638 3234 3781 2919 
z
" transform="scale(0.015625)"/>
      <path id="DejaVuSans-Bold-28" d="M 2413 -844 
L 1484 -844 
Q 1006 -72 778 623 
Q 550 1319 550 2003 
Q 550 2688 779 3389 
Q 1009 4091 1484 4856 
L 2413 4856 
Q 2013 4116 1813 3408 
Q 1613 2700 1613 2009 
Q 1613 1319 1811 609 
Q 2009 -100 2413 -844 
z
" transform="scale(0.015625)"/>
      <path id="DejaVuSans-Bold-78" d="M 1422 1791 
L 159 3500 
L 1344 3500 
L 2059 2463 
L 2784 3500 
L 3969 3500 
L 2706 1797 
L 4031 0 
L 2847 0 
L 2059 1106 
L 1281 0 
L 97 0 
L 1422 1791 
z
" transform="scale(0.015625)"/>
      <path id="DejaVuSans-Bold-29" d="M 513 -844 
Q 913 -100 1113 609 
Q 1313 1319 1313 2009 
Q 1313 2700 1113 3408 
Q 913 4116 513 4856 
L 1441 4856 
Q 1916 4091 2145 3389 
Q 2375 2688 2375 2003 
Q 2375 1319 2147 623 
Q 1919 -72 1441 -844 
L 513 -844 
z
" transform="scale(0.015625)"/>
     </defs>
     <use xlink:href="#DejaVuSans-Bold-4c"/>
     <use xlink:href="#DejaVuSans-Bold-61" transform="translate(63.720703 0)"/>
     <use xlink:href="#DejaVuSans-Bold-79" transform="translate(128.076172 0)"/>
     <use xlink:href="#DejaVuSans-Bold-65" transform="translate(193.261719 0)"/>
     <use xlink:href="#DejaVuSans-Bold-72" transform="translate(261.083984 0)"/>
     <use xlink:href="#DejaVuSans-Bold-4e" transform="translate(310.400391 0)"/>
     <use xlink:href="#DejaVuSans-Bold-6f" transform="translate(394.091797 0)"/>
     <use xlink:href="#DejaVuSans-Bold-72" transform="translate(462.792969 0)"/>
     <use xlink:href="#DejaVuSans-Bold-6d" transform="translate(512.109375 0)"/>
     <use xlink:href="#DejaVuSans-Bold-28" transform="translate(616.308594 0)"/>
     <use xlink:href="#DejaVuSans-Bold-78" transform="translate(662.011719 0)"/>
     <use xlink:href="#DejaVuSans-Bold-29" transform="translate(726.513672 0)"/>
    </g>
   </g>
   <g id="text_9">
    <!-- MultiHeadAttn(…) -->
    <g style="fill: #1a5fa8" transform="translate(174.837644 215.160662) scale(0.12 -0.12)">
     <defs>
      <path id="DejaVuSans-Bold-4d" d="M 588 4666 
L 2119 4666 
L 3181 2169 
L 4250 4666 
L 5778 4666 
L 5778 0 
L 4641 0 
L 4641 3413 
L 3566 897 
L 2803 897 
L 1728 3413 
L 1728 0 
L 588 0 
L 588 4666 
z
" transform="scale(0.015625)"/>
      <path id="DejaVuSans-Bold-75" d="M 500 1363 
L 500 3500 
L 1625 3500 
L 1625 3150 
Q 1625 2866 1622 2436 
Q 1619 2006 1619 1863 
Q 1619 1441 1641 1255 
Q 1663 1069 1716 984 
Q 1784 875 1895 815 
Q 2006 756 2150 756 
Q 2500 756 2700 1025 
Q 2900 1294 2900 1772 
L 2900 3500 
L 4019 3500 
L 4019 0 
L 2900 0 
L 2900 506 
Q 2647 200 2364 54 
Q 2081 -91 1741 -91 
Q 1134 -91 817 281 
Q 500 653 500 1363 
z
" transform="scale(0.015625)"/>
      <path id="DejaVuSans-Bold-6c" d="M 538 4863 
L 1656 4863 
L 1656 0 
L 538 0 
L 538 4863 
z
" transform="scale(0.015625)"/>
      <path id="DejaVuSans-Bold-74" d="M 1759 4494 
L 1759 3500 
L 2913 3500 
L 2913 2700 
L 1759 2700 
L 1759 1216 
Q 1759 972 1856 886 
Q 1953 800 2241 800 
L 2816 800 
L 2816 0 
L 1856 0 
Q 1194 0 917 276 
Q 641 553 641 1216 
L 641 2700 
L 84 2700 
L 84 3500 
L 641 3500 
L 641 4494 
L 1759 4494 
z
" transform="scale(0.015625)"/>
      <path id="DejaVuSans-Bold-69" d="M 538 3500 
L 1656 3500 
L 1656 0 
L 538 0 
L 538 3500 
z
M 538 4863 
L 1656 4863 
L 1656 3950 
L 538 3950 
L 538 4863 
z
" transform="scale(0.015625)"/>
      <path id="DejaVuSans-Bold-48" d="M 588 4666 
L 1791 4666 
L 1791 2888 
L 3566 2888 
L 3566 4666 
L 4769 4666 
L 4769 0 
L 3566 0 
L 3566 1978 
L 1791 1978 
L 1791 0 
L 588 0 
L 588 4666 
z
" transform="scale(0.015625)"/>
      <path id="DejaVuSans-Bold-64" d="M 2919 2988 
L 2919 4863 
L 4044 4863 
L 4044 0 
L 2919 0 
L 2919 506 
Q 2688 197 2409 53 
Q 2131 -91 1766 -91 
Q 1119 -91 703 423 
Q 288 938 288 1747 
Q 288 2556 703 3070 
Q 1119 3584 1766 3584 
Q 2128 3584 2408 3439 
Q 2688 3294 2919 2988 
z
M 2181 722 
Q 2541 722 2730 984 
Q 2919 1247 2919 1747 
Q 2919 2247 2730 2509 
Q 2541 2772 2181 2772 
Q 1825 2772 1636 2509 
Q 1447 2247 1447 1747 
Q 1447 1247 1636 984 
Q 1825 722 2181 722 
z
" transform="scale(0.015625)"/>
      <path id="DejaVuSans-Bold-41" d="M 3419 850 
L 1538 850 
L 1241 0 
L 31 0 
L 1759 4666 
L 3194 4666 
L 4922 0 
L 3713 0 
L 3419 850 
z
M 1838 1716 
L 3116 1716 
L 2478 3572 
L 1838 1716 
z
" transform="scale(0.015625)"/>
      <path id="DejaVuSans-Bold-6e" d="M 4056 2131 
L 4056 0 
L 2931 0 
L 2931 347 
L 2931 1631 
Q 2931 2084 2911 2256 
Q 2891 2428 2841 2509 
Q 2775 2619 2662 2680 
Q 2550 2741 2406 2741 
Q 2056 2741 1856 2470 
Q 1656 2200 1656 1722 
L 1656 0 
L 538 0 
L 538 3500 
L 1656 3500 
L 1656 2988 
Q 1909 3294 2193 3439 
Q 2478 3584 2822 3584 
Q 3428 3584 3742 3212 
Q 4056 2841 4056 2131 
z
" transform="scale(0.015625)"/>
      <path id="DejaVuSans-Bold-2026" d="M 4769 1209 
L 5894 1209 
L 5894 0 
L 4769 0 
L 4769 1209 
z
M 506 1209 
L 1631 1209 
L 1631 0 
L 506 0 
L 506 1209 
z
M 2638 1209 
L 3763 1209 
L 3763 0 
L 2638 0 
L 2638 1209 
z
" transform="scale(0.015625)"/>
     </defs>
     <use xlink:href="#DejaVuSans-Bold-4d"/>
     <use xlink:href="#DejaVuSans-Bold-75" transform="translate(99.511719 0)"/>
     <use xlink:href="#DejaVuSans-Bold-6c" transform="translate(170.703125 0)"/>
     <use xlink:href="#DejaVuSans-Bold-74" transform="translate(204.980469 0)"/>
     <use xlink:href="#DejaVuSans-Bold-69" transform="translate(252.783203 0)"/>
     <use xlink:href="#DejaVuSans-Bold-48" transform="translate(287.060547 0)"/>
     <use xlink:href="#DejaVuSans-Bold-65" transform="translate(370.751953 0)"/>
     <use xlink:href="#DejaVuSans-Bold-61" transform="translate(438.574219 0)"/>
     <use xlink:href="#DejaVuSans-Bold-64" transform="translate(506.054688 0)"/>
     <use xlink:href="#DejaVuSans-Bold-41" transform="translate(577.636719 0)"/>
     <use xlink:href="#DejaVuSans-Bold-74" transform="translate(655.029297 0)"/>
     <use xlink:href="#DejaVuSans-Bold-74" transform="translate(702.832031 0)"/>
     <use xlink:href="#DejaVuSans-Bold-6e" transform="translate(750.634766 0)"/>
     <use xlink:href="#DejaVuSans-Bold-28" transform="translate(821.826172 0)"/>
     <use xlink:href="#DejaVuSans-Bold-2026" transform="translate(867.529297 0)"/>
     <use xlink:href="#DejaVuSans-Bold-29" transform="translate(967.529297 0)"/>
    </g>
   </g>
   <g id="text_10">
    <!-- x + attn_out -->
    <g style="fill: #1a7a40" transform="translate(194.238269 277.358676) scale(0.12 -0.12)">
     <defs>
      <path id="DejaVuSans-Bold-2b" d="M 3053 4013 
L 3053 2375 
L 4684 2375 
L 4684 1638 
L 3053 1638 
L 3053 0 
L 2309 0 
L 2309 1638 
L 678 1638 
L 678 2375 
L 2309 2375 
L 2309 4013 
L 3053 4013 
z
" transform="scale(0.015625)"/>
      <path id="DejaVuSans-Bold-5f" d="M 3200 -916 
L 3200 -1509 
L 0 -1509 
L 0 -916 
L 3200 -916 
z
" transform="scale(0.015625)"/>
     </defs>
     <use xlink:href="#DejaVuSans-Bold-78"/>
     <use xlink:href="#DejaVuSans-Bold-20" transform="translate(64.501953 0)"/>
     <use xlink:href="#DejaVuSans-Bold-2b" transform="translate(99.316406 0)"/>
     <use xlink:href="#DejaVuSans-Bold-20" transform="translate(183.105469 0)"/>
     <use xlink:href="#DejaVuSans-Bold-61" transform="translate(217.919922 0)"/>
     <use xlink:href="#DejaVuSans-Bold-74" transform="translate(285.400391 0)"/>
     <use xlink:href="#DejaVuSans-Bold-74" transform="translate(333.203125 0)"/>
     <use xlink:href="#DejaVuSans-Bold-6e" transform="translate(381.005859 0)"/>
     <use xlink:href="#DejaVuSans-Bold-5f" transform="translate(452.197266 0)"/>
     <use xlink:href="#DejaVuSans-Bold-6f" transform="translate(502.197266 0)"/>
     <use xlink:href="#DejaVuSans-Bold-75" transform="translate(570.898438 0)"/>
     <use xlink:href="#DejaVuSans-Bold-74" transform="translate(642.089844 0)"/>
    </g>
   </g>
   <g id="text_11">
    <!-- Output -->
    <g style="fill: #b85000" transform="translate(211.957019 340.224191) scale(0.12 -0.12)">
     <defs>
      <path id="DejaVuSans-Bold-4f" d="M 2719 3878 
Q 2169 3878 1866 3472 
Q 1563 3066 1563 2328 
Q 1563 1594 1866 1187 
Q 2169 781 2719 781 
Q 3272 781 3575 1187 
Q 3878 1594 3878 2328 
Q 3878 3066 3575 3472 
Q 3272 3878 2719 3878 
z
M 2719 4750 
Q 3844 4750 4481 4106 
Q 5119 3463 5119 2328 
Q 5119 1197 4481 553 
Q 3844 -91 2719 -91 
Q 1597 -91 958 553 
Q 319 1197 319 2328 
Q 319 3463 958 4106 
Q 1597 4750 2719 4750 
z
" transform="scale(0.015625)"/>
      <path id="DejaVuSans-Bold-70" d="M 1656 506 
L 1656 -1331 
L 538 -1331 
L 538 3500 
L 1656 3500 
L 1656 2988 
Q 1888 3294 2169 3439 
Q 2450 3584 2816 3584 
Q 3463 3584 3878 3070 
Q 4294 2556 4294 1747 
Q 4294 938 3878 423 
Q 3463 -91 2816 -91 
Q 2450 -91 2169 54 
Q 1888 200 1656 506 
z
M 2400 2772 
Q 2041 2772 1848 2508 
Q 1656 2244 1656 1747 
Q 1656 1250 1848 986 
Q 2041 722 2400 722 
Q 2759 722 2948 984 
Q 3138 1247 3138 1747 
Q 3138 2247 2948 2509 
Q 2759 2772 2400 2772 
z
" transform="scale(0.015625)"/>
     </defs>
     <use xlink:href="#DejaVuSans-Bold-4f"/>
     <use xlink:href="#DejaVuSans-Bold-75" transform="translate(85.009766 0)"/>
     <use xlink:href="#DejaVuSans-Bold-74" transform="translate(156.201172 0)"/>
     <use xlink:href="#DejaVuSans-Bold-70" transform="translate(204.003906 0)"/>
     <use xlink:href="#DejaVuSans-Bold-75" transform="translate(275.585938 0)"/>
     <use xlink:href="#DejaVuSans-Bold-74" transform="translate(346.777344 0)"/>
    </g>
   </g>
   <g id="text_12">
    <!-- LayerNorm(x) -->
    <g style="fill: #b8960a" transform="translate(660.436106 152.57546) scale(0.12 -0.12)">
     <use xlink:href="#DejaVuSans-Bold-4c"/>
     <use xlink:href="#DejaVuSans-Bold-61" transform="translate(63.720703 0)"/>
     <use xlink:href="#DejaVuSans-Bold-79" transform="translate(128.076172 0)"/>
     <use xlink:href="#DejaVuSans-Bold-65" transform="translate(193.261719 0)"/>
     <use xlink:href="#DejaVuSans-Bold-72" transform="translate(261.083984 0)"/>
     <use xlink:href="#DejaVuSans-Bold-4e" transform="translate(310.400391 0)"/>
     <use xlink:href="#DejaVuSans-Bold-6f" transform="translate(394.091797 0)"/>
     <use xlink:href="#DejaVuSans-Bold-72" transform="translate(462.792969 0)"/>
     <use xlink:href="#DejaVuSans-Bold-6d" transform="translate(512.109375 0)"/>
     <use xlink:href="#DejaVuSans-Bold-28" transform="translate(616.308594 0)"/>
     <use xlink:href="#DejaVuSans-Bold-78" transform="translate(662.011719 0)"/>
     <use xlink:href="#DejaVuSans-Bold-29" transform="translate(726.513672 0)"/>
    </g>
   </g>
   <g id="text_13">
    <!-- MultiHeadAttn(…) -->
    <g style="fill: #1a5fa8" transform="translate(645.976106 215.160662) scale(0.12 -0.12)">
     <use xlink:href="#DejaVuSans-Bold-4d"/>
     <use xlink:href="#DejaVuSans-Bold-75" transform="translate(99.511719 0)"/>
     <use xlink:href="#DejaVuSans-Bold-6c" transform="translate(170.703125 0)"/>
     <use xlink:href="#DejaVuSans-Bold-74" transform="translate(204.980469 0)"/>
     <use xlink:href="#DejaVuSans-Bold-69" transform="translate(252.783203 0)"/>
     <use xlink:href="#DejaVuSans-Bold-48" transform="translate(287.060547 0)"/>
     <use xlink:href="#DejaVuSans-Bold-65" transform="translate(370.751953 0)"/>
     <use xlink:href="#DejaVuSans-Bold-61" transform="translate(438.574219 0)"/>
     <use xlink:href="#DejaVuSans-Bold-64" transform="translate(506.054688 0)"/>
     <use xlink:href="#DejaVuSans-Bold-41" transform="translate(577.636719 0)"/>
     <use xlink:href="#DejaVuSans-Bold-74" transform="translate(655.029297 0)"/>
     <use xlink:href="#DejaVuSans-Bold-74" transform="translate(702.832031 0)"/>
     <use xlink:href="#DejaVuSans-Bold-6e" transform="translate(750.634766 0)"/>
     <use xlink:href="#DejaVuSans-Bold-28" transform="translate(821.826172 0)"/>
     <use xlink:href="#DejaVuSans-Bold-2026" transform="translate(867.529297 0)"/>
     <use xlink:href="#DejaVuSans-Bold-29" transform="translate(967.529297 0)"/>
    </g>
   </g>
   <g id="text_14">
    <!-- LayerNorm(attn) -->
    <g style="fill: #1a7a40" transform="translate(650.250168 277.638989) scale(0.12 -0.12)">
     <use xlink:href="#DejaVuSans-Bold-4c"/>
     <use xlink:href="#DejaVuSans-Bold-61" transform="translate(63.720703 0)"/>
     <use xlink:href="#DejaVuSans-Bold-79" transform="translate(128.076172 0)"/>
     <use xlink:href="#DejaVuSans-Bold-65" transform="translate(193.261719 0)"/>
     <use xlink:href="#DejaVuSans-Bold-72" transform="translate(261.083984 0)"/>
     <use xlink:href="#DejaVuSans-Bold-4e" transform="translate(310.400391 0)"/>
     <use xlink:href="#DejaVuSans-Bold-6f" transform="translate(394.091797 0)"/>
     <use xlink:href="#DejaVuSans-Bold-72" transform="translate(462.792969 0)"/>
     <use xlink:href="#DejaVuSans-Bold-6d" transform="translate(512.109375 0)"/>
     <use xlink:href="#DejaVuSans-Bold-28" transform="translate(616.308594 0)"/>
     <use xlink:href="#DejaVuSans-Bold-61" transform="translate(662.011719 0)"/>
     <use xlink:href="#DejaVuSans-Bold-74" transform="translate(729.492188 0)"/>
     <use xlink:href="#DejaVuSans-Bold-74" transform="translate(777.294922 0)"/>
     <use xlink:href="#DejaVuSans-Bold-6e" transform="translate(825.097656 0)"/>
     <use xlink:href="#DejaVuSans-Bold-29" transform="translate(896.289062 0)"/>
    </g>
   </g>
   <g id="text_15">
    <!-- x + ln_out -->
    <g style="fill: #2d7a3a" transform="translate(673.104543 340.057316) scale(0.12 -0.12)">
     <use xlink:href="#DejaVuSans-Bold-78"/>
     <use xlink:href="#DejaVuSans-Bold-20" transform="translate(64.501953 0)"/>
     <use xlink:href="#DejaVuSans-Bold-2b" transform="translate(99.316406 0)"/>
     <use xlink:href="#DejaVuSans-Bold-20" transform="translate(183.105469 0)"/>
     <use xlink:href="#DejaVuSans-Bold-6c" transform="translate(217.919922 0)"/>
     <use xlink:href="#DejaVuSans-Bold-6e" transform="translate(252.197266 0)"/>
     <use xlink:href="#DejaVuSans-Bold-5f" transform="translate(323.388672 0)"/>
     <use xlink:href="#DejaVuSans-Bold-6f" transform="translate(373.388672 0)"/>
     <use xlink:href="#DejaVuSans-Bold-75" transform="translate(442.089844 0)"/>
     <use xlink:href="#DejaVuSans-Bold-74" transform="translate(513.28125 0)"/>
    </g>
   </g>
   <g id="text_16">
    <!-- Output -->
    <g style="fill: #b85000" transform="translate(683.095481 402.755956) scale(0.12 -0.12)">
     <use xlink:href="#DejaVuSans-Bold-4f"/>
     <use xlink:href="#DejaVuSans-Bold-75" transform="translate(85.009766 0)"/>
     <use xlink:href="#DejaVuSans-Bold-74" transform="translate(156.201172 0)"/>
     <use xlink:href="#DejaVuSans-Bold-70" transform="translate(204.003906 0)"/>
     <use xlink:href="#DejaVuSans-Bold-75" transform="translate(275.585938 0)"/>
     <use xlink:href="#DejaVuSans-Bold-74" transform="translate(346.777344 0)"/>
    </g>
   </g>
  </g>
 </g>
 <defs>
  <clipPath id="p6fb20d4c5e">
   <rect x="7.2" y="7.2" width="928" height="604"/>
  </clipPath>
 </defs>
</svg>
